<svg width="27" height="27" viewBox="0 0 27 27" fill="none" xmlns="http://www.w3.org/2000/svg">
<path d="M13.4 7.02643V7.23993L13.5641 7.10325L16.7422 4.45484H20.9033H21.0033V4.35484V0V-0.1H20.9033H10.4517H10.3517V0V4.35484V4.45484H10.4517H13.4V7.02643ZM16.3269 3.40705L14.471 4.95361V3.48387V3.38387H14.371H11.4226V0.970968H19.9323V3.38387H16.3909H16.3547L16.3269 3.40705Z" fill="#00B4B1" stroke="#00B4B1" stroke-width="0.2"/>
<path d="M12.1936 1.74194H13.0646V2.61291H12.1936V1.74194Z" fill="#00B4B1"/>
<path d="M13.9354 1.74194H17.4193V2.61291H13.9354V1.74194Z" fill="#00B4B1"/>
<path d="M18.2903 1.74194H19.1613V2.61291H18.2903V1.74194Z" fill="#00B4B1"/>
<mask id="path-5-outside-1_44_885" maskUnits="userSpaceOnUse" x="-1" y="5.53223" width="29" height="22" fill="black">
<rect fill="white" x="-1" y="5.53223" width="29" height="22"/>
<path d="M22.1682 26.129L21.8161 22.6037C23.2701 22.3738 24.3871 21.1148 24.3871 19.5967V13.9355H22.6452V13.3337C22.6452 12.7417 22.3198 12.2101 21.7967 11.9375C22.3168 11.4597 22.6452 10.7765 22.6452 10.0161V9.14513C22.6452 7.70408 21.4733 6.53223 20.0323 6.53223C18.5912 6.53223 17.4194 7.70408 17.4194 9.14513V10.0161C17.4194 11.1435 18.1383 12.1034 19.1409 12.4691L16.8036 14.8064H14.3614C14.3127 14.0805 13.8141 13.4477 13.1077 13.2457L11.3226 12.7362V11.9583C11.8557 11.4797 12.1935 10.7878 12.1935 10.0161V9.14513C12.1935 7.70408 11.0217 6.53223 9.58065 6.53223C8.13959 6.53223 6.96774 7.70408 6.96774 9.14513V10.0161C6.96774 10.7873 7.30562 11.4793 7.83871 11.9583V12.7366L6.05361 13.2461C5.3098 13.4581 4.79032 14.147 4.79032 14.921V16.5484H3.04839V19.1613H3.91935V26.129H0V27H27V26.129H22.1682ZM18.2903 19.1613V17.1642L21.3761 14.0783C21.5992 13.8553 21.7319 13.5557 21.7616 13.2431C21.7655 13.2735 21.7742 13.3022 21.7742 13.3337V18.7258C21.7742 19.446 21.1879 20.0322 20.4677 20.0322H16.9839V19.1613H18.2903ZM16.9839 22.6451H19.2028L19.5511 26.129H16.9839V22.6451ZM20.078 22.6451H20.9447L21.293 26.129H20.4263L20.078 22.6451ZM22.6452 18.7258V14.8064H23.5161V19.5967C23.5161 20.7973 22.5393 21.7742 21.3387 21.7742H16.9839V20.9032H20.4677C21.6683 20.9032 22.6452 19.9263 22.6452 18.7258ZM18.2903 10.0161V9.14513C18.2903 8.18443 19.0716 7.40319 20.0323 7.40319C20.993 7.40319 21.7742 8.18443 21.7742 9.14513V10.0161C21.7742 10.9768 20.993 11.758 20.0323 11.758C19.0716 11.758 18.2903 10.9768 18.2903 10.0161ZM17.1642 15.6774L20.0697 12.7719C20.1607 12.6809 20.2866 12.629 20.415 12.629C20.6842 12.629 20.9032 12.848 20.9032 13.1172C20.9032 13.2457 20.8513 13.3715 20.7603 13.4625L17.6745 16.5484H13.0645C12.8242 16.5484 12.629 16.3532 12.629 16.1129C12.629 15.8726 12.8242 15.6774 13.0645 15.6774H17.1642ZM7.83871 9.14513C7.83871 8.18443 8.61994 7.40319 9.58065 7.40319C10.5413 7.40319 11.3226 8.18443 11.3226 9.14513V10.0161C11.3226 10.9768 10.5413 11.758 9.58065 11.758C8.61994 11.758 7.83871 10.9768 7.83871 10.0161V9.14513ZM9.58065 12.629C9.88642 12.629 10.1786 12.5733 10.4516 12.4765V12.9443C10.3436 13.1111 10.0436 13.5 9.58065 13.5C9.11773 13.5 8.8177 13.1111 8.70968 12.9443V12.4765C8.98271 12.5733 9.27487 12.629 9.58065 12.629ZM5.66129 14.921C5.66129 14.5338 5.92135 14.1898 6.29283 14.0834L8.08686 13.571C8.33947 13.9002 8.83109 14.3709 9.58065 14.3709C10.3302 14.3709 10.8218 13.9002 11.0744 13.5706L12.8685 14.083C13.2021 14.1785 13.4347 14.4685 13.4813 14.806H13.0645C12.3443 14.806 11.7581 15.3922 11.7581 16.1124C11.7581 16.2658 11.7893 16.4112 11.8382 16.5479H5.66129V14.921ZM3.91935 17.4193H17.4194V18.2903H3.91935V17.4193ZM4.79032 20.9032H6.09677V20.0322H4.79032V19.1613H16.1129V20.0322H6.96774V20.9032H16.1129V26.129H15.0757L14.2047 24.3871H6.69854L5.82757 26.129H4.79032V20.9032ZM14.1018 26.129H6.80146L7.23694 25.258H13.6663L14.1018 26.129Z"/>
</mask>
<path d="M22.1682 26.129L21.8161 22.6037C23.2701 22.3738 24.3871 21.1148 24.3871 19.5967V13.9355H22.6452V13.3337C22.6452 12.7417 22.3198 12.2101 21.7967 11.9375C22.3168 11.4597 22.6452 10.7765 22.6452 10.0161V9.14513C22.6452 7.70408 21.4733 6.53223 20.0323 6.53223C18.5912 6.53223 17.4194 7.70408 17.4194 9.14513V10.0161C17.4194 11.1435 18.1383 12.1034 19.1409 12.4691L16.8036 14.8064H14.3614C14.3127 14.0805 13.8141 13.4477 13.1077 13.2457L11.3226 12.7362V11.9583C11.8557 11.4797 12.1935 10.7878 12.1935 10.0161V9.14513C12.1935 7.70408 11.0217 6.53223 9.58065 6.53223C8.13959 6.53223 6.96774 7.70408 6.96774 9.14513V10.0161C6.96774 10.7873 7.30562 11.4793 7.83871 11.9583V12.7366L6.05361 13.2461C5.3098 13.4581 4.79032 14.147 4.79032 14.921V16.5484H3.04839V19.1613H3.91935V26.129H0V27H27V26.129H22.1682ZM18.2903 19.1613V17.1642L21.3761 14.0783C21.5992 13.8553 21.7319 13.5557 21.7616 13.2431C21.7655 13.2735 21.7742 13.3022 21.7742 13.3337V18.7258C21.7742 19.446 21.1879 20.0322 20.4677 20.0322H16.9839V19.1613H18.2903ZM16.9839 22.6451H19.2028L19.5511 26.129H16.9839V22.6451ZM20.078 22.6451H20.9447L21.293 26.129H20.4263L20.078 22.6451ZM22.6452 18.7258V14.8064H23.5161V19.5967C23.5161 20.7973 22.5393 21.7742 21.3387 21.7742H16.9839V20.9032H20.4677C21.6683 20.9032 22.6452 19.9263 22.6452 18.7258ZM18.2903 10.0161V9.14513C18.2903 8.18443 19.0716 7.40319 20.0323 7.40319C20.993 7.40319 21.7742 8.18443 21.7742 9.14513V10.0161C21.7742 10.9768 20.993 11.758 20.0323 11.758C19.0716 11.758 18.2903 10.9768 18.2903 10.0161ZM17.1642 15.6774L20.0697 12.7719C20.1607 12.6809 20.2866 12.629 20.415 12.629C20.6842 12.629 20.9032 12.848 20.9032 13.1172C20.9032 13.2457 20.8513 13.3715 20.7603 13.4625L17.6745 16.5484H13.0645C12.8242 16.5484 12.629 16.3532 12.629 16.1129C12.629 15.8726 12.8242 15.6774 13.0645 15.6774H17.1642ZM7.83871 9.14513C7.83871 8.18443 8.61994 7.40319 9.58065 7.40319C10.5413 7.40319 11.3226 8.18443 11.3226 9.14513V10.0161C11.3226 10.9768 10.5413 11.758 9.58065 11.758C8.61994 11.758 7.83871 10.9768 7.83871 10.0161V9.14513ZM9.58065 12.629C9.88642 12.629 10.1786 12.5733 10.4516 12.4765V12.9443C10.3436 13.1111 10.0436 13.5 9.58065 13.5C9.11773 13.5 8.8177 13.1111 8.70968 12.9443V12.4765C8.98271 12.5733 9.27487 12.629 9.58065 12.629ZM5.66129 14.921C5.66129 14.5338 5.92135 14.1898 6.29283 14.0834L8.08686 13.571C8.33947 13.9002 8.83109 14.3709 9.58065 14.3709C10.3302 14.3709 10.8218 13.9002 11.0744 13.5706L12.8685 14.083C13.2021 14.1785 13.4347 14.4685 13.4813 14.806H13.0645C12.3443 14.806 11.7581 15.3922 11.7581 16.1124C11.7581 16.2658 11.7893 16.4112 11.8382 16.5479H5.66129V14.921ZM3.91935 17.4193H17.4194V18.2903H3.91935V17.4193ZM4.79032 20.9032H6.09677V20.0322H4.79032V19.1613H16.1129V20.0322H6.96774V20.9032H16.1129V26.129H15.0757L14.2047 24.3871H6.69854L5.82757 26.129H4.79032V20.9032ZM14.1018 26.129H6.80146L7.23694 25.258H13.6663L14.1018 26.129Z" fill="#00B4B1"/>
<path d="M22.1682 26.129L21.8161 22.6037C23.2701 22.3738 24.3871 21.1148 24.3871 19.5967V13.9355H22.6452V13.3337C22.6452 12.7417 22.3198 12.2101 21.7967 11.9375C22.3168 11.4597 22.6452 10.7765 22.6452 10.0161V9.14513C22.6452 7.70408 21.4733 6.53223 20.0323 6.53223C18.5912 6.53223 17.4194 7.70408 17.4194 9.14513V10.0161C17.4194 11.1435 18.1383 12.1034 19.1409 12.4691L16.8036 14.8064H14.3614C14.3127 14.0805 13.8141 13.4477 13.1077 13.2457L11.3226 12.7362V11.9583C11.8557 11.4797 12.1935 10.7878 12.1935 10.0161V9.14513C12.1935 7.70408 11.0217 6.53223 9.58065 6.53223C8.13959 6.53223 6.96774 7.70408 6.96774 9.14513V10.0161C6.96774 10.7873 7.30562 11.4793 7.83871 11.9583V12.7366L6.05361 13.2461C5.3098 13.4581 4.79032 14.147 4.79032 14.921V16.5484H3.04839V19.1613H3.91935V26.129H0V27H27V26.129H22.1682ZM18.2903 19.1613V17.1642L21.3761 14.0783C21.5992 13.8553 21.7319 13.5557 21.7616 13.2431C21.7655 13.2735 21.7742 13.3022 21.7742 13.3337V18.7258C21.7742 19.446 21.1879 20.0322 20.4677 20.0322H16.9839V19.1613H18.2903ZM16.9839 22.6451H19.2028L19.5511 26.129H16.9839V22.6451ZM20.078 22.6451H20.9447L21.293 26.129H20.4263L20.078 22.6451ZM22.6452 18.7258V14.8064H23.5161V19.5967C23.5161 20.7973 22.5393 21.7742 21.3387 21.7742H16.9839V20.9032H20.4677C21.6683 20.9032 22.6452 19.9263 22.6452 18.7258ZM18.2903 10.0161V9.14513C18.2903 8.18443 19.0716 7.40319 20.0323 7.40319C20.993 7.40319 21.7742 8.18443 21.7742 9.14513V10.0161C21.7742 10.9768 20.993 11.758 20.0323 11.758C19.0716 11.758 18.2903 10.9768 18.2903 10.0161ZM17.1642 15.6774L20.0697 12.7719C20.1607 12.6809 20.2866 12.629 20.415 12.629C20.6842 12.629 20.9032 12.848 20.9032 13.1172C20.9032 13.2457 20.8513 13.3715 20.7603 13.4625L17.6745 16.5484H13.0645C12.8242 16.5484 12.629 16.3532 12.629 16.1129C12.629 15.8726 12.8242 15.6774 13.0645 15.6774H17.1642ZM7.83871 9.14513C7.83871 8.18443 8.61994 7.40319 9.58065 7.40319C10.5413 7.40319 11.3226 8.18443 11.3226 9.14513V10.0161C11.3226 10.9768 10.5413 11.758 9.58065 11.758C8.61994 11.758 7.83871 10.9768 7.83871 10.0161V9.14513ZM9.58065 12.629C9.88642 12.629 10.1786 12.5733 10.4516 12.4765V12.9443C10.3436 13.1111 10.0436 13.5 9.58065 13.5C9.11773 13.5 8.8177 13.1111 8.70968 12.9443V12.4765C8.98271 12.5733 9.27487 12.629 9.58065 12.629ZM5.66129 14.921C5.66129 14.5338 5.92135 14.1898 6.29283 14.0834L8.08686 13.571C8.33947 13.9002 8.83109 14.3709 9.58065 14.3709C10.3302 14.3709 10.8218 13.9002 11.0744 13.5706L12.8685 14.083C13.2021 14.1785 13.4347 14.4685 13.4813 14.806H13.0645C12.3443 14.806 11.7581 15.3922 11.7581 16.1124C11.7581 16.2658 11.7893 16.4112 11.8382 16.5479H5.66129V14.921ZM3.91935 17.4193H17.4194V18.2903H3.91935V17.4193ZM4.79032 20.9032H6.09677V20.0322H4.79032V19.1613H16.1129V20.0322H6.96774V20.9032H16.1129V26.129H15.0757L14.2047 24.3871H6.69854L5.82757 26.129H4.79032V20.9032ZM14.1018 26.129H6.80146L7.23694 25.258H13.6663L14.1018 26.129Z" stroke="#00B4B1" stroke-width="0.4" mask="url(#path-5-outside-1_44_885)"/>
</svg>
