<svg width="27" height="29" viewBox="0 0 27 29" fill="none" xmlns="http://www.w3.org/2000/svg">
<path d="M23.9833 7.47109L23.9831 7.47109C23.7056 7.47104 23.4343 7.55329 23.2035 7.70744C22.9727 7.86158 22.7929 8.0807 22.6866 8.33709C22.5804 8.59347 22.5526 8.8756 22.6067 9.14779C22.6608 9.41999 22.7944 9.67002 22.9906 9.86628C23.1868 10.0625 23.4368 10.1962 23.709 10.2503C23.9812 10.3045 24.2633 10.2767 24.5197 10.1705C24.7761 10.0644 24.9953 9.88452 25.1495 9.65377C25.3037 9.42302 25.386 9.15173 25.386 8.87421L25.386 8.87406C25.3856 8.50213 25.2377 8.14554 24.9747 7.88253C24.7117 7.61951 24.3552 7.47155 23.9833 7.47109ZM24.2822 9.17345C24.2044 9.25131 24.0994 9.29579 23.9895 9.29764L23.983 9.29764C23.8993 9.29767 23.8174 9.27287 23.7477 9.22636C23.6781 9.17985 23.6238 9.11374 23.5917 9.03637C23.5596 8.959 23.5512 8.87386 23.5675 8.79171C23.5839 8.70956 23.6242 8.63409 23.6834 8.57486C23.7426 8.51563 23.818 8.47528 23.9002 8.45893C23.9823 8.44258 24.0675 8.45095 24.1449 8.483C24.2222 8.51504 24.2884 8.56931 24.3349 8.63895C24.3814 8.70855 24.4063 8.79038 24.4063 8.87409C24.4062 8.98638 24.3616 9.09404 24.2822 9.17345Z" fill="#00B4B1" stroke="#00B4B1" stroke-width="0.3"/>
<path d="M9.42042 4.7017L9.42055 4.7017C9.74221 4.70184 10.0567 4.60658 10.3242 4.42798C10.5917 4.24937 10.8002 3.99545 10.9234 3.69832C11.0466 3.40119 11.0789 3.0742 11.0162 2.7587C10.9536 2.44321 10.7987 2.15339 10.5714 1.9259C10.344 1.69841 10.0542 1.54346 9.73874 1.48066C9.42327 1.41786 9.09627 1.45002 8.79909 1.57308C8.5019 1.69615 8.24789 1.90458 8.06917 2.17201C7.89046 2.43945 7.79507 2.75388 7.79507 3.07553L7.79507 3.07567C7.79545 3.50668 7.96679 3.91995 8.2715 4.22479C8.57621 4.52962 8.9894 4.70114 9.42042 4.7017ZM9.42073 2.42905C9.54861 2.42895 9.67365 2.46678 9.78003 2.53776C9.88641 2.60873 9.96935 2.70967 10.0184 2.82779C10.0674 2.94591 10.0802 3.07591 10.0554 3.20135C10.0305 3.32678 9.96894 3.44202 9.87855 3.53249C9.78815 3.62295 9.67296 3.68457 9.54755 3.70956C9.42213 3.73454 9.29211 3.72177 9.17396 3.67285C9.0558 3.62394 8.9548 3.54108 8.88374 3.43475C8.8127 3.32846 8.77478 3.20349 8.77476 3.07564C8.77488 2.90428 8.84297 2.73996 8.96409 2.61875C9.08522 2.49753 9.24948 2.42931 9.42084 2.42905L9.42061 2.27905L9.42073 2.42905Z" fill="#00B4B1" stroke="#00B4B1" stroke-width="0.3"/>
<path d="M13.6501 14.7564L13.6503 14.7564C14.0813 14.7558 14.4945 14.5843 14.7992 14.2794C15.1039 13.9746 15.2753 13.5613 15.2757 13.1303V13.1301C15.2755 12.8087 15.1801 12.4944 15.0014 12.2272C14.8227 11.96 14.5687 11.7517 14.2717 11.6288C13.9747 11.5059 13.6478 11.4738 13.3326 11.5366C13.0173 11.5994 12.7277 11.7543 12.5004 11.9816C12.2732 12.209 12.1184 12.4986 12.0557 12.8139C11.9931 13.1292 12.0253 13.4561 12.1484 13.753C12.2714 14.05 12.4798 14.3039 12.7471 14.4825C13.0144 14.661 13.3286 14.7564 13.6501 14.7564ZM14.1066 13.587C13.9855 13.7082 13.8212 13.7764 13.6498 13.7767C13.522 13.7767 13.397 13.7389 13.2907 13.668C13.1843 13.597 13.1014 13.4961 13.0524 13.3779C13.0034 13.2598 12.9905 13.1298 13.0154 13.0044C13.0403 12.8789 13.1018 12.7637 13.1922 12.6732C13.2826 12.5828 13.3978 12.5212 13.5232 12.4962C13.6486 12.4712 13.7786 12.484 13.8968 12.5329C14.0149 12.5818 14.1159 12.6647 14.187 12.771C14.258 12.8773 14.296 13.0023 14.296 13.1302C14.2958 13.3015 14.2277 13.4658 14.1066 13.587Z" fill="#00B4B1" stroke="#00B4B1" stroke-width="0.3"/>
<path d="M3.90723 9.31327L3.90737 9.31327C4.22902 9.31341 4.54349 9.21815 4.811 9.03955C5.07852 8.86095 5.28705 8.60702 5.41024 8.30989C5.53343 8.01276 5.56573 7.68577 5.50306 7.37028C5.44039 7.05479 5.28557 6.76497 5.05817 6.53747C4.83077 6.30998 4.54102 6.15504 4.22556 6.09223C3.91009 6.02943 3.58309 6.0616 3.2859 6.18466C2.98872 6.30772 2.73471 6.51615 2.55599 6.78358C2.37728 7.05102 2.28188 7.36545 2.28188 7.68711L2.28188 7.68724C2.28228 8.11825 2.45363 8.53151 2.75833 8.83634C3.06304 9.14117 3.47622 9.3127 3.90723 9.31327ZM3.90755 7.04063C4.03543 7.04053 4.16047 7.07836 4.26685 7.14933C4.37323 7.22031 4.45617 7.32124 4.50518 7.43936C4.55419 7.55748 4.56706 7.68748 4.54217 7.81292C4.51729 7.93836 4.45575 8.0536 4.36536 8.14406C4.27497 8.23452 4.15978 8.29614 4.03436 8.32113C3.90894 8.34611 3.77893 8.33334 3.66077 8.28442C3.54261 8.23551 3.44162 8.15265 3.37056 8.04632C3.29952 7.94003 3.26159 7.81506 3.26157 7.68721C3.26169 7.51585 3.32979 7.35154 3.45091 7.23032C3.57203 7.1091 3.73629 7.04088 3.90765 7.04063L3.90743 6.89063L3.90755 7.04063Z" fill="#00B4B1" stroke="#00B4B1" stroke-width="0.3"/>
<mask id="path-5-outside-1_49_341" maskUnits="userSpaceOnUse" x="-0.130859" y="-0.433594" width="27" height="30" fill="black">
<rect fill="white" x="-0.130859" y="-0.433594" width="27" height="30"/>
<path d="M26.1264 8.79062C26.0535 7.66914 25.1372 6.79081 24.0404 6.79081C23.5335 6.79188 23.045 6.98025 22.6686 7.31972C21.5549 6.23183 20.1645 5.29477 18.6254 4.5982C16.8802 3.80835 15.0658 3.39085 13.3784 3.39085C12.913 3.39509 12.448 3.42394 11.9856 3.47728C12.0088 3.31159 12.015 3.14397 12.004 2.97703C11.9161 1.62525 10.8127 0.566406 9.49208 0.566406C8.17145 0.566406 7.06786 1.62525 6.98018 2.97646C6.94869 3.59491 7.13509 4.20481 7.50694 4.69998L7.57712 4.79384C6.9553 5.14568 6.35619 5.53621 5.78331 5.96312C5.5519 5.71618 5.27246 5.51913 4.96214 5.3841C4.65181 5.24906 4.31717 5.17888 3.97874 5.17786C2.65805 5.17786 1.55452 6.23704 1.4669 7.58792C1.43543 8.20638 1.62183 8.81629 1.99366 9.31149L2.39881 9.85332C1.43875 11.6997 0.869169 13.948 0.869169 15.9122C0.865669 17.5572 1.18665 19.1867 1.81373 20.7075C2.44081 22.2283 3.36168 23.6104 4.52363 24.7748C5.68557 25.9393 7.06576 26.8631 8.5852 27.4934C10.1046 28.1237 11.7335 28.4481 13.3785 28.4481C15.0234 28.4481 16.6523 28.1237 18.1717 27.4934C19.6911 26.8631 21.0713 25.9393 22.2333 24.7748C23.3952 23.6104 24.3161 22.2283 24.9432 20.7075C25.5703 19.1867 25.8912 17.5572 25.8877 15.9122C25.8877 14.5181 25.5326 12.4273 25.0689 11.0498L25.6895 10.2201C26.0014 9.81119 26.1564 9.30402 26.1264 8.79062ZM7.6584 3.0211C7.71504 2.14883 8.41653 1.24609 9.49208 1.24609C10.5676 1.24609 11.269 2.14861 11.3258 3.022C11.351 3.47903 11.2116 3.92997 10.9328 4.29302L9.49208 6.22022L8.05375 4.29636C7.77708 3.93049 7.63721 3.47931 7.6584 3.0211ZM2.14528 7.63255C2.20192 6.76028 2.90336 5.85755 3.97891 5.85755C5.05446 5.85755 5.75584 6.76006 5.81259 7.63351C5.83788 8.09053 5.69847 8.54146 5.41968 8.90447L3.97874 10.8317L2.54058 8.90781C2.26392 8.54194 2.12407 8.09076 2.14528 7.63255ZM2.85454 10.4629L3.70686 11.6027C3.73851 11.645 3.77959 11.6794 3.82684 11.7031C3.87409 11.7267 3.9262 11.7391 3.97905 11.7391C4.0319 11.7391 4.08402 11.7267 4.13127 11.7031C4.17852 11.6794 4.21959 11.645 4.25124 11.6027L5.96382 9.31172C6.26711 8.91649 6.44917 8.44174 6.4879 7.94506C6.52664 7.44839 6.4204 6.95114 6.18206 6.51367C6.75772 6.08431 7.36108 5.69339 7.98822 5.34348L9.21998 6.99104C9.25162 7.03337 9.2927 7.06773 9.33995 7.0914C9.3872 7.11507 9.43932 7.12739 9.49217 7.12739C9.54501 7.12739 9.59713 7.11507 9.64438 7.0914C9.69163 7.06773 9.73271 7.03337 9.76435 6.99104L11.4771 4.7001C11.5967 4.54058 11.6985 4.3684 11.7806 4.18665C11.9218 4.16858 12.0629 4.1517 12.202 4.1376L13.6293 6.19682C13.7947 6.43435 13.8799 6.71845 13.8726 7.00777C13.8653 7.29709 13.7659 7.57653 13.5888 7.80542L13.1856 8.32895C13.0873 8.4562 12.9574 8.5556 12.8089 8.61734C12.6604 8.67908 12.4984 8.70103 12.3388 8.68103L11.8815 8.62257C11.5592 8.58122 11.2319 8.63552 10.9403 8.7787C10.6487 8.92188 10.4056 9.14764 10.2412 9.42789C10.1486 9.58575 10.0117 9.71294 9.8475 9.79366C9.68327 9.87439 9.49894 9.9051 9.3174 9.88198L8.26151 9.74774C7.94569 9.70667 7.62468 9.75445 7.33453 9.88573C7.04437 10.017 6.79656 10.2266 6.61893 10.4909C6.45271 10.7365 6.36174 11.0252 6.35717 11.3217C6.35261 11.6182 6.43464 11.9096 6.59321 12.1601L7.29074 13.2626C7.4193 13.4646 7.59681 13.6308 7.8068 13.7459C8.01679 13.8609 8.25244 13.921 8.49187 13.9206C8.72382 13.9208 8.95221 13.8634 9.1566 13.7538L9.8748 13.3686C10.2267 13.1799 10.798 13.1781 11.2099 13.3478C11.2492 13.8568 11.4316 14.3443 11.736 14.7541L13.4491 17.0458C13.4807 17.0881 13.5218 17.1225 13.569 17.1461C13.6163 17.1698 13.6684 17.1821 13.7212 17.1821C13.7741 17.1821 13.8262 17.1698 13.8735 17.1461C13.9207 17.1225 13.9618 17.0881 13.9934 17.0458L14.8622 15.8836L14.9727 16.035C15.0195 16.1002 15.0696 16.1644 15.1218 16.2258L15.994 17.2532C16.0329 17.299 16.0621 17.3522 16.0798 17.4096C16.0975 17.467 16.1033 17.5274 16.097 17.5871C16.0907 17.6468 16.0723 17.7046 16.043 17.757C16.0136 17.8095 15.9739 17.8554 15.9263 17.892L14.6045 18.9084C14.2527 19.1778 13.9939 19.5505 13.8643 19.9742L13.4237 21.4045C13.3891 21.5173 13.3324 21.6221 13.2569 21.7128L12.8282 22.229C12.5089 22.6127 12.3111 23.0829 12.2603 23.5795C12.2479 23.7003 12.2032 23.8155 12.1309 23.913C12.0587 24.0105 11.9614 24.0868 11.8495 24.1338C11.8026 24.1535 11.7518 24.1622 11.7011 24.1595C11.6503 24.1567 11.6008 24.1425 11.5563 24.1179C11.5117 24.0932 11.4734 24.0589 11.4441 24.0173C11.4147 23.9758 11.3952 23.9281 11.3869 23.8779L10.983 21.4526C10.9326 21.1512 10.8096 20.8666 10.6246 20.6234L9.1451 18.6817C9.01217 18.5076 8.91388 18.3095 8.85556 18.0983L8.36726 16.3352C8.28093 16.0262 8.11618 15.7449 7.88899 15.5184C7.6618 15.292 7.37991 15.1282 7.07069 15.0429L6.96455 15.014C6.74976 14.9551 6.55265 14.8446 6.39044 14.692L5.47972 13.8336C5.33465 13.697 5.21019 13.54 5.11025 13.3676C4.89831 13.0022 4.57755 12.7121 4.19276 12.5379C3.80796 12.3636 3.37835 12.3139 2.96391 12.3956C2.95063 12.3982 2.93752 12.4016 2.92466 12.4058L2.01212 12.7026C2.22502 11.9322 2.50696 11.1826 2.85454 10.4629ZM11.8877 13.0756C11.9443 12.2033 12.6458 11.3006 13.7213 11.3006C14.7969 11.3006 15.4983 12.2031 15.555 13.0766C15.5803 13.5336 15.4409 13.9845 15.1621 14.3475L13.7213 16.2747L12.283 14.3509C12.0063 13.985 11.8665 13.5338 11.8877 13.0756ZM25.208 15.9122C25.208 22.4418 19.9013 27.7539 13.3784 27.7539C6.85557 27.7539 1.54886 22.4418 1.54886 15.9122C1.5544 15.094 1.64568 14.2786 1.82118 13.4794L3.11446 13.0588C3.38752 13.009 3.66929 13.0447 3.92129 13.161C4.1733 13.2773 4.38326 13.4686 4.52249 13.7087C4.65542 13.938 4.82091 14.1467 5.01379 14.3284L5.92457 15.1864C6.16796 15.4153 6.46365 15.5811 6.78585 15.6694L6.89199 15.6983C7.08765 15.7524 7.266 15.8561 7.40972 15.9995C7.55344 16.1428 7.65764 16.3209 7.71221 16.5164L8.20051 18.2799C8.28184 18.5746 8.41898 18.8509 8.60447 19.094L10.084 21.0357C10.202 21.1908 10.2804 21.3724 10.3126 21.5646L10.7164 23.9899C10.7413 24.1414 10.8002 24.2852 10.8887 24.4106C10.9772 24.5361 11.093 24.6398 11.2274 24.714C11.3618 24.7881 11.5112 24.8309 11.6645 24.839C11.8178 24.8471 11.9709 24.8203 12.1123 24.7607C12.3368 24.6665 12.5317 24.5136 12.6767 24.3181C12.8216 24.1226 12.9113 23.8916 12.9362 23.6495C12.9733 23.2868 13.1176 22.9434 13.3508 22.6632L13.7796 22.1471C13.9124 21.9875 14.0122 21.803 14.0731 21.6045L14.5135 20.1742C14.6019 19.8852 14.7784 19.6311 15.0183 19.4473L16.3407 18.4309C16.4613 18.3381 16.5618 18.2219 16.6361 18.0892C16.7104 17.9565 16.757 17.81 16.773 17.6588C16.7891 17.5075 16.7742 17.3546 16.7294 17.2092C16.6846 17.0639 16.6107 16.9291 16.5122 16.8132L15.64 15.7859C15.5999 15.7386 15.5613 15.6892 15.5237 15.6368L15.2883 15.314L15.7064 14.7548C16.0824 14.2619 16.2693 13.6505 16.2331 13.0315C16.1453 11.6798 15.0419 10.6209 13.7212 10.6209C12.5278 10.6209 11.5122 11.4856 11.2625 12.6493C10.698 12.4829 10.0221 12.519 9.55365 12.77L8.83545 13.1552C8.67123 13.2425 8.48015 13.2646 8.30031 13.2173C8.12048 13.1699 7.96511 13.0565 7.86519 12.8996L7.16761 11.7971C7.07974 11.6582 7.03428 11.4968 7.03681 11.3325C7.03933 11.1682 7.08973 11.0082 7.18182 10.8722C7.28931 10.7122 7.43927 10.5854 7.61485 10.5059C7.79044 10.4265 7.98469 10.3975 8.17581 10.4224L9.2317 10.5566C9.54521 10.5967 9.86359 10.5437 10.1473 10.4043C10.4309 10.2649 10.6674 10.0453 10.8272 9.7726C10.9241 9.60707 11.0676 9.4737 11.2397 9.3891C11.4118 9.3045 11.6051 9.2724 11.7953 9.29682L12.2526 9.35528C12.5299 9.39006 12.8115 9.35193 13.0695 9.24466C13.3276 9.13738 13.5532 8.96467 13.7242 8.74356L14.1273 8.22003C14.3928 7.87705 14.5418 7.45828 14.5527 7.02471C14.5636 6.59114 14.4359 6.16541 14.188 5.80952L12.9886 4.0796C13.126 4.07393 13.2569 4.07053 13.3784 4.07053C14.97 4.07053 16.6874 4.46702 18.3452 5.21745C18.8646 5.45315 19.3693 5.71984 19.8568 6.01608L18.9438 7.58089C18.813 7.81053 18.7568 8.07522 18.7832 8.33821C18.8096 8.6012 18.9172 8.84945 19.0911 9.04851C19.3534 9.34899 19.7174 9.54205 20.1133 9.59067L20.2789 9.61106C20.4391 9.63093 20.5902 9.69688 20.7136 9.80091C20.8371 9.90494 20.9278 10.0426 20.9746 10.1971C21.0188 10.344 21.0201 10.5004 20.9783 10.6479C20.9365 10.7955 20.8533 10.9279 20.7386 11.0297L19.0992 12.4793C18.9331 12.6263 18.8 12.807 18.7089 13.0093C18.6177 13.2116 18.5706 13.4309 18.5706 13.6528V14.0375C18.57 14.2654 18.6269 14.4898 18.7359 14.69C18.8449 14.8902 19.0025 15.0598 19.1942 15.183C19.2895 15.2443 19.3697 15.3264 19.4288 15.4231C19.4879 15.5198 19.5242 15.6286 19.5352 15.7414L19.5735 16.1254C19.6036 16.4363 19.7485 16.7248 19.98 16.9345C20.2115 17.1442 20.513 17.26 20.8253 17.2592H21.7849C22.1824 17.2591 22.5712 17.1432 22.904 16.9257C23.2367 16.7082 23.4989 16.3985 23.6585 16.0345L23.7162 15.903C23.7727 15.7727 23.8647 15.6609 23.9818 15.5804C24.0989 15.5 24.2363 15.4542 24.3782 15.4482L24.6033 15.438C24.64 15.4364 24.6765 15.4337 24.713 15.43L25.1917 15.3818C25.2023 15.568 25.208 15.7461 25.208 15.9122ZM25.1353 14.7039L24.6449 14.7532C24.621 14.7557 24.597 14.7574 24.5728 14.7585L24.3473 14.7688C24.0786 14.78 23.8184 14.8668 23.5967 15.019C23.375 15.1713 23.2007 15.3829 23.0937 15.6297L23.036 15.7612C22.9295 16.0043 22.7544 16.2111 22.5322 16.3564C22.31 16.5017 22.0503 16.5791 21.7849 16.5792H20.8252C20.6815 16.5795 20.543 16.5262 20.4365 16.4298C20.3301 16.3333 20.2635 16.2006 20.2497 16.0576L20.2113 15.6735C20.1905 15.4591 20.1213 15.2521 20.009 15.0682C19.8966 14.8843 19.7441 14.7283 19.5628 14.6118C19.4666 14.55 19.3876 14.4649 19.333 14.3645C19.2783 14.2641 19.2498 14.1515 19.2501 14.0372V13.6525C19.2501 13.5269 19.2768 13.4028 19.3283 13.2882C19.3799 13.1737 19.4552 13.0714 19.5493 12.9882L21.1887 11.5387C21.4006 11.3506 21.5543 11.1057 21.6316 10.8331C21.7089 10.5605 21.7065 10.2715 21.6248 10.0001C21.5399 9.71959 21.3753 9.46975 21.1511 9.28092C20.9269 9.09209 20.6527 8.9724 20.3618 8.93636L20.1962 8.91597C19.9663 8.88774 19.7548 8.77562 19.6025 8.60111C19.5218 8.50886 19.4717 8.39383 19.4591 8.2719C19.4466 8.14997 19.4722 8.02715 19.5324 7.9204L20.4296 6.38266C21.0761 6.81551 21.6816 7.30681 22.2383 7.85039C22.0728 8.1379 21.9757 8.4596 21.9545 8.79062C21.9282 9.30359 22.0827 9.80952 22.3911 10.2203L23.7682 12.0618C23.7999 12.1041 23.841 12.1385 23.8882 12.1621C23.9354 12.1858 23.9876 12.1981 24.0404 12.1981C24.0932 12.1981 24.1453 12.1858 24.1926 12.1621C24.2398 12.1385 24.2809 12.1041 24.3126 12.0618L24.5658 11.7231C24.8363 12.6996 25.0267 13.6965 25.1353 14.7039ZM25.1454 9.81259L24.0404 11.2902L22.9379 9.81582C22.7247 9.53442 22.6167 9.18726 22.6327 8.83458C22.6763 8.16395 23.2148 7.47033 24.0404 7.47033C24.866 7.47033 25.4045 8.16395 25.4481 8.83537C25.4674 9.18687 25.36 9.53364 25.1453 9.81265L25.1454 9.81259Z"/>
</mask>
<path d="M26.1264 8.79062C26.0535 7.66914 25.1372 6.79081 24.0404 6.79081C23.5335 6.79188 23.045 6.98025 22.6686 7.31972C21.5549 6.23183 20.1645 5.29477 18.6254 4.5982C16.8802 3.80835 15.0658 3.39085 13.3784 3.39085C12.913 3.39509 12.448 3.42394 11.9856 3.47728C12.0088 3.31159 12.015 3.14397 12.004 2.97703C11.9161 1.62525 10.8127 0.566406 9.49208 0.566406C8.17145 0.566406 7.06786 1.62525 6.98018 2.97646C6.94869 3.59491 7.13509 4.20481 7.50694 4.69998L7.57712 4.79384C6.9553 5.14568 6.35619 5.53621 5.78331 5.96312C5.5519 5.71618 5.27246 5.51913 4.96214 5.3841C4.65181 5.24906 4.31717 5.17888 3.97874 5.17786C2.65805 5.17786 1.55452 6.23704 1.4669 7.58792C1.43543 8.20638 1.62183 8.81629 1.99366 9.31149L2.39881 9.85332C1.43875 11.6997 0.869169 13.948 0.869169 15.9122C0.865669 17.5572 1.18665 19.1867 1.81373 20.7075C2.44081 22.2283 3.36168 23.6104 4.52363 24.7748C5.68557 25.9393 7.06576 26.8631 8.5852 27.4934C10.1046 28.1237 11.7335 28.4481 13.3785 28.4481C15.0234 28.4481 16.6523 28.1237 18.1717 27.4934C19.6911 26.8631 21.0713 25.9393 22.2333 24.7748C23.3952 23.6104 24.3161 22.2283 24.9432 20.7075C25.5703 19.1867 25.8912 17.5572 25.8877 15.9122C25.8877 14.5181 25.5326 12.4273 25.0689 11.0498L25.6895 10.2201C26.0014 9.81119 26.1564 9.30402 26.1264 8.79062ZM7.6584 3.0211C7.71504 2.14883 8.41653 1.24609 9.49208 1.24609C10.5676 1.24609 11.269 2.14861 11.3258 3.022C11.351 3.47903 11.2116 3.92997 10.9328 4.29302L9.49208 6.22022L8.05375 4.29636C7.77708 3.93049 7.63721 3.47931 7.6584 3.0211ZM2.14528 7.63255C2.20192 6.76028 2.90336 5.85755 3.97891 5.85755C5.05446 5.85755 5.75584 6.76006 5.81259 7.63351C5.83788 8.09053 5.69847 8.54146 5.41968 8.90447L3.97874 10.8317L2.54058 8.90781C2.26392 8.54194 2.12407 8.09076 2.14528 7.63255ZM2.85454 10.4629L3.70686 11.6027C3.73851 11.645 3.77959 11.6794 3.82684 11.7031C3.87409 11.7267 3.9262 11.7391 3.97905 11.7391C4.0319 11.7391 4.08402 11.7267 4.13127 11.7031C4.17852 11.6794 4.21959 11.645 4.25124 11.6027L5.96382 9.31172C6.26711 8.91649 6.44917 8.44174 6.4879 7.94506C6.52664 7.44839 6.4204 6.95114 6.18206 6.51367C6.75772 6.08431 7.36108 5.69339 7.98822 5.34348L9.21998 6.99104C9.25162 7.03337 9.2927 7.06773 9.33995 7.0914C9.3872 7.11507 9.43932 7.12739 9.49217 7.12739C9.54501 7.12739 9.59713 7.11507 9.64438 7.0914C9.69163 7.06773 9.73271 7.03337 9.76435 6.99104L11.4771 4.7001C11.5967 4.54058 11.6985 4.3684 11.7806 4.18665C11.9218 4.16858 12.0629 4.1517 12.202 4.1376L13.6293 6.19682C13.7947 6.43435 13.8799 6.71845 13.8726 7.00777C13.8653 7.29709 13.7659 7.57653 13.5888 7.80542L13.1856 8.32895C13.0873 8.4562 12.9574 8.5556 12.8089 8.61734C12.6604 8.67908 12.4984 8.70103 12.3388 8.68103L11.8815 8.62257C11.5592 8.58122 11.2319 8.63552 10.9403 8.7787C10.6487 8.92188 10.4056 9.14764 10.2412 9.42789C10.1486 9.58575 10.0117 9.71294 9.8475 9.79366C9.68327 9.87439 9.49894 9.9051 9.3174 9.88198L8.26151 9.74774C7.94569 9.70667 7.62468 9.75445 7.33453 9.88573C7.04437 10.017 6.79656 10.2266 6.61893 10.4909C6.45271 10.7365 6.36174 11.0252 6.35717 11.3217C6.35261 11.6182 6.43464 11.9096 6.59321 12.1601L7.29074 13.2626C7.4193 13.4646 7.59681 13.6308 7.8068 13.7459C8.01679 13.8609 8.25244 13.921 8.49187 13.9206C8.72382 13.9208 8.95221 13.8634 9.1566 13.7538L9.8748 13.3686C10.2267 13.1799 10.798 13.1781 11.2099 13.3478C11.2492 13.8568 11.4316 14.3443 11.736 14.7541L13.4491 17.0458C13.4807 17.0881 13.5218 17.1225 13.569 17.1461C13.6163 17.1698 13.6684 17.1821 13.7212 17.1821C13.7741 17.1821 13.8262 17.1698 13.8735 17.1461C13.9207 17.1225 13.9618 17.0881 13.9934 17.0458L14.8622 15.8836L14.9727 16.035C15.0195 16.1002 15.0696 16.1644 15.1218 16.2258L15.994 17.2532C16.0329 17.299 16.0621 17.3522 16.0798 17.4096C16.0975 17.467 16.1033 17.5274 16.097 17.5871C16.0907 17.6468 16.0723 17.7046 16.043 17.757C16.0136 17.8095 15.9739 17.8554 15.9263 17.892L14.6045 18.9084C14.2527 19.1778 13.9939 19.5505 13.8643 19.9742L13.4237 21.4045C13.3891 21.5173 13.3324 21.6221 13.2569 21.7128L12.8282 22.229C12.5089 22.6127 12.3111 23.0829 12.2603 23.5795C12.2479 23.7003 12.2032 23.8155 12.1309 23.913C12.0587 24.0105 11.9614 24.0868 11.8495 24.1338C11.8026 24.1535 11.7518 24.1622 11.7011 24.1595C11.6503 24.1567 11.6008 24.1425 11.5563 24.1179C11.5117 24.0932 11.4734 24.0589 11.4441 24.0173C11.4147 23.9758 11.3952 23.9281 11.3869 23.8779L10.983 21.4526C10.9326 21.1512 10.8096 20.8666 10.6246 20.6234L9.1451 18.6817C9.01217 18.5076 8.91388 18.3095 8.85556 18.0983L8.36726 16.3352C8.28093 16.0262 8.11618 15.7449 7.88899 15.5184C7.6618 15.292 7.37991 15.1282 7.07069 15.0429L6.96455 15.014C6.74976 14.9551 6.55265 14.8446 6.39044 14.692L5.47972 13.8336C5.33465 13.697 5.21019 13.54 5.11025 13.3676C4.89831 13.0022 4.57755 12.7121 4.19276 12.5379C3.80796 12.3636 3.37835 12.3139 2.96391 12.3956C2.95063 12.3982 2.93752 12.4016 2.92466 12.4058L2.01212 12.7026C2.22502 11.9322 2.50696 11.1826 2.85454 10.4629ZM11.8877 13.0756C11.9443 12.2033 12.6458 11.3006 13.7213 11.3006C14.7969 11.3006 15.4983 12.2031 15.555 13.0766C15.5803 13.5336 15.4409 13.9845 15.1621 14.3475L13.7213 16.2747L12.283 14.3509C12.0063 13.985 11.8665 13.5338 11.8877 13.0756ZM25.208 15.9122C25.208 22.4418 19.9013 27.7539 13.3784 27.7539C6.85557 27.7539 1.54886 22.4418 1.54886 15.9122C1.5544 15.094 1.64568 14.2786 1.82118 13.4794L3.11446 13.0588C3.38752 13.009 3.66929 13.0447 3.92129 13.161C4.1733 13.2773 4.38326 13.4686 4.52249 13.7087C4.65542 13.938 4.82091 14.1467 5.01379 14.3284L5.92457 15.1864C6.16796 15.4153 6.46365 15.5811 6.78585 15.6694L6.89199 15.6983C7.08765 15.7524 7.266 15.8561 7.40972 15.9995C7.55344 16.1428 7.65764 16.3209 7.71221 16.5164L8.20051 18.2799C8.28184 18.5746 8.41898 18.8509 8.60447 19.094L10.084 21.0357C10.202 21.1908 10.2804 21.3724 10.3126 21.5646L10.7164 23.9899C10.7413 24.1414 10.8002 24.2852 10.8887 24.4106C10.9772 24.5361 11.093 24.6398 11.2274 24.714C11.3618 24.7881 11.5112 24.8309 11.6645 24.839C11.8178 24.8471 11.9709 24.8203 12.1123 24.7607C12.3368 24.6665 12.5317 24.5136 12.6767 24.3181C12.8216 24.1226 12.9113 23.8916 12.9362 23.6495C12.9733 23.2868 13.1176 22.9434 13.3508 22.6632L13.7796 22.1471C13.9124 21.9875 14.0122 21.803 14.0731 21.6045L14.5135 20.1742C14.6019 19.8852 14.7784 19.6311 15.0183 19.4473L16.3407 18.4309C16.4613 18.3381 16.5618 18.2219 16.6361 18.0892C16.7104 17.9565 16.757 17.81 16.773 17.6588C16.7891 17.5075 16.7742 17.3546 16.7294 17.2092C16.6846 17.0639 16.6107 16.9291 16.5122 16.8132L15.64 15.7859C15.5999 15.7386 15.5613 15.6892 15.5237 15.6368L15.2883 15.314L15.7064 14.7548C16.0824 14.2619 16.2693 13.6505 16.2331 13.0315C16.1453 11.6798 15.0419 10.6209 13.7212 10.6209C12.5278 10.6209 11.5122 11.4856 11.2625 12.6493C10.698 12.4829 10.0221 12.519 9.55365 12.77L8.83545 13.1552C8.67123 13.2425 8.48015 13.2646 8.30031 13.2173C8.12048 13.1699 7.96511 13.0565 7.86519 12.8996L7.16761 11.7971C7.07974 11.6582 7.03428 11.4968 7.03681 11.3325C7.03933 11.1682 7.08973 11.0082 7.18182 10.8722C7.28931 10.7122 7.43927 10.5854 7.61485 10.5059C7.79044 10.4265 7.98469 10.3975 8.17581 10.4224L9.2317 10.5566C9.54521 10.5967 9.86359 10.5437 10.1473 10.4043C10.4309 10.2649 10.6674 10.0453 10.8272 9.7726C10.9241 9.60707 11.0676 9.4737 11.2397 9.3891C11.4118 9.3045 11.6051 9.2724 11.7953 9.29682L12.2526 9.35528C12.5299 9.39006 12.8115 9.35193 13.0695 9.24466C13.3276 9.13738 13.5532 8.96467 13.7242 8.74356L14.1273 8.22003C14.3928 7.87705 14.5418 7.45828 14.5527 7.02471C14.5636 6.59114 14.4359 6.16541 14.188 5.80952L12.9886 4.0796C13.126 4.07393 13.2569 4.07053 13.3784 4.07053C14.97 4.07053 16.6874 4.46702 18.3452 5.21745C18.8646 5.45315 19.3693 5.71984 19.8568 6.01608L18.9438 7.58089C18.813 7.81053 18.7568 8.07522 18.7832 8.33821C18.8096 8.6012 18.9172 8.84945 19.0911 9.04851C19.3534 9.34899 19.7174 9.54205 20.1133 9.59067L20.2789 9.61106C20.4391 9.63093 20.5902 9.69688 20.7136 9.80091C20.8371 9.90494 20.9278 10.0426 20.9746 10.1971C21.0188 10.344 21.0201 10.5004 20.9783 10.6479C20.9365 10.7955 20.8533 10.9279 20.7386 11.0297L19.0992 12.4793C18.9331 12.6263 18.8 12.807 18.7089 13.0093C18.6177 13.2116 18.5706 13.4309 18.5706 13.6528V14.0375C18.57 14.2654 18.6269 14.4898 18.7359 14.69C18.8449 14.8902 19.0025 15.0598 19.1942 15.183C19.2895 15.2443 19.3697 15.3264 19.4288 15.4231C19.4879 15.5198 19.5242 15.6286 19.5352 15.7414L19.5735 16.1254C19.6036 16.4363 19.7485 16.7248 19.98 16.9345C20.2115 17.1442 20.513 17.26 20.8253 17.2592H21.7849C22.1824 17.2591 22.5712 17.1432 22.904 16.9257C23.2367 16.7082 23.4989 16.3985 23.6585 16.0345L23.7162 15.903C23.7727 15.7727 23.8647 15.6609 23.9818 15.5804C24.0989 15.5 24.2363 15.4542 24.3782 15.4482L24.6033 15.438C24.64 15.4364 24.6765 15.4337 24.713 15.43L25.1917 15.3818C25.2023 15.568 25.208 15.7461 25.208 15.9122ZM25.1353 14.7039L24.6449 14.7532C24.621 14.7557 24.597 14.7574 24.5728 14.7585L24.3473 14.7688C24.0786 14.78 23.8184 14.8668 23.5967 15.019C23.375 15.1713 23.2007 15.3829 23.0937 15.6297L23.036 15.7612C22.9295 16.0043 22.7544 16.2111 22.5322 16.3564C22.31 16.5017 22.0503 16.5791 21.7849 16.5792H20.8252C20.6815 16.5795 20.543 16.5262 20.4365 16.4298C20.3301 16.3333 20.2635 16.2006 20.2497 16.0576L20.2113 15.6735C20.1905 15.4591 20.1213 15.2521 20.009 15.0682C19.8966 14.8843 19.7441 14.7283 19.5628 14.6118C19.4666 14.55 19.3876 14.4649 19.333 14.3645C19.2783 14.2641 19.2498 14.1515 19.2501 14.0372V13.6525C19.2501 13.5269 19.2768 13.4028 19.3283 13.2882C19.3799 13.1737 19.4552 13.0714 19.5493 12.9882L21.1887 11.5387C21.4006 11.3506 21.5543 11.1057 21.6316 10.8331C21.7089 10.5605 21.7065 10.2715 21.6248 10.0001C21.5399 9.71959 21.3753 9.46975 21.1511 9.28092C20.9269 9.09209 20.6527 8.9724 20.3618 8.93636L20.1962 8.91597C19.9663 8.88774 19.7548 8.77562 19.6025 8.60111C19.5218 8.50886 19.4717 8.39383 19.4591 8.2719C19.4466 8.14997 19.4722 8.02715 19.5324 7.9204L20.4296 6.38266C21.0761 6.81551 21.6816 7.30681 22.2383 7.85039C22.0728 8.1379 21.9757 8.4596 21.9545 8.79062C21.9282 9.30359 22.0827 9.80952 22.3911 10.2203L23.7682 12.0618C23.7999 12.1041 23.841 12.1385 23.8882 12.1621C23.9354 12.1858 23.9876 12.1981 24.0404 12.1981C24.0932 12.1981 24.1453 12.1858 24.1926 12.1621C24.2398 12.1385 24.2809 12.1041 24.3126 12.0618L24.5658 11.7231C24.8363 12.6996 25.0267 13.6965 25.1353 14.7039ZM25.1454 9.81259L24.0404 11.2902L22.9379 9.81582C22.7247 9.53442 22.6167 9.18726 22.6327 8.83458C22.6763 8.16395 23.2148 7.47033 24.0404 7.47033C24.866 7.47033 25.4045 8.16395 25.4481 8.83537C25.4674 9.18687 25.36 9.53364 25.1453 9.81265L25.1454 9.81259Z" fill="#00B4B1"/>
<path d="M26.1264 8.79062C26.0535 7.66914 25.1372 6.79081 24.0404 6.79081C23.5335 6.79188 23.045 6.98025 22.6686 7.31972C21.5549 6.23183 20.1645 5.29477 18.6254 4.5982C16.8802 3.80835 15.0658 3.39085 13.3784 3.39085C12.913 3.39509 12.448 3.42394 11.9856 3.47728C12.0088 3.31159 12.015 3.14397 12.004 2.97703C11.9161 1.62525 10.8127 0.566406 9.49208 0.566406C8.17145 0.566406 7.06786 1.62525 6.98018 2.97646C6.94869 3.59491 7.13509 4.20481 7.50694 4.69998L7.57712 4.79384C6.9553 5.14568 6.35619 5.53621 5.78331 5.96312C5.5519 5.71618 5.27246 5.51913 4.96214 5.3841C4.65181 5.24906 4.31717 5.17888 3.97874 5.17786C2.65805 5.17786 1.55452 6.23704 1.4669 7.58792C1.43543 8.20638 1.62183 8.81629 1.99366 9.31149L2.39881 9.85332C1.43875 11.6997 0.869169 13.948 0.869169 15.9122C0.865669 17.5572 1.18665 19.1867 1.81373 20.7075C2.44081 22.2283 3.36168 23.6104 4.52363 24.7748C5.68557 25.9393 7.06576 26.8631 8.5852 27.4934C10.1046 28.1237 11.7335 28.4481 13.3785 28.4481C15.0234 28.4481 16.6523 28.1237 18.1717 27.4934C19.6911 26.8631 21.0713 25.9393 22.2333 24.7748C23.3952 23.6104 24.3161 22.2283 24.9432 20.7075C25.5703 19.1867 25.8912 17.5572 25.8877 15.9122C25.8877 14.5181 25.5326 12.4273 25.0689 11.0498L25.6895 10.2201C26.0014 9.81119 26.1564 9.30402 26.1264 8.79062ZM7.6584 3.0211C7.71504 2.14883 8.41653 1.24609 9.49208 1.24609C10.5676 1.24609 11.269 2.14861 11.3258 3.022C11.351 3.47903 11.2116 3.92997 10.9328 4.29302L9.49208 6.22022L8.05375 4.29636C7.77708 3.93049 7.63721 3.47931 7.6584 3.0211ZM2.14528 7.63255C2.20192 6.76028 2.90336 5.85755 3.97891 5.85755C5.05446 5.85755 5.75584 6.76006 5.81259 7.63351C5.83788 8.09053 5.69847 8.54146 5.41968 8.90447L3.97874 10.8317L2.54058 8.90781C2.26392 8.54194 2.12407 8.09076 2.14528 7.63255ZM2.85454 10.4629L3.70686 11.6027C3.73851 11.645 3.77959 11.6794 3.82684 11.7031C3.87409 11.7267 3.9262 11.7391 3.97905 11.7391C4.0319 11.7391 4.08402 11.7267 4.13127 11.7031C4.17852 11.6794 4.21959 11.645 4.25124 11.6027L5.96382 9.31172C6.26711 8.91649 6.44917 8.44174 6.4879 7.94506C6.52664 7.44839 6.4204 6.95114 6.18206 6.51367C6.75772 6.08431 7.36108 5.69339 7.98822 5.34348L9.21998 6.99104C9.25162 7.03337 9.2927 7.06773 9.33995 7.0914C9.3872 7.11507 9.43932 7.12739 9.49217 7.12739C9.54501 7.12739 9.59713 7.11507 9.64438 7.0914C9.69163 7.06773 9.73271 7.03337 9.76435 6.99104L11.4771 4.7001C11.5967 4.54058 11.6985 4.3684 11.7806 4.18665C11.9218 4.16858 12.0629 4.1517 12.202 4.1376L13.6293 6.19682C13.7947 6.43435 13.8799 6.71845 13.8726 7.00777C13.8653 7.29709 13.7659 7.57653 13.5888 7.80542L13.1856 8.32895C13.0873 8.4562 12.9574 8.5556 12.8089 8.61734C12.6604 8.67908 12.4984 8.70103 12.3388 8.68103L11.8815 8.62257C11.5592 8.58122 11.2319 8.63552 10.9403 8.7787C10.6487 8.92188 10.4056 9.14764 10.2412 9.42789C10.1486 9.58575 10.0117 9.71294 9.8475 9.79366C9.68327 9.87439 9.49894 9.9051 9.3174 9.88198L8.26151 9.74774C7.94569 9.70667 7.62468 9.75445 7.33453 9.88573C7.04437 10.017 6.79656 10.2266 6.61893 10.4909C6.45271 10.7365 6.36174 11.0252 6.35717 11.3217C6.35261 11.6182 6.43464 11.9096 6.59321 12.1601L7.29074 13.2626C7.4193 13.4646 7.59681 13.6308 7.8068 13.7459C8.01679 13.8609 8.25244 13.921 8.49187 13.9206C8.72382 13.9208 8.95221 13.8634 9.1566 13.7538L9.8748 13.3686C10.2267 13.1799 10.798 13.1781 11.2099 13.3478C11.2492 13.8568 11.4316 14.3443 11.736 14.7541L13.4491 17.0458C13.4807 17.0881 13.5218 17.1225 13.569 17.1461C13.6163 17.1698 13.6684 17.1821 13.7212 17.1821C13.7741 17.1821 13.8262 17.1698 13.8735 17.1461C13.9207 17.1225 13.9618 17.0881 13.9934 17.0458L14.8622 15.8836L14.9727 16.035C15.0195 16.1002 15.0696 16.1644 15.1218 16.2258L15.994 17.2532C16.0329 17.299 16.0621 17.3522 16.0798 17.4096C16.0975 17.467 16.1033 17.5274 16.097 17.5871C16.0907 17.6468 16.0723 17.7046 16.043 17.757C16.0136 17.8095 15.9739 17.8554 15.9263 17.892L14.6045 18.9084C14.2527 19.1778 13.9939 19.5505 13.8643 19.9742L13.4237 21.4045C13.3891 21.5173 13.3324 21.6221 13.2569 21.7128L12.8282 22.229C12.5089 22.6127 12.3111 23.0829 12.2603 23.5795C12.2479 23.7003 12.2032 23.8155 12.1309 23.913C12.0587 24.0105 11.9614 24.0868 11.8495 24.1338C11.8026 24.1535 11.7518 24.1622 11.7011 24.1595C11.6503 24.1567 11.6008 24.1425 11.5563 24.1179C11.5117 24.0932 11.4734 24.0589 11.4441 24.0173C11.4147 23.9758 11.3952 23.9281 11.3869 23.8779L10.983 21.4526C10.9326 21.1512 10.8096 20.8666 10.6246 20.6234L9.1451 18.6817C9.01217 18.5076 8.91388 18.3095 8.85556 18.0983L8.36726 16.3352C8.28093 16.0262 8.11618 15.7449 7.88899 15.5184C7.6618 15.292 7.37991 15.1282 7.07069 15.0429L6.96455 15.014C6.74976 14.9551 6.55265 14.8446 6.39044 14.692L5.47972 13.8336C5.33465 13.697 5.21019 13.54 5.11025 13.3676C4.89831 13.0022 4.57755 12.7121 4.19276 12.5379C3.80796 12.3636 3.37835 12.3139 2.96391 12.3956C2.95063 12.3982 2.93752 12.4016 2.92466 12.4058L2.01212 12.7026C2.22502 11.9322 2.50696 11.1826 2.85454 10.4629ZM11.8877 13.0756C11.9443 12.2033 12.6458 11.3006 13.7213 11.3006C14.7969 11.3006 15.4983 12.2031 15.555 13.0766C15.5803 13.5336 15.4409 13.9845 15.1621 14.3475L13.7213 16.2747L12.283 14.3509C12.0063 13.985 11.8665 13.5338 11.8877 13.0756ZM25.208 15.9122C25.208 22.4418 19.9013 27.7539 13.3784 27.7539C6.85557 27.7539 1.54886 22.4418 1.54886 15.9122C1.5544 15.094 1.64568 14.2786 1.82118 13.4794L3.11446 13.0588C3.38752 13.009 3.66929 13.0447 3.92129 13.161C4.1733 13.2773 4.38326 13.4686 4.52249 13.7087C4.65542 13.938 4.82091 14.1467 5.01379 14.3284L5.92457 15.1864C6.16796 15.4153 6.46365 15.5811 6.78585 15.6694L6.89199 15.6983C7.08765 15.7524 7.266 15.8561 7.40972 15.9995C7.55344 16.1428 7.65764 16.3209 7.71221 16.5164L8.20051 18.2799C8.28184 18.5746 8.41898 18.8509 8.60447 19.094L10.084 21.0357C10.202 21.1908 10.2804 21.3724 10.3126 21.5646L10.7164 23.9899C10.7413 24.1414 10.8002 24.2852 10.8887 24.4106C10.9772 24.5361 11.093 24.6398 11.2274 24.714C11.3618 24.7881 11.5112 24.8309 11.6645 24.839C11.8178 24.8471 11.9709 24.8203 12.1123 24.7607C12.3368 24.6665 12.5317 24.5136 12.6767 24.3181C12.8216 24.1226 12.9113 23.8916 12.9362 23.6495C12.9733 23.2868 13.1176 22.9434 13.3508 22.6632L13.7796 22.1471C13.9124 21.9875 14.0122 21.803 14.0731 21.6045L14.5135 20.1742C14.6019 19.8852 14.7784 19.6311 15.0183 19.4473L16.3407 18.4309C16.4613 18.3381 16.5618 18.2219 16.6361 18.0892C16.7104 17.9565 16.757 17.81 16.773 17.6588C16.7891 17.5075 16.7742 17.3546 16.7294 17.2092C16.6846 17.0639 16.6107 16.9291 16.5122 16.8132L15.64 15.7859C15.5999 15.7386 15.5613 15.6892 15.5237 15.6368L15.2883 15.314L15.7064 14.7548C16.0824 14.2619 16.2693 13.6505 16.2331 13.0315C16.1453 11.6798 15.0419 10.6209 13.7212 10.6209C12.5278 10.6209 11.5122 11.4856 11.2625 12.6493C10.698 12.4829 10.0221 12.519 9.55365 12.77L8.83545 13.1552C8.67123 13.2425 8.48015 13.2646 8.30031 13.2173C8.12048 13.1699 7.96511 13.0565 7.86519 12.8996L7.16761 11.7971C7.07974 11.6582 7.03428 11.4968 7.03681 11.3325C7.03933 11.1682 7.08973 11.0082 7.18182 10.8722C7.28931 10.7122 7.43927 10.5854 7.61485 10.5059C7.79044 10.4265 7.98469 10.3975 8.17581 10.4224L9.2317 10.5566C9.54521 10.5967 9.86359 10.5437 10.1473 10.4043C10.4309 10.2649 10.6674 10.0453 10.8272 9.7726C10.9241 9.60707 11.0676 9.4737 11.2397 9.3891C11.4118 9.3045 11.6051 9.2724 11.7953 9.29682L12.2526 9.35528C12.5299 9.39006 12.8115 9.35193 13.0695 9.24466C13.3276 9.13738 13.5532 8.96467 13.7242 8.74356L14.1273 8.22003C14.3928 7.87705 14.5418 7.45828 14.5527 7.02471C14.5636 6.59114 14.4359 6.16541 14.188 5.80952L12.9886 4.0796C13.126 4.07393 13.2569 4.07053 13.3784 4.07053C14.97 4.07053 16.6874 4.46702 18.3452 5.21745C18.8646 5.45315 19.3693 5.71984 19.8568 6.01608L18.9438 7.58089C18.813 7.81053 18.7568 8.07522 18.7832 8.33821C18.8096 8.6012 18.9172 8.84945 19.0911 9.04851C19.3534 9.34899 19.7174 9.54205 20.1133 9.59067L20.2789 9.61106C20.4391 9.63093 20.5902 9.69688 20.7136 9.80091C20.8371 9.90494 20.9278 10.0426 20.9746 10.1971C21.0188 10.344 21.0201 10.5004 20.9783 10.6479C20.9365 10.7955 20.8533 10.9279 20.7386 11.0297L19.0992 12.4793C18.9331 12.6263 18.8 12.807 18.7089 13.0093C18.6177 13.2116 18.5706 13.4309 18.5706 13.6528V14.0375C18.57 14.2654 18.6269 14.4898 18.7359 14.69C18.8449 14.8902 19.0025 15.0598 19.1942 15.183C19.2895 15.2443 19.3697 15.3264 19.4288 15.4231C19.4879 15.5198 19.5242 15.6286 19.5352 15.7414L19.5735 16.1254C19.6036 16.4363 19.7485 16.7248 19.98 16.9345C20.2115 17.1442 20.513 17.26 20.8253 17.2592H21.7849C22.1824 17.2591 22.5712 17.1432 22.904 16.9257C23.2367 16.7082 23.4989 16.3985 23.6585 16.0345L23.7162 15.903C23.7727 15.7727 23.8647 15.6609 23.9818 15.5804C24.0989 15.5 24.2363 15.4542 24.3782 15.4482L24.6033 15.438C24.64 15.4364 24.6765 15.4337 24.713 15.43L25.1917 15.3818C25.2023 15.568 25.208 15.7461 25.208 15.9122ZM25.1353 14.7039L24.6449 14.7532C24.621 14.7557 24.597 14.7574 24.5728 14.7585L24.3473 14.7688C24.0786 14.78 23.8184 14.8668 23.5967 15.019C23.375 15.1713 23.2007 15.3829 23.0937 15.6297L23.036 15.7612C22.9295 16.0043 22.7544 16.2111 22.5322 16.3564C22.31 16.5017 22.0503 16.5791 21.7849 16.5792H20.8252C20.6815 16.5795 20.543 16.5262 20.4365 16.4298C20.3301 16.3333 20.2635 16.2006 20.2497 16.0576L20.2113 15.6735C20.1905 15.4591 20.1213 15.2521 20.009 15.0682C19.8966 14.8843 19.7441 14.7283 19.5628 14.6118C19.4666 14.55 19.3876 14.4649 19.333 14.3645C19.2783 14.2641 19.2498 14.1515 19.2501 14.0372V13.6525C19.2501 13.5269 19.2768 13.4028 19.3283 13.2882C19.3799 13.1737 19.4552 13.0714 19.5493 12.9882L21.1887 11.5387C21.4006 11.3506 21.5543 11.1057 21.6316 10.8331C21.7089 10.5605 21.7065 10.2715 21.6248 10.0001C21.5399 9.71959 21.3753 9.46975 21.1511 9.28092C20.9269 9.09209 20.6527 8.9724 20.3618 8.93636L20.1962 8.91597C19.9663 8.88774 19.7548 8.77562 19.6025 8.60111C19.5218 8.50886 19.4717 8.39383 19.4591 8.2719C19.4466 8.14997 19.4722 8.02715 19.5324 7.9204L20.4296 6.38266C21.0761 6.81551 21.6816 7.30681 22.2383 7.85039C22.0728 8.1379 21.9757 8.4596 21.9545 8.79062C21.9282 9.30359 22.0827 9.80952 22.3911 10.2203L23.7682 12.0618C23.7999 12.1041 23.841 12.1385 23.8882 12.1621C23.9354 12.1858 23.9876 12.1981 24.0404 12.1981C24.0932 12.1981 24.1453 12.1858 24.1926 12.1621C24.2398 12.1385 24.2809 12.1041 24.3126 12.0618L24.5658 11.7231C24.8363 12.6996 25.0267 13.6965 25.1353 14.7039ZM25.1454 9.81259L24.0404 11.2902L22.9379 9.81582C22.7247 9.53442 22.6167 9.18726 22.6327 8.83458C22.6763 8.16395 23.2148 7.47033 24.0404 7.47033C24.866 7.47033 25.4045 8.16395 25.4481 8.83537C25.4674 9.18687 25.36 9.53364 25.1453 9.81265L25.1454 9.81259Z" stroke="#00B4B1" stroke-width="0.6" mask="url(#path-5-outside-1_49_341)"/>
</svg>
