<svg width="45" height="44" viewBox="0 0 45 44" fill="none" xmlns="http://www.w3.org/2000/svg">
<path d="M40.6055 0.501831H26.4551C25.9697 0.501831 25.5762 0.907629 25.5762 1.40804C25.5762 1.90844 25.9697 2.31424 26.4551 2.31424H40.6055C42.0594 2.31424 43.2422 3.53381 43.2422 5.03285V25.806H26.0142C27.4936 23.9259 28.3816 21.532 28.3816 18.928C28.3816 12.8986 23.6239 7.99324 17.7761 7.99324C11.9283 7.99324 7.17073 12.8986 7.17073 18.928C7.17073 20.7277 7.59489 22.4271 8.34504 23.9259L6.45416 25.8755H1.75781V5.03285C1.75781 3.53381 2.94064 2.31424 4.39453 2.31424H18.5449C19.0303 2.31424 19.4238 1.90844 19.4238 1.40804C19.4238 0.907629 19.0303 0.501831 18.5449 0.501831H4.39453C1.97139 0.501831 0 2.53445 0 5.03285V29.6816C0 30.4877 0.212168 31.2812 0.604072 31.9722C-0.300674 33.2768 -0.186065 35.1067 0.949307 36.2775C1.56155 36.9087 2.37542 37.2563 3.24114 37.2563C4.10695 37.2563 4.92082 36.9087 5.53307 36.2775L7.53574 34.2126H16.0362L15.2169 37.475H14.2383C12.6875 37.475 11.4258 38.7758 11.4258 40.3748C11.4258 41.9738 12.6875 43.2747 14.2383 43.2747H30.7617C32.3125 43.2747 33.5742 41.9738 33.5742 40.3748C33.5742 38.7758 32.3125 37.475 30.7617 37.475H29.7831L28.9638 34.2126H40.6055C43.0286 34.2126 45 32.18 45 29.6816V5.03285C45 2.53445 43.0286 0.501831 40.6055 0.501831ZM17.7761 9.80565C22.6548 9.80565 26.6237 13.8979 26.6237 18.928C26.6237 23.9582 22.6548 28.0504 17.7761 28.0504C12.8975 28.0504 8.92854 23.9582 8.92854 18.928C8.92854 13.8979 12.8975 9.80565 17.7761 9.80565ZM4.69635 27.688L1.90107 30.57C1.80659 30.2879 1.75781 29.9894 1.75781 29.6816V27.688H4.69635ZM4.29012 34.996C3.71197 35.5923 2.77084 35.5923 2.19234 34.996C1.61402 34.3997 1.61402 33.4293 2.19234 32.833L9.30507 25.4994C9.90316 26.3171 10.6098 27.0456 11.4028 27.6623L4.29012 34.996ZM31.8164 40.3748C31.8164 40.9745 31.3433 41.4623 30.7617 41.4623H14.2383C13.6567 41.4623 13.1836 40.9745 13.1836 40.3748C13.1836 39.7752 13.6567 39.2874 14.2383 39.2874H30.7617C31.3433 39.2874 31.8164 39.7752 31.8164 40.3748ZM27.9673 37.475H17.0327L17.8519 34.2126H27.1481L27.9673 37.475ZM40.6055 32.4002H9.29355L12.9288 28.6521C14.3825 29.4256 16.0306 29.8628 17.7761 29.8628C20.1913 29.8628 22.42 29.0255 24.2049 27.6185H43.2422V29.6816C43.2422 31.1806 42.0594 32.4002 40.6055 32.4002Z" fill="white"/>
</svg>
