<svg width="333" height="248" viewBox="0 0 333 248" fill="none" xmlns="http://www.w3.org/2000/svg">
<path d="M333 217.943H0V218.109H333V217.943Z" fill="#EBEBEB"/>
<path d="M86.8265 224.279H34.9385V224.445H86.8265V224.279Z" fill="#EBEBEB"/>
<path d="M299.633 229.344H274.392V229.51H299.633V229.344Z" fill="#EBEBEB"/>
<path d="M100.273 230.462H87.4922V230.629H100.273V230.462Z" fill="#EBEBEB"/>
<path d="M163.41 222.475H134.645V222.642H163.41V222.475Z" fill="#EBEBEB"/>
<path d="M173.553 222.475H169.337V222.642H173.553V222.475Z" fill="#EBEBEB"/>
<path d="M247.013 226.529H218.228V226.695H247.013V226.529Z" fill="#EBEBEB"/>
<path d="M157.842 188.258H29.244C28.2365 188.256 27.271 187.855 26.5592 187.143C25.8475 186.43 25.4478 185.464 25.4478 184.458V3.80048C25.4565 2.79947 25.8601 1.84234 26.5709 1.13699C27.2817 0.431644 28.2423 0.03504 29.244 0.0333252H157.842C158.85 0.0333252 159.818 0.433727 160.531 1.14645C161.244 1.85917 161.645 2.82582 161.645 3.83376V184.458C161.645 185.466 161.244 186.432 160.531 187.145C159.818 187.858 158.85 188.258 157.842 188.258V188.258ZM29.244 0.166441C28.2807 0.168204 27.3575 0.551852 26.677 1.23318C25.9965 1.9145 25.6143 2.83783 25.6143 3.80048V184.458C25.6143 185.42 25.9965 186.344 26.677 187.025C27.3575 187.706 28.2807 188.09 29.244 188.092H157.842C158.806 188.09 159.73 187.706 160.411 187.025C161.093 186.344 161.477 185.421 161.478 184.458V3.80048C161.477 2.83721 161.093 1.9139 160.411 1.23277C159.73 0.551636 158.806 0.1682 157.842 0.166441H29.244Z" fill="#EBEBEB"/>
<path d="M301.905 188.258H173.3C172.292 188.256 171.326 187.855 170.613 187.143C169.9 186.431 169.499 185.465 169.497 184.458V3.80048C169.508 2.79887 169.913 1.84174 170.625 1.13658C171.336 0.431412 172.298 0.0350213 173.3 0.0333252H301.905C302.905 0.0367892 303.864 0.434167 304.573 1.13933C305.283 1.84449 305.685 2.80062 305.694 3.80048V184.458C305.694 185.463 305.295 186.428 304.585 187.14C303.875 187.853 302.911 188.254 301.905 188.258V188.258ZM173.3 0.166441C172.336 0.1682 171.412 0.551636 170.731 1.23277C170.049 1.9139 169.665 2.83721 169.664 3.80048V184.458C169.665 185.421 170.049 186.344 170.731 187.025C171.412 187.706 172.336 188.09 173.3 188.092H301.905C302.868 188.09 303.792 187.706 304.474 187.025C305.155 186.344 305.539 185.421 305.541 184.458V3.80048C305.539 2.83721 305.155 1.9139 304.474 1.23277C303.792 0.551636 302.868 0.1682 301.905 0.166441H173.3Z" fill="#EBEBEB"/>
<path d="M88.4916 202.728H55.7644C55.0586 202.727 54.3768 202.472 53.8436 202.01C53.3103 201.548 52.9614 200.91 52.8606 200.212L44.6688 144.257C44.6075 143.84 44.637 143.414 44.7552 143.009C44.8734 142.604 45.0776 142.229 45.3538 141.91C45.63 141.591 45.9718 141.336 46.3558 141.16C46.7398 140.985 47.1571 140.895 47.5792 140.896H80.2998C81.0049 140.895 81.6867 141.148 82.22 141.609C82.7534 142.07 83.1026 142.708 83.2036 143.405L91.3954 199.367C91.4565 199.783 91.4272 200.208 91.3094 200.613C91.1916 201.017 90.988 201.392 90.7125 201.711C90.437 202.03 90.0961 202.285 89.7129 202.461C89.3297 202.636 88.9131 202.727 88.4916 202.728Z" fill="#F0F0F0"/>
<path d="M59.6604 202.728H44.2292C43.5231 202.728 42.8405 202.474 42.307 202.012C41.7735 201.55 41.4249 200.91 41.3254 200.212L33.1336 144.257C33.0725 143.84 33.1018 143.415 33.2196 143.011C33.3374 142.606 33.541 142.232 33.8165 141.913C34.0919 141.594 34.4329 141.338 34.8161 141.163C35.1993 140.987 35.6159 140.896 36.0374 140.896H51.4686C52.1741 140.896 52.856 141.15 53.3902 141.61C53.9244 142.071 54.2753 142.708 54.379 143.405L62.5642 199.367C62.6254 199.783 62.596 200.208 62.4782 200.613C62.3604 201.017 62.1568 201.392 61.8813 201.711C61.6059 202.03 61.2649 202.285 60.8817 202.461C60.4985 202.636 60.082 202.727 59.6604 202.728Z" fill="#FAFAFA"/>
<path d="M254.958 126.712H95.9042C91.8616 126.712 88.3118 129.741 87.9655 133.475L83.9695 176.677C83.6232 180.411 86.6335 183.439 90.6295 183.439H249.67C253.713 183.439 257.263 180.411 257.609 176.677L261.605 133.475C261.991 129.741 259.001 126.712 254.958 126.712Z" fill="#E0E0E0"/>
<path d="M244.162 126.712H85.1215C81.0789 126.712 77.5291 129.741 77.1828 133.475L73.1868 176.677C72.8405 180.411 75.8508 183.439 79.8468 183.439H238.888C242.93 183.439 246.487 180.411 246.826 176.677L250.822 133.475C251.195 129.741 248.205 126.712 244.162 126.712Z" fill="#E6E6E6"/>
<path d="M134.532 197.942V182.554C134.532 179.911 132.388 177.769 129.744 177.769H69.837C67.1923 177.769 65.0484 179.911 65.0484 182.554V197.942C65.0484 200.585 67.1923 202.728 69.837 202.728H129.744C132.388 202.728 134.532 200.585 134.532 197.942Z" fill="#EBEBEB"/>
<path d="M230.343 198.348V182.148C230.343 179.729 228.381 177.769 225.961 177.769H156.044C153.624 177.769 151.662 179.729 151.662 182.148V198.348C151.662 200.767 153.624 202.728 156.044 202.728H225.961C228.381 202.728 230.343 200.767 230.343 198.348Z" fill="#E0E0E0"/>
<path d="M213.207 198.342V182.141C213.207 179.723 211.245 177.762 208.824 177.762H138.908C136.487 177.762 134.525 179.723 134.525 182.141V198.342C134.525 200.76 136.487 202.721 138.908 202.721H208.824C211.245 202.721 213.207 200.76 213.207 198.342Z" fill="#EBEBEB"/>
<path d="M254.525 202.728H230.183C229.773 202.737 229.367 202.647 228.999 202.467C228.631 202.287 228.312 202.02 228.069 201.691C227.825 201.361 227.664 200.978 227.6 200.574C227.536 200.169 227.57 199.755 227.699 199.366L243.017 143.405C243.218 142.697 243.64 142.073 244.221 141.621C244.801 141.17 245.511 140.916 246.247 140.896H270.589C270.998 140.888 271.404 140.978 271.771 141.159C272.138 141.339 272.456 141.606 272.699 141.935C272.942 142.264 273.102 142.647 273.166 143.051C273.23 143.455 273.196 143.869 273.067 144.257L257.749 200.212C257.551 200.92 257.131 201.547 256.551 202C255.971 202.453 255.261 202.708 254.525 202.728V202.728Z" fill="#F0F0F0"/>
<path d="M234.072 202.728H218.641C218.232 202.736 217.827 202.645 217.46 202.465C217.093 202.284 216.774 202.017 216.532 201.688C216.289 201.359 216.129 200.976 216.065 200.572C216.001 200.168 216.035 199.755 216.164 199.366L231.482 143.405C231.682 142.697 232.103 142.072 232.684 141.62C233.266 141.169 233.976 140.915 234.712 140.896H250.15C250.559 140.886 250.965 140.976 251.333 141.156C251.701 141.337 252.021 141.603 252.264 141.932C252.508 142.262 252.668 142.645 252.733 143.05C252.797 143.454 252.763 143.868 252.634 144.257L237.316 200.212C237.115 200.922 236.692 201.55 236.108 202.003C235.525 202.456 234.811 202.71 234.072 202.728V202.728Z" fill="#FAFAFA"/>
<path d="M221.165 217.943H218.821L213.207 202.721H219.014L221.165 217.943Z" fill="#E0E0E0"/>
<path d="M250.882 217.943H248.538L242.923 202.721H248.724L250.882 217.943Z" fill="#E0E0E0"/>
<path d="M81.9648 217.943H84.3092L89.9169 202.721H84.116L81.9648 217.943Z" fill="#E0E0E0"/>
<path d="M52.2476 217.943H54.5919L60.1996 202.721H54.4054L52.2476 217.943Z" fill="#E0E0E0"/>
<path d="M255.298 28.4268H77.7021V91.7296H255.298V28.4268Z" fill="#E0E0E0"/>
<path d="M253.666 28.4268H76.0703V91.7296H253.666V28.4268Z" fill="#F0F0F0"/>
<path d="M248.345 86.405V33.7513L81.4052 33.7513V86.405H248.345Z" fill="#FAFAFA"/>
<path d="M164.875 75.869C173.6 75.869 180.673 68.8007 180.673 60.0815C180.673 51.3623 173.6 44.2941 164.875 44.2941C156.15 44.2941 149.078 51.3623 149.078 60.0815C149.078 68.8007 156.15 75.869 164.875 75.869Z" fill="#F0F0F0"/>
<path d="M108.498 86.405L119.567 33.7513H143.983L132.92 86.405H108.498Z" fill="white"/>
<path d="M143.223 86.405L154.292 33.7513H166.5L155.438 86.405H143.223Z" fill="white"/>
<path d="M217.775 86.405L228.844 33.7513H241.052L229.99 86.405H217.775Z" fill="white"/>
<path d="M294.559 130.992C290.416 148.962 300.553 167.479 296.403 185.423L292.301 185.25L288.198 185.083C295.078 167.246 287.712 148.823 294.559 130.992Z" fill="#F0F0F0"/>
<path d="M283.936 138.772C287.332 155.931 276.437 173.09 279.833 190.248H288.045C281.911 173.083 290.07 155.931 283.936 138.772Z" fill="#F0F0F0"/>
<path d="M291.522 124.496C286.087 142.793 296.184 162.54 290.749 180.837L286.287 180.418L281.825 180.005C290.236 161.994 283.11 142.526 291.522 124.496Z" fill="#E6E6E6"/>
<path d="M299.52 150.859C301.272 160.75 291.528 168.53 293.253 178.428L296.583 179.033L299.913 179.639C295.917 169.342 303.476 161.156 299.52 150.859Z" fill="#E6E6E6"/>
<path d="M289.723 222.934C302.101 222.934 312.134 211.706 312.134 197.856C312.134 184.005 302.101 172.777 289.723 172.777C277.346 172.777 267.312 184.005 267.312 197.856C267.312 211.706 277.346 222.934 289.723 222.934Z" fill="#E0E0E0"/>
<path d="M166.5 248C237.817 248 295.631 244.627 295.631 240.466C295.631 236.305 237.817 232.931 166.5 232.931C95.1829 232.931 37.3691 236.305 37.3691 240.466C37.3691 244.627 95.1829 248 166.5 248Z" fill="#F5F5F5"/>
<path d="M255.611 146.187H111.688C111.325 146.188 110.966 146.114 110.632 145.971C110.299 145.828 109.998 145.618 109.748 145.354C109.499 145.09 109.306 144.778 109.181 144.438C109.057 144.097 109.004 143.734 109.024 143.372L113.886 55.1897C113.938 54.4325 114.273 53.7226 114.825 53.2009C115.376 52.6793 116.104 52.3842 116.863 52.3743H260.786C261.149 52.3737 261.508 52.4473 261.842 52.5905C262.176 52.7338 262.476 52.9437 262.726 53.2074C262.975 53.471 263.168 53.7829 263.293 54.1238C263.417 54.4646 263.471 54.8274 263.45 55.1897L258.601 143.372C258.552 144.132 258.217 144.846 257.661 145.368C257.106 145.891 256.374 146.184 255.611 146.187Z" fill="#263238"/>
<path d="M195.065 67.3696H181.152C180.062 67.3829 178.981 67.1709 177.976 66.7467C176.972 66.3226 176.066 65.6956 175.315 64.905C174.565 64.1144 173.986 63.1773 173.615 62.1526C173.244 61.1278 173.089 60.0375 173.16 58.9501L173.3 56.381C173.449 54.1885 174.418 52.1323 176.015 50.6215C177.612 49.1107 179.719 48.2561 181.918 48.2277H195.824C196.914 48.2154 197.995 48.4281 198.999 48.8526C200.003 49.2771 200.908 49.9041 201.659 50.6945C202.409 51.4849 202.988 52.4215 203.359 53.4458C203.73 54.4701 203.886 55.56 203.816 56.6472L203.676 59.2163C203.525 61.4066 202.555 63.4601 200.961 64.9701C199.366 66.4801 197.262 67.3365 195.065 67.3696V67.3696Z" fill="#263238"/>
<path d="M207.732 237.684H203.276L191.002 50.1912H195.464L207.732 237.684Z" fill="#263238"/>
<path d="M174.272 237.684H178.735L191.002 50.1912H186.547L174.272 237.684Z" fill="#263238"/>
<path d="M254.845 146.187H110.922C110.559 146.188 110.2 146.114 109.866 145.971C109.533 145.828 109.232 145.618 108.982 145.354C108.733 145.09 108.54 144.778 108.415 144.438C108.291 144.097 108.237 143.734 108.258 143.372L113.1 55.1897C113.152 54.4325 113.487 53.7226 114.038 53.2009C114.59 52.6793 115.318 52.3842 116.077 52.3743H260C260.363 52.3737 260.722 52.4473 261.056 52.5905C261.39 52.7338 261.69 52.9437 261.94 53.2074C262.189 53.471 262.382 53.7829 262.507 54.1238C262.631 54.4646 262.685 54.8274 262.664 55.1897L257.815 143.372C257.767 144.129 257.434 144.84 256.883 145.362C256.332 145.884 255.604 146.179 254.845 146.187V146.187Z" fill="#00ABA8"/>
<path opacity="0.4" d="M113.22 143.485C112.929 143.488 112.64 143.431 112.372 143.318C112.104 143.205 111.862 143.037 111.662 142.826C111.462 142.614 111.308 142.364 111.209 142.09C111.11 141.817 111.069 141.525 111.089 141.235L115.704 57.3261C115.743 56.7214 116.008 56.1537 116.448 55.7365C116.888 55.3194 117.469 55.0836 118.075 55.0764H257.742C258.033 55.073 258.322 55.1298 258.59 55.2433C258.858 55.3567 259.099 55.5243 259.3 55.7356C259.5 55.9469 259.654 56.1972 259.753 56.4709C259.851 56.7446 259.892 57.0358 259.873 57.3261L255.258 141.235C255.219 141.841 254.952 142.41 254.511 142.827C254.07 143.244 253.487 143.479 252.88 143.485H113.22Z" fill="#263238"/>
<path opacity="0.1" d="M253.746 99.0111H211.688C211.441 99.0144 211.195 98.9665 210.967 98.8703C210.739 98.7742 210.534 98.6319 210.364 98.4524C210.194 98.273 210.062 98.0602 209.979 97.8276C209.895 97.595 209.86 97.3476 209.877 97.1009L211.974 58.9035C211.976 58.8689 211.971 58.8342 211.959 58.8016C211.947 58.769 211.929 58.7391 211.906 58.7137C211.882 58.6882 211.853 58.6678 211.822 58.6535C211.79 58.6392 211.756 58.6315 211.721 58.6306C211.648 58.6321 211.578 58.661 211.525 58.7115C211.472 58.762 211.44 58.8305 211.435 58.9035L209.337 97.1009C209.302 97.6109 209.078 98.0896 208.709 98.443C208.339 98.7964 207.85 98.999 207.339 99.0111H163.636C163.389 99.0144 163.143 98.9665 162.915 98.8703C162.688 98.7742 162.482 98.6319 162.312 98.4524C162.142 98.273 162.01 98.0602 161.927 97.8276C161.843 97.595 161.808 97.3476 161.825 97.1009L163.923 58.9035C163.924 58.8689 163.919 58.8342 163.907 58.8016C163.895 58.769 163.877 58.7391 163.854 58.7137C163.83 58.6882 163.802 58.6678 163.77 58.6535C163.738 58.6392 163.704 58.6315 163.669 58.6306C163.596 58.6321 163.526 58.661 163.473 58.7115C163.42 58.762 163.388 58.8305 163.383 58.9035L161.285 97.1009C161.25 97.6109 161.026 98.0896 160.657 98.443C160.287 98.7964 159.799 98.999 159.287 99.0111H117.216C117.142 99.011 117.071 99.0393 117.018 99.0901C116.965 99.141 116.933 99.2104 116.93 99.284C116.928 99.3183 116.933 99.3526 116.945 99.3848C116.957 99.4171 116.975 99.4466 116.999 99.4715C117.022 99.4964 117.051 99.5162 117.083 99.5297C117.114 99.5433 117.148 99.5502 117.183 99.5502H159.221C159.468 99.5478 159.714 99.5966 159.942 99.6935C160.17 99.7904 160.375 99.9333 160.545 100.113C160.715 100.293 160.846 100.506 160.93 100.739C161.014 100.972 161.049 101.22 161.032 101.467L158.934 139.658C158.93 139.693 158.934 139.728 158.945 139.762C158.956 139.795 158.974 139.826 158.998 139.852C159.022 139.878 159.052 139.898 159.084 139.912C159.117 139.925 159.152 139.932 159.187 139.931C159.26 139.929 159.33 139.9 159.383 139.85C159.436 139.799 159.469 139.731 159.474 139.658L161.572 101.467C161.603 100.955 161.826 100.474 162.196 100.119C162.566 99.7639 163.057 99.5609 163.57 99.5502H207.252C207.505 99.5393 207.757 99.5818 207.992 99.6749C208.227 99.7681 208.44 99.9097 208.617 100.091C208.794 100.271 208.93 100.488 209.017 100.725C209.105 100.962 209.141 101.215 209.124 101.467L207.026 139.658C207.022 139.693 207.026 139.728 207.037 139.762C207.048 139.795 207.066 139.826 207.09 139.852C207.114 139.878 207.144 139.898 207.176 139.912C207.209 139.925 207.244 139.932 207.279 139.931C207.352 139.929 207.422 139.9 207.475 139.85C207.528 139.799 207.561 139.731 207.565 139.658L209.663 101.467C209.695 100.955 209.918 100.474 210.288 100.119C210.658 99.7639 211.148 99.5609 211.661 99.5502H253.699C253.771 99.5489 253.841 99.5209 253.893 99.4718C253.946 99.4227 253.979 99.3558 253.986 99.284C253.988 99.2502 253.984 99.2162 253.974 99.1841C253.963 99.1519 253.946 99.1223 253.924 99.0968C253.901 99.0714 253.874 99.0507 253.843 99.0359C253.813 99.0212 253.78 99.0128 253.746 99.0111V99.0111Z" fill="white"/>
<path opacity="0.4" d="M185.181 65.5526H168.298L167.353 82.7178L184.216 83.1637L185.181 65.5526Z" fill="#263238"/>
<path d="M183.356 82.4316L166.407 81.6063C167.34 75.8091 167.93 69.9618 168.172 64.095L185.215 64.9203C184.942 70.7889 184.321 76.6362 183.356 82.4316V82.4316Z" fill="white"/>
<path opacity="0.4" d="M205.541 77.0205L188.631 78.3051L189.004 95.417L205.921 94.5784L205.541 77.0205Z" fill="#263238"/>
<path d="M205.002 93.9127L187.965 94.3853C188.456 88.5596 188.598 82.7099 188.392 76.8673L205.521 76.3815C205.697 82.2303 205.523 88.0845 205.002 93.9127V93.9127Z" fill="#00ABA8"/>
<path opacity="0.4" d="M156.164 108.229L124.995 107.038L122.191 134.753L153.293 136.669L156.164 108.229Z" fill="#263238"/>
<path d="M151.741 135.418L120.546 132.882C122.619 123.583 124.065 114.155 124.875 104.662L156.257 107.191C155.391 116.691 153.882 126.122 151.741 135.418V135.418Z" fill="white"/>
<g style="mix-blend-mode:multiply" opacity="0.3">
<path d="M124.083 69.4329C123.856 69.4342 123.631 69.389 123.422 69.2999C123.213 69.2109 123.025 69.0799 122.869 68.9152C122.713 68.7505 122.592 68.5555 122.514 68.3423C122.437 68.1291 122.404 67.9022 122.418 67.6758V67.6758C122.452 67.2048 122.663 66.7639 123.006 66.4399C123.35 66.1159 123.803 65.9324 124.276 65.9253V65.9253C124.502 65.9239 124.727 65.9692 124.935 66.0583C125.144 66.1475 125.332 66.2785 125.487 66.4434C125.643 66.6082 125.763 66.8033 125.84 67.0165C125.917 67.2296 125.949 67.4563 125.934 67.6824V67.6824C125.901 68.1529 125.692 68.5937 125.349 68.9178C125.006 69.2419 124.554 69.4258 124.083 69.4329V69.4329Z" fill="#263238"/>
<path opacity="0.8" d="M151.622 69.433H129.997C129.77 69.4344 129.545 69.3891 129.337 69.2999C129.129 69.2108 128.941 69.0798 128.785 68.9149C128.63 68.7501 128.51 68.555 128.433 68.3418C128.356 68.1287 128.324 67.902 128.338 67.6758V67.6758C128.369 67.2037 128.576 66.7603 128.919 66.4345C129.263 66.1087 129.716 65.9245 130.19 65.9187H151.848C152.075 65.9174 152.3 65.9627 152.509 66.0517C152.718 66.1408 152.906 66.2717 153.062 66.4364C153.218 66.6012 153.339 66.7962 153.416 67.0094C153.494 67.2225 153.527 67.4494 153.513 67.6758C153.479 68.1537 153.265 68.601 152.914 68.9272C152.563 69.2534 152.101 69.4342 151.622 69.433V69.433Z" fill="#263238"/>
<path d="M123.663 77.0937C123.436 77.096 123.21 77.0514 123.001 76.9627C122.792 76.874 122.603 76.7431 122.447 76.5782C122.291 76.4132 122.17 76.2178 122.093 76.0042C122.016 75.7906 121.983 75.5633 121.998 75.3366V75.3366C122.03 74.8604 122.242 74.4142 122.59 74.088C122.939 73.7619 123.399 73.5801 123.876 73.5795V73.5795C124.103 73.5781 124.328 73.6234 124.536 73.7125C124.744 73.8016 124.932 73.9327 125.088 74.0975C125.243 74.2624 125.363 74.4575 125.44 74.6706C125.517 74.8838 125.549 75.1105 125.535 75.3366V75.3366C125.503 75.8116 125.292 76.2569 124.945 76.5829C124.597 76.9089 124.139 77.0914 123.663 77.0937V77.0937Z" fill="#263238"/>
<path opacity="0.8" d="M155.032 77.0937H129.577C129.35 77.0951 129.125 77.0498 128.917 76.9607C128.708 76.8717 128.519 76.7407 128.363 76.576C128.207 76.4113 128.087 76.2163 128.009 76.0031C127.932 75.7899 127.899 75.5631 127.912 75.3366V75.3366C127.945 74.8644 128.155 74.4219 128.499 74.0965C128.843 73.7712 129.297 73.5867 129.77 73.5795H155.225C155.452 73.5782 155.677 73.6234 155.886 73.7125C156.094 73.8016 156.283 73.9325 156.439 74.0972C156.595 74.2619 156.715 74.4569 156.793 74.6701C156.871 74.8833 156.904 75.1102 156.89 75.3366V75.3366C156.857 75.8088 156.647 76.2513 156.303 76.5767C155.959 76.9021 155.505 77.0866 155.032 77.0937V77.0937Z" fill="#263238"/>
<path d="M123.21 84.7479C122.984 84.7502 122.759 84.7058 122.551 84.6174C122.342 84.529 122.154 84.3986 121.999 84.2343C121.843 84.07 121.723 83.8753 121.646 83.6625C121.569 83.4496 121.537 83.2232 121.552 82.9974C121.582 82.5253 121.789 82.0819 122.133 81.7561C122.476 81.4303 122.93 81.2461 123.403 81.2403V81.2403C123.631 81.238 123.856 81.2826 124.065 81.3713C124.274 81.46 124.463 81.591 124.619 81.7559C124.776 81.9208 124.896 82.1162 124.973 82.3299C125.051 82.5435 125.083 82.7708 125.068 82.9974V82.9974C125.035 83.469 124.825 83.9108 124.481 84.2351C124.137 84.5593 123.683 84.7424 123.21 84.7479V84.7479Z" fill="#263238"/>
<path opacity="0.8" d="M141.545 84.7479H129.151C128.924 84.7502 128.7 84.7058 128.491 84.6174C128.283 84.529 128.095 84.3986 127.939 84.2343C127.784 84.07 127.664 83.8753 127.587 83.6625C127.51 83.4496 127.478 83.2232 127.492 82.9974V82.9974C127.522 82.5253 127.73 82.0819 128.073 81.7561C128.417 81.4303 128.87 81.2461 129.344 81.2403H141.738C141.965 81.2379 142.19 81.2826 142.399 81.3713C142.608 81.4601 142.796 81.5912 142.952 81.7562C143.108 81.9213 143.228 82.1167 143.304 82.3304C143.381 82.544 143.412 82.7711 143.396 82.9974V82.9974C143.365 83.4684 143.156 83.9102 142.813 84.2346C142.47 84.559 142.017 84.7423 141.545 84.7479V84.7479Z" fill="#263238"/>
<path opacity="0.8" d="M153.02 92.4087H140.626C140.399 92.4101 140.175 92.3648 139.966 92.2757C139.758 92.1865 139.57 92.0555 139.414 91.8906C139.259 91.7258 139.139 91.5307 139.062 91.3176C138.985 91.1044 138.953 90.8777 138.968 90.6516V90.6516C138.999 90.1799 139.207 89.7375 139.55 89.412C139.893 89.0865 140.346 88.9017 140.819 88.8944H153.214C153.44 88.8931 153.665 88.9383 153.873 89.0275C154.082 89.1166 154.27 89.2476 154.425 89.4125C154.581 89.5773 154.701 89.7724 154.778 89.9856C154.854 90.1987 154.887 90.4254 154.872 90.6516V90.6516C154.84 91.1232 154.632 91.5657 154.289 91.8912C153.946 92.2167 153.493 92.4014 153.02 92.4087V92.4087Z" fill="#263238"/>
<path d="M122.817 92.4087C122.59 92.4101 122.366 92.3648 122.157 92.2757C121.949 92.1865 121.761 92.0555 121.605 91.8906C121.45 91.7258 121.33 91.5307 121.253 91.3176C121.176 91.1044 121.144 90.8777 121.159 90.6516V90.6516C121.19 90.1799 121.398 89.7375 121.741 89.412C122.084 89.0865 122.537 88.9017 123.01 88.8944C123.237 88.8931 123.462 88.9383 123.67 89.0275C123.878 89.1166 124.066 89.2476 124.222 89.4125C124.377 89.5773 124.497 89.7724 124.574 89.9856C124.651 90.1987 124.683 90.4254 124.669 90.6516V90.6516C124.637 91.1232 124.429 91.5657 124.086 91.8912C123.743 92.2167 123.29 92.4014 122.817 92.4087V92.4087Z" fill="#263238"/>
<path opacity="0.8" d="M134.452 92.4086H128.731C128.504 92.41 128.28 92.3647 128.071 92.2756C127.863 92.1865 127.675 92.0554 127.519 91.8906C127.364 91.7257 127.244 91.5307 127.167 91.3175C127.09 91.1043 127.058 90.8776 127.073 90.6515V90.6515C127.104 90.1799 127.312 89.7374 127.655 89.4119C127.998 89.0864 128.451 88.9017 128.924 88.8944H134.645C134.872 88.8921 135.098 88.9367 135.307 89.0254C135.516 89.1141 135.705 89.245 135.861 89.41C136.018 89.5749 136.138 89.7703 136.215 89.9839C136.293 90.1976 136.325 90.4248 136.31 90.6515V90.6515C136.278 91.1242 136.069 91.5677 135.725 91.8933C135.381 92.219 134.926 92.403 134.452 92.4086V92.4086Z" fill="#263238"/>
</g>
<path d="M176.583 115.198H168.198L167.046 136.17H175.431L176.583 115.198Z" fill="#00ABA8"/>
<path d="M189.31 119.517H180.919L180.006 136.17H188.391L189.31 119.517Z" fill="#00ABA8"/>
<path d="M202.877 108.349H194.492L192.967 136.17H201.352L202.877 108.349Z" fill="#00ABA8"/>
<path d="M170.07 127.032C169.237 127.032 168.398 127.032 167.552 126.965C165.812 126.936 164.092 126.589 162.477 125.94C162.346 125.881 162.244 125.772 162.193 125.637C162.142 125.502 162.146 125.353 162.204 125.221C162.234 125.156 162.276 125.098 162.328 125.049C162.38 125.001 162.442 124.963 162.508 124.938C162.575 124.913 162.646 124.902 162.718 124.905C162.789 124.908 162.859 124.925 162.924 124.955C164.409 125.543 165.988 125.858 167.586 125.887C177.649 126.406 186.46 123.784 195.331 117.647C198.099 115.724 200.535 113.364 202.544 110.659C202.582 110.596 202.633 110.542 202.693 110.499C202.753 110.456 202.821 110.427 202.893 110.411C202.965 110.396 203.039 110.396 203.111 110.41C203.183 110.424 203.251 110.453 203.312 110.495C203.372 110.537 203.424 110.591 203.463 110.653C203.502 110.715 203.527 110.785 203.538 110.858C203.549 110.93 203.545 111.004 203.527 111.076C203.508 111.147 203.475 111.213 203.43 111.271C201.362 114.082 198.839 116.527 195.964 118.506C187.639 124.303 179.347 127.032 170.07 127.032Z" fill="white"/>
<path d="M204.702 114.798C204.613 114.799 204.525 114.777 204.447 114.735C204.369 114.693 204.302 114.633 204.252 114.559C204.203 114.486 204.172 114.401 204.164 114.312C204.155 114.224 204.168 114.135 204.202 114.053C204.964 112.209 205.127 110.171 204.668 108.229C202.565 109.645 200.32 110.836 197.968 111.783C197.902 111.813 197.831 111.828 197.759 111.829C197.687 111.83 197.615 111.817 197.548 111.79C197.481 111.763 197.42 111.723 197.369 111.672C197.318 111.621 197.278 111.56 197.251 111.493C197.223 111.427 197.21 111.355 197.211 111.283C197.212 111.211 197.227 111.139 197.257 111.073C197.286 111.007 197.328 110.948 197.38 110.898C197.433 110.849 197.494 110.81 197.562 110.785C200.071 109.772 202.455 108.475 204.668 106.918C204.738 106.872 204.816 106.842 204.899 106.831C204.982 106.82 205.066 106.827 205.145 106.854C205.224 106.88 205.296 106.924 205.355 106.983C205.415 107.041 205.46 107.112 205.487 107.191C206.262 109.573 206.161 112.152 205.201 114.466C205.16 114.564 205.091 114.649 205.002 114.708C204.913 114.767 204.808 114.799 204.702 114.798V114.798Z" fill="white"/>
<path d="M248.864 94.1258H217.669C217.411 94.1282 217.155 94.0773 216.918 93.9763C216.681 93.8753 216.467 93.7264 216.29 93.539C216.113 93.3515 215.977 93.1294 215.89 92.8868C215.803 92.6442 215.767 92.3862 215.784 92.129L217.236 65.7723C217.271 65.2465 217.503 64.7532 217.886 64.3906C218.268 64.028 218.773 63.8227 219.301 63.8155H250.503C250.76 63.814 251.015 63.8655 251.251 63.9669C251.488 64.0683 251.701 64.2173 251.877 64.4047C252.053 64.5921 252.189 64.8138 252.276 65.056C252.362 65.2982 252.398 65.5556 252.381 65.8122L250.929 92.169C250.894 92.6947 250.662 93.188 250.279 93.5506C249.897 93.9132 249.392 94.1186 248.864 94.1258V94.1258ZM219.301 64.3612C218.91 64.3656 218.535 64.5177 218.252 64.7869C217.969 65.0561 217.799 65.4224 217.775 65.8122L216.324 92.169C216.312 92.3509 216.337 92.5334 216.399 92.705C216.461 92.8766 216.557 93.0338 216.682 93.1667C216.807 93.2996 216.957 93.4055 217.125 93.4777C217.292 93.55 217.473 93.587 217.656 93.5866H248.851C249.242 93.5823 249.616 93.4302 249.899 93.161C250.182 92.8918 250.353 92.5254 250.376 92.1357L251.828 65.7789C251.841 65.5957 251.815 65.4118 251.753 65.2388C251.691 65.0658 251.594 64.9075 251.468 64.7739C251.342 64.6417 251.19 64.5368 251.022 64.4658C250.853 64.3948 250.672 64.3592 250.489 64.3612H219.301Z" fill="#00ABA8"/>
<path d="M251.815 71.383H217.183C217.118 71.3729 217.06 71.3402 217.018 71.2908C216.975 71.2413 216.952 71.1785 216.952 71.1135C216.952 71.0485 216.975 70.9856 217.018 70.9362C217.06 70.8867 217.118 70.854 217.183 70.8439H251.815C251.854 70.8378 251.894 70.8401 251.931 70.8509C251.969 70.8616 252.005 70.8804 252.035 70.906C252.065 70.9316 252.089 70.9634 252.105 70.9993C252.122 71.0351 252.13 71.074 252.13 71.1135C252.13 71.1529 252.122 71.1919 252.105 71.2277C252.089 71.2635 252.065 71.2953 252.035 71.3209C252.005 71.3465 251.969 71.3653 251.931 71.3761C251.894 71.3868 251.854 71.3892 251.815 71.383V71.383Z" fill="#00ABA8"/>
<path d="M224.136 94.1257C224.065 94.1206 223.998 94.0878 223.951 94.0343C223.903 93.9808 223.879 93.9108 223.883 93.8395L225.108 71.0968C225.11 71.0613 225.119 71.0264 225.134 70.9943C225.149 70.9622 225.171 70.9335 225.198 70.9099C225.225 70.8863 225.256 70.8683 225.289 70.857C225.323 70.8456 225.359 70.8412 225.394 70.8439C225.466 70.849 225.532 70.8819 225.579 70.9354C225.627 70.9889 225.651 71.0588 225.648 71.1301L224.402 93.8795C224.396 93.946 224.365 94.0078 224.316 94.0532C224.267 94.0986 224.203 94.1244 224.136 94.1257V94.1257Z" fill="#00ABA8"/>
<path d="M247.852 74.0853H229.064C229 74.0752 228.941 74.0425 228.899 73.993C228.857 73.9436 228.833 73.8807 228.833 73.8157C228.833 73.7507 228.857 73.6878 228.899 73.6384C228.941 73.589 229 73.5563 229.064 73.5462H247.852C247.891 73.54 247.931 73.5424 247.969 73.5531C248.007 73.5639 248.042 73.5827 248.072 73.6083C248.102 73.6339 248.126 73.6657 248.142 73.7015C248.159 73.7374 248.167 73.7763 248.167 73.8157C248.167 73.8552 248.159 73.8941 248.142 73.9299C248.126 73.9657 248.102 73.9976 248.072 74.0232C248.042 74.0488 248.007 74.0676 247.969 74.0783C247.931 74.0891 247.891 74.0914 247.852 74.0853Z" fill="#00ABA8"/>
<path d="M245.022 77.3999H228.884C228.845 77.406 228.806 77.4036 228.768 77.3929C228.73 77.3822 228.694 77.3634 228.664 77.3377C228.635 77.3121 228.61 77.2803 228.594 77.2445C228.577 77.2087 228.569 77.1697 228.569 77.1303C228.569 77.0909 228.577 77.0519 228.594 77.0161C228.61 76.9803 228.635 76.9485 228.664 76.9229C228.694 76.8973 228.73 76.8784 228.768 76.8677C228.806 76.857 228.845 76.8546 228.884 76.8607H245.022C245.061 76.8546 245.1 76.857 245.138 76.8677C245.176 76.8784 245.212 76.8973 245.242 76.9229C245.272 76.9485 245.296 76.9803 245.312 77.0161C245.329 77.0519 245.337 77.0909 245.337 77.1303C245.337 77.1697 245.329 77.2087 245.312 77.2445C245.296 77.2803 245.272 77.3121 245.242 77.3377C245.212 77.3634 245.176 77.3822 245.138 77.3929C245.1 77.4036 245.061 77.406 245.022 77.3999Z" fill="#00ABA8"/>
<path d="M238.088 80.8209H228.698C228.659 80.827 228.619 80.8246 228.581 80.8139C228.543 80.8032 228.508 80.7844 228.478 80.7588C228.448 80.7331 228.424 80.7013 228.407 80.6655C228.391 80.6297 228.382 80.5908 228.382 80.5513C228.382 80.5119 228.391 80.4729 228.407 80.4371C228.424 80.4013 228.448 80.3695 228.478 80.3439C228.508 80.3183 228.543 80.2995 228.581 80.2887C228.619 80.278 228.659 80.2756 228.698 80.2818H238.088C238.127 80.2756 238.167 80.278 238.205 80.2887C238.243 80.2995 238.278 80.3183 238.308 80.3439C238.338 80.3695 238.362 80.4013 238.379 80.4371C238.396 80.4729 238.404 80.5119 238.404 80.5513C238.404 80.5908 238.396 80.6297 238.379 80.6655C238.362 80.7013 238.338 80.7331 238.308 80.7588C238.278 80.7844 238.243 80.8032 238.205 80.8139C238.167 80.8246 238.127 80.827 238.088 80.8209V80.8209Z" fill="#00ABA8"/>
<path d="M239.793 87.5033H228.331C228.292 87.5094 228.252 87.507 228.214 87.4963C228.176 87.4856 228.141 87.4668 228.111 87.4411C228.081 87.4155 228.057 87.3837 228.041 87.3479C228.024 87.3121 228.016 87.2731 228.016 87.2337C228.016 87.1943 228.024 87.1553 228.041 87.1195C228.057 87.0837 228.081 87.0519 228.111 87.0263C228.141 87.0006 228.176 86.9818 228.214 86.9711C228.252 86.9604 228.292 86.958 228.331 86.9641H239.793C239.832 86.958 239.872 86.9604 239.91 86.9711C239.948 86.9818 239.983 87.0006 240.013 87.0263C240.043 87.0519 240.067 87.0837 240.084 87.1195C240.1 87.1553 240.109 87.1943 240.109 87.2337C240.109 87.2731 240.1 87.3121 240.084 87.3479C240.067 87.3837 240.043 87.4155 240.013 87.4411C239.983 87.4668 239.948 87.4856 239.91 87.4963C239.872 87.507 239.832 87.5094 239.793 87.5033V87.5033Z" fill="#00ABA8"/>
<path d="M237.536 90.9244H228.138C228.074 90.9142 228.015 90.8815 227.973 90.8321C227.931 90.7827 227.908 90.7198 227.908 90.6548C227.908 90.5898 227.931 90.5269 227.973 90.4775C228.015 90.4281 228.074 90.3954 228.138 90.3853H237.536C237.6 90.3954 237.658 90.4281 237.701 90.4775C237.743 90.5269 237.766 90.5898 237.766 90.6548C237.766 90.7198 237.743 90.7827 237.701 90.8321C237.658 90.8815 237.6 90.9142 237.536 90.9244V90.9244Z" fill="#00ABA8"/>
<path d="M243.03 90.9243H240.026C239.988 90.9304 239.948 90.928 239.91 90.9173C239.872 90.9066 239.837 90.8878 239.807 90.8622C239.777 90.8365 239.753 90.8047 239.736 90.7689C239.719 90.7331 239.711 90.6942 239.711 90.6547C239.711 90.6153 239.719 90.5763 239.736 90.5405C239.753 90.5047 239.777 90.4729 239.807 90.4473C239.837 90.4217 239.872 90.4028 239.91 90.3921C239.948 90.3814 239.988 90.379 240.026 90.3852H243.03C243.069 90.379 243.109 90.3814 243.147 90.3921C243.185 90.4028 243.22 90.4217 243.25 90.4473C243.28 90.4729 243.304 90.5047 243.321 90.5405C243.337 90.5763 243.346 90.6153 243.346 90.6547C243.346 90.6942 243.337 90.7331 243.321 90.7689C243.304 90.8047 243.28 90.8365 243.25 90.8622C243.22 90.8878 243.185 90.9066 243.147 90.9173C243.109 90.928 243.069 90.9304 243.03 90.9243V90.9243Z" fill="#00ABA8"/>
<path d="M246.107 84.1421H228.511C228.439 84.1421 228.369 84.1133 228.318 84.0622C228.267 84.011 228.238 83.9416 228.238 83.8692C228.238 83.7968 228.267 83.7274 228.318 83.6762C228.369 83.6251 228.439 83.5963 228.511 83.5963H246.107C246.179 83.5963 246.249 83.6251 246.3 83.6762C246.351 83.7274 246.38 83.7968 246.38 83.8692C246.38 83.9416 246.351 84.011 246.3 84.0622C246.249 84.1133 246.179 84.1421 246.107 84.1421V84.1421Z" fill="#00ABA8"/>
<path d="M229.703 132.483C225.628 132.483 222.291 131.278 220.22 129.042C218.002 126.652 217.083 122.892 217.695 118.725C217.914 116.413 218.775 114.208 220.181 112.359C221.588 110.51 223.483 109.091 225.654 108.263C228.196 107.116 230.958 106.541 233.746 106.578C236.535 106.615 239.281 107.263 241.791 108.476C243.983 109.574 245.354 110.965 245.874 112.609C245.917 112.746 245.904 112.894 245.838 113.021C245.805 113.084 245.76 113.14 245.706 113.186C245.652 113.232 245.589 113.266 245.521 113.288C245.384 113.331 245.236 113.318 245.108 113.252C244.981 113.186 244.885 113.072 244.842 112.935C244.415 111.604 243.223 110.406 241.305 109.441C238.938 108.299 236.349 107.691 233.721 107.657C231.093 107.624 228.489 108.167 226.094 109.248C224.09 110.004 222.34 111.31 221.045 113.014C219.749 114.718 218.96 116.753 218.768 118.885C218.202 122.726 219.021 126.16 221.012 128.303C223.776 131.291 228.338 131.504 230.842 131.371C235.464 131.112 239.434 129.501 242.031 126.832C245.068 123.704 245.921 119.032 244.029 115.957C243.791 115.514 243.458 115.129 243.054 114.83C242.65 114.531 242.185 114.324 241.691 114.226C241.555 114.206 241.431 114.133 241.346 114.024C241.261 113.915 241.221 113.777 241.235 113.64C241.249 113.502 241.315 113.375 241.42 113.285C241.524 113.194 241.66 113.148 241.798 113.155C242.46 113.257 243.089 113.512 243.636 113.899C244.182 114.286 244.632 114.794 244.948 115.384C247.106 118.872 246.194 124.11 242.824 127.584C240.033 130.453 235.811 132.177 230.916 132.45C230.496 132.483 230.096 132.483 229.703 132.483Z" fill="white"/>
<path d="M91.4554 76.1352L89.5306 79.4631L87.6525 82.8775C86.4138 85.1604 85.2283 87.4633 84.1494 89.7728C83.6099 90.9376 83.0971 92.089 82.6309 93.2471L82.5443 93.4601V93.5067C82.5211 93.5356 82.501 93.5668 82.4844 93.5999C82.4494 93.6623 82.4182 93.7267 82.3911 93.7929C82.349 94.044 82.3766 94.3019 82.471 94.5383C82.84 95.4463 83.3856 96.272 84.0761 96.9677C84.8918 97.8421 85.7615 98.6646 86.6802 99.4303L85.1151 102.758C84.3812 102.556 83.6624 102.302 82.9639 101.999C82.2765 101.696 81.6092 101.349 80.9659 100.961C79.4702 100.095 78.1869 98.9054 77.2096 97.4802C76.6087 96.5626 76.2092 95.5282 76.0375 94.4452C75.9576 93.8444 75.9576 93.2356 76.0375 92.6348C76.0641 92.336 76.1154 92.04 76.1907 91.7496L76.2972 91.317L76.3771 91.0507C76.81 89.7196 77.2496 88.3418 77.7691 87.0573C78.7814 84.4482 79.9269 81.919 81.1657 79.4631C81.7917 78.2384 82.4311 77.0204 83.1104 75.8224C83.7897 74.6243 84.4424 73.4529 85.2416 72.2416L91.4554 76.1352Z" fill="#FFC3BD"/>
<path d="M84.9817 99.0709L88.4782 98.1591L88.678 103.803C88.678 103.803 85.9407 104.209 84.269 102.539L84.9817 99.0709Z" fill="#FFC3BD"/>
<path d="M93.4402 97.2073L92.6477 102.166L88.6783 103.803L88.4785 98.159L93.4402 97.2073Z" fill="#FFC3BD"/>
<path d="M107.892 49.5255C107.972 49.9115 108.239 50.1911 108.492 50.1311C108.745 50.0712 108.891 49.7251 108.811 49.3391C108.731 48.9531 108.465 48.6735 108.212 48.7334C107.959 48.7933 107.839 49.1394 107.892 49.5255Z" fill="#263238"/>
<path d="M108.225 50.191C108.926 51.2778 109.773 52.2632 110.743 53.1196C110.518 53.362 110.243 53.5521 109.937 53.6763C109.631 53.8005 109.301 53.8559 108.971 53.8384L108.225 50.191Z" fill="#ED847E"/>
<path d="M106.061 47.6685C106.003 47.6667 105.948 47.6429 105.907 47.602C105.885 47.5809 105.868 47.5555 105.856 47.5275C105.844 47.4995 105.838 47.4694 105.838 47.4389C105.838 47.4085 105.844 47.3783 105.856 47.3503C105.868 47.3223 105.885 47.297 105.907 47.2758C106.154 46.9963 106.464 46.7806 106.812 46.6473C107.16 46.514 107.535 46.467 107.905 46.5104C107.935 46.5152 107.964 46.526 107.99 46.5421C108.015 46.5582 108.038 46.5793 108.055 46.6041C108.072 46.6289 108.085 46.657 108.091 46.6866C108.097 46.7163 108.098 46.7469 108.092 46.7767C108.082 46.8375 108.048 46.892 107.999 46.9282C107.949 46.9643 107.886 46.9793 107.825 46.9697V46.9697C107.536 46.943 107.245 46.9852 106.975 47.0928C106.705 47.2004 106.465 47.3703 106.274 47.5887C106.248 47.6196 106.215 47.6433 106.178 47.6573C106.14 47.6713 106.1 47.6752 106.061 47.6685V47.6685Z" fill="#263238"/>
<path d="M96.8968 54.9565C97.6027 58.5373 98.302 65.0933 95.7979 67.476C95.7979 67.476 96.7769 71.1034 103.424 71.1034C110.75 71.1034 106.92 67.476 106.92 67.476C102.924 66.5242 103.031 63.5691 103.73 60.787L96.8968 54.9565Z" fill="#FFC3BD"/>
<path d="M94.3525 68.1417C93.8197 67.15 93.2269 66.0118 94.4457 65.6524C95.7777 65.2597 104.396 64.5343 106.927 65.2731C106.147 66.6508 107.459 68.348 107.459 68.348L94.3525 68.1417Z" fill="#263238"/>
<path d="M72.6872 234.901C72.8847 234.971 73.0941 235.002 73.3033 234.99C73.5125 234.979 73.7173 234.926 73.906 234.835C73.9789 234.768 74.0291 234.68 74.0494 234.584C74.0697 234.487 74.0591 234.386 74.0192 234.296C73.9969 234.221 73.9585 234.152 73.9068 234.093C73.855 234.035 73.7911 233.988 73.7195 233.956C73.0535 233.644 71.5417 234.263 71.4751 234.289C71.454 234.296 71.4356 234.309 71.4225 234.327C71.4093 234.345 71.4021 234.367 71.4019 234.389C71.402 234.411 71.4083 234.433 71.4201 234.452C71.4318 234.47 71.4486 234.486 71.4685 234.495C71.8593 234.673 72.2678 234.809 72.6872 234.901V234.901ZM73.4798 234.123C73.5277 234.131 73.5745 234.145 73.6196 234.163C73.6611 234.182 73.698 234.209 73.7278 234.244C73.7577 234.278 73.7799 234.319 73.7928 234.362C73.8594 234.575 73.7928 234.635 73.7528 234.662C73.4931 234.882 72.5141 234.662 71.8281 234.402C72.3508 234.187 72.9152 234.091 73.4798 234.123V234.123Z" fill="#00ABA8"/>
<path d="M71.4953 234.509H71.5486C72.1014 234.349 73.2869 233.511 73.3002 232.958C73.3025 232.871 73.2746 232.785 73.2212 232.716C73.1678 232.647 73.0922 232.599 73.0071 232.579C72.9237 232.549 72.8348 232.537 72.7464 232.544C72.658 232.551 72.5721 232.576 72.4943 232.619C71.8283 232.958 71.4221 234.309 71.4087 234.369C71.3994 234.387 71.3945 234.406 71.3945 234.426C71.3945 234.445 71.3994 234.465 71.4087 234.482L71.4953 234.509ZM72.8806 232.778H72.9272C73.0737 232.832 73.0737 232.898 73.0737 232.931C73.0737 233.258 72.2812 233.917 71.7417 234.183C71.8972 233.646 72.2076 233.167 72.6342 232.805C72.7116 232.771 72.7977 232.762 72.8806 232.778V232.778Z" fill="#00ABA8"/>
<path d="M108.811 235.72C109.437 235.72 110.043 235.634 110.25 235.354C110.301 235.28 110.328 235.191 110.328 235.101C110.328 235.011 110.301 234.923 110.25 234.848C110.21 234.78 110.158 234.721 110.095 234.674C110.032 234.627 109.96 234.594 109.883 234.575C109.071 234.356 107.359 235.327 107.286 235.374C107.265 235.385 107.248 235.403 107.239 235.425C107.229 235.446 107.227 235.471 107.233 235.494C107.236 235.516 107.246 235.537 107.262 235.554C107.277 235.57 107.297 235.582 107.319 235.587C107.812 235.673 108.311 235.718 108.811 235.72V235.72ZM109.584 234.775C109.659 234.764 109.735 234.764 109.81 234.775C109.857 234.784 109.901 234.803 109.94 234.831C109.979 234.858 110.012 234.894 110.037 234.935C110.116 235.081 110.09 235.154 110.037 235.194C109.81 235.507 108.571 235.514 107.666 235.387C108.259 235.06 108.911 234.853 109.584 234.775V234.775Z" fill="#00ABA8"/>
<path d="M107.333 235.587H107.379C107.972 235.321 109.138 234.256 109.051 233.71C109.051 233.577 108.938 233.417 108.618 233.384C108.499 233.371 108.379 233.381 108.265 233.416C108.15 233.45 108.044 233.507 107.952 233.584C107.333 234.096 107.2 235.414 107.193 235.467C107.193 235.488 107.198 235.508 107.208 235.526C107.217 235.545 107.23 235.561 107.246 235.574C107.259 235.582 107.273 235.587 107.288 235.589C107.303 235.591 107.318 235.591 107.333 235.587ZM108.525 233.59H108.591C108.805 233.59 108.818 233.69 108.818 233.717C108.871 234.05 108.079 234.882 107.486 235.241C107.543 234.682 107.777 234.155 108.152 233.737C108.267 233.645 108.411 233.598 108.558 233.604L108.525 233.59Z" fill="#00ABA8"/>
<path d="M101.952 235.467H106.847L107.333 224.146H102.438L101.952 235.467Z" fill="#FFC3BD"/>
<path d="M66.041 233.204L70.8229 234.243L75.6248 223.693L70.8429 222.662L66.041 233.204Z" fill="#FFC3BD"/>
<path d="M71.2622 233.763L65.9342 232.599C65.8399 232.579 65.7418 232.592 65.656 232.636C65.5701 232.68 65.5015 232.751 65.4614 232.838L63.5966 236.885C63.5511 236.983 63.5287 237.09 63.5309 237.198C63.5331 237.307 63.56 237.413 63.6094 237.509C63.6588 237.605 63.7296 237.689 63.8162 237.754C63.9028 237.819 64.0031 237.863 64.1094 237.883C65.9942 238.256 66.9266 238.343 69.2909 238.855C70.7427 239.168 74.0261 239.967 76.0308 240.406C78.0354 240.845 78.6948 238.908 77.9489 238.556C74.439 236.951 72.9738 235.54 72.0215 234.223C71.8365 233.978 71.5648 233.814 71.2622 233.763V233.763Z" fill="#263238"/>
<path d="M106.813 234.908H101.485C101.389 234.908 101.295 234.94 101.22 235.001C101.144 235.062 101.092 235.146 101.072 235.241L100.107 239.587C100.082 239.692 100.082 239.8 100.106 239.905C100.13 240.009 100.178 240.107 100.245 240.19C100.313 240.274 100.398 240.341 100.495 240.386C100.592 240.432 100.699 240.454 100.806 240.452C102.737 240.452 105.521 240.313 107.946 240.313C110.776 240.313 113.22 240.466 116.544 240.466C118.542 240.466 119.114 238.436 118.269 238.249C114.446 237.417 111.316 237.324 108.012 235.288C107.656 235.052 107.241 234.92 106.813 234.908Z" fill="#263238"/>
<path d="M87.0329 68.5876C82.4508 69.6392 78.668 81.34 78.668 81.34L87.912 88.3485C90.2941 85.8083 91.9761 82.694 92.7938 79.31C94.3389 73.18 91.7216 67.5093 87.0329 68.5876Z" fill="#00ABA8"/>
<path opacity="0.2" d="M87.0329 68.5876C82.4508 69.6392 78.668 81.34 78.668 81.34L87.912 88.3485C90.2941 85.8083 91.9761 82.694 92.7938 79.31C94.3389 73.18 91.7216 67.5093 87.0329 68.5876Z" fill="#FAFAFA"/>
<path opacity="0.2" d="M90.9623 77.1868C88.4715 79.6494 87.6323 84.1354 87.4658 88.0356L87.8721 88.3485C90.2576 85.8097 91.9421 82.6951 92.7605 79.31C92.8538 78.9439 92.9337 78.5778 93.0003 78.2184L90.9623 77.1868Z" fill="black"/>
<path d="M114.446 68.8338C114.446 68.8338 119.654 74.7108 114.732 111.098H88.5782C88.3984 107.104 90.9225 87.4965 87.0464 68.5809C89.9411 68.0245 92.8687 67.6555 95.8109 67.476C99.5153 67.2629 103.229 67.2629 106.933 67.476C109.469 67.7325 111.981 68.1864 114.446 68.8338V68.8338Z" fill="#00ABA8"/>
<path opacity="0.2" d="M114.446 68.8338C114.446 68.8338 119.654 74.7108 114.732 111.098H88.5782C88.3984 107.104 90.9225 87.4965 87.0464 68.5809C89.9411 68.0245 92.8687 67.6555 95.8109 67.476C99.5153 67.2629 103.229 67.2629 106.933 67.476C109.469 67.7325 111.981 68.1864 114.446 68.8338V68.8338Z" fill="#FAFAFA"/>
<path opacity="0.2" d="M116.73 79.9557L116.63 79.8691L110.683 81.2935C110.343 85.2869 114.479 90.119 116.61 92.3154C116.874 88.2007 116.914 84.0747 116.73 79.9557Z" fill="black"/>
<path opacity="0.2" d="M107.333 224.152L107.08 229.99H102.185L102.438 224.152H107.333Z" fill="black"/>
<path opacity="0.2" d="M70.8359 222.662L75.6245 223.7L73.1469 229.131L68.3584 228.099L70.8359 222.662Z" fill="black"/>
<path d="M94.8517 51.3226C96.1038 56.0149 96.6033 58.817 99.5137 60.7671C103.863 63.7023 109.284 60.3345 109.457 55.3693C109.61 50.8966 107.526 43.9813 102.491 43.0362C101.381 42.82 100.235 42.8914 99.161 43.2434C98.087 43.5954 97.1211 44.2163 96.3553 45.0471C95.5894 45.8778 95.0492 46.8907 94.786 47.9892C94.5228 49.0877 94.5454 50.2353 94.8517 51.3226V51.3226Z" fill="#FFC3BD"/>
<path d="M97.0031 58.97C99.0011 60.1082 106.267 56.3077 104.775 50.5172C104.775 50.5172 107.546 47.1893 107.233 43.5154C106.92 39.8414 104.396 38.4437 101.712 39.2357C99.3474 39.9013 99.414 41.2324 99.414 41.2324C99.414 41.2324 88.2318 42.5636 90.6228 47.0962C86.0673 52.0414 94.5122 57.5457 97.0031 58.97Z" fill="#263238"/>
<path d="M90.9359 47.4556C90.9359 47.4556 89.6039 45.1527 87.6592 46.4439C88.5783 46.4572 90.0701 46.6236 90.9359 47.4556Z" fill="#263238"/>
<path d="M106.873 45.958C106.873 45.958 109.311 40.4604 105.541 38.6899C106.243 39.7486 106.723 40.9385 106.952 42.1877C107.181 43.4369 107.154 44.7195 106.873 45.958V45.958Z" fill="#263238"/>
<path d="M102.831 51.5223C103.155 52.6883 103.858 53.7137 104.829 54.4375C106.101 55.3826 107.053 54.4375 106.966 53.0132C106.88 51.7153 106.121 49.6853 104.715 49.2793C103.31 48.8733 102.464 50.1112 102.831 51.5223Z" fill="#FFC3BD"/>
<path d="M105.455 111.098C105.455 111.098 99.9004 148.457 96.8502 162.434C93.5202 177.742 75.6114 228.485 75.6114 228.485L66.8535 226.589C66.8535 226.589 79.3743 185.256 82.1715 163.825C84.3227 147.365 88.5651 111.071 88.5651 111.071L105.455 111.098Z" fill="#263238"/>
<path d="M77.7089 225.59C77.7488 225.59 76.0772 228.758 76.0772 228.758L66.2271 226.622L67.0529 223.667L77.7089 225.59Z" fill="#00ABA8"/>
<path opacity="0.3" d="M101.945 124.409C95.5247 125.667 96.204 149.595 96.9766 161.901C98.8281 153.202 101.539 136.463 103.39 124.582C102.942 124.362 102.432 124.301 101.945 124.409Z" fill="black"/>
<path d="M114.732 111.098C114.732 111.098 115.398 147.658 114.878 162.567C114.326 178.075 108.884 228.858 108.884 228.858H100.613C100.613 228.858 100.313 178.98 99.9467 163.752C99.5471 147.112 97.5425 111.098 97.5425 111.098H114.732Z" fill="#263238"/>
<path opacity="0.4" d="M160.746 85.3202H143.863L142.917 102.485L159.78 102.931L160.746 85.3202Z" fill="#263238"/>
<path d="M151.848 96.3687L134.938 94.2788C136.298 88.5922 137.315 82.829 137.982 77.0204L154.992 79.1103C154.291 84.9209 153.241 90.6841 151.848 96.3687V96.3687Z" fill="#00ABA8"/>
<path d="M110.496 225.557C110.536 225.557 110.03 228.998 110.03 228.998H99.9469L99.6738 225.93L110.496 225.557Z" fill="#00ABA8"/>
<path d="M116.857 73.2932C117.609 74.4646 118.468 75.7825 119.327 76.9938C120.187 78.2052 121.072 79.4431 121.991 80.6212C123.741 82.9557 125.694 85.1317 127.826 87.1239C128.327 87.5937 128.851 88.038 129.397 88.455L129.797 88.7545C129.721 88.7217 129.644 88.695 129.564 88.6746C129.391 88.6746 129.304 88.6746 129.351 88.6746C129.733 88.6885 130.112 88.6013 130.45 88.4217C131.033 88.1744 131.596 87.883 132.135 87.5498C134.623 85.9215 136.983 84.1058 139.194 82.1187L142.051 84.4216C140.32 87.3306 138.16 89.9625 135.644 92.2288C134.937 92.8604 134.173 93.4241 133.36 93.9127C132.335 94.552 131.191 94.9776 129.997 95.164C129.143 95.276 128.275 95.201 127.453 94.9444C126.997 94.8014 126.561 94.6024 126.154 94.352L125.581 93.9859C124.815 93.4934 124.089 92.9676 123.403 92.4285C120.753 90.2892 118.338 87.8752 116.197 85.227C115.152 83.9358 114.139 82.6312 113.2 81.2735C112.261 79.9157 111.362 78.6112 110.483 77.067L116.857 73.2932Z" fill="#FFC3BD"/>
<path d="M107.226 76.2284C105.661 82.7843 117.529 89.2071 117.529 89.2071L125.242 80.1819C122.929 76.7668 120.29 73.5838 117.363 70.6775C111.995 65.506 108.438 71.2499 107.226 76.2284Z" fill="#00ABA8"/>
<path opacity="0.2" d="M107.226 76.2284C105.661 82.7843 117.529 89.2071 117.529 89.2071L125.242 80.1819C122.929 76.7668 120.29 73.5838 117.363 70.6775C111.995 65.506 108.438 71.2499 107.226 76.2284Z" fill="#FAFAFA"/>
<path d="M138.382 83.4832L140.207 77.6394L144.995 80.0288C144.995 80.0288 144.296 84.2885 140.806 85.0273L138.382 83.4832Z" fill="#FFC3BD"/>
<path d="M142.124 76.0221L146.44 77.2068L144.995 80.0222L140.2 77.6394L142.124 76.0221Z" fill="#FFC3BD"/>
</svg>
