<svg width="350" height="261" viewBox="0 0 350 261" fill="none" xmlns="http://www.w3.org/2000/svg">
<g clip-path="url(#clip0_165_1491)">
<path d="M350 229.367H0V229.542H350V229.367Z" fill="#EBEBEB"/>
<path d="M300.797 234.137H232.477V234.312H300.797V234.137Z" fill="#EBEBEB"/>
<path d="M234.969 238.179H202.3V238.354H234.969V238.179Z" fill="#EBEBEB"/>
<path d="M314.93 240.638H301.497V240.813H314.93V240.638Z" fill="#EBEBEB"/>
<path d="M153.3 238.27H88.5288V238.445H153.3V238.27Z" fill="#EBEBEB"/>
<path d="M82.2991 238.27H68.3691V238.445H82.2991V238.27Z" fill="#EBEBEB"/>
<path d="M63.4551 235.314H40.4531V235.489H63.4551V235.314Z" fill="#EBEBEB"/>
<path d="M165.9 198.126H30.7371C29.6782 198.124 28.6634 197.702 27.9153 196.952C27.1672 196.203 26.7471 195.186 26.7471 194.127V3.99966C26.7563 2.94618 27.1805 1.93888 27.9276 1.19656C28.6747 0.454233 29.6842 0.0368388 30.7371 0.0350342H165.9C166.96 0.0350342 167.977 0.456425 168.726 1.20651C169.476 1.95659 169.897 2.97391 169.897 4.03469V194.127C169.897 195.187 169.476 196.205 168.726 196.955C167.977 197.705 166.96 198.126 165.9 198.126V198.126ZM30.7371 0.175128C29.7246 0.176983 28.7543 0.580742 28.039 1.29778C27.3238 2.01482 26.9221 2.98655 26.9221 3.99966V194.127C26.9221 195.14 27.3238 196.112 28.039 196.829C28.7543 197.546 29.7246 197.949 30.7371 197.951H165.9C166.913 197.949 167.884 197.546 168.601 196.829C169.317 196.112 169.72 195.14 169.722 194.127V3.99966C169.72 2.9859 169.317 2.01419 168.601 1.29735C167.884 0.580514 166.913 0.176979 165.9 0.175128H30.7371Z" fill="#EBEBEB"/>
<path d="M317.317 198.126H182.147C181.087 198.124 180.072 197.703 179.323 196.953C178.573 196.203 178.152 195.187 178.15 194.127V3.99966C178.161 2.94554 178.587 1.93825 179.335 1.19612C180.083 0.453988 181.093 0.0368192 182.147 0.0350342H317.317C318.369 0.0386797 319.376 0.456888 320.122 1.19902C320.867 1.94114 321.291 2.94739 321.3 3.99966V194.127C321.3 195.185 320.881 196.2 320.134 196.95C319.388 197.7 318.375 198.123 317.317 198.126V198.126ZM182.147 0.175128C181.134 0.176979 180.163 0.580514 179.446 1.29735C178.73 2.01419 178.327 2.9859 178.325 3.99966V194.127C178.327 195.14 178.73 196.112 179.446 196.829C180.163 197.546 181.134 197.949 182.147 197.951H317.317C318.33 197.949 319.301 197.546 320.017 196.829C320.734 196.112 321.137 195.14 321.139 194.127V3.99966C321.137 2.9859 320.734 2.01419 320.017 1.29735C319.301 0.580514 318.33 0.176979 317.317 0.175128H182.147Z" fill="#EBEBEB"/>
<path d="M273.749 222.916H62.3209L49.7139 79.4047H261.142L273.749 222.916Z" fill="#F0F0F0"/>
<path d="M58.5899 227.49L62.3209 222.916L49.7139 79.4047L45.9829 84.0417L58.5899 227.49Z" fill="#E0E0E0"/>
<path d="M65.0998 217.473L53.5008 85.2746C53.4728 84.9454 53.5132 84.614 53.6197 84.3013C53.7261 83.9886 53.8962 83.7014 54.1192 83.4579C54.3422 83.2143 54.6133 83.0197 54.9153 82.8863C55.2173 82.7529 55.5437 82.6836 55.8738 82.6829H255.976C256.572 82.6807 257.146 82.9028 257.586 83.3051C258.026 83.7074 258.298 84.2604 258.349 84.8543L269.962 217.053C269.991 217.382 269.951 217.714 269.845 218.027C269.739 218.34 269.569 218.628 269.346 218.872C269.123 219.116 268.851 219.31 268.549 219.443C268.246 219.576 267.919 219.645 267.589 219.645H67.4868C66.8887 219.65 66.3105 219.43 65.8679 219.027C65.4253 218.625 65.151 218.07 65.0998 217.473V217.473Z" fill="#FAFAFA"/>
<path d="M92.0431 222.916H60.1861L57.9321 229.367H89.7891L92.0431 222.916Z" fill="#E0E0E0"/>
<path d="M92.0431 222.916H301.497L299.243 229.367H89.7891L92.0431 222.916Z" fill="#F5F5F5"/>
<path d="M178.29 222.916H218.442L218.008 227.14H177.863L178.29 222.916Z" fill="#E0E0E0"/>
<path d="M239.134 69.9834H289.863C294.063 97.8339 274.624 120.746 246.792 120.746C237.573 120.665 228.513 118.33 220.402 113.945L239.134 69.9834Z" fill="#E0E0E0"/>
<path d="M239.134 69.9834L265.867 31.1006C272.251 35.8513 277.68 41.7666 281.869 48.5351C285.947 55.074 288.666 62.3689 289.863 69.9834H239.134Z" fill="#EBEBEB"/>
<path d="M239.134 69.9834L231.469 19.2207C237.537 19.2458 243.557 20.2826 249.284 22.2887C255.231 24.3565 260.825 27.3287 265.867 31.1006L239.134 69.9834Z" fill="#E6E6E6"/>
<path d="M239.134 69.9834L220.402 113.944C203.357 104.894 191.135 88.0974 188.405 69.9834C184.205 42.1399 203.637 19.2207 231.469 19.2207L239.134 69.9834Z" fill="#F0F0F0"/>
<path d="M176.505 160.574H221.508C222.102 164.432 222.178 168.352 221.732 172.23C221.308 175.968 220.346 179.625 218.876 183.087L176.505 160.574Z" fill="#EBEBEB"/>
<path d="M176.505 160.574L177.632 116.228C188.652 118.243 198.777 123.627 206.612 131.638C214.634 139.743 219.912 149.997 221.508 160.581L176.505 160.574Z" fill="#E0E0E0"/>
<path d="M176.505 160.574L136.549 175.985C134.043 171.156 132.34 165.951 131.509 160.574C127.778 135.869 145.026 115.542 169.708 115.542C172.364 115.55 175.015 115.784 177.632 116.242L176.505 160.574Z" fill="#F0F0F0"/>
<path d="M176.505 160.574L218.876 183.087C212.947 197.006 199.36 205.6 183.309 205.6C164.409 205.6 145.684 193.692 136.549 175.978L176.505 160.574Z" fill="white"/>
<path d="M175 261C249.958 261 310.723 257.45 310.723 253.071C310.723 248.692 249.958 245.141 175 245.141C100.042 245.141 39.2769 248.692 39.2769 253.071C39.2769 257.45 100.042 261 175 261Z" fill="#F5F5F5"/>
<path d="M168.413 129.194H105.357C103.383 129.155 101.491 128.393 100.041 127.051C98.5906 125.71 97.6827 123.883 97.4894 121.916L94.3324 83.1242C94.2407 82.1952 94.346 81.2573 94.6414 80.3718C94.9368 79.4863 95.4156 78.6731 96.0466 77.9855C96.6776 77.2979 97.4465 76.7513 98.3031 76.3815C99.1596 76.0117 100.085 75.8269 101.017 75.8393H164.066C166.042 75.8781 167.935 76.6413 169.385 77.9842C170.835 79.3271 171.743 81.1562 171.934 83.1242L175.091 121.916C175.183 122.844 175.078 123.781 174.783 124.666C174.488 125.55 174.01 126.363 173.379 127.05C172.749 127.737 171.981 128.283 171.125 128.652C170.269 129.022 169.345 129.206 168.413 129.194V129.194Z" fill="white"/>
<path d="M168.413 129.495H105.357C103.302 129.459 101.333 128.666 99.8253 127.267C98.3181 125.869 97.3792 123.964 97.1883 121.916L94.0313 83.1171C93.9366 82.1456 94.0479 81.1651 94.358 80.2396C94.668 79.3141 95.1698 78.4646 95.8306 77.7465C96.4913 77.0285 97.2961 76.4581 98.1923 76.0727C99.0885 75.6873 100.056 75.4956 101.031 75.51H164.08C166.132 75.5454 168.099 76.3355 169.606 77.7296C171.112 79.1236 172.053 81.024 172.249 83.068L175.392 121.916C175.487 122.887 175.376 123.868 175.066 124.793C174.756 125.719 174.254 126.568 173.593 127.286C172.932 128.004 172.127 128.575 171.231 128.96C170.335 129.346 169.368 129.537 168.392 129.523L168.413 129.495ZM101.017 76.1405C100.126 76.1239 99.241 76.2968 98.4213 76.6479C97.6016 76.9989 96.8657 77.5201 96.2623 78.1769C95.6589 78.8337 95.2016 79.6112 94.9208 80.458C94.64 81.3048 94.542 82.2016 94.6333 83.0891L97.7903 121.916C97.9722 123.809 98.8439 125.57 100.239 126.862C101.635 128.153 103.457 128.886 105.357 128.92H168.413C169.309 128.937 170.199 128.762 171.022 128.407C171.845 128.052 172.583 127.526 173.187 126.863C173.79 126.2 174.245 125.416 174.522 124.563C174.799 123.709 174.89 122.807 174.79 121.916L171.633 83.1171C171.451 81.2235 170.58 79.4631 169.184 78.1713C167.789 76.8796 165.967 76.1467 164.066 76.1124L101.017 76.1405Z" fill="#00ABA8"/>
<path d="M151.298 117.867C148.796 120.569 145.584 122.511 142.03 123.471L140.987 120.515C148.75 118.413 154.007 111.143 153.307 102.534C152.857 97.4875 150.531 92.7935 146.79 89.3792L148.799 87.1868C157.899 95.5853 159.026 109.441 151.298 117.867Z" fill="#E0E0E0"/>
<path d="M148.799 87.1658L146.79 89.3583C143.104 85.8961 138.251 83.9504 133.196 83.9087C130.816 83.8798 128.456 84.3504 126.269 85.2903C124.082 86.2301 122.116 87.6183 120.498 89.3653L118.125 87.1658C120.018 85.1335 122.313 83.5183 124.865 82.4232C127.416 81.3281 130.168 80.7772 132.944 80.8056C138.839 80.8625 144.497 83.1324 148.799 87.1658Z" fill="#00ABA8"/>
<path d="M142.03 123.485C134.715 125.481 126.539 123.338 120.624 117.881C111.524 109.476 110.397 95.5994 118.125 87.1798L120.498 89.3793C118.895 91.1456 117.678 93.2272 116.924 95.4912C116.171 97.7551 115.898 100.151 116.123 102.527C116.956 112.803 125.958 121.131 136.227 121.131C137.835 121.135 139.435 120.925 140.987 120.508L142.03 123.485Z" fill="#00ABA8"/>
<path d="M82.5232 13.1267H77.4692V13.7361H82.5232V13.1267Z" fill="#00ABA8"/>
<path d="M72.5622 13.1267H61.0542V13.7361H72.5622V13.1267Z" fill="#00ABA8"/>
<path d="M126.098 68.8836H63.0493C61.0743 68.8466 59.1817 68.0848 57.7312 66.7431C56.2806 65.4013 55.3732 63.5731 55.1813 61.6058L52.0243 22.8071C51.9326 21.8784 52.0378 20.9408 52.3333 20.0557C52.6287 19.1705 53.1077 18.3578 53.7388 17.6707C54.3699 16.9837 55.1389 16.4378 55.9955 16.0687C56.852 15.6997 57.7768 15.5158 58.7093 15.5292H121.758C123.733 15.5678 125.625 16.3301 127.075 17.6715C128.525 19.013 129.433 20.8403 129.626 22.8071L132.783 61.6058C132.875 62.5345 132.77 63.4721 132.474 64.3572C132.179 65.2423 131.7 66.055 131.069 66.7421C130.438 67.4292 129.669 67.9751 128.812 68.3441C127.956 68.7132 127.031 68.897 126.098 68.8836V68.8836Z" fill="white"/>
<path d="M126.098 69.1918H63.0492C60.9974 69.1564 59.0305 68.3663 57.5237 66.9723C56.017 65.5783 55.076 63.6779 54.8802 61.6338L51.7232 22.8351C51.6285 21.8636 51.7398 20.8831 52.0499 19.9576C52.3599 19.0321 52.8617 18.1826 53.5225 17.4645C54.1832 16.7465 54.988 16.1761 55.8842 15.7907C56.7804 15.4053 57.7478 15.2136 58.7232 15.2281H121.772C123.824 15.2634 125.791 16.0535 127.298 17.4476C128.804 18.8416 129.745 20.742 129.941 22.7861L133.098 61.5848C133.193 62.5563 133.082 63.5368 132.771 64.4623C132.461 65.3877 131.96 66.2373 131.299 66.9553C130.638 67.6734 129.833 68.2438 128.937 68.6292C128.041 69.0146 127.074 69.2063 126.098 69.1918V69.1918ZM58.7092 15.8305C57.8171 15.8138 56.9316 15.9869 56.1114 16.3383C55.2911 16.6898 54.5549 17.2116 53.9513 17.8692C53.3478 18.5268 52.8907 19.3052 52.6104 20.1528C52.33 21.0005 52.2328 21.898 52.3252 22.7861L55.4822 61.5848C55.6641 63.4783 56.5358 65.2387 57.9313 66.5305C59.3268 67.8223 61.1485 68.5552 63.0492 68.5894H126.098C126.99 68.606 127.874 68.4331 128.694 68.082C129.514 67.731 130.25 67.2098 130.853 66.553C131.457 65.8962 131.914 65.1187 132.195 64.2719C132.475 63.4251 132.573 62.5283 132.482 61.6408L129.325 22.8421C129.142 20.9491 128.27 19.1896 126.874 17.8981C125.479 16.6066 123.658 15.8733 121.758 15.8375L58.7092 15.8305Z" fill="#00ABA8"/>
<path d="M57.7291 26.6597H91.1401L90.8671 23.3605H57.4561L57.7291 26.6597Z" fill="#E0E0E0"/>
<path d="M124.551 26.6597H91.1402L90.8672 23.3605H124.285L124.551 26.6597Z" fill="#00ABA8"/>
<path d="M58.4292 35.2614H67.9562L67.6902 31.9552H58.1562L58.4292 35.2614Z" fill="#E0E0E0"/>
<path d="M125.251 35.2614H67.9559L67.6899 31.9552H124.985L125.251 35.2614Z" fill="#00ABA8"/>
<path d="M59.129 43.8561H88.865L88.599 40.5569H58.856L59.129 43.8561Z" fill="#E0E0E0"/>
<path d="M125.951 43.8561H88.8651L88.5991 40.5569H125.685L125.951 43.8561Z" fill="#00ABA8"/>
<path d="M59.8292 52.4578H110.586L110.313 49.1516H59.5562L59.8292 52.4578Z" fill="#E0E0E0"/>
<path d="M126.651 52.4578H110.586L110.313 49.1516H126.378L126.651 52.4578Z" fill="#00ABA8"/>
<path d="M60.5223 61.0525H84.0003L83.7343 57.7533H60.2563L60.5223 61.0525Z" fill="#E0E0E0"/>
<path d="M127.351 61.0525H84.0004L83.7344 57.7533H127.078L127.351 61.0525Z" fill="#00ABA8"/>
<path d="M212.296 68.8836H149.247C147.276 68.8415 145.388 68.0775 143.942 66.7362C142.496 65.395 141.591 63.5696 141.4 61.6058L138.243 22.8071C138.152 21.8808 138.256 20.9456 138.55 20.0624C138.844 19.1793 139.32 18.3679 139.948 17.6813C140.576 16.9947 141.342 16.4482 142.195 16.0774C143.048 15.7066 143.97 15.5198 144.9 15.5293H207.956C209.931 15.5678 211.822 16.3301 213.273 17.6715C214.723 19.013 215.631 20.8404 215.824 22.8071L218.981 61.6058C219.073 62.5345 218.968 63.4721 218.672 64.3572C218.377 65.2424 217.898 66.0551 217.267 66.7421C216.635 67.4292 215.866 67.9751 215.01 68.3442C214.153 68.7132 213.229 68.897 212.296 68.8836Z" fill="white"/>
<path d="M212.296 69.1918H149.247C147.197 69.1475 145.234 68.3546 143.728 66.9624C142.222 65.5703 141.277 63.675 141.071 61.6338L137.9 22.8351C137.805 21.8636 137.917 20.8831 138.227 19.9576C138.537 19.0321 139.038 18.1826 139.699 17.4645C140.36 16.7465 141.165 16.1761 142.061 15.7907C142.957 15.4053 143.925 15.2136 144.9 15.2281H207.956C210.008 15.2634 211.975 16.0535 213.481 17.4476C214.988 18.8416 215.929 20.742 216.125 22.7861L219.282 61.5848C219.377 62.5563 219.265 63.5368 218.955 64.4623C218.645 65.3877 218.143 66.2373 217.483 66.9553C216.822 67.6734 216.017 68.2438 215.121 68.6292C214.225 69.0146 213.257 69.2063 212.282 69.1918H212.296ZM144.9 15.8305C144.008 15.8148 143.124 15.9886 142.304 16.3405C141.485 16.6924 140.75 17.2144 140.147 17.8719C139.544 18.5293 139.088 19.3074 138.808 20.1545C138.528 21.0017 138.431 21.8986 138.523 22.7861L141.68 61.5848C141.862 63.4783 142.734 65.2387 144.129 66.5305C145.525 67.8223 147.346 68.5552 149.247 68.5894H212.296C213.187 68.606 214.072 68.4331 214.892 68.082C215.712 67.731 216.447 67.2098 217.051 66.553C217.654 65.8962 218.112 65.1187 218.392 64.2719C218.673 63.4251 218.771 62.5283 218.68 61.6408L215.523 22.8421C215.34 20.9491 214.467 19.1896 213.072 17.8981C211.677 16.6066 209.856 15.8733 207.956 15.8375L144.9 15.8305Z" fill="#00ABA8"/>
<path d="M180.691 61.0525H179.578L176.512 23.3605H177.625L180.691 61.0525Z" fill="#E0E0E0"/>
<path d="M182.371 45.3901H175.35L174.146 30.6593H181.174L182.371 45.3901Z" fill="#00ABA8"/>
<path d="M166.866 61.0525H165.753L162.687 23.3605H163.8L166.866 61.0525Z" fill="#E0E0E0"/>
<path d="M168.819 48.6613H161.791L160.741 35.7517H167.762L168.819 48.6613Z" fill="#00ABA8"/>
<path d="M153.048 61.0525H151.935L148.869 23.3605H149.982L153.048 61.0525Z" fill="#E0E0E0"/>
<path d="M154.133 38.0422H147.112L146.391 29.1743H153.412L154.133 38.0422Z" fill="#00ABA8"/>
<path d="M194.509 61.0525H193.396L190.33 23.3605H191.443L194.509 61.0525Z" fill="#E0E0E0"/>
<path d="M196.868 53.7536H189.847L187.971 30.6593H194.992L196.868 53.7536Z" fill="#00ABA8"/>
<path d="M208.334 61.0525H207.214L204.148 23.3605H205.261L208.334 61.0525Z" fill="#E0E0E0"/>
<path d="M210.917 56.5205H203.896L202.391 38.0282H209.412L210.917 56.5205Z" fill="#00ABA8"/>
<path d="M144.823 188.999H81.7669C79.7928 188.959 77.9019 188.196 76.452 186.855C75.0021 185.514 74.0937 183.688 73.8989 181.721L70.7489 142.93C70.6572 142.002 70.7623 141.065 71.0574 140.18C71.3524 139.295 71.8307 138.483 72.4611 137.796C73.0914 137.109 73.8595 136.563 74.7153 136.194C75.571 135.824 76.495 135.64 77.4269 135.652H140.483C142.457 135.692 144.348 136.455 145.798 137.796C147.248 139.137 148.156 140.964 148.351 142.93L151.508 181.729C151.598 182.656 151.491 183.593 151.194 184.477C150.898 185.36 150.419 186.172 149.788 186.858C149.157 187.544 148.389 188.089 147.534 188.458C146.678 188.827 145.754 189.012 144.823 188.999V188.999Z" fill="white"/>
<path d="M144.823 189.3H81.7669C79.7156 189.264 77.7495 188.473 76.2431 187.079C74.7367 185.685 73.7952 183.786 73.5979 181.742L70.4409 142.93C70.3462 141.958 70.4576 140.978 70.7676 140.052C71.0777 139.127 71.5795 138.277 72.2403 137.559C72.901 136.841 73.7058 136.271 74.602 135.885C75.4982 135.5 76.4656 135.308 77.4409 135.323H140.497C142.553 135.364 144.522 136.163 146.027 137.567C147.532 138.97 148.466 140.88 148.652 142.93L151.809 181.721C151.904 182.693 151.792 183.673 151.482 184.599C151.172 185.524 150.67 186.374 150.01 187.092C149.349 187.81 148.544 188.38 147.648 188.766C146.752 189.151 145.784 189.343 144.809 189.328L144.823 189.3ZM77.4269 135.925C76.5308 135.909 75.6415 136.084 74.8184 136.438C73.9952 136.793 73.2572 137.32 72.6536 137.983C72.05 138.646 71.5948 139.43 71.3182 140.283C71.0417 141.136 70.9502 142.038 71.0499 142.93L74.1999 181.693C74.3817 183.586 75.2524 185.345 76.6465 186.637C78.0405 187.928 79.8604 188.662 81.7599 188.698H144.816C145.707 188.714 146.592 188.54 147.412 188.188C148.231 187.836 148.966 187.314 149.569 186.657C150.172 185.999 150.628 185.221 150.908 184.374C151.188 183.527 151.285 182.63 151.193 181.742L148.05 142.93C147.867 141.037 146.994 139.277 145.599 137.986C144.204 136.694 142.383 135.961 140.483 135.925H77.4269Z" fill="#00ABA8"/>
<path d="M85.9601 161.394L99.5471 177.105L115.136 153.052L124.768 165.485L127.12 161.849L142.877 180.748L82.3691 180.72L85.9601 161.394Z" fill="#00ABA8"/>
<path d="M131.327 162.368L125.013 175.901L104.867 143.896L95.382 164.224L92.337 159.391L82.376 180.748L142.87 180.713L131.327 162.368Z" fill="#E0E0E0"/>
<path d="M261.016 72.9254C262.703 76.0915 264.152 79.2296 265.517 82.4797C266.885 85.7663 268.054 89.1322 269.017 92.5594C269.262 93.428 269.472 94.3246 269.675 95.2212C269.832 95.8428 269.926 96.4788 269.955 97.1194C269.979 97.7564 269.944 98.3942 269.85 99.0247C269.481 101.062 268.771 103.023 267.75 104.825C265.986 108.023 263.783 110.958 261.205 113.545C260.874 113.887 260.43 114.098 259.956 114.14C259.482 114.181 259.009 114.051 258.623 113.772C258.238 113.493 257.965 113.084 257.855 112.621C257.746 112.157 257.807 111.67 258.027 111.248L258.076 111.157C259.625 108.303 260.972 105.345 262.108 102.303C262.589 101.021 262.879 99.676 262.969 98.3102C262.972 98.0871 262.953 97.8643 262.913 97.6448C262.903 97.5749 262.885 97.5066 262.857 97.4416L262.724 97.0284C262.493 96.2719 262.255 95.5154 261.975 94.7589C260.911 91.7188 259.602 88.6648 258.237 85.6528C256.872 82.6408 255.437 79.5658 253.981 76.6449V76.5818C253.5 75.6446 253.411 74.5546 253.734 73.5516C254.056 72.5487 254.763 71.7149 255.7 71.2338C256.636 70.7526 257.726 70.6635 258.728 70.986C259.73 71.3085 260.563 72.0162 261.044 72.9534L261.016 72.9254Z" fill="#263238"/>
<path d="M258.825 110.855L255.5 111.913L259.434 116.515C260.387 115.618 261.095 114.492 261.492 113.244C261.578 112.924 261.564 112.585 261.451 112.273C261.339 111.961 261.133 111.691 260.862 111.5L260.302 111.094C260.092 110.94 259.849 110.839 259.592 110.798C259.335 110.756 259.073 110.776 258.825 110.855V110.855Z" fill="#7F3E3B"/>
<path d="M250.88 114.75L255.094 118.091L259.42 116.515L255.486 111.906L250.88 114.75Z" fill="#7F3E3B"/>
<path d="M236.495 49.4949C236.411 49.9081 236.124 50.1953 235.851 50.1463C235.578 50.0973 235.431 49.712 235.515 49.2987C235.599 48.8855 235.886 48.5983 236.159 48.6473C236.432 48.6963 236.6 49.0676 236.495 49.4949Z" fill="#263238"/>
<path d="M236.159 50.2092C235.408 51.3751 234.501 52.4332 233.464 53.3543C233.706 53.6141 234.002 53.8177 234.331 53.9508C234.66 54.084 235.014 54.1434 235.368 54.1248L236.159 50.2092Z" fill="#630F0F"/>
<path d="M238.476 47.5055C238.525 47.5044 238.571 47.4895 238.611 47.4626C238.651 47.4357 238.683 47.3979 238.702 47.3536C238.721 47.3094 238.727 47.2606 238.719 47.2131C238.712 47.1655 238.691 47.1211 238.658 47.0852C238.399 46.7908 238.073 46.5628 237.708 46.4202C237.343 46.2777 236.948 46.2247 236.558 46.2657C236.522 46.2658 236.486 46.274 236.453 46.2895C236.419 46.3051 236.39 46.3277 236.367 46.3557C236.343 46.3838 236.326 46.4166 236.316 46.452C236.307 46.4873 236.305 46.5243 236.311 46.5604C236.317 46.5965 236.331 46.6308 236.352 46.661C236.373 46.6911 236.4 46.7164 236.432 46.735C236.463 46.7536 236.498 46.7651 236.535 46.7688C236.571 46.7724 236.608 46.768 236.642 46.756V46.756C236.955 46.7321 237.268 46.7833 237.557 46.9051C237.845 47.0269 238.101 47.216 238.301 47.4564C238.351 47.4946 238.414 47.5122 238.476 47.5055V47.5055Z" fill="#263238"/>
<path d="M247.996 57.0388C247.247 60.8774 246.792 66.1869 249.473 68.7506C249.473 68.7506 248.423 72.6382 241.304 72.6382C233.471 72.6382 237.538 69.2269 237.538 69.2269C240.793 68.2112 240.765 64.5058 240.016 61.5218L247.996 57.0388Z" fill="#7F3E3B"/>
<path d="M236.159 68.6245C236.159 68.6245 237.307 65.9207 238.469 65.4513C239.631 64.982 247.065 63.7632 248.773 64.8419C250.481 65.9207 251.643 69.381 251.643 69.381L236.159 68.6245Z" fill="#263238"/>
<path d="M244.013 247.999C243.313 247.999 242.69 247.908 242.473 247.6C242.417 247.522 242.387 247.427 242.387 247.33C242.387 247.234 242.417 247.139 242.473 247.061C242.516 246.987 242.573 246.924 242.642 246.874C242.711 246.824 242.789 246.79 242.872 246.774C243.74 246.535 245.574 247.579 245.672 247.621C245.694 247.634 245.711 247.653 245.721 247.675C245.731 247.698 245.733 247.723 245.728 247.747C245.726 247.773 245.715 247.797 245.697 247.816C245.679 247.835 245.656 247.848 245.63 247.852C245.097 247.947 244.556 247.997 244.013 247.999V247.999ZM243.18 246.984C243.102 246.973 243.021 246.973 242.942 246.984C242.891 246.992 242.842 247.013 242.8 247.043C242.757 247.073 242.722 247.113 242.697 247.159C242.613 247.313 242.641 247.383 242.697 247.432C242.942 247.768 244.265 247.775 245.238 247.642C244.603 247.286 243.904 247.058 243.18 246.97V246.984Z" fill="#263238"/>
<path d="M245.595 247.838H245.546C244.909 247.551 243.656 246.437 243.754 245.828C243.754 245.688 243.873 245.513 244.216 245.478C244.341 245.463 244.468 245.474 244.588 245.51C244.709 245.546 244.82 245.607 244.916 245.688C245.616 246.241 245.728 247.649 245.735 247.712C245.735 247.734 245.73 247.755 245.72 247.774C245.71 247.794 245.696 247.811 245.679 247.824C245.654 247.839 245.624 247.844 245.595 247.838ZM244.314 245.737H244.244C244.02 245.737 244.006 245.849 243.999 245.877C243.943 246.234 244.79 247.124 245.441 247.516C245.378 246.918 245.134 246.353 244.741 245.898C244.623 245.783 244.465 245.718 244.3 245.716L244.314 245.737Z" fill="#263238"/>
<path d="M251.356 247.712H246.12L245.595 235.573H250.831L251.356 247.712Z" fill="#7F3E3B"/>
<path d="M246.148 247.11H251.874C251.978 247.11 252.079 247.146 252.16 247.21C252.241 247.275 252.299 247.366 252.322 247.467L253.351 252.125C253.378 252.237 253.379 252.354 253.353 252.467C253.328 252.579 253.277 252.685 253.205 252.775C253.132 252.864 253.041 252.937 252.936 252.985C252.832 253.034 252.717 253.059 252.602 253.057C250.537 253.022 247.555 252.903 244.958 252.903C241.927 252.903 241.556 253.071 238 253.071C235.851 253.071 235.256 250.892 236.152 250.696C240.254 249.8 241.346 249.701 244.888 247.516C245.262 247.266 245.699 247.125 246.148 247.11Z" fill="#263238"/>
<path d="M258.853 68.7645C263.753 69.8923 267.001 83.1521 267.001 83.1521L258.804 89.3162C255.75 87.1302 253.584 83.9181 252.7 80.2661C251.034 73.6958 253.834 67.6158 258.853 68.7645Z" fill="#263238"/>
<path opacity="0.2" d="M254.646 77.9897C257.313 80.6305 259.035 84.7983 259.245 88.98L258.811 89.3163C255.762 87.1284 253.601 83.9163 252.721 80.2663C252.623 79.874 252.532 79.4817 252.462 79.0965L254.646 77.9897Z" fill="#00ABA8"/>
<path d="M276.507 88.5134L236.726 104.419L248.546 134.022L288.328 118.116L276.507 88.5134Z" fill="#263238"/>
<path opacity="0.5" d="M275.93 88.7495L236.733 104.422L248.553 134.024L287.75 118.352L275.93 88.7495Z" fill="white"/>
<g opacity="0.5">
<path d="M243.906 104.581L240.195 106.065L241.247 108.7L244.958 107.216L243.906 104.581Z" fill="#263238"/>
<path d="M250.036 102.132L246.325 103.616L247.377 106.25L251.088 104.766L250.036 102.132Z" fill="#263238"/>
<path d="M256.161 99.6889L252.45 101.173L253.502 103.807L257.213 102.323L256.161 99.6889Z" fill="#263238"/>
<path d="M262.291 97.237L258.579 98.7211L259.631 101.355L263.343 99.8714L262.291 97.237Z" fill="#263238"/>
<path d="M268.413 94.7877L264.702 96.2717L265.754 98.9061L269.465 97.4221L268.413 94.7877Z" fill="#263238"/>
<path d="M274.543 92.3382L270.832 93.8223L271.883 96.4566L275.595 94.9726L274.543 92.3382Z" fill="#263238"/>
<path d="M245.648 108.936L241.936 110.42L242.988 113.054L246.7 111.57L245.648 108.936Z" fill="#263238"/>
<path d="M251.77 106.486L248.059 107.97L249.111 110.605L252.822 109.121L251.77 106.486Z" fill="#263238"/>
<path d="M257.893 104.03L254.181 105.514L255.233 108.148L258.945 106.664L257.893 104.03Z" fill="#263238"/>
<path d="M264.029 101.578L260.317 103.062L261.369 105.696L265.081 104.212L264.029 101.578Z" fill="#263238"/>
<path d="M270.155 99.1351L266.443 100.619L267.495 103.254L271.206 101.769L270.155 99.1351Z" fill="#263238"/>
<path d="M276.277 96.6857L272.565 98.1698L273.617 100.804L277.329 99.3201L276.277 96.6857Z" fill="#263238"/>
<path d="M247.379 113.277L243.667 114.761L244.719 117.395L248.431 115.911L247.379 113.277Z" fill="#263238"/>
<path d="M253.502 110.827L249.79 112.311L250.842 114.946L254.554 113.462L253.502 110.827Z" fill="#263238"/>
<path d="M259.634 108.384L255.922 109.868L256.974 112.503L260.686 111.019L259.634 108.384Z" fill="#263238"/>
<path d="M265.763 105.932L262.051 107.416L263.103 110.051L266.815 108.567L265.763 105.932Z" fill="#263238"/>
<path d="M271.886 103.483L268.174 104.967L269.226 107.601L272.938 106.117L271.886 103.483Z" fill="#263238"/>
<path d="M278.015 101.034L274.304 102.518L275.356 105.152L279.067 103.668L278.015 101.034Z" fill="#263238"/>
<path d="M249.12 117.624L245.408 119.108L246.46 121.742L250.172 120.258L249.12 117.624Z" fill="#263238"/>
<path d="M255.242 115.175L251.531 116.659L252.583 119.293L256.294 117.809L255.242 115.175Z" fill="#263238"/>
<path d="M261.365 112.725L257.654 114.209L258.706 116.844L262.417 115.36L261.365 112.725Z" fill="#263238"/>
<path d="M267.502 110.273L263.79 111.757L264.842 114.392L268.554 112.908L267.502 110.273Z" fill="#263238"/>
<path d="M273.624 107.824L269.913 109.308L270.965 111.942L274.676 110.458L273.624 107.824Z" fill="#263238"/>
<path d="M279.75 105.381L276.038 106.865L277.09 109.499L280.802 108.015L279.75 105.381Z" fill="#263238"/>
<path d="M250.851 121.965L247.14 123.449L248.192 126.083L251.903 124.599L250.851 121.965Z" fill="#263238"/>
<path d="M256.974 119.523L253.262 121.007L254.314 123.641L258.026 122.157L256.974 119.523Z" fill="#263238"/>
<path d="M263.104 117.066L259.392 118.55L260.444 121.185L264.156 119.701L263.104 117.066Z" fill="#263238"/>
<path d="M269.229 114.63L265.518 116.114L266.569 118.749L270.281 117.265L269.229 114.63Z" fill="#263238"/>
<path d="M275.358 112.178L271.646 113.662L272.698 116.297L276.41 114.813L275.358 112.178Z" fill="#263238"/>
<path d="M281.488 109.722L277.776 111.206L278.828 113.84L282.54 112.356L281.488 109.722Z" fill="#263238"/>
<path d="M252.593 126.319L248.881 127.803L249.933 130.438L253.644 128.954L252.593 126.319Z" fill="#263238"/>
<path d="M258.715 123.87L255.003 125.354L256.055 127.988L259.767 126.504L258.715 123.87Z" fill="#263238"/>
<path d="M264.838 121.421L261.126 122.905L262.178 125.539L265.89 124.055L264.838 121.421Z" fill="#263238"/>
<path d="M270.961 118.971L267.249 120.455L268.301 123.09L272.013 121.606L270.961 118.971Z" fill="#263238"/>
<path d="M277.096 116.512L273.385 117.996L274.437 120.631L278.148 119.147L277.096 116.512Z" fill="#263238"/>
<path d="M283.219 114.063L279.508 115.547L280.56 118.181L284.271 116.697L283.219 114.063Z" fill="#263238"/>
</g>
<path d="M273.217 97.8899C273.122 97.6189 273.135 97.3214 273.253 97.0597C273.372 96.798 273.587 96.5923 273.853 96.4855C274.12 96.3788 274.418 96.3794 274.684 96.487C274.95 96.5947 275.164 96.8012 275.282 97.0633C275.344 97.2003 275.377 97.3483 275.38 97.4984C275.382 97.6486 275.355 97.7977 275.299 97.937C275.242 98.0762 275.159 98.2026 275.052 98.3086C274.946 98.4146 274.819 98.4979 274.68 98.5537C274.541 98.6095 274.392 98.6365 274.242 98.6331C274.092 98.6297 273.944 98.596 273.807 98.534C273.671 98.472 273.548 98.3829 273.446 98.2722C273.345 98.1616 273.267 98.0315 273.217 97.8899V97.8899Z" fill="white"/>
<path d="M272.3 113.377C272.221 113.174 272.203 112.951 272.25 112.738C272.296 112.524 272.405 112.329 272.562 112.178C272.719 112.026 272.917 111.924 273.132 111.885C273.347 111.846 273.568 111.871 273.769 111.958C273.969 112.044 274.14 112.188 274.258 112.372C274.377 112.555 274.439 112.769 274.436 112.988C274.433 113.206 274.366 113.419 274.242 113.599C274.119 113.78 273.945 113.919 273.742 114.001C273.607 114.055 273.462 114.082 273.316 114.08C273.17 114.078 273.026 114.047 272.891 113.99C272.757 113.932 272.636 113.848 272.535 113.743C272.433 113.637 272.354 113.513 272.3 113.377V113.377Z" fill="white"/>
<path d="M258.3 113.93C258.219 113.726 258.2 113.501 258.246 113.286C258.292 113.07 258.4 112.873 258.558 112.719C258.716 112.566 258.916 112.462 259.133 112.422C259.35 112.383 259.573 112.408 259.776 112.495C259.978 112.583 260.15 112.728 260.269 112.914C260.389 113.099 260.451 113.315 260.447 113.536C260.443 113.756 260.375 113.971 260.249 114.152C260.124 114.333 259.947 114.473 259.742 114.554C259.607 114.608 259.462 114.635 259.316 114.634C259.17 114.632 259.026 114.601 258.892 114.543C258.758 114.485 258.636 114.401 258.535 114.296C258.433 114.191 258.354 114.067 258.3 113.93V113.93Z" fill="white"/>
<path d="M249.522 127.52C249.439 127.315 249.419 127.091 249.464 126.875C249.508 126.659 249.616 126.461 249.774 126.306C249.931 126.152 250.131 126.047 250.347 126.006C250.564 125.965 250.788 125.99 250.991 126.077C251.193 126.163 251.366 126.308 251.486 126.493C251.606 126.678 251.669 126.895 251.666 127.115C251.663 127.336 251.595 127.551 251.47 127.732C251.345 127.914 251.169 128.055 250.964 128.136C250.691 128.244 250.386 128.24 250.116 128.125C249.846 128.01 249.633 127.792 249.522 127.52Z" fill="white"/>
<path d="M250.558 127.52C250.478 127.521 250.399 127.496 250.334 127.449C250.288 127.421 250.248 127.383 250.217 127.339C250.186 127.295 250.163 127.245 250.152 127.192C250.14 127.139 250.139 127.085 250.149 127.032C250.158 126.978 250.179 126.927 250.208 126.882L259 113.3C259.036 113.245 259.084 113.198 259.142 113.165C259.199 113.133 259.263 113.114 259.329 113.111L272.944 112.572L273.847 97.4556C273.865 97.3558 273.919 97.266 273.998 97.2033C274.078 97.1405 274.177 97.1092 274.278 97.1152C274.38 97.1213 274.475 97.1643 274.546 97.2361C274.618 97.3079 274.66 97.4034 274.666 97.5046L273.749 112.992C273.742 113.094 273.698 113.19 273.624 113.261C273.55 113.333 273.453 113.374 273.35 113.377L259.574 113.923L250.908 127.337C250.87 127.395 250.817 127.441 250.756 127.473C250.695 127.505 250.627 127.521 250.558 127.52Z" fill="white"/>
<path d="M227.822 74.0251C226.751 79.6848 226.079 91.3195 229.222 114.351H257.222C256.718 110.358 254.709 89.05 258.86 68.7646C255.762 68.1701 252.629 67.7746 249.48 67.5808C245.517 67.35 241.543 67.35 237.58 67.5808C236.264 67.6999 234.976 67.889 233.828 68.0921C232.344 68.3543 230.974 69.0623 229.901 70.122C228.828 71.1818 228.103 72.5431 227.822 74.0251V74.0251Z" fill="#00ABA8"/>
<path opacity="0.2" d="M232.232 82.7458L226.968 83.1661C226.779 89.9816 227.248 99.9282 229.194 114.351H229.446C232.603 103.963 236.789 89.1131 232.232 82.7458Z" fill="#00ABA8"/>
<path opacity="0.2" d="M245.595 235.573L245.861 241.835H251.104L250.838 235.573H245.595Z" fill="#00ABA8"/>
<path d="M250.488 51.4281C249.144 56.4574 248.605 59.4624 245.511 61.5568C240.849 64.6949 235.011 61.0875 234.857 55.764C234.696 50.9658 236.922 43.5549 242.312 42.5392C243.5 42.3106 244.726 42.3895 245.875 42.7684C247.023 43.1473 248.056 43.8135 248.875 44.704C249.694 45.5945 250.273 46.6796 250.555 47.8564C250.837 49.0332 250.814 50.2626 250.488 51.4281V51.4281Z" fill="#7F3E3B"/>
<path d="M238.7 51.4631L235.977 52.1636L238.511 45.5862C237.841 43.9754 237.759 42.18 238.28 40.5148C238.377 40.2191 238.564 39.9612 238.815 39.7777C239.067 39.5942 239.369 39.4943 239.68 39.4922C245.322 39.3871 251.223 42.5532 254.191 44.9488C254.468 45.1721 254.654 45.4887 254.715 45.8393C254.775 46.19 254.706 46.5507 254.52 46.854C253.789 47.9395 252.931 48.9341 251.965 49.817C251.909 51.6592 248.906 59.9737 247.247 60.9124C245.588 61.851 242.403 61.4657 241.556 59.9457C240.709 58.4257 237.867 56.4224 238.7 51.4631Z" fill="#263238"/>
<path d="M241.248 51.5682C240.938 52.8221 240.225 53.9393 239.218 54.7483C237.881 55.799 236.838 54.8324 236.894 53.2844C236.943 51.8834 237.699 49.67 239.19 49.2147C240.681 48.7594 241.598 50.0482 241.248 51.5682Z" fill="#7F3E3B"/>
<path d="M289.156 246.178C289.156 245.478 289.24 244.854 289.541 244.63C289.621 244.573 289.716 244.542 289.814 244.542C289.912 244.542 290.008 244.573 290.087 244.63C290.23 244.718 290.333 244.859 290.374 245.022C290.619 245.891 289.59 247.733 289.541 247.824C289.531 247.848 289.512 247.867 289.489 247.878C289.466 247.89 289.44 247.893 289.415 247.887C289.391 247.883 289.368 247.872 289.351 247.854C289.333 247.836 289.321 247.814 289.317 247.789C289.217 247.258 289.163 246.719 289.156 246.178ZM290.171 245.338C290.183 245.259 290.183 245.178 290.171 245.099C290.163 245.048 290.142 244.999 290.112 244.957C290.082 244.914 290.042 244.879 289.996 244.854C289.842 244.77 289.765 244.798 289.723 244.854C289.387 245.1 289.387 246.423 289.534 247.397C289.876 246.757 290.092 246.058 290.171 245.338V245.338Z" fill="#263238"/>
<path d="M289.31 247.754C289.308 247.738 289.308 247.721 289.31 247.705C289.59 247.075 290.71 245.814 291.305 245.905C291.445 245.905 291.62 246.024 291.655 246.36C291.672 246.485 291.661 246.612 291.625 246.733C291.589 246.854 291.528 246.965 291.445 247.061C290.906 247.761 289.492 247.88 289.436 247.887C289.415 247.891 289.393 247.888 289.373 247.879C289.353 247.871 289.336 247.856 289.324 247.838C289.316 247.826 289.311 247.812 289.309 247.798C289.306 247.783 289.307 247.768 289.31 247.754V247.754ZM291.41 246.465C291.41 246.465 291.41 246.416 291.41 246.388C291.41 246.164 291.298 246.15 291.27 246.15C290.913 246.094 290.031 246.949 289.646 247.6C290.242 247.536 290.803 247.291 291.256 246.9C291.363 246.779 291.425 246.626 291.431 246.465H291.41Z" fill="#263238"/>
<path d="M289.394 247.789L284.277 248.153L281.407 235.916L286.517 235.552L289.394 247.789Z" fill="#7F3E3B"/>
<path d="M289.373 246.598L283.675 246.094C283.572 246.083 283.467 246.108 283.38 246.166C283.294 246.224 283.229 246.31 283.199 246.409L281.757 250.962C281.721 251.075 281.712 251.194 281.73 251.31C281.748 251.426 281.793 251.537 281.86 251.634C281.928 251.73 282.017 251.809 282.121 251.865C282.224 251.921 282.339 251.953 282.457 251.957C284.515 252.104 287.497 252.244 290.08 252.475C293.097 252.741 291.144 252.734 294.686 253.05C296.828 253.239 297.619 251.123 296.737 250.85C292.733 249.589 292.005 248.749 290.626 247.117C290.462 246.952 290.266 246.821 290.051 246.732C289.836 246.643 289.606 246.598 289.373 246.598V246.598Z" fill="#263238"/>
<path opacity="0.2" d="M281.407 235.916L282.891 242.228L288.001 241.863L286.524 235.552L281.407 235.916Z" fill="#00ABA8"/>
<path d="M239.134 114.351C239.134 114.351 251.181 154.628 255.759 169.575C260.764 185.945 279.818 240.252 279.818 240.252L289.058 238.221C289.058 238.221 276.003 191.563 270.592 168.728C266.434 151.216 257.215 114.351 257.215 114.351H239.134Z" fill="#263238"/>
<path d="M278.194 237.394C278.152 237.394 279.104 241.002 279.104 241.002L290.213 239.811L290.164 236.505L278.194 237.394Z" fill="#263238"/>
<path opacity="0.3" d="M245.805 133.018C252.476 133.894 255.129 157.156 256.13 170.801C256.004 170.367 255.871 169.961 255.752 169.568C253.26 161.408 248.535 145.683 244.755 133.095C245.094 132.987 245.454 132.961 245.805 133.018V133.018Z" fill="#00ABA8"/>
<path d="M229.194 114.351C229.194 114.351 233.233 153.577 234.976 169.54C236.782 186.148 243.6 240.624 243.6 240.624H252.476C252.476 240.624 251.398 187.143 251.041 170.808C250.649 153.002 247.625 114.351 247.625 114.351H229.194Z" fill="#263238"/>
<path d="M242.2 237.086C242.158 237.086 242.697 240.771 242.697 240.771H253.491L253.785 237.485L242.2 237.086Z" fill="#263238"/>
<path d="M191.289 151.251C192.947 153.881 195.347 155.959 198.185 157.223C201.024 158.488 204.173 158.882 207.235 158.355C210.297 157.828 213.134 156.405 215.387 154.265C217.641 152.124 219.21 149.364 219.895 146.331C220.58 143.299 220.352 140.131 219.238 137.229C218.124 134.327 216.175 131.82 213.638 130.026C211.1 128.232 208.088 127.231 204.982 127.151C201.877 127.07 198.816 127.912 196.189 129.572C194.444 130.673 192.933 132.107 191.743 133.793C190.552 135.478 189.705 137.382 189.25 139.396C188.795 141.409 188.741 143.492 189.091 145.526C189.441 147.561 190.188 149.506 191.289 151.251V151.251ZM215.789 135.841C217.184 138.055 217.892 140.632 217.822 143.248C217.753 145.864 216.911 148.401 215.401 150.537C213.891 152.674 211.782 154.315 209.341 155.252C206.899 156.189 204.235 156.381 201.684 155.803C199.134 155.226 196.812 153.904 195.012 152.006C193.212 150.107 192.015 147.718 191.572 145.139C191.129 142.56 191.46 139.907 192.524 137.517C193.588 135.126 195.336 133.105 197.547 131.708C200.508 129.841 204.088 129.225 207.502 129.994C210.916 130.764 213.886 132.856 215.761 135.813L215.789 135.841Z" fill="#263238"/>
<path opacity="0.2" d="M216.391 145.549C215.857 147.886 214.644 150.012 212.903 151.659C211.163 153.306 208.974 154.399 206.613 154.802C204.251 155.204 201.824 154.897 199.637 153.92C197.45 152.942 195.601 151.338 194.325 149.31C193.049 147.281 192.402 144.92 192.466 142.524C192.53 140.128 193.302 137.805 194.685 135.848C196.068 133.891 198 132.388 200.236 131.529C202.472 130.67 204.913 130.494 207.249 131.022C208.803 131.375 210.271 132.031 211.572 132.952C212.872 133.873 213.978 135.042 214.827 136.391C215.676 137.74 216.251 139.243 216.519 140.814C216.788 142.386 216.744 143.995 216.391 145.549V145.549Z" fill="#263238"/>
<path d="M218.288 132.584L219.765 134.923C219.818 135.008 219.854 135.101 219.871 135.199C219.887 135.297 219.885 135.398 219.862 135.495C219.84 135.592 219.799 135.683 219.742 135.764C219.684 135.845 219.611 135.914 219.527 135.967V135.967C219.356 136.074 219.15 136.11 218.953 136.065C218.756 136.02 218.585 135.9 218.477 135.729L217.007 133.396C216.9 133.225 216.865 133.019 216.91 132.822C216.954 132.625 217.075 132.454 217.245 132.346V132.346C217.329 132.292 217.423 132.255 217.521 132.238C217.619 132.221 217.72 132.223 217.817 132.246C217.914 132.268 218.006 132.309 218.087 132.367C218.168 132.425 218.236 132.499 218.288 132.584V132.584Z" fill="#263238"/>
<path d="M227.815 125.936C226.112 127.104 224.427 128.292 222.761 129.502C221.088 130.721 219.436 131.96 217.861 133.277C217.671 133.442 217.547 133.669 217.51 133.917C217.472 134.166 217.526 134.419 217.659 134.632C217.793 134.845 217.999 135.002 218.239 135.076C218.479 135.15 218.737 135.136 218.967 135.035C220.843 134.153 222.677 133.193 224.497 132.234C226.317 131.274 228.109 130.237 229.887 129.208C231.404 128.325 232.911 127.424 234.409 126.504C234.511 126.441 234.599 126.358 234.669 126.261C234.739 126.164 234.789 126.054 234.816 125.938C234.843 125.821 234.847 125.701 234.828 125.583C234.809 125.465 234.766 125.352 234.703 125.25L233.457 123.317C233.393 123.215 233.31 123.127 233.212 123.058C233.114 122.989 233.003 122.94 232.886 122.914C232.769 122.888 232.647 122.886 232.529 122.907C232.411 122.928 232.298 122.972 232.197 123.037C230.727 124.017 229.264 124.949 227.815 125.936Z" fill="#263238"/>
<path d="M235.62 75.9863C234.766 80.1891 233.856 84.3802 232.89 88.5597L229.992 101.07C229.047 105.147 228.242 109.279 227.507 113.475L225.309 126.084C225.228 126.568 224.97 127.004 224.584 127.308C224.199 127.612 223.715 127.761 223.225 127.727C222.736 127.693 222.277 127.478 221.937 127.123C221.598 126.769 221.403 126.301 221.389 125.81C221.235 121.432 221.305 117.104 221.55 112.747C221.792 108.364 222.259 103.997 222.95 99.662C223.65 95.3752 224.399 91.1374 225.225 86.9066C226.051 82.6758 226.926 78.459 227.899 74.2982C228.134 73.2805 228.76 72.3963 229.642 71.8372C230.524 71.2781 231.59 71.0891 232.61 71.3111C233.63 71.5331 234.521 72.1483 235.091 73.0233C235.661 73.8984 235.864 74.9629 235.655 75.9863H235.62Z" fill="#263238"/>
<path d="M224.7 124.949C224.524 124.763 224.301 124.626 224.055 124.554C223.81 124.481 223.549 124.475 223.3 124.536L222.166 124.809C221.881 124.876 221.623 125.029 221.426 125.246C221.23 125.464 221.105 125.737 221.067 126.027L220.738 128.556C220.636 129.286 220.789 130.028 221.172 130.658L222.74 133.249C222.941 133.516 223.213 133.719 223.526 133.836C223.838 133.953 224.178 133.978 224.504 133.908L226.135 133.565C226.376 133.513 226.604 133.411 226.804 133.266C227.003 133.12 227.17 132.935 227.293 132.721C227.417 132.507 227.494 132.269 227.52 132.024C227.546 131.778 227.52 131.53 227.444 131.295L227.017 129.978C226.859 128.081 226.039 126.301 224.7 124.949V124.949Z" fill="#7F3E3B"/>
<path d="M241.073 73.5838C243.621 80.3433 234.815 89.9887 234.815 89.9887L223.664 86.2972C223.664 86.2972 224.518 77.0721 228.389 71.8677C233.163 65.4164 239.134 68.4074 241.073 73.5838Z" fill="#263238"/>
</g>
<defs>
<clipPath id="clip0_165_1491">
<rect width="350" height="261" fill="white"/>
</clipPath>
</defs>
</svg>
