<svg width="24" height="26" viewBox="0 0 24 26" fill="none" xmlns="http://www.w3.org/2000/svg">
<path d="M1.35571 21.0396C1.62127 21.0396 1.83657 20.8244 1.83657 20.5588V1.20148C1.83657 1.01423 1.98909 0.861719 2.17634 0.861719H19.4125C19.5998 0.861719 19.7523 1.01423 19.7523 1.20148V5.23753C19.7523 5.50315 19.9676 5.71839 20.2331 5.71839C20.4987 5.71839 20.714 5.50315 20.714 5.23753V1.20148C20.714 0.483764 20.1302 -0.1 19.4125 -0.1H2.17634C1.45862 -0.1 0.874854 0.483764 0.874854 1.20148V20.5588C0.874854 20.8244 1.09015 21.0396 1.35571 21.0396Z" fill="#00B4B1" stroke="#00B4B1" stroke-width="0.2"/>
<path d="M8.96707 4.39664C8.96707 3.72732 8.42272 3.18296 7.75339 3.18296H4.08927C3.41994 3.18296 2.87559 3.72732 2.87559 4.39664V8.06071C2.87559 8.73003 3.41994 9.27445 4.08927 9.27445H7.75339C8.42272 9.27445 8.96707 8.73003 8.96707 8.06071V4.39664ZM8.00536 8.06071C8.00536 8.19959 7.89223 8.31273 7.75339 8.31273H4.08927C3.95042 8.31273 3.8373 8.19963 3.8373 8.06071V4.39664C3.8373 4.25783 3.95042 4.14468 4.08927 4.14468H7.75339C7.89225 4.14468 8.00536 4.25779 8.00536 4.39664V8.06071Z" fill="#00B4B1" stroke="#00B4B1" stroke-width="0.2"/>
<path d="M7.28708 5.91911L7.2871 5.91909C7.47486 5.73126 7.47488 5.42684 7.28708 5.23905C7.09934 5.05131 6.79482 5.05131 6.60708 5.23905L5.64754 6.19859L5.33781 5.88886C5.3378 5.88885 5.3378 5.88885 5.33779 5.88884C5.14999 5.70099 4.84552 5.70106 4.65779 5.88879C4.47 6.07658 4.46998 6.38106 4.6578 6.56881L5.30751 7.21857C5.30752 7.21858 5.30752 7.21859 5.30753 7.2186C5.3977 7.30882 5.52003 7.35945 5.64754 7.35945C5.77505 7.35945 5.89738 7.30881 5.98754 7.21865L7.28708 5.91911Z" fill="#00B4B1" stroke="#00B4B1" stroke-width="0.2"/>
<path d="M10.8457 6.60708H16.8475C17.113 6.60708 17.3283 6.39184 17.3283 6.12622C17.3283 5.8606 17.113 5.64536 16.8475 5.64536H10.8457C10.5801 5.64536 10.3648 5.8606 10.3648 6.12622C10.3648 6.39184 10.5801 6.60708 10.8457 6.60708Z" fill="#00B4B1" stroke="#00B4B1" stroke-width="0.2"/>
<path d="M18.2327 4.00376H14.5906C14.325 4.00376 14.1097 4.219 14.1097 4.48462C14.1097 4.75024 14.325 4.96548 14.5906 4.96548H18.2327C18.4983 4.96548 18.7136 4.75024 18.7136 4.48462C18.7136 4.219 18.4983 4.00376 18.2327 4.00376Z" fill="#00B4B1" stroke="#00B4B1" stroke-width="0.2"/>
<path d="M10.8457 4.96548H12.795C13.0605 4.96548 13.2759 4.75024 13.2759 4.48462C13.2759 4.219 13.0605 4.00376 12.795 4.00376H10.8457C10.5801 4.00376 10.3648 4.219 10.3648 4.48462C10.3648 4.75024 10.5801 4.96548 10.8457 4.96548Z" fill="#00B4B1" stroke="#00B4B1" stroke-width="0.2"/>
<path d="M13.1541 7.28696C12.8885 7.28696 12.6732 7.5022 12.6732 7.76782C12.6732 8.03345 12.8885 8.24868 13.1541 8.24868H15.1546C15.4202 8.24868 15.6355 8.03345 15.6355 7.76782C15.6355 7.5022 15.4202 7.28696 15.1546 7.28696H13.1541Z" fill="#00B4B1" stroke="#00B4B1" stroke-width="0.2"/>
<path d="M10.8457 8.24868H11.3587C11.6243 8.24868 11.8396 8.03345 11.8396 7.76782C11.8396 7.5022 11.6243 7.28696 11.3587 7.28696H10.8457C10.5801 7.28696 10.3648 7.5022 10.3648 7.76782C10.3648 8.03345 10.5801 8.24868 10.8457 8.24868Z" fill="#00B4B1" stroke="#00B4B1" stroke-width="0.2"/>
<path d="M8.96707 11.1679C8.96707 10.4986 8.42272 9.9542 7.75339 9.9542H4.08927C3.41994 9.9542 2.87559 10.4986 2.87559 11.1679V14.832C2.87559 15.5013 3.41994 16.0456 4.08927 16.0456H7.75339C8.42272 16.0456 8.96707 15.5013 8.96707 14.832V11.1679ZM8.00536 14.832C8.00536 14.9708 7.89224 15.0839 7.75339 15.0839H4.08927C3.95041 15.0839 3.8373 14.9708 3.8373 14.832V11.1679C3.8373 11.0291 3.95042 10.9159 4.08927 10.9159H7.75339C7.89225 10.9159 8.00536 11.029 8.00536 11.1679V14.832Z" fill="#00B4B1" stroke="#00B4B1" stroke-width="0.2"/>
<path d="M6.60708 12.0103L6.6071 12.0102C6.79486 11.8226 7.09931 11.8225 7.28707 12.0103C7.28708 12.0103 7.28709 12.0103 7.2871 12.0103L7.21637 12.081C7.36511 12.2297 7.36511 12.4709 7.21637 12.6196L6.60708 12.0103ZM6.60708 12.0103L5.64754 12.9698M6.60708 12.0103L5.64754 12.9698M5.64754 12.9698L5.33779 12.66L5.33778 12.66C5.15002 12.4723 4.84555 12.4722 4.65779 12.6601L5.64754 12.9698ZM4.65776 12.6601C4.47001 12.8479 4.46999 13.1523 4.65779 13.3401C4.65779 13.3401 4.65779 13.3401 4.6578 13.3401L5.30753 13.9898C5.4014 14.0837 5.52467 14.1306 5.64754 14.1306C5.7704 14.1306 5.89368 14.0837 5.98754 13.9898C5.98754 13.9898 5.98754 13.9898 5.98754 13.9898L4.65776 12.6601Z" fill="#00B4B1" stroke="#00B4B1" stroke-width="0.2"/>
<path d="M17.3283 12.8975C17.3283 12.6318 17.113 12.4166 16.8475 12.4166H10.8457C10.5801 12.4166 10.3648 12.6318 10.3648 12.8975C10.3648 13.1631 10.5801 13.3783 10.8457 13.3783H16.8475C17.1131 13.3783 17.3283 13.1631 17.3283 12.8975Z" fill="#00B4B1" stroke="#00B4B1" stroke-width="0.2"/>
<path d="M18.7136 11.2559C18.7136 10.9902 18.4983 10.775 18.2327 10.775H14.5906C14.325 10.775 14.1097 10.9902 14.1097 11.2559C14.1097 11.5215 14.325 11.7367 14.5906 11.7367H18.2327C18.4983 11.7367 18.7136 11.5215 18.7136 11.2559Z" fill="#00B4B1" stroke="#00B4B1" stroke-width="0.2"/>
<path d="M10.8457 11.7367H12.795C13.0605 11.7367 13.2759 11.5215 13.2759 11.2559C13.2759 10.9902 13.0605 10.775 12.795 10.775H10.8457C10.5801 10.775 10.3648 10.9902 10.3648 11.2559C10.3648 11.5215 10.5801 11.7367 10.8457 11.7367Z" fill="#00B4B1" stroke="#00B4B1" stroke-width="0.2"/>
<path d="M15.6357 14.5388C15.6357 14.2732 15.4204 14.058 15.1549 14.058H13.1543C12.8887 14.058 12.6734 14.2732 12.6734 14.5388C12.6734 14.8044 12.8887 15.0197 13.1543 15.0197H15.1549C15.4204 15.0197 15.6357 14.8044 15.6357 14.5388Z" fill="#00B4B1" stroke="#00B4B1" stroke-width="0.2"/>
<path d="M10.8457 15.0197H11.3587C11.6243 15.0197 11.8396 14.8044 11.8396 14.5388C11.8396 14.2732 11.6243 14.058 11.3587 14.058H10.8457C10.5801 14.058 10.3648 14.2732 10.3648 14.5388C10.3648 14.8044 10.5801 15.0197 10.8457 15.0197Z" fill="#00B4B1" stroke="#00B4B1" stroke-width="0.2"/>
<path d="M7.75339 16.7254H4.08927C3.41994 16.7254 2.87559 17.2699 2.87559 17.9392V21.6032C2.87559 22.2726 3.41994 22.8169 4.08927 22.8169H7.75339C8.42272 22.8169 8.96707 22.2726 8.96707 21.6032V17.9392C8.96707 17.2699 8.42272 16.7254 7.75339 16.7254ZM8.00536 21.6032C8.00536 21.7421 7.89224 21.8552 7.75339 21.8552H4.08927C3.95041 21.8552 3.8373 21.7421 3.8373 21.6032V17.9392C3.8373 17.8003 3.95043 17.6872 4.08927 17.6872H7.75339C7.89224 17.6872 8.00536 17.8003 8.00536 17.9392V21.6032Z" fill="#00B4B1" stroke="#00B4B1" stroke-width="0.2"/>
<path d="M4.7285 20.0407C4.57976 19.892 4.57976 19.6508 4.7285 19.5021L4.65776 19.4314C4.65777 19.4314 4.65778 19.4314 4.65779 19.4314C4.84555 19.2435 5.15002 19.2436 5.33778 19.4313L5.33779 19.4313L5.64754 19.7411L5.71825 19.8118L6.67779 18.8522C6.82647 18.7036 7.06768 18.7036 7.21637 18.8522C7.36511 19.001 7.36511 19.2421 7.21637 19.3909L5.91683 20.6904C5.84249 20.7648 5.74499 20.8019 5.64754 20.8019C5.55009 20.8019 5.45259 20.7648 5.37824 20.6904L4.7285 20.0407ZM4.7285 20.0407L4.65779 20.1114L4.6578 20.1114L4.7285 20.0407Z" fill="#00B4B1" stroke="#00B4B1" stroke-width="0.2"/>
<path d="M10.8457 18.508H12.795C13.0605 18.508 13.2759 18.2927 13.2759 18.0271C13.2759 17.7615 13.0605 17.5462 12.795 17.5462H10.8457C10.5801 17.5462 10.3648 17.7615 10.3648 18.0271C10.3648 18.2927 10.5801 18.508 10.8457 18.508Z" fill="#00B4B1" stroke="#00B4B1" stroke-width="0.2"/>
<path d="M11.3587 21.7909C11.6243 21.7909 11.8396 21.5757 11.8396 21.3101C11.8396 21.0444 11.6243 20.8292 11.3587 20.8292H10.8457C10.5801 20.8292 10.3648 21.0444 10.3648 21.3101C10.3648 21.5757 10.5801 21.7909 10.8457 21.7909H11.3587Z" fill="#00B4B1" stroke="#00B4B1" stroke-width="0.2"/>
<path d="M21.0584 12.1586L21.1078 12.0732L22.8846 13.099C22.8846 13.099 22.8846 13.099 22.8846 13.099C22.9951 13.1627 23.0757 13.2678 23.1087 13.3909C23.1417 13.5141 23.1245 13.6454 23.0607 13.7558C23.0607 13.7558 23.0606 13.7558 23.0606 13.7559L20.714 17.8205V24.7985C20.714 25.5162 20.1302 26.1 19.4125 26.1H2.17634C1.45862 26.1 0.874854 25.5162 0.874854 24.7985V22.3361C0.874854 22.0705 1.09016 21.8552 1.35571 21.8552C1.62127 21.8552 1.83657 22.0705 1.83657 22.3361V24.7985C1.83657 24.9857 1.98909 25.1383 2.17634 25.1383H13.9325L13.8749 24.6343L21.0584 12.1586ZM21.0584 12.1586L21.1078 12.0732C20.9832 12.0013 20.8401 11.9916 20.7139 12.0341M21.0584 12.1586L20.7139 12.0341M20.7139 12.0341V7.01489C20.7139 6.74927 20.4986 6.53403 20.2331 6.53403C19.9675 6.53403 19.7522 6.74927 19.7522 7.01489V13.4594L17.3925 17.5465H14.5903C14.3248 17.5465 14.1095 17.7617 14.1095 18.0273C14.1095 18.2929 14.3248 18.5082 14.5903 18.5082H16.8373L16.445 19.1877H10.8457C10.5802 19.1877 10.3649 19.4029 10.3649 19.6686C10.3649 19.9342 10.5802 20.1494 10.8457 20.1494H15.8897L15.4971 20.8293H13.1541C12.8886 20.8293 12.6733 21.0445 12.6733 21.3101C12.6733 21.5757 12.8886 21.791 13.1541 21.791H14.9418L14.1977 23.0798C13.9242 23.5536 13.8125 24.0915 13.8749 24.6342L20.7139 12.0341ZM19.7522 24.7985V24.8068C19.7477 24.9902 19.597 25.1383 19.4125 25.1383H16.3755C16.5438 24.9756 16.69 24.7899 16.8075 24.5865L18.2974 22.0063L18.2974 22.0063C18.4301 21.7763 18.3514 21.4822 18.1214 21.3494L18.1213 21.3494C17.8915 21.2168 17.5974 21.2952 17.4645 21.5254L15.9746 24.1056L16.0524 24.1505L15.9745 24.1056C15.8075 24.3949 15.5463 24.6279 15.2396 24.7612L14.8754 24.9194L14.8303 24.5248L14.8303 24.5247C14.7916 24.1879 14.8608 23.8548 15.0306 23.5607L19.2992 16.1674L20.2432 16.7124L18.3531 19.9863C18.2203 20.2163 18.2991 20.5103 18.5291 20.6431L18.5291 20.6432C18.759 20.7757 19.0531 20.6972 19.1859 20.4671L19.7522 19.4864V24.7985ZM20.7241 15.8795L19.7801 15.3345L20.12 14.7458L21.064 15.2908L20.7241 15.8795ZM21.5448 14.4579L20.6009 13.9129L21.0434 13.1465L21.9874 13.6915L21.5448 14.4579Z" fill="#00B4B1" stroke="#00B4B1" stroke-width="0.2"/>
</svg>
