<svg width="54" height="58" viewBox="0 0 54 58" fill="none" xmlns="http://www.w3.org/2000/svg">
<g opacity="0.99">
<path d="M52.119 48.0934L41.9799 39.9238C45.596 34.9519 47.2836 28.7159 46.7002 22.4805C46.1168 16.2451 43.3062 10.477 38.8384 6.34605C34.3706 2.21512 28.5801 0.0305967 22.6412 0.235504C16.7022 0.440412 11.0595 3.01941 6.85737 7.44947C2.65523 11.8795 0.208248 17.829 0.0126911 24.0913C-0.182866 30.3536 1.88764 36.46 5.8043 41.1719C9.72096 45.8839 15.1906 48.8487 21.1038 49.4651C27.0171 50.0816 32.9314 48.3035 37.6472 44.4914L45.3967 55.1865C45.8126 55.7571 46.339 56.2278 46.9409 56.5672C47.5427 56.9066 48.2063 57.1068 48.8873 57.1547C48.9921 57.1623 49.0973 57.1661 49.2027 57.1661C49.833 57.167 50.4573 57.0367 51.0397 56.7827C51.6222 56.5288 52.1514 56.1561 52.5971 55.6861C53.0427 55.2161 53.396 54.658 53.6368 54.0438C53.8775 53.4295 54.0009 52.7713 54 52.1066C54.0021 51.3299 53.8334 50.5632 53.507 49.8668C53.1806 49.1704 52.7055 48.5634 52.119 48.0934ZM1.87542 24.9463C1.87542 20.4481 3.14041 16.0509 5.51041 12.3108C7.88042 8.57066 11.249 5.65558 15.1902 3.93419C19.1314 2.2128 23.4681 1.7624 27.6521 2.63996C31.836 3.51752 35.6792 5.68362 38.6956 8.86433C41.7121 12.045 43.7663 16.0975 44.5985 20.5093C45.4308 24.9211 45.0037 29.494 43.3712 33.6498C41.7387 37.8056 38.9741 41.3577 35.4272 43.8567C31.8802 46.3558 27.7101 47.6897 23.4442 47.6897C17.7259 47.6827 12.2436 45.2842 8.20012 41.0206C4.15664 36.7569 1.88208 30.9761 1.87542 24.9463ZM51.3264 54.344C51.0219 54.66 50.658 54.9051 50.2582 55.0636C49.8584 55.2221 49.4314 55.2904 49.005 55.2642C48.5793 55.234 48.1646 55.1085 47.7885 54.896C47.4124 54.6836 47.0836 54.3892 46.8239 54.0322L39.033 43.2813C39.6641 42.684 40.2641 42.0514 40.8304 41.386L51.0253 49.5982C51.3645 49.8718 51.6444 50.2185 51.8463 50.6154C52.0482 51.0122 52.1674 51.4499 52.1959 51.8992C52.2244 52.3485 52.1615 52.799 52.0116 53.2206C51.8616 53.6423 51.628 54.0253 51.3264 54.344Z" fill="white"/>
<path d="M11.2273 33.0231C11.4529 33.4481 11.782 33.8019 12.1806 34.0479C12.5792 34.294 13.0329 34.4234 13.4948 34.4228H33.3938C33.8556 34.4234 34.3093 34.294 34.7079 34.0479C35.1065 33.8019 35.4356 33.4481 35.6612 33.0231C35.8999 32.5843 36.0249 32.087 36.0236 31.5812C36.0223 31.0754 35.8949 30.5788 35.654 30.1413L25.7072 12.1267C25.4811 11.704 25.1526 11.3522 24.7552 11.1074C24.3578 10.8626 23.9058 10.7336 23.4456 10.7336C22.9854 10.7336 22.5334 10.8626 22.136 11.1074C21.7386 11.3522 21.4101 11.704 21.184 12.1267L11.2354 30.1404C10.9943 30.5779 10.8665 31.0746 10.8651 31.5806C10.8637 32.0866 10.9886 32.5841 11.2273 33.0231ZM12.7884 31.0946L22.7406 13.0705C22.8091 12.936 22.911 12.8236 23.0355 12.7455C23.1599 12.6673 23.3021 12.6262 23.447 12.6267C23.5918 12.6272 23.7338 12.6692 23.8577 12.7482C23.9817 12.8272 24.0829 12.9403 24.1506 13.0753L34.101 31.0956C34.1843 31.2446 34.2281 31.4145 34.2281 31.5874C34.2281 31.7604 34.1843 31.9302 34.101 32.0792C34.0317 32.2138 33.9295 32.3264 33.8049 32.4052C33.6804 32.484 33.5381 32.5262 33.3929 32.5275H13.4948C13.3494 32.5261 13.2071 32.4839 13.0824 32.4051C12.9578 32.3263 12.8553 32.2138 12.7857 32.0792C12.7029 31.9298 12.6595 31.7597 12.66 31.5866C12.6604 31.4134 12.7048 31.2436 12.7884 31.0946Z" fill="white"/>
<path d="M23.4442 4.09827C23.2059 4.09827 22.9773 4.19811 22.8087 4.37582C22.6402 4.55354 22.5455 4.79458 22.5455 5.04591C22.5455 5.29724 22.6402 5.53827 22.8087 5.71599C22.9773 5.89371 23.2059 5.99355 23.4442 5.99355C28.0221 5.99601 32.4264 7.84121 35.7576 11.1523C39.0888 14.4634 41.0956 18.9905 41.3682 23.8091C41.6407 28.6278 40.1584 33.3743 37.224 37.0794C34.2896 40.7845 30.1245 43.1686 25.5793 43.7448C21.0342 44.3209 16.4518 43.0457 12.7683 40.1796C9.08467 37.3134 6.57771 33.0725 5.75938 28.3231C4.94106 23.5737 5.87311 18.674 8.36517 14.6247C10.8572 10.5754 14.7213 7.68209 19.1682 6.5356C19.3998 6.47578 19.5993 6.32142 19.7229 6.10647C19.8465 5.89152 19.8841 5.63359 19.8274 5.38943C19.7707 5.14526 19.6243 4.93486 19.4204 4.8045C19.2166 4.67414 18.972 4.63452 18.7404 4.69433C13.8438 5.95594 9.58866 9.14116 6.84414 13.5994C4.09962 18.0577 3.07278 23.4526 3.97334 28.6822C4.87391 33.9119 7.63394 38.5817 11.6897 41.7379C15.7455 44.8941 20.7909 46.2986 25.7956 45.6644C30.8003 45.0302 35.3865 42.4052 38.6176 38.3256C41.8487 34.246 43.4809 29.0196 43.1807 23.7139C42.8806 18.4081 40.6708 13.4234 37.0027 9.77771C33.3345 6.13207 28.4849 4.10062 23.4442 4.09827Z" fill="white"/>
<path d="M49.2431 50.8103C49.0736 50.6377 48.8466 50.5422 48.611 50.5443C48.3753 50.5465 48.1499 50.6462 47.9833 50.8219C47.8167 50.9976 47.7222 51.2352 47.7201 51.4837C47.7181 51.7322 47.8087 51.9716 47.9724 52.1503L48.8711 53.0979C49.0406 53.2706 49.2676 53.3661 49.5032 53.3639C49.7389 53.3617 49.9643 53.2621 50.1309 53.0864C50.2975 52.9107 50.392 52.673 50.3941 52.4245C50.3961 52.1761 50.3055 51.9367 50.1418 51.758L49.2431 50.8103Z" fill="white"/>
<path d="M23.4442 25.894C23.6826 25.894 23.9112 25.7942 24.0797 25.6164C24.2482 25.4387 24.3429 25.1977 24.3429 24.9464V18.3129C24.3429 18.0615 24.2482 17.8205 24.0797 17.6428C23.9112 17.4651 23.6826 17.3652 23.4442 17.3652C23.2059 17.3652 22.9773 17.4651 22.8088 17.6428C22.6402 17.8205 22.5455 18.0615 22.5455 18.3129V24.9464C22.5455 25.1977 22.6402 25.4387 22.8088 25.6164C22.9773 25.7942 23.2059 25.894 23.4442 25.894Z" fill="white"/>
<path d="M23.4442 30.6322C23.6826 30.6322 23.9112 30.5324 24.0797 30.3547C24.2482 30.177 24.3429 29.9359 24.3429 29.6846V28.7369C24.3429 28.4856 24.2482 28.2446 24.0797 28.0669C23.9112 27.8891 23.6826 27.7893 23.4442 27.7893C23.2059 27.7893 22.9773 27.8891 22.8088 28.0669C22.6402 28.2446 22.5455 28.4856 22.5455 28.7369V29.6846C22.5455 29.9359 22.6402 30.177 22.8088 30.3547C22.9773 30.5324 23.2059 30.6322 23.4442 30.6322Z" fill="white"/>
</g>
</svg>
