<svg width="54" height="52" viewBox="0 0 54 52" fill="none" xmlns="http://www.w3.org/2000/svg">
<path d="M0.778938 44.284H2.15716V16.5445C2.15716 14.5128 3.82516 12.8599 5.87536 12.8599H7.70506C7.50503 12.445 7.39473 11.9848 7.39473 11.5066C7.39473 10.3422 8.03939 9.28021 9.07726 8.73489L19.2628 3.38663C19.643 3.18691 20.1145 3.33062 20.3158 3.70752C20.5171 4.08432 20.3722 4.55161 19.992 4.75123L9.80667 10.0994C9.2719 10.3803 8.95263 10.9064 8.95263 11.5066C8.95263 12.1068 9.2719 12.6328 9.80647 12.9136L19.7077 18.1128L26.0024 10.9975C26.2861 10.6768 26.7783 10.6449 27.1017 10.9261C27.4251 11.2072 27.4574 11.6951 27.1738 12.0157L21.1224 18.8558L24.8689 20.8231C25.9454 21.3876 27.2307 21.3876 28.3069 20.8233L43.3697 12.9138C43.9044 12.6329 44.2238 12.1068 44.2238 11.5067C44.2238 10.9066 43.9045 10.3805 43.3699 10.0996L28.3074 2.19014C27.2309 1.62556 25.9456 1.62556 24.8695 2.18994L22.7134 3.32239C22.3332 3.52211 21.8617 3.3785 21.6603 3.0017C21.459 2.6249 21.6038 2.15751 21.9839 1.95789L24.1404 0.82523C25.6732 0.0212928 27.5034 0.0212928 29.0363 0.825333L44.0993 8.73509C45.137 9.28032 45.7815 10.3424 45.7815 11.5067C45.7815 11.9849 45.6712 12.445 45.4712 12.86H47.301C49.3512 12.86 51.0192 14.5129 51.0192 16.5446V44.2841H52.3974C52.8276 44.2841 53.1764 44.6298 53.1764 45.0562V46.7675C53.1764 49.5288 50.9102 51.7752 48.1245 51.7752H5.05196C2.26632 51.7752 -1.14441e-05 49.5289 -1.14441e-05 46.7675V45.0562C-1.14441e-05 44.6297 0.348751 44.284 0.778938 44.284ZM19.8876 30.8885L18.8719 32.6323C18.662 32.9927 18.802 33.3109 18.8719 33.431C18.9418 33.551 19.1498 33.8303 19.5697 33.8303H20.2055C20.6254 33.8303 20.8333 33.551 20.9033 33.431C20.9733 33.3108 21.1132 32.9927 20.9033 32.6323L19.8876 30.8885ZM19.1086 19.5459L15.8854 17.8534V20.9195C15.8854 23.1216 17.1409 25.0958 19.1086 26.0333V19.5459ZM26.5883 22.791C25.7475 22.791 24.9066 22.5899 24.1401 22.188L20.6665 20.364V26.6307C24.9225 28.0281 29.6312 27.8713 33.7853 26.1598C35.9149 25.2825 37.291 23.2255 37.291 20.9196V17.8533L29.0359 22.1881C28.2696 22.5901 27.429 22.791 26.5883 22.791ZM49.4613 16.5445C49.4613 15.3643 48.4922 14.4041 47.301 14.4041H43.8594L39.9384 16.4631H46.6052C47.0353 16.4631 47.3841 16.8089 47.3841 17.2353V41.4533C47.3841 41.8797 47.0353 42.2254 46.6052 42.2254H42.4933C42.0631 42.2254 41.7144 41.8797 41.7144 41.4533C41.7144 41.0268 42.0631 40.6811 42.4933 40.6811H45.8262V18.0074H38.8489V20.9195C38.8489 23.8515 37.096 26.468 34.3831 27.5858C31.9062 28.6062 29.2472 29.1164 26.5881 29.1164C24.5884 29.1164 22.5887 28.8277 20.6664 28.2505V29.1373L22.2523 31.8602C22.6796 32.5937 22.6796 33.4696 22.2523 34.2031C21.8251 34.9366 21.0599 35.3746 20.2054 35.3746H19.5696C18.7151 35.3746 17.9499 34.9366 17.5227 34.2031C17.0954 33.4696 17.0954 32.5937 17.5227 31.8602L19.1086 29.1373V27.7111C19.0033 27.6698 18.8979 27.6289 18.7932 27.5858C16.0803 26.468 14.3275 23.8515 14.3275 20.9195V18.0074H7.35017V40.6811H39.3775C39.8077 40.6811 40.1565 41.0268 40.1565 41.4533C40.1565 41.8797 39.8077 42.2254 39.3775 42.2254H6.57122C6.14103 42.2254 5.79227 41.8797 5.79227 41.4533V17.2353C5.79227 16.8089 6.14103 16.4631 6.57122 16.4631H13.2381L9.31708 14.4041H5.87546C4.68429 14.4041 3.71517 15.3643 3.71517 16.5445V44.284H49.4613V16.5445ZM21.7712 45.8286C22.059 46.6589 22.8548 47.2574 23.7888 47.2574H29.3874C30.3215 47.2574 31.1173 46.6589 31.4052 45.8286H21.7712ZM1.55789 46.7674C1.55789 48.6772 3.12535 50.2309 5.05196 50.2309H48.1245C50.0511 50.2309 51.6185 48.6772 51.6185 46.7674V45.8282H50.2483C50.2456 45.8282 50.243 45.8286 50.2403 45.8286H33.0123C32.6876 47.5193 31.1862 48.8016 29.3874 48.8016H23.7888C21.9902 48.8016 20.4888 47.5192 20.1641 45.8286H2.93612C2.93341 45.8286 2.93082 45.8282 2.92812 45.8282H1.55789V46.7674Z" fill="white"/>
<path d="M25.9973 37.9879C25.9973 37.6568 26.3577 37.3884 26.8023 37.3884H42.9178C43.3624 37.3884 43.7228 37.6568 43.7228 37.9879C43.7228 38.3189 43.3624 38.5873 42.9178 38.5873H26.8022C26.3577 38.5873 25.9973 38.3189 25.9973 37.9879Z" fill="white"/>
<path d="M42.9547 34.9906H32.6739C32.2497 34.9906 31.9058 34.4538 31.9058 33.7917C31.9058 33.1296 32.2497 32.5928 32.6739 32.5928H42.9547C43.3789 32.5928 43.7228 33.1296 43.7228 33.7917C43.7228 34.4538 43.379 34.9906 42.9547 34.9906Z" fill="white"/>
</svg>
