<svg width="11" height="11" viewBox="0 0 11 11" fill="none" xmlns="http://www.w3.org/2000/svg">
<path d="M7.75984 5.80009C7.52099 6.04366 6.35805 7.22962 6.09882 7.49396C5.93425 7.66178 5.66742 7.66174 5.50289 7.49396C5.33833 7.32615 5.33833 7.05407 5.50289 6.88628L6.44099 5.92969H3.31478C3.08205 5.92969 2.89341 5.73732 2.89341 5.5C2.89341 5.26268 3.08205 5.07031 3.31478 5.07031H6.44099L5.50292 4.11374C5.33835 3.94593 5.33835 3.67385 5.50292 3.50606C5.66748 3.33826 5.93429 3.33824 6.09884 3.50606C6.32792 3.73968 7.53538 4.97099 7.75948 5.19954C7.92045 5.36759 7.91893 5.634 7.75984 5.80009ZM10.7871 3.18768V7.81232C10.7871 9.28142 9.81013 10.0275 9.74677 10.119C9.18972 10.6871 8.44899 11 7.66111 11H3.12598C2.3381 11 1.59738 10.6871 1.0403 10.119C0.977686 10.0285 0 9.28157 0 7.81232V3.18768C0 1.71858 0.97697 0.972512 1.04032 0.880967C1.59738 0.312877 2.3381 0 3.12598 0H7.66111C8.44899 0 9.18972 0.312877 9.74679 0.880988C9.80941 0.97148 10.7871 1.71843 10.7871 3.18768ZM9.94436 3.18768C9.94436 2.11112 9.21494 1.57951 9.15087 1.48865C9.15087 1.48863 9.15087 1.48863 9.15087 1.48863C8.75295 1.08283 8.22388 0.859375 7.66111 0.859375H3.12598C2.56322 0.859375 2.03415 1.08283 1.63623 1.48863C1.56984 1.58278 0.842742 2.1054 0.842742 3.18768V7.81232C0.842742 8.88888 1.57216 9.42049 1.63623 9.51135C2.03415 9.91717 2.56322 10.1406 3.12598 10.1406H7.66111C8.22388 10.1406 8.75295 9.91717 9.15087 9.51137C9.21726 9.41722 9.94436 8.8946 9.94436 7.81232V3.18768Z" fill="white"/>
</svg>
