<svg width="13" height="12" viewBox="0 0 13 12" fill="none" xmlns="http://www.w3.org/2000/svg">
<path d="M11.8321 6.38941C11.9397 6.28566 12 6.14576 12 6C12 5.85424 11.9397 5.71434 11.8321 5.61059L7.15301 1.1613C7.09952 1.11017 7.03594 1.06961 6.96593 1.04193C6.89592 1.01425 6.82086 1 6.74504 1C6.66923 1 6.59416 1.01425 6.52415 1.04193C6.45414 1.06961 6.39056 1.11017 6.33708 1.1613L5.79048 1.68134C5.68282 1.78456 5.62241 1.92408 5.62241 2.0695C5.62241 2.21491 5.68282 2.35443 5.79048 2.45765L9.49341 6L5.79048 9.54235C5.73675 9.59324 5.69412 9.65373 5.66502 9.72034C5.63593 9.78695 5.62095 9.85837 5.62095 9.9305C5.62095 10.0026 5.63593 10.0741 5.66502 10.1407C5.69412 10.2073 5.73675 10.2678 5.79048 10.3187L6.33708 10.8387C6.39056 10.8898 6.45414 10.9304 6.52415 10.9581C6.59416 10.9858 6.66923 11 6.74504 11C6.82086 11 6.89592 10.9858 6.96593 10.9581C7.03594 10.9304 7.09952 10.8898 7.15301 10.8387L11.8321 6.38941ZM7.2111 5.61059L2.53205 1.1613C2.47856 1.11017 2.41499 1.06961 2.34498 1.04193C2.27497 1.01425 2.1999 1 2.12409 1C2.04827 1 1.9732 1.01425 1.90319 1.04193C1.83318 1.06961 1.76961 1.11017 1.71612 1.1613L1.16953 1.68134C1.1158 1.73223 1.07316 1.79272 1.04407 1.85933C1.01498 1.92594 1 1.99736 1 2.0695C1 2.14163 1.01498 2.21305 1.04407 2.27966C1.07316 2.34627 1.1158 2.40676 1.16953 2.45765L4.87597 6L1.16953 9.54235C1.06187 9.64557 1.00145 9.78509 1.00145 9.9305C1.00145 10.0759 1.06187 10.2154 1.16953 10.3187L1.71612 10.8387C1.76961 10.8898 1.83318 10.9304 1.90319 10.9581C1.9732 10.9858 2.04827 11 2.12409 11C2.1999 11 2.27497 10.9858 2.34498 10.9581C2.41499 10.9304 2.47856 10.8898 2.53205 10.8387L7.2111 6.38941C7.31871 6.28566 7.37905 6.14576 7.37905 6C7.37905 5.85424 7.31871 5.71434 7.2111 5.61059Z" fill="#00B4B1"/>
</svg>
