<svg width="311" height="248" viewBox="0 0 311 248" fill="none" xmlns="http://www.w3.org/2000/svg">
<path d="M118.283 219.124H18.3445V234.698H118.283V219.124Z" fill="#264C65"/>
<g style="mix-blend-mode:screen" opacity="0.5">
<path d="M52.5942 219.124H18.3445V234.698H52.5942V219.124Z" fill="#264C65"/>
</g>
<g style="mix-blend-mode:multiply" opacity="0.5">
<path d="M118.283 219.124H85.4749V234.698H118.283V219.124Z" fill="#264C65"/>
</g>
<path d="M114.641 203.594H14.7034V219.168H114.641V203.594Z" fill="#264C65"/>
<g style="mix-blend-mode:screen" opacity="0.5">
<path d="M41.2263 203.594H14.7034V219.168H41.2263V203.594Z" fill="#264C65"/>
</g>
<g style="mix-blend-mode:multiply" opacity="0.5">
<path d="M114.641 203.594H72.541V219.168H114.641V203.594Z" fill="#264C65"/>
</g>
<path d="M125.536 187.961H25.5979V203.536H125.536V187.961Z" fill="#264C65"/>
<g style="mix-blend-mode:screen" opacity="0.5">
<path d="M64.6686 187.961H25.5979V203.536H64.6686V187.961Z" fill="#264C65"/>
</g>
<g style="mix-blend-mode:multiply" opacity="0.5">
<path d="M125.536 187.961H97.1196V203.536H125.536V187.961Z" fill="#264C65"/>
</g>
<path d="M119.331 172.504H19.3933V188.078H119.331V172.504Z" fill="#264C65"/>
<g style="mix-blend-mode:screen" opacity="0.5">
<path d="M49.1715 172.504H19.3933V188.078H49.1715V172.504Z" fill="#264C65"/>
</g>
<g style="mix-blend-mode:multiply" opacity="0.5">
<path d="M119.331 172.504H78.7896V188.078H119.331V172.504Z" fill="#264C65"/>
</g>
<g style="mix-blend-mode:multiply" opacity="0.5">
<path d="M114.263 219.124H18.3445V221.448H114.263V219.124Z" fill="#264C65"/>
</g>
<g style="mix-blend-mode:multiply" opacity="0.5">
<path d="M119.331 188.078H25.5979V190.489H119.331V188.078Z" fill="#264C65"/>
</g>
<path d="M262.797 0H138.266C131.026 0 125.157 5.87047 125.157 13.1121V208.336C125.157 215.578 131.026 221.448 138.266 221.448H262.797C270.036 221.448 275.905 215.578 275.905 208.336V13.1121C275.905 5.87047 270.036 0 262.797 0Z" fill="#F0F1F3"/>
<path d="M261.34 191.582V14.569L139.722 14.569V191.582H261.34Z" fill="white"/>
<path opacity="0.5" d="M153.195 57.9116H146.641V97.2478H153.195V57.9116Z" fill="#316182"/>
<path opacity="0.5" d="M163.39 50.6271H156.836V97.2477H163.39V50.6271Z" fill="#1E2346"/>
<path opacity="0.5" d="M173.586 36.7866H167.032V97.2478H173.586V36.7866Z" fill="#316182"/>
<path opacity="0.5" d="M183.782 52.8125H177.227V97.2478H183.782V52.8125Z" fill="#1E2346"/>
<path opacity="0.5" d="M193.977 69.5668H187.423V97.2478H193.977V69.5668Z" fill="#316182"/>
<path opacity="0.5" d="M204.173 49.5344H197.618V97.2477H204.173V49.5344Z" fill="#316182"/>
<path opacity="0.5" d="M214.368 79.0366H207.814V97.2478H214.368V79.0366Z" fill="#1E2346"/>
<path opacity="0.5" d="M224.564 84.4999H218.01V97.2477H224.564V84.4999Z" fill="#316182"/>
<path opacity="0.5" d="M234.759 71.0237H228.205V97.2478H234.759V71.0237Z" fill="#316182"/>
<path opacity="0.5" d="M244.955 63.7391H238.4V97.2477H244.955V63.7391Z" fill="#1E2346"/>
<path opacity="0.5" d="M255.15 57.9116H248.596V97.2478H255.15V57.9116Z" fill="#316182"/>
<path opacity="0.5" d="M248.603 175.192H255.157V135.855H248.603V175.192Z" fill="#316182"/>
<path opacity="0.5" d="M238.408 175.192H244.962V128.571H238.408V175.192Z" fill="#1E2346"/>
<path opacity="0.5" d="M228.212 175.192H234.767V114.73H228.212V175.192Z" fill="#316182"/>
<path opacity="0.5" d="M218.017 175.192H224.571V130.756H218.017V175.192Z" fill="#1E2346"/>
<path opacity="0.5" d="M207.821 175.192H214.375V147.511H207.821V175.192Z" fill="#316182"/>
<path opacity="0.5" d="M197.626 175.192H204.18V127.478H197.626V175.192Z" fill="#316182"/>
<path opacity="0.5" d="M187.43 175.192H193.984V156.98H187.43V175.192Z" fill="#1E2346"/>
<path opacity="0.5" d="M177.235 175.192H183.789V162.444H177.235V175.192Z" fill="#316182"/>
<path opacity="0.5" d="M167.039 175.192H173.593V148.968H167.039V175.192Z" fill="#316182"/>
<path opacity="0.5" d="M156.843 175.192H163.398V141.683H156.843V175.192Z" fill="#1E2346"/>
<path opacity="0.5" d="M146.648 175.192H153.202V135.855H146.648V175.192Z" fill="#316182"/>
<path d="M200.531 212.342C204.755 212.342 208.178 208.918 208.178 204.694C208.178 200.469 204.755 197.045 200.531 197.045C196.308 197.045 192.885 200.469 192.885 204.694C192.885 208.918 196.308 212.342 200.531 212.342Z" fill="white"/>
<path d="M299.421 89.1328H152.787V164.833H299.421V89.1328Z" fill="#6CACAC"/>
<path d="M279.234 156.551H172.982V155.371C172.982 148.195 167.738 142.36 161.293 142.36H160.23V111.605H161.293C167.738 111.605 172.982 105.778 172.982 98.5953V97.408H279.234V98.5953C279.234 105.771 284.477 111.605 290.922 111.605H291.985V142.36H290.959C284.513 142.36 279.27 148.188 279.27 155.371L279.234 156.551ZM175.094 154.19H277.122C277.646 146.651 283.064 140.612 289.837 140.037V113.929C283.064 113.346 277.646 107.315 277.122 99.7754H175.057C174.54 107.315 169.122 113.346 162.349 113.929V140.037C169.122 140.612 174.54 146.651 175.057 154.176L175.094 154.19Z" fill="#5A9997"/>
<path d="M240.338 113.936H236.587C236.169 112.891 235.605 111.91 234.912 111.023H238.779L242.042 106.229L240.338 104.933H214.011L210.749 109.719L212.453 111.023H225.205C226.478 111.014 227.733 111.335 228.846 111.955C229.426 112.543 229.906 113.222 230.266 113.966H213.429L210.166 118.759L211.87 120.055H230.404C229.84 121.422 228.882 122.59 227.653 123.413C226.424 124.235 224.979 124.674 223.501 124.674H211.047V130.137L221.046 147.766L222.75 149.062H229.625L219.43 130.734H225.256C228.218 130.706 231.069 129.605 233.283 127.637C235.498 125.669 236.925 122.965 237.301 120.026H238.757L242.02 115.24L240.338 113.936Z" fill="#5A9997"/>
<path d="M233.208 109.69H237.068L240.33 104.904H214.011L210.749 109.69H223.501C224.909 109.69 226.288 110.087 227.48 110.838C228.672 111.588 229.628 112.659 230.237 113.929H213.429L210.166 118.722H230.812C230.455 120.391 229.538 121.888 228.213 122.964C226.889 124.04 225.236 124.63 223.53 124.637H211.077V130.137L221.046 147.766H227.921L217.726 129.431H223.552C226.513 129.405 229.366 128.307 231.58 126.339C233.795 124.372 235.222 121.669 235.597 118.73H237.068L240.33 113.936H235.32C234.9 112.397 234.182 110.954 233.208 109.69V109.69Z" fill="#A2C2C0"/>
<path d="M296.318 85.2356H149.685V160.936H296.318V85.2356Z" fill="#7BC3C3"/>
<path d="M276.131 152.654H169.879V151.473C169.879 144.298 164.636 138.463 158.191 138.463H157.127V107.708H158.191C164.636 107.708 169.879 101.881 169.879 94.6982V93.5109H276.131V94.6982C276.131 101.873 281.375 107.708 287.82 107.708H288.883V138.463H287.82C281.375 138.463 276.131 144.291 276.131 151.473V152.654ZM171.991 150.293H274.048C274.565 142.754 279.991 136.715 286.756 136.14V110.025C279.991 109.449 274.565 103.418 274.048 95.8783H171.962C171.445 103.418 166.019 109.449 159.254 110.025V136.14C166.019 136.693 171.445 142.754 171.962 150.293H171.991Z" fill="#316182"/>
<path d="M237.242 110.039H233.492C233.071 108.995 232.507 108.015 231.817 107.126H235.677L238.947 102.332L237.242 100.999H210.916L207.654 105.785L209.358 107.089H222.109C223.156 106.904 224.234 107.095 225.154 107.629C226.073 108.162 226.775 109.003 227.134 110.003H210.334L207.064 114.84L208.768 116.136H227.309C226.743 117.502 225.786 118.67 224.557 119.492C223.328 120.314 221.884 120.754 220.405 120.755H207.938V126.24L217.958 143.876L219.662 145.172H226.544L216.349 126.845H222.175C225.137 126.816 227.989 125.716 230.203 123.747C232.417 121.779 233.844 119.075 234.22 116.136H235.633L238.903 111.351L237.242 110.039Z" fill="#316182"/>
<path d="M230.113 105.792H233.973L237.242 101.007H210.916L207.654 105.792H220.405C221.813 105.792 223.191 106.19 224.382 106.94C225.573 107.69 226.527 108.762 227.134 110.032H210.334L207.064 114.84H227.71C227.355 116.51 226.439 118.008 225.113 119.085C223.788 120.161 222.134 120.75 220.427 120.755H207.938V126.24L217.958 143.876H224.84L214.645 125.541H220.471C223.44 125.524 226.302 124.43 228.525 122.462C230.749 120.494 232.182 117.786 232.56 114.84H233.973L237.242 110.047H232.225C231.802 108.506 231.085 107.061 230.113 105.792Z" fill="#B5D9D7"/>
<path d="M291.199 81.0325H144.565V156.733H291.199V81.0325Z" fill="#66D2D0"/>
<path d="M271.012 148.45H164.752V147.27C164.752 140.095 159.509 134.253 153.1 134.253H152.037V103.505H153.1C159.545 103.505 164.752 97.6776 164.752 90.4878V89.3441H271.012V90.5242C271.012 97.6994 276.255 103.542 282.7 103.542H283.756V134.289H282.7C276.255 134.289 271.012 140.117 271.012 147.307V148.45ZM166.872 146.083H268.922C269.439 138.543 274.864 132.512 281.637 131.936V105.822C274.864 105.246 269.439 99.2146 268.922 91.6751H166.835C166.318 99.2146 160.9 105.246 154.127 105.822V131.936C160.9 132.512 166.318 138.543 166.835 146.083H166.872Z" fill="#72C1BF"/>
<path d="M232.116 105.836H228.365C227.944 104.792 227.381 103.811 226.69 102.922H230.557L233.82 98.1364L232.116 96.8325H205.789L202.527 101.626L204.231 102.922H216.983C218.256 102.917 219.509 103.238 220.624 103.855C221.202 104.447 221.682 105.128 222.044 105.873H205.207L201.944 110.666L203.648 111.962H222.182C221.617 113.329 220.66 114.497 219.431 115.319C218.202 116.142 216.757 116.581 215.278 116.581H202.84V122.066L212.868 139.694L214.572 140.998H221.447L211.251 122.663H217.077C220.047 122.64 222.907 121.538 225.126 119.563C227.344 117.588 228.77 114.874 229.137 111.926H230.557L233.82 107.133L232.116 105.836Z" fill="#72C1BF"/>
<path d="M224.986 101.589H228.853L232.116 96.7961H205.789L202.527 101.589H215.278C216.687 101.591 218.067 101.99 219.259 102.742C220.45 103.493 221.406 104.566 222.015 105.836H205.207L201.944 110.629H222.59C222.232 112.298 221.314 113.794 219.99 114.869C218.665 115.945 217.014 116.536 215.308 116.544H202.84V122.03L212.868 139.658H219.743L209.547 121.33H215.373C218.334 121.303 221.186 120.205 223.4 118.237C225.615 116.27 227.042 113.568 227.418 110.629H228.875L232.137 105.836H227.12C226.696 104.293 225.971 102.85 224.986 101.589Z" fill="#C3EAE8"/>
<g opacity="0.5">
<path d="M48.7273 93.3505L44.9258 89.9487L100.2 28.2419L135.083 63.4623L201.58 3.53296L227.091 39.9918L249.251 20.5859L252.616 24.4248L226.173 47.5749L200.706 11.1817L134.879 70.4991L100.382 35.6794L48.7273 93.3505Z" fill="#1E2346"/>
<path d="M255.951 33.3192L263.321 11.6552L240.884 16.0987L255.951 33.3192Z" fill="#1E2346"/>
</g>
<path d="M251.873 240.373C276.512 240.373 296.486 220.394 296.486 195.748C296.486 171.103 276.512 151.124 251.873 151.124C227.234 151.124 207.26 171.103 207.26 195.748C207.26 220.394 227.234 240.373 251.873 240.373Z" fill="#264C65"/>
<path d="M251.873 229.993C270.781 229.993 286.108 214.661 286.108 195.748C286.108 176.836 270.781 161.504 251.873 161.504C232.966 161.504 217.638 176.836 217.638 195.748C217.638 214.661 232.966 229.993 251.873 229.993Z" fill="#282623"/>
<path d="M251.873 228.696C270.065 228.696 284.812 213.945 284.812 195.748C284.812 177.552 270.065 162.801 251.873 162.801C233.682 162.801 218.934 177.552 218.934 195.748C218.934 213.945 233.682 228.696 251.873 228.696Z" fill="#316182"/>
<path d="M267.946 182.542H263.955C263.508 181.418 262.907 180.361 262.171 179.402H266.285L269.766 174.303L267.946 172.919H239.908L236.427 178.018L238.24 179.402H251.829C252.949 179.202 254.104 179.409 255.085 179.984C256.066 180.56 256.81 181.467 257.182 182.542H239.253L235.779 187.641L237.592 189.025H257.335C256.734 190.48 255.715 191.724 254.407 192.599C253.099 193.474 251.561 193.942 249.987 193.942H236.747V199.77L247.424 218.556L249.244 219.94H256.57L245.705 200.432H251.946C255.1 200.402 258.137 199.231 260.496 197.135C262.854 195.04 264.375 192.162 264.778 189.032H266.285L269.766 183.933L267.946 182.542Z" fill="#282623"/>
<path d="M260.372 178.018H264.486L267.96 172.919H239.908L236.427 178.018H250.016C251.516 178.019 252.984 178.444 254.252 179.245C255.52 180.045 256.536 181.188 257.182 182.542H239.253L235.779 187.641H257.772C257.391 189.423 256.41 191.021 254.993 192.168C253.576 193.314 251.809 193.941 249.987 193.942H236.747V199.77L247.424 218.556H254.75L243.899 199.027H250.14C253.284 198.997 256.312 197.834 258.667 195.75C261.021 193.666 262.545 190.802 262.957 187.685H264.472L267.946 182.585H262.608C262.166 180.932 261.406 179.381 260.372 178.018V178.018Z" fill="#264C65"/>
<path d="M194.829 196.317H128.07V235.893H194.829V196.317Z" fill="#263238"/>
<path d="M177.774 130.297C175.685 129.503 173.421 129.284 171.219 129.664L175.225 119.465L179.871 121.833L177.774 130.297Z" fill="#141930"/>
<path d="M175.181 124.834C177.216 124.834 178.866 123.184 178.866 121.148C178.866 119.112 177.216 117.462 175.181 117.462C173.146 117.462 171.496 119.112 171.496 121.148C171.496 123.184 173.146 124.834 175.181 124.834Z" fill="#E6976D"/>
<path d="M162.211 117.367C162.211 117.367 161.024 123.472 159.844 124.834C158.664 126.196 157.018 127.478 157.929 128.935C158.839 130.392 160.936 130.742 162.662 130.48C164.388 130.217 166.398 129.751 167.578 130.297C168.758 130.844 167.942 123.195 167.942 123.195L165.575 115.277C165.575 115.277 161.847 117.28 162.211 117.367Z" fill="#141930"/>
<path d="M131.595 166.086C128.842 167.31 126.001 168.325 123.096 169.124C124.674 170.191 126.554 170.72 128.457 170.632C130.36 170.544 132.183 169.844 133.656 168.636L131.595 166.086Z" fill="#E6976D"/>
<path d="M158.904 135.615C158.904 135.615 152.831 156.012 131.595 166.086L133.416 169.852C133.416 169.852 147.981 167.667 163.39 147.875L158.904 135.615Z" fill="#E59303"/>
<path d="M125.07 222.81C125.07 222.81 120.97 228.915 116.782 230.554C116.782 230.554 121.334 230.918 123.883 228.55C126.432 226.183 125.07 222.81 125.07 222.81Z" fill="#E6976D"/>
<path d="M137.297 194.969C137.297 194.969 150.348 223.83 151.032 229.323C151.717 234.815 146.663 242.835 146.663 242.835H148.949L156.509 233.446L148.032 197.948L155.591 197.03L151.695 187.182L137.501 186.956L137.297 194.969Z" fill="#E37463"/>
<path d="M138.084 175.76C138.084 175.76 131.908 174.39 130.532 179.883C129.155 185.375 122.623 228.689 122.623 228.689L128.573 227.086L138.645 188.835L155.394 189.527C155.394 189.527 147.019 178.739 138.084 175.76Z" fill="#E6976D"/>
<path d="M128.558 227.064C128.558 227.064 129.476 229.811 127.874 231.872C126.271 233.934 123.628 237.11 123.628 237.11L122.943 235.966L124.436 231.646L115.122 232.79L109.849 229.811C114.136 230.268 118.471 229.88 122.608 228.667L128.558 227.064Z" fill="#42528E"/>
<path d="M148.949 242.864L156.509 233.475C158.336 235.66 157.878 237.678 157.878 237.678L157.572 245.465H156.232L155.62 238.741L149.678 244.7H143.415L146.699 242.864H148.949Z" fill="#42528E"/>
<path d="M174.7 133.32L181.298 136.234C182.084 136.577 182.72 137.191 183.091 137.964C183.461 138.737 183.541 139.618 183.316 140.445C182.027 145.172 180.315 157.534 182.048 169.43H160.798C160.798 169.43 157.747 150.621 158.031 137.167C158.048 136.347 158.348 135.559 158.878 134.934C159.409 134.309 160.138 133.886 160.944 133.736L166.821 132.679L174.7 133.32Z" fill="#F9A91C"/>
<path d="M177.897 137.677C177.708 140.219 174.045 142.047 169.719 141.705C165.393 141.363 162.043 139.061 162.225 136.511C162.407 133.962 166.078 132.14 170.404 132.483C174.729 132.825 178.079 135.127 177.897 137.677Z" fill="#E37463"/>
<path d="M173.885 124.718C173.885 124.718 174.001 130.305 174.89 133.656C171.981 134.262 168.979 134.262 166.071 133.656C166.071 133.656 167.964 131.762 168.299 125.839L173.885 124.718Z" fill="#E37463"/>
<path d="M159.873 140.168L155.292 148.997C155.292 148.997 156.749 153.804 162.997 153.243L169.479 148.997L159.873 140.168Z" fill="#F9A91C"/>
<path d="M182.048 169.401C182.048 169.401 185.274 178.142 185.457 183.722C185.631 189.098 184.073 195.85 171.889 196.776C160.426 197.642 158.606 197.934 149.83 197.934C149.83 197.934 147.405 180.371 141.405 175.519C141.405 175.519 150.464 172.606 160.798 169.401H182.048Z" fill="#42528E"/>
<path d="M183.177 138.237C182.898 138.043 182.606 137.868 182.303 137.713C179.332 136.256 176.23 140.976 176.23 140.976C176.23 140.976 171.489 150.738 159.407 159.421C159.8 162.706 160.179 165.46 160.441 167.237C166.398 164.702 173.171 160.797 178.684 154.853C179.813 153.63 180.774 152.493 181.597 151.437C181.85 147.719 182.42 144.029 183.301 140.408C183.486 139.689 183.443 138.931 183.177 138.237Z" fill="#D68505"/>
<path d="M176.747 139.862C176.747 139.862 167.52 157.221 143.669 165.299L145.366 169.306C145.366 169.306 165.277 167.237 178.684 153.826C190.7 141.807 184.466 137.655 182.937 136.824C180.024 135.236 176.747 139.862 176.747 139.862Z" fill="#316182"/>
<path d="M143.669 165.299L134.748 168.636L136.445 172.766C136.445 172.766 140.938 173.494 145.366 169.306L143.669 165.299Z" fill="#E6976D"/>
<g style="mix-blend-mode:multiply" opacity="0.4">
<path d="M174.227 129.795C174.161 129.176 174.103 128.564 174.059 128.003L168.357 125.818H168.299C168.073 129.86 167.112 132.031 166.529 133C169.399 132.9 172.134 131.761 174.227 129.795V129.795Z" fill="#E37463"/>
</g>
<path d="M163.128 115H174.999V125.198C174.999 126.694 174.405 128.128 173.348 129.185C172.291 130.242 170.857 130.836 169.362 130.836H168.787C167.292 130.836 165.858 130.242 164.801 129.185C163.744 128.128 163.15 126.694 163.15 125.198V115H163.128Z" fill="#E6976D"/>
<path d="M172.042 115.277C172.042 115.277 172.13 119.007 174.591 121.287C174.591 121.287 175.589 118.642 176.863 120.376C178.138 122.11 176.958 123.924 174.861 124.2C174.861 124.2 174.227 129.023 176.23 131.121C178.232 133.219 178.232 129.387 180.869 129.751C183.505 130.115 185.238 129.387 183.782 127.019C182.325 124.652 179.871 118.642 179.594 115.729C179.317 112.815 178.414 108.175 175.137 109.267C174.975 108.387 174.516 107.59 173.835 107.009C173.155 106.428 172.296 106.099 171.401 106.077C168.124 105.894 165.852 108.99 163.303 108.539C160.754 108.087 158.205 109.085 157.841 112.181C157.39 115.991 158.752 118.737 163.485 118.096C163.514 118.096 170.491 117.025 172.042 115.277Z" fill="#1E2346"/>
<path d="M200.291 173.677H97.054V177.603H200.291V173.677Z" fill="#1A427D"/>
<path d="M201.478 175.235H95.8743V176.044H201.478V175.235Z" fill="#A9BFF8"/>
<path d="M86.5744 171.812C116.438 171.812 140.647 147.596 140.647 117.724C140.647 87.8529 116.438 63.6372 86.5744 63.6372C56.7109 63.6372 32.5017 87.8529 32.5017 117.724C32.5017 147.596 56.7109 171.812 86.5744 171.812Z" fill="#264C65"/>
<path d="M127.072 126.745C132.056 104.37 117.962 82.19 95.593 77.205C73.2239 72.2199 51.0502 86.3174 46.0665 108.692C41.0828 131.067 55.1764 153.247 77.5455 158.232C99.9145 163.217 122.088 149.12 127.072 126.745Z" fill="#282623"/>
<path d="M125.476 126.688C130.425 105.196 117.018 83.7606 95.5321 78.8107C74.0459 73.8607 52.6162 87.2707 47.6676 108.763C42.7189 130.255 56.1253 151.69 77.6115 156.64C99.0978 161.59 120.527 148.18 125.476 126.688Z" fill="#316182"/>
<path d="M106.055 101.728H101.22C100.674 100.364 99.9386 99.0834 99.0348 97.9252H104.023L108.24 91.7407L106.055 90.058H72.0676L67.851 96.2498L70.0358 97.9252H86.5016C88.1321 97.9228 89.7363 98.3364 91.1624 99.1272C91.9122 99.8878 92.5321 100.766 92.9976 101.728H71.2957L67.0791 107.92L69.2639 109.595H93.2015C92.4754 111.357 91.2443 112.864 89.6632 113.927C88.0821 114.99 86.2218 115.561 84.3168 115.568H68.237V122.649L81.1708 145.435L83.3555 147.11H92.2402L79.088 123.443H86.6472C90.4742 123.408 94.1588 121.986 97.0178 119.441C99.8767 116.896 101.716 113.4 102.195 109.602H104.023L108.24 103.418L106.055 101.728Z" fill="#282623"/>
<path d="M96.8501 96.2425H101.839L106.055 90.0507H72.0677L67.8511 96.2425H84.3169C86.1358 96.2441 87.9171 96.7599 89.4556 97.7304C90.9941 98.7009 92.227 100.087 93.0122 101.728H71.3103L67.0938 107.919H93.7551C93.2922 110.085 92.0987 112.026 90.375 113.416C88.6512 114.806 86.5019 115.561 84.2878 115.554H68.2371V122.634L81.1709 145.435H90.0555L76.896 121.767H84.4626C88.2896 121.732 91.9741 120.31 94.8331 117.765C97.6921 115.22 99.5316 111.725 100.011 107.927H101.839L106.055 101.735H99.5811C99.0398 99.7426 98.1119 97.8763 96.8501 96.2425V96.2425Z" fill="#264C65"/>
<path d="M198.674 177.603H99.3625V179.453H198.674V177.603Z" fill="#102F54"/>
<path d="M93.1289 248H89.8372L101.963 179.453H106.987L93.1289 248Z" fill="#E6976D"/>
<path d="M202.84 248H206.132L194.006 179.453H188.981L202.84 248Z" fill="#E6976D"/>
<path d="M138.95 171.863H105.269L99.3625 149.929H133.044L138.95 171.863Z" fill="#F0F1F5"/>
<path d="M139.023 171.863H138.026L132.119 149.929L133.124 150.971L139.023 171.863Z" fill="#CBCED8"/>
<path d="M153.151 171.863H105.269V173.677H153.151V171.863Z" fill="#CBCED8"/>
<path d="M119.768 161.162C120.125 163.07 119.04 164.87 117.431 165.176C115.821 165.481 114.154 164.178 113.789 162.262C113.425 160.346 114.481 158.554 116.127 158.248C117.773 157.942 119.412 159.275 119.768 161.162Z" fill="#CBCED8"/>
<path d="M29.3266 241.262H9.9842L7.56641 217.187H31.7371L29.3266 241.262Z" fill="#F0F1F3"/>
<path d="M31.7444 217.187C31.7444 215.854 26.3335 214.768 19.6554 214.768C12.9774 214.768 7.57373 215.854 7.57373 217.187C7.57373 218.52 12.9846 219.598 19.6554 219.598C26.3262 219.598 31.7444 218.52 31.7444 217.187Z" fill="#F0F1F3"/>
<path d="M30.2441 217.187C30.2441 216.014 25.4886 215.06 19.6262 215.06C13.7638 215.06 9.0083 216.014 9.0083 217.187C9.0083 218.359 13.7638 219.306 19.6262 219.306C25.4886 219.306 30.2441 218.359 30.2441 217.187Z" fill="#1E2346"/>
<path d="M29.3267 241.182C29.3267 239.849 24.9936 238.771 19.6556 238.771C14.3175 238.771 9.98438 239.849 9.98438 241.182C9.98438 242.515 14.3539 243.6 19.6556 243.6C24.9572 243.6 29.3267 242.515 29.3267 241.182Z" fill="#F0F1F3"/>
<path d="M31.2493 208.853C31.2536 207.889 30.9584 206.947 30.4046 206.158C29.9894 205.43 29.6763 204.789 30.1424 204.082C30.5128 203.662 30.9571 203.314 31.4532 203.055C32.1218 202.657 32.8123 202.297 33.5215 201.977C35.1223 201.295 36.6278 200.409 38.0002 199.34C38.5643 198.866 39.0552 198.311 39.4567 197.693C39.7708 197.213 40.0022 196.684 40.1413 196.127C40.3263 195.166 40.4383 194.192 40.4763 193.213C40.5215 192.954 40.619 192.707 40.763 192.486C40.907 192.266 41.0944 192.077 41.3138 191.931C41.8935 191.506 42.5101 191.133 43.1562 190.817C43.8845 190.475 44.6127 190.169 45.341 189.826C46.0127 189.539 46.6563 189.191 47.2636 188.785C47.5507 188.573 47.7974 188.311 47.9918 188.012C48.1868 187.724 48.3457 187.414 48.4652 187.087C48.6886 186.426 48.8233 185.737 48.8657 185.04C48.9281 184.443 48.811 183.84 48.5296 183.31C48.2481 182.779 47.815 182.344 47.2854 182.061C46.6456 181.72 45.9544 181.486 45.239 181.369C44.8545 181.322 44.4656 181.322 44.0811 181.369C43.6845 181.433 43.3009 181.561 42.9451 181.748C42.2048 182.142 41.5193 182.632 40.9059 183.205C40.2432 183.831 39.5732 184.494 38.9542 185.135C38.4187 185.743 37.8341 186.306 37.2064 186.818C36.7837 187.221 36.2422 187.476 35.6625 187.546C34.5684 187.464 33.4681 187.55 32.4 187.801C31.734 187.991 31.1005 188.281 30.5211 188.661C29.7773 189.188 29.1148 189.821 28.5548 190.54C27.3134 192.232 26.4402 194.165 25.9913 196.215C25.7292 197.14 25.5617 198.036 25.3796 198.779C25.2597 199.392 25.0486 199.984 24.7533 200.534C24.2727 201.358 23.5444 201.358 22.656 201.365C21.581 201.265 20.5094 201.589 19.6701 202.268C19.2249 202.697 18.9637 203.282 18.9419 203.9C18.8991 204.796 18.9503 205.695 19.0948 206.581C19.2186 207.608 19.4662 208.766 19.692 210.055C19.9177 211.345 20.1872 212.685 20.362 214.105C20.3763 214.323 20.4532 214.532 20.5834 214.708C20.7135 214.883 20.8914 215.017 21.0958 215.094C21.3002 215.171 21.5224 215.187 21.7358 215.141C21.9492 215.095 22.1448 214.988 22.2991 214.834C23.2584 213.922 24.3188 213.123 25.4597 212.452C26.3848 211.911 27.3404 211.425 28.3218 210.995C29.0334 210.699 29.7223 210.351 30.3827 209.953C30.6036 209.851 30.7972 209.698 30.9478 209.507C31.0984 209.316 31.2017 209.092 31.2493 208.853V208.853Z" fill="#26377C"/>
<path d="M20.2672 217.682C20.2317 217.67 20.1991 217.651 20.1713 217.625C20.1435 217.6 20.1211 217.57 20.1054 217.536C20.0897 217.502 20.0812 217.465 20.0802 217.427C20.0792 217.39 20.0858 217.353 20.0997 217.318L20.6386 215.613C20.7988 215.06 21.0464 214.411 21.3668 213.675C21.6873 212.94 21.9422 212.087 22.3573 211.199C24.2385 206.799 26.6683 202.656 29.5888 198.866C32.4872 195.052 35.8622 191.624 39.6314 188.668C41.1462 187.437 42.5444 186.548 43.4474 185.885L44.9695 184.938C44.9998 184.916 45.0342 184.901 45.0707 184.893C45.1072 184.885 45.1449 184.884 45.1817 184.891C45.2184 184.897 45.2534 184.912 45.2845 184.932C45.3157 184.953 45.3423 184.98 45.3627 185.011C45.3968 185.078 45.4038 185.156 45.382 185.228C45.3603 185.299 45.3117 185.36 45.2462 185.397L43.7387 186.337C42.8211 186.992 41.4666 187.874 39.9591 189.09C38.2281 190.454 36.5748 191.913 35.007 193.461C33.2216 195.252 31.5552 197.157 30.0185 199.165C27.1258 202.921 24.7158 207.025 22.8452 211.381C22.4447 212.255 22.1169 213.093 21.8693 213.828C21.6217 214.564 21.345 215.205 21.1921 215.752L20.6532 217.442C20.648 217.485 20.6332 217.527 20.6097 217.563C20.5863 217.6 20.5549 217.631 20.5179 217.654C20.4808 217.678 20.439 217.692 20.3957 217.697C20.3523 217.702 20.3084 217.696 20.2672 217.682V217.682Z" fill="white"/>
<path d="M23.1002 204.439C22.4399 203.657 21.4977 203.167 20.4785 203.077C19.6337 202.909 18.9346 202.778 18.6943 201.962C18.5525 201.416 18.5033 200.849 18.5486 200.287C18.5486 199.558 18.636 198.757 18.6214 197.876C18.7129 195.964 18.3641 194.058 17.6019 192.303C17.2447 191.557 16.7674 190.876 16.1891 190.285C15.7329 189.844 15.2061 189.482 14.6306 189.214C13.6748 188.832 12.6646 188.604 11.6375 188.537C11.1231 188.409 10.6727 188.098 10.3703 187.663C9.90049 187.108 9.48357 186.51 9.12503 185.878C8.70264 185.201 8.22928 184.494 7.74863 183.831C7.53246 183.505 7.28882 183.198 7.02038 182.913C6.769 182.651 6.49883 182.408 6.21202 182.185C5.92338 181.968 5.59765 181.805 5.25073 181.704C4.90053 181.619 4.54007 181.585 4.18019 181.602C3.48988 181.635 2.81023 181.785 2.17022 182.046C1.62566 182.277 1.15127 182.647 0.794642 183.118C0.438017 183.59 0.211701 184.147 0.138397 184.734C0.0302025 185.387 0.00573053 186.05 0.0655729 186.708C0.0983061 187.023 0.171747 187.331 0.284048 187.626C0.385778 187.917 0.544206 188.184 0.750129 188.413C0.953341 188.629 1.1778 188.824 1.42012 188.996L2.22848 189.557C2.78923 189.943 3.42281 190.285 3.98357 190.693C4.4935 191.048 4.96678 191.453 5.39638 191.902C5.56193 192.066 5.68848 192.265 5.76664 192.485C5.84481 192.704 5.87258 192.938 5.84789 193.17C5.63526 194.056 5.4892 194.957 5.41094 195.865C5.39808 196.36 5.47455 196.854 5.6367 197.322C5.83319 197.909 6.13148 198.456 6.51788 198.939C7.52599 200.073 8.69371 201.055 9.98436 201.853C10.5617 202.233 11.1161 202.646 11.6448 203.091C12.0388 203.388 12.3684 203.763 12.6134 204.191C12.8828 204.876 12.4022 205.371 11.805 205.939C11.0845 206.497 10.5489 207.258 10.2684 208.125C10.181 208.496 10.3703 208.853 10.7709 209.217C11.2941 209.676 11.849 210.097 12.4313 210.478C13.2457 211.017 14.0264 211.606 14.769 212.241C15.6765 213.003 16.4928 213.869 17.2013 214.819C17.3207 214.988 17.482 215.123 17.6694 215.211C17.8567 215.299 18.0637 215.337 18.2701 215.321C18.4764 215.305 18.675 215.235 18.8464 215.119C19.0178 215.003 19.1561 214.845 19.2477 214.659C19.7939 213.464 20.4421 212.335 20.9737 211.279C21.5053 210.223 22.0879 209.239 22.4812 208.365C22.863 207.622 23.1586 206.837 23.3624 206.027C23.4364 205.759 23.4513 205.478 23.4061 205.204C23.3608 204.93 23.2564 204.669 23.1002 204.439V204.439Z" fill="#86D4D4"/>
<path d="M18.3592 217.769C18.2882 217.771 18.2191 217.746 18.1662 217.699C18.1133 217.651 18.0807 217.585 18.0752 217.514L18.0242 215.956C18.0242 215.453 17.9586 214.856 17.8931 214.171C17.8276 213.486 17.762 212.714 17.6091 211.862C16.9921 207.743 15.7854 203.734 14.0261 199.959C13.0936 197.939 12.0128 195.991 10.7926 194.131C9.71853 192.517 8.54116 190.975 7.26791 189.513C6.16825 188.209 5.12685 187.247 4.43501 186.534L3.29893 185.499C3.24912 185.449 3.22119 185.381 3.22119 185.31C3.22119 185.239 3.24912 185.171 3.29893 185.12C3.32277 185.095 3.35154 185.075 3.38348 185.061C3.41542 185.047 3.44984 185.04 3.48464 185.04C3.51943 185.04 3.55386 185.047 3.5858 185.061C3.61774 185.075 3.64651 185.095 3.67034 185.12L4.85011 186.169C5.57836 186.898 6.6052 187.874 7.71942 189.185C9.00499 190.668 10.1968 192.23 11.2879 193.862C12.5174 195.748 13.6102 197.72 14.5577 199.762C16.3423 203.583 17.5686 207.641 18.199 211.811C18.3519 212.663 18.4174 213.45 18.483 214.149C18.5485 214.848 18.6141 215.453 18.6141 215.956C18.6141 216.961 18.6723 217.536 18.6723 217.536C18.6715 217.574 18.662 217.611 18.6448 217.644C18.6275 217.678 18.6028 217.707 18.5726 217.729C18.5424 217.752 18.5075 217.767 18.4705 217.774C18.4335 217.781 18.3955 217.779 18.3592 217.769V217.769Z" fill="white"/>
<path d="M25.2631 202.669C24.878 201.697 24.1913 200.875 23.3041 200.323C22.5758 199.791 22.0151 199.325 22.1316 198.334C22.277 197.702 22.5229 197.097 22.8599 196.542C23.2828 195.762 23.7446 195.004 24.2435 194.27C25.4102 192.612 26.3873 190.828 27.1565 188.952C27.4509 188.143 27.6465 187.302 27.7391 186.446C27.8202 185.787 27.8006 185.118 27.6809 184.465C27.4403 183.405 27.1114 182.367 26.6977 181.362C26.5605 180.767 26.6352 180.144 26.9089 179.599C27.2631 178.842 27.672 178.111 28.1324 177.413C28.6422 176.649 29.2393 175.884 29.7491 175.119C30.004 174.733 30.2589 174.39 30.4774 174.004C30.6973 173.663 30.8944 173.308 31.0673 172.941C31.2394 172.57 31.3501 172.174 31.395 171.768C31.4422 171.381 31.4422 170.989 31.395 170.602C31.3159 169.853 31.1345 169.118 30.8561 168.417C30.6583 167.848 30.2753 167.361 29.7684 167.035C29.2614 166.708 28.6597 166.562 28.0596 166.618C27.2897 166.693 26.5372 166.892 25.8311 167.208C25.4393 167.387 25.0701 167.612 24.7315 167.878C24.3896 168.173 24.0927 168.517 23.8503 168.898C23.6083 169.288 23.3894 169.691 23.1949 170.107C22.9761 170.56 22.7888 171.027 22.6341 171.506C22.3064 172.489 21.986 173.509 21.7019 174.485C21.4745 175.38 21.1874 176.258 20.8426 177.115C20.6378 177.74 20.2588 178.293 19.7502 178.71C18.6977 179.276 17.7315 179.99 16.8809 180.83C16.3611 181.402 15.9203 182.042 15.5701 182.731C15.1262 183.656 14.8078 184.636 14.6233 185.645C14.2576 187.974 14.3342 190.352 14.8491 192.653C15.0311 193.716 15.2788 194.692 15.4535 195.566C15.6214 196.253 15.6973 196.958 15.6793 197.664C15.6283 198.757 14.951 199.121 14.1791 199.631C13.1409 200.14 12.3361 201.026 11.9288 202.108C11.7349 202.769 11.7761 203.477 12.0453 204.111C12.4101 205.03 12.8638 205.91 13.3999 206.741C13.9752 207.717 14.7398 208.795 15.5264 209.968C16.3129 211.141 17.1722 212.415 17.9879 213.799C18.0808 214.01 18.239 214.186 18.4392 214.3C18.6393 214.415 18.8709 214.462 19.0998 214.435C19.3288 214.408 19.5431 214.309 19.7113 214.151C19.8795 213.993 19.9927 213.786 20.0342 213.559C20.4688 212.162 21.0473 210.815 21.7602 209.538C22.3341 208.502 22.9638 207.497 23.6464 206.529C24.1497 205.834 24.6024 205.104 25.0009 204.344C25.1622 204.1 25.2691 203.824 25.3143 203.535C25.3596 203.246 25.3421 202.95 25.2631 202.669V202.669Z" fill="#F3CE87"/>
<path d="M19.5753 217.595C19.4296 217.595 19.2913 217.485 19.2621 217.296L18.9417 215.256C18.898 214.929 18.8252 214.572 18.7888 214.178C18.7524 213.785 18.7014 213.355 18.6504 212.896C18.5557 211.986 18.4319 210.966 18.3882 209.837C18.0398 204.331 18.338 198.803 19.2767 193.366C19.7731 190.464 20.4418 187.594 21.2794 184.771C22.0284 182.315 22.906 179.901 23.9084 177.537C24.7604 175.447 25.6416 173.786 26.2097 172.598C26.7777 171.411 27.2001 170.785 27.2001 170.785C27.212 170.745 27.2327 170.709 27.2605 170.678C27.2883 170.648 27.3226 170.624 27.3609 170.608C27.3991 170.593 27.4404 170.586 27.4816 170.589C27.5228 170.591 27.5629 170.603 27.599 170.623C27.6351 170.643 27.6663 170.67 27.6903 170.704C27.7142 170.738 27.7304 170.776 27.7375 170.817C27.7446 170.858 27.7426 170.899 27.7315 170.939C27.7204 170.979 27.7006 171.016 27.6734 171.047C27.6734 171.047 27.3166 171.702 26.683 172.846C26.0494 173.99 25.2265 175.672 24.4036 177.741C22.254 182.778 20.709 188.053 19.801 193.454C18.8703 198.85 18.577 204.336 18.9271 209.8C18.9708 210.922 19.0874 211.935 19.1893 212.845C19.233 213.297 19.2767 213.719 19.3204 214.105C19.3641 214.491 19.4296 214.834 19.4733 215.176C19.6772 216.466 19.7865 217.201 19.7865 217.201C19.8075 217.281 19.7974 217.366 19.7582 217.439C19.719 217.512 19.6537 217.568 19.5753 217.595V217.595Z" fill="white"/>
<path d="M291.49 241.262H272.155L269.737 217.187H293.908L291.49 241.262Z" fill="#F0F1F3"/>
<path d="M293.915 217.187C293.915 215.854 288.504 214.768 281.826 214.768C275.148 214.768 269.744 215.854 269.744 217.187C269.744 218.52 275.155 219.598 281.826 219.598C288.497 219.598 293.915 218.52 293.915 217.187Z" fill="#F0F1F3"/>
<path d="M292.415 217.187C292.415 216.014 287.66 215.06 281.797 215.06C275.935 215.06 271.179 216.014 271.179 217.187C271.179 218.359 275.935 219.306 281.797 219.306C287.66 219.306 292.415 218.359 292.415 217.187Z" fill="#1E2346"/>
<path d="M291.497 241.182C291.497 239.849 287.164 238.771 281.826 238.771C276.488 238.771 272.155 239.849 272.155 241.182C272.155 242.515 276.488 243.6 281.826 243.6C287.164 243.6 291.497 242.515 291.497 241.182Z" fill="#F0F1F3"/>
<path d="M293.42 208.853C293.424 207.889 293.129 206.947 292.575 206.158C292.16 205.429 291.847 204.788 292.313 204.082C292.683 203.662 293.128 203.314 293.624 203.055C294.292 202.657 294.983 202.297 295.692 201.977C297.295 201.284 298.8 200.385 300.171 199.303C300.735 198.829 301.226 198.275 301.627 197.657C301.941 197.177 302.173 196.647 302.312 196.091C302.497 195.129 302.609 194.155 302.647 193.177C302.692 192.918 302.79 192.67 302.934 192.45C303.078 192.229 303.265 192.04 303.484 191.895C304.064 191.469 304.681 191.096 305.327 190.78C306.055 190.438 306.783 190.132 307.512 189.79C308.183 189.503 308.827 189.154 309.434 188.748C309.721 188.536 309.968 188.275 310.162 187.976C310.357 187.688 310.516 187.377 310.636 187.051C310.859 186.389 310.994 185.701 311.036 185.004C311.099 184.406 310.982 183.804 310.7 183.273C310.419 182.743 309.986 182.308 309.456 182.024C308.816 181.684 308.125 181.45 307.41 181.332C307.025 181.285 306.636 181.285 306.252 181.332C305.855 181.397 305.472 181.525 305.116 181.711C304.375 182.106 303.69 182.596 303.077 183.168C302.414 183.795 301.744 184.457 301.125 185.099C300.589 185.706 300.005 186.269 299.377 186.781C298.954 187.184 298.413 187.44 297.833 187.51C296.739 187.428 295.639 187.514 294.571 187.765C293.905 187.955 293.271 188.245 292.692 188.624C291.948 189.151 291.285 189.784 290.725 190.504C289.484 192.195 288.611 194.128 288.162 196.178C287.9 197.103 287.732 197.999 287.55 198.742C287.427 199.355 287.216 199.946 286.924 200.498C286.443 201.321 285.715 201.321 284.827 201.328C283.752 201.228 282.68 201.552 281.841 202.232C281.396 202.66 281.134 203.245 281.113 203.863C281.07 204.76 281.121 205.658 281.265 206.544C281.389 207.571 281.637 208.729 281.863 210.019C282.088 211.308 282.358 212.648 282.533 214.069C282.547 214.287 282.624 214.496 282.754 214.671C282.884 214.847 283.062 214.981 283.266 215.058C283.471 215.135 283.693 215.151 283.906 215.105C284.12 215.058 284.315 214.952 284.47 214.797C285.437 213.917 286.5 213.147 287.638 212.503C288.566 211.964 289.524 211.477 290.507 211.046C291.219 210.75 291.907 210.402 292.568 210.004C292.792 209.895 292.987 209.734 293.135 209.533C293.284 209.333 293.381 209.1 293.42 208.853V208.853Z" fill="#26377C"/>
<path d="M282.438 217.682C282.402 217.67 282.37 217.651 282.342 217.626C282.314 217.6 282.292 217.57 282.276 217.536C282.26 217.502 282.252 217.465 282.251 217.427C282.25 217.39 282.256 217.353 282.27 217.318L282.809 215.613C282.969 215.06 283.217 214.411 283.501 213.676C283.785 212.94 284.076 212.088 284.492 211.199C286.373 206.8 288.802 202.656 291.723 198.866C293.279 196.843 294.962 194.921 296.763 193.112C298.346 191.548 300.014 190.072 301.758 188.69C303.28 187.459 304.671 186.57 305.582 185.907L307.104 184.96C307.134 184.938 307.168 184.923 307.205 184.915C307.241 184.906 307.279 184.906 307.316 184.913C307.353 184.919 307.388 184.934 307.419 184.954C307.45 184.975 307.476 185.002 307.497 185.033C307.531 185.1 307.538 185.178 307.516 185.25C307.495 185.321 307.446 185.382 307.38 185.419L305.873 186.359C304.955 187.014 303.601 187.896 302.093 189.112C300.362 190.476 298.709 191.935 297.141 193.483C295.356 195.273 293.689 197.179 292.153 199.187C289.26 202.943 286.85 207.047 284.979 211.403C284.579 212.277 284.251 213.115 284.004 213.85C283.756 214.586 283.479 215.227 283.326 215.774L282.787 217.464C282.779 217.501 282.763 217.536 282.741 217.567C282.719 217.598 282.69 217.625 282.658 217.645C282.625 217.666 282.589 217.679 282.552 217.686C282.514 217.692 282.475 217.691 282.438 217.682V217.682Z" fill="white"/>
<path d="M285.271 204.439C284.611 203.657 283.668 203.167 282.649 203.077C281.804 202.909 281.105 202.778 280.865 201.962C280.723 201.416 280.674 200.849 280.719 200.287C280.719 199.558 280.807 198.757 280.792 197.876C280.884 195.964 280.535 194.058 279.772 192.303C279.415 191.557 278.938 190.876 278.36 190.285C277.903 189.844 277.377 189.482 276.801 189.214C275.845 188.832 274.835 188.604 273.808 188.537C273.294 188.409 272.843 188.098 272.541 187.663C272.071 187.108 271.654 186.51 271.296 185.878C270.873 185.201 270.393 184.494 269.919 183.831C269.703 183.505 269.459 183.198 269.191 182.913C268.94 182.651 268.669 182.408 268.383 182.185C268.094 181.968 267.768 181.805 267.421 181.704C267.071 181.619 266.711 181.585 266.351 181.602C265.66 181.635 264.981 181.785 264.341 182.046C263.796 182.277 263.322 182.647 262.965 183.118C262.609 183.59 262.382 184.147 262.309 184.734C262.204 185.387 262.18 186.05 262.236 186.708C262.269 187.023 262.342 187.331 262.455 187.626C262.556 187.917 262.715 188.184 262.921 188.413C263.124 188.629 263.348 188.824 263.591 188.996L264.399 189.557C264.96 189.943 265.593 190.285 266.154 190.693C266.664 191.048 267.137 191.453 267.567 191.902C267.733 192.066 267.859 192.265 267.937 192.485C268.015 192.704 268.043 192.938 268.018 193.17C267.806 194.056 267.66 194.957 267.582 195.865C267.569 196.36 267.645 196.854 267.807 197.322C268.004 197.909 268.302 198.456 268.688 198.939C269.697 200.073 270.864 201.055 272.155 201.853C272.732 202.233 273.287 202.646 273.815 203.091C274.209 203.388 274.539 203.763 274.784 204.191C275.053 204.876 274.573 205.371 273.976 205.939C273.255 206.497 272.72 207.258 272.439 208.125C272.352 208.496 272.541 208.853 272.941 209.217C273.465 209.676 274.02 210.097 274.602 210.478C275.416 211.017 276.197 211.606 276.94 212.241C277.847 213.003 278.663 213.869 279.372 214.819C279.491 214.988 279.653 215.123 279.84 215.211C280.027 215.299 280.234 215.337 280.441 215.321C280.647 215.305 280.846 215.235 281.017 215.119C281.188 215.003 281.327 214.845 281.418 214.659C281.965 213.464 282.613 212.335 283.144 211.279C283.676 210.223 284.259 209.239 284.652 208.365C285.034 207.622 285.329 206.837 285.533 206.027C285.607 205.759 285.622 205.478 285.577 205.204C285.531 204.93 285.427 204.669 285.271 204.439V204.439Z" fill="#86D4D4"/>
<path d="M280.53 217.769C280.459 217.771 280.39 217.746 280.337 217.699C280.284 217.651 280.251 217.585 280.246 217.514L280.195 215.956C280.195 215.453 280.129 214.856 280.064 214.171C279.998 213.486 279.933 212.714 279.78 211.862C279.163 207.743 277.956 203.734 276.197 199.959C274.463 196.167 272.186 192.649 269.439 189.513C268.339 188.209 267.297 187.247 266.606 186.534L265.47 185.499C265.42 185.449 265.392 185.381 265.392 185.31C265.392 185.239 265.42 185.171 265.47 185.12C265.493 185.095 265.522 185.075 265.554 185.061C265.586 185.047 265.62 185.04 265.655 185.04C265.69 185.04 265.725 185.047 265.756 185.061C265.788 185.075 265.817 185.095 265.841 185.12L267.021 186.169C267.749 186.898 268.776 187.874 269.89 189.185C272.672 192.359 274.976 195.922 276.728 199.762C278.513 203.583 279.739 207.641 280.37 211.811C280.523 212.663 280.588 213.45 280.654 214.149C280.719 214.848 280.785 215.453 280.785 215.956C280.821 216.961 280.843 217.536 280.843 217.536C280.842 217.574 280.833 217.611 280.815 217.644C280.798 217.678 280.773 217.707 280.743 217.729C280.713 217.752 280.678 217.767 280.641 217.774C280.604 217.781 280.566 217.779 280.53 217.769V217.769Z" fill="white"/>
<path d="M287.434 202.669C287.049 201.697 286.362 200.875 285.475 200.323C284.746 199.791 284.186 199.325 284.302 198.334C284.448 197.702 284.693 197.097 285.03 196.542C285.453 195.762 285.915 195.004 286.414 194.27C287.581 192.612 288.558 190.828 289.327 188.952C289.622 188.143 289.817 187.302 289.91 186.446C289.991 185.786 289.971 185.118 289.851 184.465C289.611 183.405 289.282 182.367 288.868 181.362C288.731 180.767 288.806 180.144 289.08 179.599C289.434 178.841 289.843 178.111 290.303 177.413C290.813 176.648 291.41 175.884 291.92 175.119C292.175 174.733 292.429 174.39 292.648 174.004C292.868 173.663 293.065 173.308 293.238 172.941C293.41 172.57 293.521 172.174 293.566 171.768C293.625 171.382 293.637 170.991 293.602 170.602C293.523 169.853 293.342 169.117 293.063 168.417C292.866 167.835 292.476 167.339 291.958 167.009C291.441 166.679 290.826 166.536 290.216 166.603C289.446 166.678 288.693 166.877 287.987 167.193C287.595 167.372 287.226 167.597 286.887 167.863C286.546 168.159 286.249 168.502 286.006 168.883C285.764 169.273 285.545 169.677 285.351 170.092C285.132 170.545 284.945 171.013 284.79 171.491C284.462 172.474 284.142 173.494 283.858 174.47C283.631 175.365 283.343 176.244 282.999 177.1C282.794 177.725 282.415 178.279 281.906 178.695C280.854 179.262 279.888 179.976 279.037 180.815C278.517 181.388 278.076 182.027 277.726 182.716C277.282 183.641 276.964 184.621 276.779 185.63C276.414 187.96 276.49 190.337 277.005 192.638C277.187 193.701 277.435 194.678 277.61 195.552C277.777 196.238 277.853 196.943 277.835 197.65C277.784 198.742 277.107 199.107 276.335 199.616C275.297 200.125 274.492 201.011 274.085 202.093C273.891 202.754 273.932 203.462 274.201 204.096C274.563 205.016 275.017 205.897 275.556 206.726C276.131 207.702 276.896 208.78 277.682 209.953C278.469 211.126 279.328 212.401 280.144 213.785C280.237 213.996 280.395 214.171 280.595 214.286C280.795 214.4 281.027 214.448 281.256 214.421C281.485 214.394 281.699 214.294 281.867 214.136C282.035 213.979 282.149 213.771 282.19 213.544C282.635 212.149 283.223 210.804 283.945 209.531C284.519 208.494 285.149 207.49 285.832 206.522C286.335 205.827 286.788 205.097 287.186 204.337C287.344 204.092 287.448 203.817 287.49 203.529C287.533 203.242 287.514 202.948 287.434 202.669V202.669Z" fill="#F3CE87"/>
<path d="M281.746 217.595C281.6 217.595 281.462 217.485 281.433 217.296L281.112 215.256C281.069 214.929 280.996 214.572 280.959 214.178C280.923 213.785 280.872 213.355 280.821 212.896C280.726 211.986 280.603 210.966 280.559 209.837C280.21 204.331 280.509 198.803 281.447 193.366C281.944 190.464 282.612 187.594 283.45 184.771C284.199 182.315 285.077 179.901 286.079 177.537C286.931 175.447 287.812 173.786 288.38 172.598C288.948 171.411 289.371 170.785 289.371 170.785C289.383 170.745 289.403 170.709 289.431 170.678C289.459 170.648 289.493 170.624 289.532 170.608C289.57 170.593 289.611 170.586 289.652 170.589C289.693 170.591 289.734 170.603 289.77 170.623C289.806 170.643 289.837 170.67 289.861 170.704C289.885 170.738 289.901 170.776 289.908 170.817C289.915 170.858 289.913 170.899 289.902 170.939C289.891 170.979 289.871 171.016 289.844 171.047C289.844 171.047 289.487 171.702 288.854 172.846C288.22 173.99 287.397 175.672 286.574 177.741C284.425 182.778 282.88 188.053 281.972 193.454C281.041 198.85 280.748 204.336 281.098 209.8C281.141 210.922 281.258 211.935 281.36 212.845C281.404 213.297 281.447 213.719 281.491 214.105C281.535 214.491 281.6 214.834 281.644 215.176C281.848 216.466 281.957 217.201 281.957 217.201C281.978 217.281 281.968 217.366 281.929 217.439C281.89 217.512 281.824 217.568 281.746 217.595Z" fill="white"/>
</svg>
