<svg width="344" height="248" viewBox="0 0 344 248" fill="none" xmlns="http://www.w3.org/2000/svg">
<g clip-path="url(#clip0_165_1636)">
<path d="M301.476 233.219L301.039 232.952C325.992 192.426 338.996 155.809 339.688 124.115C340.405 91.3409 327.679 71.3024 316.879 60.2617C306.506 49.6592 292.927 42.2844 278.642 39.4847C265.253 36.87 252.141 38.5302 242.68 44.0412L242.421 43.5969C251.989 38.0241 265.228 36.3393 278.739 38.9786C293.127 41.7886 306.802 49.2149 317.258 59.8914C328.128 71 340.935 91.1599 340.214 124.115C339.509 155.908 326.478 192.612 301.476 233.219Z" fill="#E5E5FF"/>
<path opacity="0.4" d="M321.479 89.6027C309.826 64.3904 287.188 44.6831 259.03 41.26C236.563 38.526 213.97 38.1619 191.406 36.7857C167.594 35.3457 144.278 30.9229 120.752 27.0555C105.641 24.5704 92.406 28.2465 77.7603 33.5437C57.7547 40.7909 38.4166 64.195 29.6971 82.9149C8.68634 128.022 20.2876 184.757 38.808 228.712C39.7164 230.866 45.9722 248 47.8467 248H292.822C307.602 226.355 319.714 202.537 326.439 177.967C334.43 148.76 334.345 117.438 321.479 89.6027Z" fill="#E0E0E0"/>
<path d="M23.4436 180.193C13.824 150.235 9.58884 124.191 10.8557 102.774C11.9083 84.9617 16.7655 70.1688 25.2872 58.8032C44.819 32.7722 77.4392 33.2782 77.7668 33.2865L77.7544 33.8007C77.4372 33.8007 45.062 33.2885 25.6971 59.1159C17.2351 70.3992 12.415 85.1016 11.3686 102.811C10.1079 124.162 14.3348 150.144 23.9338 180.036L23.4436 180.193Z" fill="#E5E5FF"/>
<path d="M258.865 0.257202H83.0749C79.571 0.257202 76.7305 3.09392 76.7305 6.59318V177.358C76.7305 180.857 79.571 183.694 83.0749 183.694H258.865C262.369 183.694 265.21 180.857 265.21 177.358V6.59318C265.21 3.09392 262.369 0.257202 258.865 0.257202Z" fill="#EBEBEB"/>
<path d="M258.863 183.951H83.075C81.3265 183.946 79.6512 183.25 78.4158 182.014C77.1804 180.778 76.4856 179.104 76.4834 177.358V6.59518C76.485 4.84866 77.1796 3.17397 78.4151 1.93784C79.6506 0.701708 81.3262 0.00489754 83.075 0H258.863C260.614 0.001634 262.293 0.697005 263.531 1.93349C264.769 3.16997 265.465 4.84653 265.467 6.59518V177.358C265.465 179.106 264.768 180.782 263.53 182.018C262.292 183.254 260.614 183.949 258.863 183.951V183.951ZM83.075 0.514284C81.461 0.516462 79.9137 1.15789 78.7726 2.29787C77.6315 3.43784 76.9897 4.98328 76.9881 6.59518V177.358C76.9903 178.97 77.6323 180.514 78.7733 181.654C79.9144 182.793 81.4613 183.435 83.075 183.437H258.863C260.477 183.435 262.025 182.794 263.166 181.655C264.308 180.515 264.95 178.97 264.952 177.358V6.59518C264.951 4.98292 264.308 3.43717 263.167 2.29714C262.025 1.1571 260.478 0.515918 258.863 0.514284H83.075Z" fill="#CBCBFF"/>
<path d="M243.581 21.6287H203.413V24.556H243.581V21.6287Z" fill="#9192FF"/>
<path d="M254.795 34.2286H190.796V37.1559H254.795V34.2286Z" fill="#00ABA8"/>
<path d="M248.438 42.8851H190.796V45.8124H248.438V42.8851Z" fill="#00ABA8"/>
<path d="M241.82 51.5436H190.796V54.4709H241.82V51.5436Z" fill="#CBCBFF"/>
<path d="M254.795 60.2H190.796V63.1273H254.795V60.2Z" fill="#CBCBFF"/>
<path d="M238.038 68.8564H190.796V71.7838H238.038V68.8564Z" fill="#CBCBFF"/>
<path d="M151.741 116.343H90.3174V119.271H151.741V116.343Z" fill="#00ABA8"/>
<path d="M249.311 124.315H90.4927V127.242H249.311V124.315Z" fill="#CBCBFF"/>
<path d="M164.383 21.6287H90.4146V99.806H164.383V21.6287Z" fill="white"/>
<path d="M102.246 73.271H97.1025V91.2504H102.246V73.271Z" fill="#00ABA8"/>
<path d="M111.487 75.8054H106.343V91.2504H111.487V75.8054Z" fill="#E0E0FF"/>
<path d="M120.728 66.0094H115.584V91.2484H120.728V66.0094Z" fill="#00ABA8"/>
<path d="M129.97 67.8176H124.827V91.2504H129.97V67.8176Z" fill="#E0E0FF"/>
<path d="M139.211 59.7289H134.067V91.2504H139.211V59.7289Z" fill="#00ABA8"/>
<path d="M148.452 55.3596H143.308V91.2505H148.452V55.3596Z" fill="#E0E0FF"/>
<path d="M157.694 51.4634H152.551V91.2504H157.694V51.4634Z" fill="#00ABA8"/>
<path d="M108.016 63.4132L98.3057 59.5335L98.4911 59.0706L107.927 62.8393L117.543 54.8926L126.512 55.1024L153.548 38.4293L153.809 38.8531L126.648 55.6043L117.718 55.3966L108.016 63.4132Z" fill="#00ABA8"/>
<path d="M106.716 37.1169H96.1655V41.4966H106.716V37.1169Z" fill="#00ABA8"/>
<path d="M120.075 39.6287H110.204V40.1429H120.075V39.6287Z" fill="#00ABA8"/>
<path d="M236.701 105.15C243.063 105.15 248.22 100 248.22 93.6469C248.22 87.2937 243.063 82.1434 236.701 82.1434C230.339 82.1434 225.182 87.2937 225.182 93.6469C225.182 100 230.339 105.15 236.701 105.15Z" fill="white"/>
<path d="M203.877 105.152C200.977 105.15 198.185 104.056 196.057 102.088C193.93 100.121 192.623 97.4245 192.398 94.5373C192.173 91.6501 193.047 88.7844 194.844 86.5119C196.641 84.2395 199.231 82.7273 202.095 82.2771C202.685 82.1869 203.28 82.1415 203.877 82.1414C206.932 82.1414 209.863 83.3535 212.023 85.5113C214.184 87.669 215.398 90.5954 215.398 93.6469C215.398 96.6984 214.184 99.6249 212.023 101.783C209.863 103.94 206.932 105.152 203.877 105.152V105.152Z" fill="white"/>
<path d="M203.877 93.649L202.095 82.2771C202.684 82.1869 203.28 82.1415 203.877 82.1414C205.495 82.1394 207.096 82.4796 208.574 83.1398C210.051 83.8 211.372 84.7651 212.45 85.9718L203.877 93.649Z" fill="#00ABA8"/>
<path d="M249.74 138.196H91.6689V168.539H249.74V138.196Z" fill="white"/>
<path d="M250.199 168.994H91.7451V138.264H250.199V168.994ZM92.1324 168.607H249.812V138.651H92.1324V168.607Z" fill="#00ABA8"/>
<path d="M250.005 162.538H91.9385V162.925H250.005V162.538Z" fill="#00ABA8"/>
<path d="M250.005 156.47H91.9385V156.857H250.005V156.47Z" fill="#00ABA8"/>
<path d="M250.005 150.401H91.9385V150.788H250.005V150.401Z" fill="#00ABA8"/>
<path d="M250.005 144.333H91.9385V144.72H250.005V144.333Z" fill="#00ABA8"/>
<path d="M223.853 138.458H223.468V168.8H223.853V138.458Z" fill="#00ABA8"/>
<path d="M197.51 138.458H197.125V168.8H197.51V138.458Z" fill="#00ABA8"/>
<path d="M171.164 138.458H170.778V168.8H171.164V138.458Z" fill="#00ABA8"/>
<path d="M144.82 138.458H144.435V168.8H144.82V138.458Z" fill="#00ABA8"/>
<path d="M118.474 138.458H118.089V168.8H118.474V138.458Z" fill="#00ABA8"/>
<path d="M96.2787 163.995C98.5776 160.798 99.074 156.682 101.128 153.314C102.129 151.668 103.453 150.043 105.289 149.309C108.451 148.044 109.258 152.119 109.324 154.382C109.423 157.71 108.871 161.323 111.625 163.824C112.544 164.647 113.759 165.153 115.001 164.824C116.488 164.429 117.413 163.069 118.151 161.818C120.258 158.239 121.597 154.137 123.061 150.265C123.801 148.311 124.74 145.806 126.678 144.711C129.439 143.148 129.741 146.604 129.735 148.414C129.735 150.412 129.75 152.407 129.766 154.402C129.766 155.361 129.577 157.363 130.706 157.9C131.371 158.214 131.896 157.614 132.269 157.13C132.592 156.719 132.819 156.219 133.142 155.801C133.466 155.384 133.717 155.172 134.267 155.126C134.772 155.085 135.013 155.079 135.355 155.538C135.529 155.822 135.652 156.136 135.715 156.464C136.111 157.961 135.705 159.658 136.554 161.041C137.025 161.81 138.043 162.577 138.999 162.427C140.929 162.123 141.419 158.984 141.65 157.474C141.961 155.454 142.249 153.446 142.807 151.475C143.366 149.504 144.095 147.118 145.607 145.633C146.181 145.069 146.974 144.505 147.825 144.604C149.061 144.744 149.459 146.145 149.761 147.149C150.469 149.421 150.838 151.784 150.857 154.164C150.857 155.809 150.379 157.852 151.475 159.27C151.76 159.656 152.151 159.952 152.6 160.122C153.05 160.293 153.539 160.33 154.009 160.23C155.401 159.885 155.737 158.533 156.021 157.311C156.066 157.064 156.129 156.82 156.211 156.583C156.483 155.892 156.59 155.812 157.336 155.781C158.16 155.748 158.188 155.939 158.32 156.618C158.452 157.297 158.384 157.994 158.59 158.675C158.852 159.531 159.453 160.321 160.444 160.022C161.359 159.751 161.849 158.774 162.152 157.947C163.021 155.573 162.941 152.944 163.07 150.459C163.155 148.813 163.289 147.044 164.049 145.548C164.545 144.577 166.008 143.004 167.139 144.028C168.609 145.363 168.465 148.616 168.5 150.405C168.572 154.258 167.923 158.128 168.463 161.966C168.669 163.406 169.081 165.546 170.669 166.081C172.879 166.834 174.507 164.435 175.094 162.674C175.561 161.277 175.669 159.815 176 158.387C176.175 157.638 176.441 156.268 177.467 156.696C178.351 157.064 178.715 158.313 179.494 158.879C182.003 160.701 183.539 157.145 183.836 155.219C184.267 152.405 183.822 149.305 184.866 146.614C185.134 145.933 185.552 145.211 186.178 144.8C187.711 143.79 189.223 145.186 189.68 146.612C190.03 147.692 189.964 148.908 189.985 150.031C190.007 151.249 190.04 152.467 190.063 153.686C190.1 155.7 189.919 157.756 190.049 159.761C190.137 161.156 190.667 162.425 191.874 163.213C194.902 165.188 198.443 162.106 200.375 159.942C202.571 157.474 204.048 154.563 205.185 151.508C205.759 149.959 206.334 148.375 207.232 146.982C207.724 146.215 209.096 144.374 210.221 144.884C210.954 145.213 211.197 146.53 211.356 147.219C211.604 148.375 211.767 149.548 211.844 150.728C212.028 152.964 212.05 155.207 212.081 157.451C212.116 159.35 212.277 162.213 214.39 162.983C217.686 164.182 219.264 159.463 220.178 157.282C220.934 155.476 221.857 153.028 223.616 151.954C225.114 151.041 226.156 152.448 226.706 153.701C227.236 154.915 227.516 156.223 227.53 157.548C227.543 158.461 227.47 159.605 228.474 160.049C230.663 161.014 232.657 157.396 233.51 155.97C234.285 154.67 234.874 153.308 235.525 151.944C236.349 150.231 239.026 146.956 240.13 150.239C240.542 151.473 240.404 152.814 240.322 154.096C240.227 155.536 240.116 157.003 240.17 158.459C240.223 160.142 240.528 163.808 243.068 163.421C244.609 163.184 246.195 161.491 247.348 160.541C249.035 159.127 250.638 157.616 252.148 156.015C252.374 155.774 252.012 155.41 251.783 155.651C250.274 157.253 248.671 158.764 246.984 160.177C246.087 160.95 245.152 161.676 244.18 162.353C242.907 163.209 241.663 162.822 241.154 161.51C240.157 158.938 240.765 155.75 240.899 153.076C240.979 151.485 240.777 147.84 238.336 148.282C236.874 148.548 235.864 150.134 235.247 151.339C234.554 152.718 233.986 154.135 233.207 155.472C232.429 156.809 231.541 158.373 230.253 159.263C229.281 159.934 228.142 159.617 228.033 158.313C227.983 157.718 228.047 157.126 227.977 156.527C227.771 154.801 227.116 151.948 225.244 151.251C222.646 150.28 220.755 154.645 220.016 156.353C219.26 158.103 218.673 160.343 217.274 161.701C216.287 162.664 214.687 162.997 213.677 161.884C212.94 161.061 212.755 159.788 212.648 158.741C212.236 154.676 212.854 150.475 211.692 146.491C211.356 145.341 210.72 143.921 209.294 144.434C206.907 145.277 205.819 148.375 205.005 150.51C203.706 153.923 202.264 157.19 199.73 159.901C198.268 161.467 196.148 163.398 193.861 163.355C190.858 163.295 190.483 160.302 190.566 158.006C190.65 155.764 190.566 153.514 190.512 151.271C190.473 149.463 190.718 147.309 189.822 145.655C189.253 144.604 188.046 143.765 186.802 143.985C185.743 144.172 184.948 145.166 184.536 146.081C183.387 148.55 183.692 151.512 183.432 154.145C183.284 155.651 183.02 158.231 181.253 158.755C179.034 159.414 178.964 156.081 177.098 156.021C175.121 155.953 175.104 160.697 174.762 161.946C174.35 163.487 173.526 165.324 171.78 165.649C170.694 165.854 169.971 165.171 169.549 164.24C168.589 162.119 168.706 159.444 168.766 157.171C168.811 155.474 168.972 153.783 168.993 152.084C169.025 150.255 169.39 142.393 165.903 143.238C163.484 143.82 162.864 146.941 162.65 148.998C162.364 151.751 162.605 154.571 161.826 157.262C161.62 157.959 161.35 158.768 160.765 159.243C160.18 159.718 159.426 159.315 159.117 158.677C158.911 158.243 158.924 157.7 158.883 157.237C158.815 156.453 158.716 155.289 157.853 154.96C156.843 154.581 156.015 155.612 155.712 156.439C155.335 157.468 155.459 158.813 154.415 159.494C153.37 160.175 152.149 159.533 151.636 158.523C151.109 157.472 151.298 156.19 151.35 155.059C151.398 153.91 151.355 152.76 151.22 151.619C150.995 149.683 150.633 147.56 149.836 145.767C148.738 143.298 146.286 143.952 144.828 145.727C142.356 148.743 141.738 153.329 141.194 157.042C141.021 158.235 140.795 159.473 140.261 160.566C139.987 161.125 139.594 161.785 138.926 161.899C137.81 162.088 136.889 160.804 136.644 159.891C136.247 158.408 136.621 153.143 133.528 154.748C132.568 155.25 132.475 156.447 131.655 157.05C130.376 157.99 130.296 155.91 130.287 155.104C130.273 153.896 130.267 152.687 130.256 151.479C130.242 149.856 130.366 148.171 130.168 146.556C130.042 145.528 129.727 144.327 128.662 143.901C125.778 142.751 123.626 147.398 122.853 149.348C121.205 153.481 119.897 157.897 117.588 161.72C116.321 163.818 114.161 165.392 111.989 163.427C110.436 162.022 109.866 159.961 109.825 157.939C109.773 155.314 110.56 150.004 107.408 148.64C104.66 147.451 101.75 151.234 100.588 153.18C98.6043 156.505 98.0894 160.566 95.8359 163.703C95.6422 163.972 96.0872 164.229 96.2787 163.962V163.995Z" fill="#9192FF"/>
<path d="M249.841 217.013H210.928C209.435 217.013 208.225 218.222 208.225 219.712V245.299C208.225 246.79 209.435 247.998 210.928 247.998H249.841C251.333 247.998 252.543 246.79 252.543 245.299V219.712C252.543 218.222 251.333 217.013 249.841 217.013Z" fill="#E0E0FF"/>
<path d="M251.565 230.44H209.202V230.93H251.565V230.44Z" fill="#00ABA8"/>
<path d="M230.383 234.933C229.44 234.932 228.536 234.557 227.869 233.891C227.202 233.225 226.827 232.322 226.826 231.38V230.44H233.94V231.38C233.939 232.322 233.564 233.225 232.897 233.891C232.23 234.557 231.326 234.932 230.383 234.933V234.933ZM227.316 230.93V231.38C227.316 232.193 227.639 232.972 228.214 233.546C228.789 234.121 229.57 234.443 230.383 234.443C231.197 234.443 231.977 234.121 232.552 233.546C233.127 232.972 233.45 232.193 233.45 231.38V230.93H227.316Z" fill="#00ABA8"/>
<path d="M238.767 218.597H238.277V212.243C238.276 211.831 238.112 211.436 237.82 211.145C237.529 210.854 237.134 210.69 236.721 210.69H224.047C223.635 210.69 223.239 210.854 222.948 211.145C222.656 211.436 222.492 211.831 222.492 212.243V218.597H222.001V212.243C222.002 211.701 222.218 211.182 222.601 210.799C222.985 210.416 223.505 210.201 224.047 210.2H236.721C237.264 210.201 237.784 210.416 238.167 210.799C238.551 211.182 238.766 211.701 238.767 212.243V218.597Z" fill="#00ABA8"/>
<path d="M223.456 217.013H221.064V219.587H223.456V217.013Z" fill="#00ABA8"/>
<path d="M239.708 217.013H237.317V219.587H239.708V217.013Z" fill="#00ABA8"/>
<path d="M126.512 221.704H94.9233V248H126.512V221.704Z" fill="#E0E0FF"/>
<path d="M128.839 219.842H92.5977V225.365H128.839V219.842Z" fill="#00ABA8"/>
<path opacity="0.6" d="M126.514 248H94.9233V225.283C94.9233 225.283 107.717 244.486 126.514 248Z" fill="#00ABA8"/>
<path d="M301.909 23.2786C297.718 23.2785 293.637 24.6209 290.267 27.1085C286.897 29.5962 284.414 33.0978 283.185 37.0989C281.955 41.0999 282.043 45.3894 283.436 49.3369C284.828 53.2844 287.452 56.6817 290.921 59.0295L290.169 68.0398L297.521 61.8972C300.209 62.5133 302.996 62.5556 305.701 62.0214C308.406 61.4872 310.968 60.3885 313.219 58.7973C315.469 57.206 317.358 55.158 318.761 52.7873C320.164 50.4167 321.05 47.7768 321.361 45.0406C321.672 42.3043 321.4 39.5333 320.565 36.909C319.729 34.2847 318.348 31.8662 316.512 29.8118C314.675 27.7575 312.425 26.1136 309.909 24.9877C307.392 23.8618 304.666 23.2794 301.909 23.2786V23.2786Z" fill="white"/>
<path d="M289.86 68.6322L290.651 59.157C286.578 56.3586 283.695 52.1449 282.565 47.3382C281.434 42.5315 282.138 37.4767 284.538 33.16C286.938 28.8433 290.862 25.5746 295.545 23.9915C300.228 22.4084 305.334 22.6246 309.866 24.5979C314.398 26.5713 318.031 30.1601 320.057 34.6642C322.082 39.1683 322.355 44.2644 320.821 48.9583C319.287 53.6522 316.058 57.607 311.762 60.051C307.466 62.495 302.412 63.253 297.587 62.1769L289.86 68.6322ZM301.909 23.5357C297.772 23.5343 293.745 24.8583 290.418 27.3129C287.091 29.7676 284.64 33.2234 283.426 37.1723C282.212 41.1213 282.298 45.3551 283.673 49.2513C285.047 53.1475 287.637 56.5005 291.061 58.8176L291.185 58.9019L290.472 67.4473L297.447 61.6173L297.571 61.6462C300.223 62.2545 302.974 62.2964 305.644 61.7693C308.314 61.2421 310.842 60.1578 313.063 58.5872C315.285 57.0167 317.149 54.9953 318.533 52.6555C319.918 50.3157 320.792 47.7102 321.099 45.0095C321.405 42.3089 321.137 39.5741 320.312 36.9841C319.487 34.3941 318.123 32.0074 316.31 29.9802C314.498 27.953 312.277 26.331 309.793 25.2204C307.309 24.1098 304.618 23.5357 301.896 23.5357H301.909Z" fill="#00ABA8"/>
<path d="M305.241 46.952H299.418V52.9877H305.241V46.952Z" fill="white"/>
<path d="M305.499 53.2449H299.161V46.6949H305.499V53.2449ZM299.676 52.7306H304.984V47.2092H299.676V52.7306Z" fill="#00ABA8"/>
<path d="M307.054 42.7823C307.055 42.0584 306.89 41.3439 306.57 40.6941C306.251 40.0443 305.786 39.4767 305.211 39.0351C304.637 38.5936 303.968 38.2899 303.257 38.1477C302.547 38.0054 301.813 38.0284 301.112 38.2148C300.412 38.4012 299.764 38.746 299.218 39.2226C298.672 39.6992 298.244 40.2948 297.966 40.9633C297.687 41.6317 297.567 42.3552 297.613 43.0776C297.66 43.8001 297.872 44.5021 298.234 45.1295C298.987 46.3854 299.395 47.8172 299.418 49.2808V50.3546H305.242V49.2294C305.264 47.7849 305.67 46.3723 306.418 45.1356C306.835 44.4215 307.055 43.6092 307.054 42.7823V42.7823Z" fill="white"/>
<path d="M305.499 50.6116H299.161V49.2807C299.14 47.8613 298.743 46.4728 298.009 45.2569C297.566 44.4858 297.337 43.6098 297.348 42.7205C297.378 41.4581 297.881 40.253 298.759 39.3439C299.636 38.4349 300.824 37.8881 302.086 37.8122C302.98 37.7691 303.869 37.9677 304.66 38.3868C305.45 38.8059 306.113 39.4302 306.579 40.1939C307.044 40.9576 307.294 41.8324 307.304 42.7263C307.313 43.6202 307.081 44.5001 306.632 45.2734C305.905 46.4696 305.511 47.8382 305.491 49.2375L305.499 50.6116ZM299.676 50.0974H304.984V49.2293C305.003 47.7394 305.421 46.2819 306.195 45.008C306.697 44.1422 306.894 43.1328 306.752 42.1421C306.61 41.1515 306.139 40.2372 305.415 39.5463C304.979 39.1257 304.462 38.7991 303.895 38.5867C303.328 38.3744 302.723 38.2809 302.119 38.312C300.986 38.3807 299.921 38.871 299.133 39.6861C298.345 40.5012 297.892 41.5817 297.863 42.7143C297.853 43.5115 298.058 44.2968 298.456 44.9874C299.235 46.2814 299.656 47.7587 299.676 49.2683V50.0974Z" fill="#00ABA8"/>
<path d="M301.252 42.2351C300.887 42.7556 300.273 42.9551 299.882 42.6815C299.49 42.4079 299.47 41.762 299.836 41.2415C300.203 40.721 300.815 40.5215 301.206 40.7951C301.598 41.0687 301.618 41.7064 301.252 42.2351Z" fill="white"/>
<path d="M300.285 43.0578C300.088 43.0597 299.895 43 299.733 42.8871C299.605 42.7921 299.5 42.668 299.429 42.525C299.357 42.382 299.32 42.2241 299.321 42.0642C299.322 41.7176 299.429 41.3795 299.628 41.0958C299.827 40.812 300.109 40.5964 300.436 40.4782C300.586 40.419 300.749 40.398 300.909 40.4169C301.07 40.4358 301.223 40.4941 301.355 40.5866C301.488 40.6791 301.595 40.8029 301.668 40.947C301.741 41.091 301.777 41.2508 301.773 41.4121C301.777 41.7589 301.669 42.0979 301.466 42.379V42.379C301.27 42.6659 300.987 42.8822 300.658 42.9961C300.538 43.0363 300.412 43.0572 300.285 43.0578V43.0578ZM300.8 40.9246C300.73 40.9259 300.661 40.9377 300.594 40.9596C300.372 41.0407 300.181 41.1897 300.048 41.3854C299.911 41.5765 299.839 41.8065 299.842 42.0416C299.841 42.1238 299.859 42.2052 299.894 42.2791C299.93 42.3531 299.983 42.4176 300.048 42.4675C300.117 42.5102 300.196 42.536 300.277 42.5427C300.357 42.5495 300.439 42.5371 300.514 42.5065C300.737 42.427 300.928 42.2785 301.06 42.0828C301.196 41.891 301.268 41.6615 301.266 41.4265C301.267 41.3444 301.25 41.263 301.214 41.189C301.178 41.115 301.125 41.0505 301.06 41.0007C300.983 40.9487 300.893 40.9214 300.8 40.9225V40.9246Z" fill="#00ABA8"/>
<path d="M293.263 34.5186L292.943 34.9214L295.876 37.247L296.196 36.8442L293.263 34.5186Z" fill="#00ABA8"/>
<path d="M302.139 29.6271L301.624 29.6436L301.785 34.6625L302.299 34.646L302.139 29.6271Z" fill="#00ABA8"/>
<path d="M310.798 33.49L307.759 36.442L308.118 36.8106L311.157 33.8586L310.798 33.49Z" fill="#00ABA8"/>
<path d="M56.1541 47.995C56.1537 44.4002 55.025 40.8959 52.9268 37.975C50.8286 35.054 47.8664 32.8633 44.4567 31.711C41.0471 30.5586 37.3615 30.5025 33.9182 31.5505C30.475 32.5986 27.4473 34.6981 25.2609 37.5539C23.0745 40.4096 21.8394 43.8779 21.7293 47.471C21.6191 51.0642 22.6395 54.6014 24.6468 57.5853C26.6542 60.5693 29.5476 62.8498 32.9202 64.1063C36.2928 65.3627 39.975 65.5319 43.4488 64.5899L49.4225 69.5847L48.8045 62.0843C51.0754 60.5008 52.9296 58.3928 54.2093 55.9397C55.4889 53.4866 56.1561 50.761 56.1541 47.995V47.995Z" fill="white"/>
<path d="M49.7339 70.1669L43.3854 64.8636C39.1636 65.9768 34.6775 65.4729 30.8087 63.4509C26.94 61.4289 23.9684 58.035 22.4779 53.9363C20.9874 49.8375 21.0858 45.3302 22.7538 41.3002C24.4217 37.2702 27.5386 34.0088 31.492 32.1572C35.4453 30.3055 39.9491 29.9974 44.1183 31.2933C48.2876 32.5893 51.8207 35.3956 54.0234 39.1608C56.2261 42.926 56.9391 47.3778 56.0223 51.6413C55.1055 55.9047 52.6251 59.6716 49.0686 62.2016L49.7339 70.1669ZM43.5111 64.2958L49.118 68.9778L48.531 61.9445L48.6525 61.8602C52.1239 59.4308 54.557 55.7898 55.4711 51.6562C56.3852 47.5225 55.7139 43.1968 53.5899 39.5334C51.4658 35.87 48.0434 33.1352 43.9985 31.8691C39.9537 30.603 35.5805 30.8977 31.7426 32.695C27.9047 34.4924 24.8812 37.6616 23.2693 41.5768C21.6573 45.492 21.5741 49.8685 23.0361 53.842C24.498 57.8155 27.3988 61.0971 31.1656 63.0386C34.9323 64.9802 39.2912 65.4405 43.3813 64.3287L43.5111 64.2958Z" fill="#00ABA8"/>
<path d="M38.7071 53.3476L33.8252 48.4722L34.1877 48.1081L38.5382 52.4528L43.5808 40.9843L44.0525 41.19L38.7071 53.3476Z" fill="#00ABA8"/>
<path d="M132.592 70.5248L127.974 73.2238L78.8747 101.958C77.3627 102.842 75.5954 102.633 74.893 101.487C74.1926 100.341 74.8147 98.6747 76.2937 97.7366L124.211 67.2992L128.821 64.3699L132.592 70.5248Z" fill="#00ABA8"/>
<path opacity="0.6" d="M132.593 70.5248L127.974 73.2238C127.063 72.3526 126.27 71.3664 125.614 70.2903C125.035 69.349 124.565 68.3457 124.211 67.2992L128.821 64.3699L132.593 70.5248Z" fill="#263238"/>
<path d="M126.104 72.0635C125.843 72.2223 125.541 72.3002 125.235 72.2875C124.93 72.2748 124.635 72.1719 124.389 71.992C124.142 71.8121 123.954 71.5631 123.849 71.2766C123.744 70.9901 123.726 70.6789 123.798 70.3824C123.87 70.0859 124.029 69.8173 124.254 69.6107C124.478 69.4041 124.76 69.2687 125.061 69.2216C125.363 69.1745 125.672 69.2179 125.95 69.3462C126.227 69.4745 126.46 69.6821 126.619 69.9426C126.725 70.1155 126.795 70.3076 126.827 70.5079C126.858 70.7082 126.85 70.9127 126.802 71.1098C126.754 71.3068 126.668 71.4925 126.548 71.6561C126.428 71.8198 126.277 71.9582 126.104 72.0635Z" fill="white"/>
<path d="M149.374 80.4751C162.873 80.4751 173.817 69.5464 173.817 56.0651C173.817 42.5839 162.873 31.6552 149.374 31.6552C135.875 31.6552 124.932 42.5839 124.932 56.0651C124.932 69.5464 135.875 80.4751 149.374 80.4751Z" fill="#00ABA8"/>
<path d="M149.374 75.8651C160.324 75.8651 169.201 67.0004 169.201 56.0652C169.201 45.13 160.324 36.2653 149.374 36.2653C138.424 36.2653 129.548 45.13 129.548 56.0652C129.548 67.0004 138.424 75.8651 149.374 75.8651Z" fill="white"/>
<path d="M141.314 62.7592H135.1V100.851H141.314V62.7592Z" fill="#00ABA8"/>
<path d="M152.483 57.7356H146.268V101.108H152.483V57.7356Z" fill="#E0E0FF"/>
<path d="M163.649 52.3397H157.435V100.421H163.649V52.3397Z" fill="#00ABA8"/>
<path d="M156.71 45.0588L128.234 54.1562L128.47 54.891L156.945 45.7935L156.71 45.0588Z" fill="#00ABA8"/>
<path d="M154.934 48.7459L154.316 48.2974L156.191 45.6684L153.461 44.7407L153.711 44.0104L156.71 45.0389C156.793 45.0648 156.869 45.1107 156.931 45.1728C156.992 45.2349 157.037 45.3112 157.062 45.3948C157.089 45.482 157.093 45.5745 157.074 45.6636C157.055 45.7528 157.014 45.8359 156.955 45.905L154.934 48.7459ZM156.461 45.7651H156.485H156.461ZM156.351 45.4298C156.35 45.4352 156.35 45.4408 156.351 45.4463V45.4298Z" fill="#00ABA8"/>
<path d="M100.467 237.77C97.3542 237.817 92.8966 237.889 90.0107 237.93C90.0416 236.536 90.0952 235.147 90.157 233.878C90.295 230.71 90.4763 228.262 90.4763 228.262L99.3894 228.2C99.3894 228.2 99.3482 229.085 99.3894 230.411C99.445 232.376 99.6778 235.307 100.467 237.77Z" fill="#FFBC96"/>
<path d="M103.919 242.125C102.209 241.596 101.138 239.862 100.468 237.77L90.0103 237.93C89.9321 241.209 89.9609 244.513 90.2761 246.365C90.3402 246.754 90.5413 247.109 90.8433 247.364C91.1452 247.619 91.5284 247.759 91.924 247.757H107.237C108.487 247.757 109.565 246.714 109.435 245.474C109.281 243.991 107.526 243.24 103.919 242.125Z" fill="#263238"/>
<path d="M99.3891 230.411L90.1567 233.878C90.2948 230.71 90.476 228.262 90.476 228.262L99.3891 228.2C99.3891 228.2 99.3479 229.085 99.3891 230.411Z" fill="#D28572"/>
<path d="M94.7545 247.623C94.427 246.074 93.7781 244.996 92.8223 244.421C92.0207 243.97 91.0791 243.837 90.1836 244.046L90.0415 243.552C91.0718 243.297 92.1609 243.449 93.0819 243.976C94.1674 244.628 94.8987 245.828 95.2571 247.519L94.7545 247.623Z" fill="#656590"/>
<path d="M54.6855 226.534C53.9977 228.196 53.4297 229.906 52.9861 231.65C52.6229 233.029 52.3932 234.44 52.3001 235.863L42.458 232.314C43.7207 229.229 45.0699 226.184 45.795 224.59L45.8156 224.549C46.1308 223.849 46.3223 223.438 46.3223 223.438L54.6855 226.534Z" fill="#FFBC96"/>
<path d="M53.9832 241.16C52.5722 240.059 52.189 238.052 52.3003 235.867L42.4623 232.314C41.2264 235.355 40.0852 238.453 39.7226 240.298C39.6448 240.684 39.7069 241.086 39.8978 241.43C40.0887 241.775 40.396 242.041 40.7649 242.18L55.0914 247.595C56.2594 248.037 57.6374 247.443 57.9546 246.237C58.3378 244.795 56.9638 243.474 53.9832 241.16Z" fill="#263238"/>
<path d="M54.6858 226.534C53.998 228.196 53.4301 229.906 52.9864 231.65L45.5234 225.371L45.8056 224.59L45.8262 224.549C46.1414 223.849 46.333 223.438 46.333 223.438L54.6858 226.534Z" fill="#D28572"/>
<path d="M43.0517 242.977L42.5965 242.738C44.5142 239.066 41.1339 237.245 40.9897 237.171L41.2266 236.715C41.272 236.735 45.2104 238.852 43.0517 242.977Z" fill="#656590"/>
<path d="M103.767 230L87.3762 231.286L83.9403 172.826L78.8627 153.608L72.2196 128.474L71.8756 127.164L70.273 121.106L70.0361 120.201L73.1733 119.917L90.12 118.401L91.1499 123.029L101.301 168.868C101.632 170.361 101.825 171.881 101.878 173.408L103.767 230Z" fill="#263238"/>
<path d="M80.1664 140.601L78.8625 153.608L76.7511 174.663C76.5101 177.088 75.9683 179.473 75.1383 181.764L57.6766 230L43 224.343L56.6467 174.972C60.1629 154.647 59.582 139.048 60.4884 129.153C60.5461 128.536 60.6079 127.946 60.6738 127.376C61.0404 124.346 61.6048 121.945 62.5689 120.2L70.2728 121.106L75.7006 121.743L76.8788 126.728L77.1178 127.734L80.1664 140.601Z" fill="#263238"/>
<path opacity="0.6" d="M91.1434 123.029L91.3206 125C91.3206 125 68.3199 131.171 60.4883 129.153C60.546 128.536 60.6078 127.946 60.6737 127.376C61.0403 124.346 61.6047 121.945 62.5688 120.201L70.2727 121.106L70.0358 120.201L73.173 119.917L90.1197 118.401L91.1434 123.029Z" fill="#263238"/>
<path d="M83.6909 173.106L76.0014 142.773L69.7002 140.759L69.8567 140.27L76.4298 142.37L76.4648 142.508L84.1894 172.978L83.6909 173.106Z" fill="#263238"/>
<path d="M95.4878 174.441L95.3086 173.96C99.348 172.446 101.546 171.041 101.567 171.028L101.847 171.458C101.758 171.518 99.587 172.906 95.4878 174.441Z" fill="#263238"/>
<path d="M75.8038 179.598C73.185 179.307 70.5899 178.832 68.0381 178.177L68.172 177.681C70.6973 178.328 73.2646 178.798 75.8553 179.088L75.8038 179.598Z" fill="#263238"/>
<path d="M44.3779 219.874L44.2002 220.357L59.135 225.841L59.3127 225.359L44.3779 219.874Z" fill="#263238"/>
<path d="M103.491 225.632L87.1411 226.782L87.1773 227.295L103.527 226.145L103.491 225.632Z" fill="#263238"/>
<path d="M68.8781 83.0013L61.9116 85.8011C60.9094 86.2037 59.9969 86.8003 59.2265 87.5565C58.4562 88.3128 57.8433 89.2137 57.4231 90.2075L51.5771 104.182C51.0064 105.546 50.8856 107.057 51.2323 108.494C51.579 109.932 52.375 111.222 53.5052 112.178V112.178C54.4445 112.975 55.5789 113.51 56.7926 113.727C58.0064 113.944 59.2561 113.835 60.414 113.412L65.3577 111.596L68.8781 83.0013Z" fill="#00ABA8"/>
<path d="M117.053 70.3046C115.751 70.9464 114.249 73.6824 114.82 74.6657C115.285 75.4721 116.373 74.3819 116.731 74.0075C117.391 73.3204 119.092 71.4833 118.153 70.4404C117.854 70.1071 117.463 70.101 117.053 70.3046Z" fill="#FFBC96"/>
<path d="M113.911 71.2921C112.832 72.261 112.123 75.2994 112.937 76.0935C113.604 76.7456 114.356 75.4023 114.601 74.9456C115.05 74.1063 116.194 71.8805 115.013 71.1275C114.62 70.8869 114.243 70.9877 113.911 71.2921Z" fill="#FFBC96"/>
<path d="M111.811 72.8185C110.719 73.7545 109.957 76.6283 110.739 77.3586C111.386 77.9572 112.161 76.6756 112.414 76.2395C112.875 75.4413 114.062 73.3225 112.9 72.6395C112.529 72.4215 112.155 72.5243 111.811 72.8185Z" fill="#FFBC96"/>
<path d="M109.816 73.5303C108.725 74.4663 107.962 77.3401 108.745 78.0704C109.392 78.667 110.169 77.3874 110.42 76.9513C110.883 76.1531 112.068 74.0322 110.906 73.3513C110.537 73.1333 110.16 73.2361 109.816 73.5303Z" fill="#FFBC96"/>
<path d="M68.8783 83.0815L61.6255 95.5334C61.6255 95.5334 63.5124 116.105 62.1405 118.631C60.7686 121.157 57.6767 123.142 59.5656 124.597C61.4545 126.051 76.3866 128.567 92.5237 124.778C96.9854 123.515 93.8956 121.167 92.8657 120.085C91.8357 119.003 90.4638 91.7544 90.4638 91.7544L81.1944 83.3202L74.337 81.4688L68.8783 83.0815Z" fill="#00ABA8"/>
<path opacity="0.2" d="M81.0438 83.2996C79.7564 85.5501 64.6018 87.8644 68.8781 83.0013L73.2533 82.0797L81.0438 83.2996Z" fill="#263238"/>
<path d="M100.677 97.9587L94.7032 89.1007C94.0172 87.9874 93.1091 87.0271 92.0353 86.2796C90.9615 85.5321 89.745 85.0135 88.4618 84.756L81.2007 83.2996L85.4852 99.372C85.4852 99.372 92.1798 108.759 98.2318 110.943C103.662 112.906 110.863 109.682 114.834 88.4856L105.831 87.2513L100.677 97.9587Z" fill="#00ABA8"/>
<path d="M119.774 75.8856C118.863 75.7704 115.741 80.473 115.741 80.473L110.692 82.1887C109.776 82.4999 108.932 82.9902 108.209 83.6309C107.485 84.2717 106.896 85.0499 106.477 85.9203L105.831 87.2595L114.834 88.4938C114.983 87.7018 115.129 86.8934 115.267 86.052C118.357 83.2584 121.791 76.1428 119.774 75.8856Z" fill="#FFBC96"/>
<path d="M82.4301 63.4236L84.249 65.9539C84.3205 66.0553 84.3673 66.1721 84.3855 66.2949C84.4037 66.4176 84.3928 66.5429 84.3538 66.6607C84.3147 66.7786 84.2486 66.8856 84.1606 66.9732C84.0726 67.0609 83.9653 67.1268 83.8473 67.1655L81.8986 67.9164L80.5288 64.8636L82.4301 63.4236Z" fill="#D28572"/>
<path d="M70.623 77.2886C70.9018 74.2009 70.9933 71.0993 70.897 68.0006L79.2169 68.6033C79.1489 69.5494 79.1338 70.4986 79.1715 71.4463C79.2346 72.9676 79.3894 74.4837 79.635 75.9864C79.7648 76.8093 79.9131 77.6074 80.0738 78.3789L70.623 77.2886Z" fill="#FFBC96"/>
<path d="M79.635 75.9865C77.5106 75.0848 75.7806 73.452 74.7593 71.3846L79.1715 71.4464C79.2346 72.9676 79.3894 74.4838 79.635 75.9865V75.9865Z" fill="#D28572"/>
<path d="M70.6211 77.2866L68.8784 83.0013C72.8931 83.9661 77.0046 84.0073 81.1944 83.2996L80.0739 78.3769L70.6211 77.2866Z" fill="#FFF5E8"/>
<path d="M82.2242 59.1715L83.0853 70.6708C83.1636 71.1625 82.8608 71.613 82.4364 72.01C82.0682 72.3395 81.6385 72.593 81.1718 72.7561C80.7052 72.9192 80.2109 72.9887 79.7174 72.9604L73.8199 72.7156L69.6157 68.0007L72.8765 57.9721L78.7987 57.8857L82.2242 59.1715Z" fill="#FFBC96"/>
<path d="M72.5469 66.0074C72.5469 66.0074 74.0918 70.8293 70.8084 73.2732C67.2675 72.115 60.7026 61.3788 68.8783 57.9722C68.8783 57.9722 71.1297 52.2513 77.2455 54.3722C82.6424 56.2442 84.0678 59.515 84.0678 59.515C84.0678 59.515 80.2715 62.3436 75.8283 59.7084C75.8283 59.7084 76.2794 65.4293 72.5469 66.0074Z" fill="#263238"/>
<path d="M74.7241 64.0407C75.6861 65.2297 75.5913 66.898 74.5181 67.7682C73.4449 68.6384 71.7867 68.3853 70.8248 67.1901C69.8628 65.9949 69.9596 64.3328 71.0308 63.4626C72.1019 62.5924 73.7642 62.8496 74.7241 64.0407Z" fill="#FFBC96"/>
<path d="M73.5377 66.8055C73.5151 66.7212 73.0022 64.7607 71.62 65.061L71.5376 64.6825C72.9363 64.3801 73.7025 65.8777 73.9126 66.7109L73.5377 66.8055Z" fill="#263238"/>
<path opacity="0.4" d="M80.885 66.7584C81.1027 65.8373 80.5315 64.9144 79.6092 64.697C78.6869 64.4796 77.7627 65.0501 77.545 65.9711C77.3273 66.8922 77.8986 67.8152 78.8209 68.0325C79.7432 68.2499 80.6673 67.6795 80.885 66.7584Z" fill="#FE5B52"/>
<path d="M61.4361 125.648C59.8747 125.277 58.991 124.697 58.7356 123.879C58.3236 122.544 59.6996 121.013 60.917 119.664C61.1065 119.458 61.2919 119.252 61.4588 119.046C61.7928 118.667 62.024 118.209 62.1303 117.715C63.2591 112.367 61.3888 95.7206 61.3682 95.5539L61.8811 95.4963C61.9593 96.1834 63.7803 112.394 62.635 117.82C62.5103 118.4 62.2394 118.938 61.8481 119.384C61.6792 119.59 61.4917 119.795 61.3002 120.001C60.229 121.188 58.8983 122.663 59.2259 123.718C59.4319 124.335 60.2043 124.821 61.5556 125.142L61.4361 125.648Z" fill="#263238"/>
<path d="M91.3328 125.257L91.3102 124.743C93.0693 124.665 94.1446 124.247 94.4206 123.531C94.6966 122.815 94.192 121.735 93.0281 120.583C92.7257 120.281 92.5175 119.898 92.4287 119.481C91.5018 115.325 90.5171 101.583 90.5068 101.448L91.0197 101.411C91.0197 101.548 92.0126 115.251 92.9313 119.369C92.9991 119.69 93.1587 119.985 93.3907 120.217C94.7255 121.54 95.2631 122.782 94.9026 123.714C94.5421 124.646 93.3392 125.168 91.3328 125.257Z" fill="#263238"/>
<path d="M99.7496 100.256L99.2861 100.03L105.682 86.9797L114.869 88.2305L114.801 88.7406L105.981 87.5393L99.7496 100.256Z" fill="#263238"/>
<path d="M254.653 68.1714C251.606 66.3199 250.918 61.0578 253.753 59.4717C256.587 57.8857 258.387 59.301 258.387 59.301C258.387 59.301 267.885 55.8409 271.476 64.6496C274.178 71.292 272.032 74.7645 274.393 78.1073C277.083 81.9151 281.396 85.3485 275.767 92.0341L262.635 88.8291L259.201 72.6806L254.653 68.1714Z" fill="#263238"/>
<path d="M300.1 216.269L290.443 220.508C290.443 220.508 291.83 224.09 293.018 228.254L302.947 225.086L300.1 216.269Z" fill="#FFBC96"/>
<path d="M302.946 225.086L293.018 228.254C294.377 233.024 295.475 238.562 293.924 240.368C291.905 242.717 290.146 244.659 289.724 246.293C289.667 246.506 289.673 246.732 289.742 246.942C289.81 247.152 289.937 247.339 290.109 247.478C290.28 247.618 290.489 247.706 290.709 247.73C290.929 247.755 291.151 247.716 291.349 247.617L304.178 241.156C305.202 240.64 305.989 239.752 306.377 238.675C306.765 237.597 306.725 236.412 306.265 235.363L302.946 225.086Z" fill="#263238"/>
<path d="M303.996 228.421L293.866 231.585L294.019 232.076L304.15 228.912L303.996 228.421Z" fill="#656590"/>
<path d="M292.042 242.937L291.935 242.433C294.394 241.913 295.824 241.012 296.188 239.759C296.786 237.692 294.322 235.273 294.297 235.248L294.656 234.88C294.767 234.987 297.364 237.542 296.683 239.903C296.262 241.351 294.701 242.374 292.042 242.937Z" fill="#656590"/>
<path d="M262.806 225.629L251.649 226.657C251.815 229.297 251.797 231.946 251.596 234.583L262.328 234.425L262.806 225.629Z" fill="#FFBC96"/>
<path d="M251.596 234.577C251.293 238.091 250.494 241.617 248.56 242.423C244.44 244.137 241.177 245.336 241.521 247.737H257.359C258.506 247.736 259.609 247.297 260.441 246.51C261.274 245.722 261.773 244.647 261.836 243.503L262.328 234.419L251.596 234.577Z" fill="#263238"/>
<path d="M251.634 237.005L251.625 237.519L261.925 237.69L261.934 237.176L251.634 237.005Z" fill="#656590"/>
<path d="M248.296 244.375C247.491 244.361 246.69 244.259 245.906 244.073L246.02 243.571C248.285 244.075 249.812 243.919 250.452 243.123C251.307 242.063 250.436 240.156 250.428 240.138L250.893 239.926C250.934 240.016 251.905 242.145 250.852 243.452C250.356 244.065 249.499 244.375 248.296 244.375Z" fill="#656590"/>
<path d="M262.659 228.268C262.538 228.308 262.415 228.342 262.291 228.369C260.06 228.883 252.679 228.369 252.679 228.369C252.354 228.299 252.034 228.209 251.721 228.097C244.821 225.587 245.29 213.539 246.327 203C247.278 193.332 243.237 144.026 246.028 127.273L263.494 123.455L263.597 126.392L263.803 132.389L264.173 142.998C264.173 142.998 264.833 153.263 265.735 166.126C267.084 185.412 268.979 210.544 270.009 215.687C271.657 223.88 265.45 227.455 262.659 228.268Z" fill="#00ABA8"/>
<path d="M302.185 217.585C301.806 218.026 301.379 218.424 300.914 218.772C298.565 220.578 295.397 221.241 292.619 221.994C292.12 222.128 291.612 222.226 291.098 222.286C288.509 222.605 285.681 222.012 284.472 219.817C278.269 208.534 271.288 186.136 265.747 166.126C261.698 151.52 258.429 138.169 256.801 131.36C256.084 128.353 255.689 126.629 255.689 126.629L263.603 126.392L277.06 125.981C277.427 127.791 277.843 129.7 278.313 131.679C282.904 151.259 291.953 178.17 295.496 188.473C297.624 194.644 300.852 200.141 302.259 206.6C303.009 210.025 304.753 214.623 302.185 217.585Z" fill="#00ABA8"/>
<path opacity="0.6" d="M278.306 131.683C273.519 132.494 268.652 132.73 263.809 132.389C261.452 132.216 259.112 131.872 256.805 131.36C249.754 129.809 246.038 127.269 246.038 127.269L263.504 123.451L263.607 126.388L277.064 125.977C277.42 127.795 277.836 129.704 278.306 131.683Z" fill="#263238"/>
<path d="M265.492 166.194L260.105 147.139L254.564 145.127L254.741 144.643L260.529 146.746L260.564 146.873L265.988 166.056L265.492 166.194Z" fill="#263238"/>
<path d="M298.563 219.928L298.116 219.671C300.716 215.166 295.504 201.276 288.909 183.692C282.505 166.618 274.533 145.369 271.649 126.411L272.16 126.333C275.044 145.238 282.995 166.461 289.391 183.521C296.036 201.223 301.282 215.211 298.563 219.928Z" fill="#263238"/>
<path d="M249.771 111.077C249.153 115.422 248.216 121.101 248.216 121.101H238.044L240.516 107.508L241.134 104.13C241.134 104.13 249.888 106.187 250.276 106.187C250.424 106.187 250.156 108.376 249.771 111.077Z" fill="#FFBC96"/>
<path d="M249.771 111.077L249.307 112.106L240.522 107.514L241.14 104.136C241.14 104.136 249.894 106.193 250.282 106.193C250.424 106.187 250.156 108.376 249.771 111.077Z" fill="#D28572"/>
<path d="M247.573 107.985C247.573 107.985 249.246 117.757 246.028 127.273C246.028 127.273 261.992 132.157 277.054 125.985L273.577 104.001L274.737 92.8159L251.693 93.071L243.838 95.6424L247.573 107.985Z" fill="#263238"/>
<path d="M281.248 91.5631C280.746 90.1318 279.913 88.8391 278.816 87.7903C277.719 86.7415 276.39 85.9662 274.936 85.5275L270.61 84.2233C268.868 86.7577 265.757 89.9832 261.217 89.9832C255.882 89.9832 252.535 86.9243 250.689 84.429L247.7 85.1572C246.127 85.5404 244.691 86.3527 243.553 87.5035C242.415 88.6543 241.619 90.0982 241.255 91.6742L237.916 106.144L247.573 107.996L247.828 96.9405L272.934 95.772L273.577 104.001C273.577 104.001 280.83 100.828 285.637 104.087L281.248 91.5631Z" fill="#263238"/>
<path d="M292.245 90.6292C290.855 93.3446 288.985 105.118 288.126 114.286C287.843 117.3 286.982 119.676 285.792 121.408C284.041 123.969 281.561 125.131 279.149 124.874C278.194 124.774 277.274 124.465 276.452 123.969C272.306 121.517 272.835 111.036 273.301 106.319C273.445 104.9 273.577 104.001 273.577 104.001C276.024 102.653 279.886 102.458 279.886 102.458C279.938 101.927 279.999 101.392 280.061 100.843C280.586 96.1114 281.384 90.732 282.076 87.1588C282.846 83.1721 284.391 84.6532 284.391 84.6532C285.166 83.2338 286.323 84.4475 286.323 84.4475C287.353 82.1846 288.641 84.3179 288.641 84.3179C290.247 82.0057 291.129 85.476 291.129 85.476C291.129 85.476 296.118 81.3618 296.967 82.559C297.395 83.1721 294.219 86.772 292.245 90.6292Z" fill="#FFBC96"/>
<path d="M252.722 118.505H231.094V121.099H252.722V118.505Z" fill="white"/>
<path d="M240.355 121.124H218.047C217.521 121.124 217.006 120.974 216.564 120.69C216.121 120.407 215.769 120.003 215.55 119.526L206.862 100.689C206.795 100.545 206.766 100.386 206.777 100.228C206.788 100.07 206.839 99.9177 206.924 99.7843C207.01 99.6509 207.128 99.5412 207.267 99.4652C207.406 99.3892 207.562 99.3493 207.721 99.3494H228.647C229.144 99.3496 229.632 99.4921 230.051 99.7601C230.47 100.028 230.803 100.41 231.012 100.861L240.355 121.124Z" fill="#00ABA8"/>
<path d="M247.701 121.101C247.451 122.072 247.07 123.005 246.568 123.872C245.373 125.888 243.457 127.273 240.508 127.641C239.377 127.777 238.234 127.783 237.103 127.658C226.879 126.643 223.919 121.058 223.919 121.058C223.919 121.058 222.78 118.688 225.194 119.234C225.194 119.234 225.65 117.728 227.512 119.299C227.512 119.299 227.291 117.434 229.125 119.141C229.125 119.141 228.867 117.242 230.859 118.884C232.851 120.525 234.404 121.003 236.818 121.101C239.233 121.2 247.701 121.101 247.701 121.101Z" fill="#FFBC96"/>
<path d="M247.193 96.9001L246.679 96.9299L247.323 107.987L247.837 107.957L247.193 96.9001Z" fill="#00ABA8"/>
<path d="M260.107 93.972C259.033 93.9741 257.961 93.8568 256.912 93.6222C253.841 92.931 252.074 91.489 252 91.4273L252.327 91.0303C252.397 91.0879 259.355 96.6647 269.368 90.6661L269.632 91.1064C265.961 93.3075 262.705 93.972 260.107 93.972Z" fill="#00ABA8"/>
<path d="M273.446 98.9316L272.932 98.9707L273.318 104.029L273.832 103.99L273.446 98.9316Z" fill="#00ABA8"/>
<path d="M265.553 106.531C264.755 106.533 263.985 106.24 263.39 105.708C262.796 105.176 262.419 104.443 262.334 103.651L261.922 99.987L269.004 99.52L268.798 103.461C268.752 104.279 268.398 105.05 267.807 105.618C267.216 106.186 266.431 106.51 265.611 106.525L265.553 106.531ZM262.492 100.468L262.845 103.597C262.923 104.274 263.254 104.897 263.77 105.343C264.286 105.789 264.951 106.026 265.633 106.006C266.316 105.986 266.966 105.711 267.455 105.236C267.944 104.761 268.238 104.119 268.277 103.439L268.456 100.075L262.492 100.468Z" fill="#00ABA8"/>
<path d="M279.602 102.451L277.751 115.372L278.261 115.445L280.111 102.524L279.602 102.451Z" fill="#D28572"/>
<path d="M287.77 83.2761L287.391 83.3457L287.779 85.4585L288.159 85.3889L287.77 83.2761Z" fill="#D28572"/>
<path d="M285.463 83.3437L285.084 83.4133L285.473 85.5261L285.852 85.4565L285.463 83.3437Z" fill="#D28572"/>
<path d="M283.538 83.4745L283.158 83.5441L283.547 85.6568L283.926 85.5872L283.538 83.4745Z" fill="#D28572"/>
<path d="M290.776 84.0433L290.413 84.1786L291.615 87.3932L291.977 87.258L290.776 84.0433Z" fill="#D28572"/>
<path d="M279.88 102.456L273.268 106.302C273.412 104.883 273.546 103.982 273.546 103.982C275.991 102.635 279.88 102.456 279.88 102.456Z" fill="#D28572"/>
<path opacity="0.4" d="M285.792 121.408C284.041 123.969 281.561 125.131 279.149 124.874C279.125 124.703 279.113 124.529 279.114 124.356C279.113 123.583 279.338 122.827 279.76 122.179C280.182 121.532 280.783 121.02 281.491 120.708C282.198 120.396 282.982 120.296 283.745 120.42C284.509 120.544 285.22 120.887 285.792 121.408V121.408Z" fill="#FE5B52"/>
<path opacity="0.4" d="M246.567 123.872C245.373 125.888 243.457 127.273 240.507 127.641C240.496 127.519 240.49 127.396 240.491 127.273C240.491 126.564 240.68 125.869 241.038 125.257C241.397 124.646 241.912 124.141 242.531 123.795C243.15 123.448 243.851 123.273 244.56 123.287C245.269 123.3 245.962 123.502 246.567 123.872V123.872Z" fill="#FE5B52"/>
<path d="M231.677 121.826C230.659 121.62 229.386 120.054 228.96 119.23L229.302 119.053C229.743 119.9 230.95 121.289 231.753 121.447L231.677 121.826Z" fill="#D28572"/>
<path d="M229.265 122.093C228.402 121.206 227.617 120.102 227.285 119.345L227.642 119.195C227.944 119.913 228.709 120.968 229.543 121.824L229.265 122.093Z" fill="#D28572"/>
<path d="M226.877 122.027C226.014 121.143 225.219 120.038 224.898 119.281L225.254 119.131C225.557 119.847 226.321 120.904 227.154 121.76L226.877 122.027Z" fill="#D28572"/>
<path d="M270.612 84.2211C268.866 86.7555 265.755 89.9811 261.217 89.9811C255.884 89.9811 252.537 86.9221 250.691 84.4268L256.197 83.0835C256.331 82.0961 256.445 81.1354 256.537 80.2241C256.609 79.5103 256.671 78.8273 256.729 78.1773C256.822 77.1137 256.883 76.151 256.935 75.3302C257.001 74.2029 257.032 73.3492 257.048 72.876C257.048 72.6024 257.048 72.4646 257.048 72.4646L264.773 69.3789C264.773 69.3789 264.515 79.4074 266.833 83.0877L270.612 84.2211Z" fill="#FFBC96"/>
<path d="M263.193 76.1778C263.193 76.1778 261.133 78.5908 256.538 80.2159C256.61 79.5021 256.671 78.8191 256.729 78.1691C256.822 77.1056 256.884 76.1428 256.935 75.322L263.193 76.1778Z" fill="#D28572"/>
<path d="M254.997 63.115C254.997 63.115 251.048 73.8285 253.88 75.8013C256.399 77.554 259.716 77.7721 262.979 76.9142L265.123 69.6299L263.836 62.5143L254.997 63.115Z" fill="#FFBC96"/>
<path d="M264.009 69.7143C264.009 69.7143 261.219 70.782 260.06 66.8858C259.116 63.7157 254.997 63.115 254.997 63.115L256.661 61.5722L264.6 61.3665L267.519 64.9232L266.532 69.5518L264.009 69.7143Z" fill="#263238"/>
<path d="M267.612 71.943C268.512 70.3855 268.244 68.5472 267.012 67.8371C265.781 67.1271 264.052 67.8141 263.152 69.3716C262.251 70.9291 262.52 72.7674 263.751 73.4775C264.983 74.1876 266.711 73.5006 267.612 71.943Z" fill="#FFBC96"/>
<path d="M264.47 72.0635H264.083C264.083 72.0388 264.134 69.6402 266.518 69.3666L266.561 69.7492C264.52 69.9693 264.47 71.9668 264.47 72.0635Z" fill="#263238"/>
<path d="M254.469 68.7515C254.713 68.7515 254.91 68.5545 254.91 68.3113C254.91 68.0682 254.713 67.8711 254.469 67.8711C254.226 67.8711 254.028 68.0682 254.028 68.3113C254.028 68.5545 254.226 68.7515 254.469 68.7515Z" fill="#263238"/>
<path d="M257.911 68.9201C257.912 69.0257 257.881 69.129 257.822 69.2169C257.764 69.3049 257.68 69.3735 257.583 69.414C257.485 69.4546 257.378 69.4654 257.274 69.4449C257.17 69.4244 257.075 69.3736 257 69.2989C256.926 69.2243 256.875 69.1292 256.854 69.0256C256.834 68.9221 256.845 68.8148 256.885 68.7174C256.926 68.6199 256.995 68.5367 257.083 68.4783C257.171 68.42 257.274 68.389 257.38 68.3894C257.521 68.39 257.655 68.446 257.755 68.5455C257.855 68.6449 257.911 68.7795 257.911 68.9201Z" fill="#263238"/>
<path d="M255.425 67.3094H254.111C254.022 67.3094 253.937 67.2744 253.874 67.212C253.812 67.1495 253.776 67.0648 253.775 66.9762V66.9762C253.775 66.9321 253.784 66.8885 253.801 66.8479C253.818 66.8072 253.843 66.7702 253.874 66.7391C253.905 66.7079 253.942 66.6832 253.983 66.6664C254.023 66.6495 254.067 66.6409 254.111 66.6409H255.425C255.469 66.6409 255.513 66.6495 255.554 66.6664C255.595 66.6832 255.632 66.7079 255.663 66.7391C255.694 66.7702 255.719 66.8072 255.736 66.8479C255.752 66.8885 255.761 66.9321 255.761 66.9762V66.9762C255.761 67.0648 255.725 67.1495 255.662 67.212C255.599 67.2744 255.514 67.3094 255.425 67.3094V67.3094Z" fill="#263238"/>
<path d="M258.734 68.231L257.292 67.6139C257.21 67.5794 257.145 67.5139 257.111 67.4318C257.078 67.3496 257.078 67.2576 257.112 67.1757C257.147 67.094 257.213 67.0293 257.295 66.9957C257.377 66.9622 257.469 66.9625 257.551 66.9967L259.005 67.6139C259.087 67.6484 259.152 67.7139 259.186 67.796C259.219 67.8781 259.219 67.9702 259.185 68.0521V68.0521C259.167 68.0939 259.142 68.1318 259.11 68.1635C259.077 68.1953 259.039 68.2203 258.997 68.237C258.955 68.2537 258.91 68.2618 258.865 68.2607C258.819 68.2597 258.775 68.2496 258.734 68.231V68.231Z" fill="#263238"/>
<path d="M254.267 71.6521C254.229 71.6525 254.191 71.6413 254.159 71.62C254.127 71.5987 254.103 71.5683 254.088 71.5328C253.831 70.9157 253.822 70.4281 254.067 70.1052C254.313 69.7822 254.776 69.7205 255.005 69.7205L255.495 68.768C255.507 68.7456 255.523 68.7257 255.542 68.7094C255.561 68.6931 255.584 68.6808 255.608 68.6732C255.632 68.6656 255.657 68.6627 255.682 68.6649C255.708 68.667 255.732 68.6741 255.755 68.6857C255.777 68.6974 255.797 68.7133 255.813 68.7326C255.83 68.7519 255.842 68.7742 255.849 68.7983C255.857 68.8224 255.86 68.8477 255.858 68.8729C255.856 68.898 255.849 68.9225 255.837 68.9449L255.231 70.1237L255.097 70.1093C255.097 70.1093 254.587 70.0578 254.374 70.3397C254.222 70.5454 254.247 70.9033 254.444 71.3868C254.454 71.4101 254.459 71.4352 254.459 71.4604C254.459 71.4857 254.454 71.5108 254.444 71.5341C254.435 71.5575 254.42 71.5786 254.402 71.5964C254.384 71.6142 254.363 71.6282 254.339 71.6377C254.317 71.6472 254.292 71.6521 254.267 71.6521V71.6521Z" fill="#263238"/>
<path d="M254.358 73.3245C255.106 74.3777 256.051 73.9272 256.698 73.3882C255.918 73.4333 255.135 73.412 254.358 73.3245Z" fill="#263238"/>
<path d="M256.698 73.3883C256.963 73.1638 257.204 72.9129 257.417 72.6395C257.417 72.6271 257.417 72.6148 257.398 72.6148C256.262 72.6933 255.121 72.6775 253.987 72.5675C253.984 72.5671 253.981 72.5678 253.978 72.5693C253.975 72.5708 253.973 72.5732 253.971 72.576C253.97 72.5789 253.969 72.5821 253.969 72.5854C253.97 72.5886 253.971 72.5917 253.973 72.5942C254.072 72.8519 254.201 73.097 254.358 73.3245C255.135 73.412 255.918 73.4333 256.698 73.3883V73.3883Z" fill="white"/>
<path opacity="0.4" d="M261.234 71.2839C261.234 71.5501 261.156 71.8105 261.008 72.0321C260.86 72.2536 260.649 72.4264 260.403 72.5285C260.157 72.6306 259.886 72.6574 259.624 72.6055C259.363 72.5537 259.123 72.4255 258.934 72.2372C258.746 72.049 258.617 71.809 258.565 71.5479C258.513 71.2867 258.54 71.016 258.642 70.7701C258.745 70.5242 258.918 70.3141 259.14 70.1664C259.361 70.0188 259.622 69.9401 259.889 69.9406C260.246 69.9406 260.588 70.0821 260.84 70.334C261.092 70.5859 261.234 70.9276 261.234 71.2839V71.2839Z" fill="#FE5B52"/>
<path d="M344 247.486H0V248H344V247.486Z" fill="#263238"/>
</g>
<defs>
<clipPath id="clip0_165_1636">
<rect width="344" height="248" fill="white"/>
</clipPath>
</defs>
</svg>
