<svg width="320" height="248" viewBox="0 0 320 248" fill="none" xmlns="http://www.w3.org/2000/svg">
<g opacity="0.11">
<path d="M320.005 242.209C320.005 245.397 248.367 248.016 160 248.016C71.6335 248.016 0 245.397 0 242.209C0 239.022 71.6388 236.365 159.979 236.365C248.319 236.365 320.005 238.985 320.005 242.209Z" fill="#1B2F35"/>
</g>
<path d="M291.113 6.68323H91.3254V157.915H291.113V6.68323Z" fill="#E6E6E6"/>
<g style="mix-blend-mode:multiply" opacity="0.22">
<path d="M291.113 6.68323H91.3254V10.2692H291.113V6.68323Z" fill="#1F363D"/>
</g>
<path d="M119.745 160.694H112.521V241.29H119.745V160.694Z" fill="#7C9298"/>
<path d="M266.858 160.694H259.628V241.29H266.858V160.694Z" fill="#7C9298"/>
<path d="M107.623 242.475C107.624 241.144 108.154 239.869 109.095 238.928C110.036 237.988 111.312 237.46 112.643 237.46H119.772C120.43 237.46 121.082 237.59 121.691 237.842C122.299 238.094 122.852 238.463 123.317 238.929C123.783 239.395 124.152 239.947 124.404 240.556C124.656 241.164 124.786 241.816 124.786 242.475H107.623Z" fill="#7C9298"/>
<path d="M254.677 242.475C254.679 241.144 255.208 239.869 256.149 238.928C257.091 237.988 258.367 237.46 259.697 237.46H266.821C267.479 237.46 268.131 237.59 268.74 237.842C269.348 238.094 269.901 238.463 270.367 238.929C270.832 239.395 271.202 239.947 271.454 240.556C271.706 241.164 271.835 241.816 271.835 242.475H254.677Z" fill="#7C9298"/>
<path d="M296.17 4.49972C296.17 5.69312 295.696 6.83764 294.852 7.6815C294.008 8.52536 292.864 8.99944 291.671 8.99944H90.7623C89.569 8.99944 88.4246 8.52536 87.5808 7.6815C86.737 6.83764 86.2629 5.69312 86.2629 4.49972C86.2629 3.30632 86.737 2.1618 87.5808 1.31794C88.4246 0.474076 89.569 0 90.7623 0H291.671C292.864 0 294.008 0.474076 294.852 1.31794C295.696 2.1618 296.17 3.30632 296.17 4.49972Z" fill="#8CA4AA"/>
<path d="M296.17 4.49976C296.17 5.69316 295.696 6.83768 294.852 7.68154C294.008 8.5254 292.864 8.99947 291.671 8.99947H90.7623C89.57 8.99807 88.4269 8.52337 87.5843 7.67966C86.7416 6.83595 86.2683 5.69224 86.2683 4.49976H296.17Z" fill="#7C9298"/>
<path d="M296.17 158.771C296.17 159.964 295.696 161.108 294.852 161.952C294.008 162.796 292.864 163.27 291.671 163.27H90.7622C89.5964 163.23 88.4917 162.739 87.6811 161.9C86.8705 161.061 86.4175 159.94 86.4175 158.773C86.4175 157.607 86.8705 156.486 87.6811 155.647C88.4917 154.808 89.5964 154.316 90.7622 154.276H291.671C292.863 154.276 294.007 154.749 294.85 155.592C295.694 156.435 296.169 157.578 296.17 158.771Z" fill="#8CA4AA"/>
<path d="M296.17 158.771C296.17 159.964 295.696 161.109 294.852 161.952C294.008 162.796 292.864 163.27 291.671 163.27H90.7623C89.57 163.269 88.4269 162.794 87.5843 161.951C86.7416 161.107 86.2683 159.963 86.2683 158.771H296.17Z" fill="#7C9298"/>
<g style="mix-blend-mode:multiply" opacity="0.22">
<path d="M283.787 150.334H103.028L99.8406 17.2179H280.6L283.787 150.334Z" fill="#1F363D"/>
</g>
<path d="M280.6 17.2179H99.8406V147.152H280.6V17.2179Z" fill="white"/>
<path d="M136.855 48.3335C140.462 48.3335 142.699 49.9751 142.699 52.6845C142.732 53.5891 142.443 54.4762 141.883 55.1869C141.322 55.8975 140.526 56.3852 139.639 56.5626C140.701 56.6879 141.675 57.2118 142.366 58.0284C143.056 58.8451 143.41 59.8934 143.357 60.9614C143.357 63.9471 140.946 65.7427 137.02 65.7427H129.296V48.3335H136.855ZM132.234 55.5426H136.707C138.571 55.5426 139.687 54.6714 139.687 53.2051C139.687 51.7388 138.571 50.942 136.707 50.942H132.234V55.5426ZM132.234 63.1236H136.707C138.991 63.1236 140.361 62.2311 140.361 60.5895C140.361 59.0489 138.991 58.1298 136.707 58.1298H132.234V63.1236Z" fill="#334F57"/>
<path d="M161.641 58.5283C161.641 63.0758 158.778 65.8596 154.082 65.8596C149.386 65.8596 146.502 63.0758 146.502 58.5283V48.3335H149.434V58.5283C149.434 61.4608 151.246 63.2245 154.109 63.2245C156.972 63.2245 158.704 61.4873 158.704 58.5283V48.3335H161.641V58.5283Z" fill="#334F57"/>
<path d="M177.647 49.9963L176.446 52.5835C174.913 51.6185 173.156 51.0693 171.347 50.9897C169.631 50.9897 168.515 51.6378 168.515 52.8066C168.515 56.6104 177.912 54.5704 177.886 60.8338C177.886 63.9417 175.15 65.8542 171.325 65.8542C168.696 65.8399 166.164 64.8585 164.212 63.097L165.482 60.5629C167.077 62.0892 169.168 62.989 171.373 63.097C173.413 63.097 174.629 62.3267 174.629 60.972C174.629 57.0938 165.232 59.256 165.232 53.0669C165.232 50.0813 167.793 48.2166 171.57 48.2166C173.723 48.221 175.831 48.8383 177.647 49.9963V49.9963Z" fill="#334F57"/>
<path d="M181.302 65.7374V48.3335H184.234V65.7374H181.302Z" fill="#334F57"/>
<path d="M201.015 65.7374L191.74 53.2529V65.7374H188.807V48.3335H191.692L201.015 60.8392V48.3335H203.894V65.7374H201.015Z" fill="#334F57"/>
<path d="M211.426 50.9579V55.6542H219.925V58.3104H211.426V63.0917H221.222V65.748H208.473V48.3335H220.903V50.9898L211.426 50.9579Z" fill="#334F57"/>
<path d="M236.611 49.9963L235.389 52.5835C233.859 51.6181 232.103 51.0687 230.295 50.9897C228.579 50.9897 227.458 51.6378 227.458 52.8066C227.458 56.6104 236.855 54.5704 236.834 60.8338C236.834 63.9417 234.098 65.8542 230.268 65.8542C227.641 65.8401 225.11 64.8586 223.161 63.097L224.43 60.5629C226.024 62.0901 228.116 62.99 230.321 63.097C232.356 63.097 233.578 62.3267 233.578 60.972C233.578 57.0938 224.181 59.256 224.181 53.0669C224.181 50.0813 226.741 48.2166 230.518 48.2166C232.677 48.2189 234.79 48.8362 236.611 49.9963V49.9963Z" fill="#334F57"/>
<path d="M252.069 49.9963L250.853 52.5835C249.322 51.6185 247.566 51.0692 245.758 50.9897C244.043 50.9897 242.922 51.6378 242.922 52.8066C242.922 56.6104 252.319 54.5704 252.292 60.8338C252.292 63.9417 249.562 65.8542 245.732 65.8542C243.093 65.8393 240.552 64.8498 238.598 63.0757L239.867 60.5417C241.462 62.068 243.554 62.9678 245.758 63.0757C247.798 63.0757 249.015 62.3054 249.015 60.9507C249.015 57.0726 239.618 59.2348 239.618 53.0457C239.618 50.06 242.178 48.1953 245.96 48.1953C248.127 48.1992 250.247 48.8242 252.069 49.9963Z" fill="#334F57"/>
<path d="M137.015 80.7984V95.5832H134.082V80.8144H128.59V78.1581H142.534V80.8144L137.015 80.7984Z" fill="#334F57"/>
<path d="M152.898 90.2973C152.634 90.3198 152.37 90.3287 152.106 90.3239H147.979V95.5833H145.046V78.1635H152.106C156.552 78.1635 159.118 80.3256 159.118 84.1082C159.118 86.8919 157.822 88.8576 155.511 89.7501L159.416 95.5939H156.085L152.898 90.2973ZM152.106 87.6888C154.789 87.6888 156.329 86.5413 156.329 84.1826C156.329 81.8238 154.789 80.7985 152.106 80.7985H147.979V87.7048L152.106 87.6888Z" fill="#334F57"/>
<path d="M165.477 91.6413L163.814 95.5832H160.754L168.436 78.1793H171.442L179.049 95.5832H175.915L174.247 91.6572L165.477 91.6413ZM169.854 81.2978L166.571 89.0275H173.137L169.854 81.2978Z" fill="#334F57"/>
<path d="M181.36 95.5833V78.1635H184.297V95.5833H181.36Z" fill="#334F57"/>
<path d="M201.073 95.5833L191.803 83.1041V95.5833H188.871V78.1635H191.75L201.073 90.6692V78.1635H203.957V95.5833H201.073Z" fill="#334F57"/>
<path d="M208.558 95.5833V78.1635H211.506V95.5833H208.558Z" fill="#334F57"/>
<path d="M228.271 95.5833L218.996 83.0882V95.5833H216.064V78.1635H218.943L228.266 90.6692V78.1635H231.161V95.5833H228.271Z" fill="#334F57"/>
<path d="M250.22 87.0141V93.4582C248.252 94.8896 245.891 95.6798 243.458 95.7214C238.311 95.7214 234.305 91.8645 234.305 86.8919C234.305 81.9194 238.359 78.1156 243.628 78.1156C246.074 78.1201 248.441 78.983 250.316 80.5541L248.653 82.7163C247.28 81.4582 245.491 80.7508 243.628 80.7294C241.99 80.7294 240.418 81.3803 239.26 82.539C238.101 83.6977 237.45 85.2692 237.45 86.9079C237.45 88.5465 238.101 90.118 239.26 91.2767C240.418 92.4354 241.99 93.0863 243.628 93.0863C245.045 93.0437 246.425 92.6316 247.633 91.891V87.0407L250.22 87.0141Z" fill="#334F57"/>
<path d="M141.386 116.159V108.615H142.247V116.159H141.386Z" fill="#67868F"/>
<path d="M153.806 112.658V116.159H152.967V112.881C152.987 112.666 152.96 112.45 152.888 112.247C152.815 112.045 152.698 111.861 152.546 111.708C152.393 111.556 152.209 111.439 152.007 111.366C151.804 111.294 151.588 111.267 151.373 111.287C150.199 111.319 149.519 112.164 149.519 113.38V116.169H148.669V112.892C148.691 112.677 148.665 112.46 148.592 112.257C148.52 112.054 148.403 111.869 148.25 111.717C148.098 111.564 147.913 111.448 147.71 111.375C147.507 111.303 147.29 111.276 147.076 111.298C145.912 111.33 145.211 112.174 145.211 113.391V116.18H144.383V110.458H145.211V111.744C145.39 111.326 145.695 110.973 146.083 110.737C146.472 110.501 146.925 110.392 147.379 110.427C147.839 110.391 148.297 110.522 148.67 110.795C149.043 111.067 149.307 111.464 149.413 111.914C149.568 111.452 149.872 111.055 150.278 110.785C150.685 110.516 151.169 110.389 151.655 110.427C153.02 110.458 153.806 111.287 153.806 112.658Z" fill="#67868F"/>
<path d="M161.477 113.338C161.477 115.016 160.382 116.191 158.773 116.191C158.325 116.212 157.88 116.106 157.49 115.885C157.1 115.664 156.78 115.337 156.568 114.942V118.246H155.729V110.458H156.568V111.685C156.775 111.29 157.091 110.962 157.477 110.739C157.864 110.516 158.306 110.408 158.752 110.426C160.361 110.458 161.477 111.632 161.477 113.338ZM160.627 113.338C160.608 112.941 160.473 112.558 160.239 112.237C160.005 111.916 159.681 111.671 159.309 111.532C158.937 111.393 158.532 111.366 158.144 111.456C157.757 111.545 157.405 111.746 157.13 112.034C156.856 112.321 156.673 112.683 156.603 113.075C156.532 113.466 156.578 113.869 156.735 114.234C156.892 114.599 157.153 114.91 157.485 115.129C157.817 115.347 158.205 115.463 158.603 115.463C158.88 115.467 159.156 115.414 159.411 115.306C159.667 115.198 159.898 115.038 160.088 114.836C160.278 114.634 160.425 114.395 160.517 114.133C160.61 113.871 160.647 113.593 160.627 113.316V113.338Z" fill="#67868F"/>
<path d="M163.798 111.739C163.968 111.346 164.252 111.015 164.613 110.786C164.974 110.558 165.395 110.444 165.822 110.458V111.308C165.566 111.287 165.308 111.319 165.064 111.402C164.82 111.484 164.596 111.616 164.405 111.789C164.214 111.962 164.061 112.172 163.955 112.406C163.849 112.641 163.792 112.894 163.788 113.152V116.169H162.948V110.458H163.788L163.798 111.739Z" fill="#67868F"/>
<path d="M172.149 113.317C172.153 113.887 171.988 114.446 171.674 114.922C171.36 115.398 170.912 115.771 170.386 115.992C169.861 116.213 169.281 116.273 168.721 116.164C168.161 116.056 167.646 115.783 167.241 115.381C166.837 114.98 166.56 114.467 166.448 113.907C166.335 113.348 166.39 112.768 166.608 112.241C166.825 111.713 167.194 111.263 167.668 110.945C168.142 110.628 168.699 110.458 169.27 110.458C169.651 110.44 170.031 110.502 170.387 110.639C170.743 110.776 171.067 110.985 171.338 111.254C171.609 111.523 171.821 111.845 171.96 112.2C172.1 112.555 172.164 112.935 172.149 113.317V113.317ZM167.235 113.317C167.253 113.715 167.387 114.099 167.621 114.421C167.855 114.744 168.179 114.99 168.552 115.131C168.925 115.271 169.331 115.299 169.719 115.21C170.108 115.122 170.462 114.921 170.737 114.633C171.013 114.346 171.198 113.983 171.269 113.591C171.341 113.199 171.295 112.795 171.139 112.428C170.983 112.062 170.722 111.749 170.39 111.529C170.058 111.309 169.668 111.192 169.27 111.192C168.992 111.184 168.715 111.235 168.458 111.341C168.201 111.447 167.97 111.606 167.778 111.807C167.586 112.008 167.439 112.248 167.345 112.51C167.252 112.771 167.214 113.05 167.235 113.327V113.317Z" fill="#67868F"/>
<path d="M174.714 116.159L172.462 110.458H173.355L175.166 115.24L176.961 110.458H177.817L175.586 116.137L174.714 116.159Z" fill="#67868F"/>
<path d="M183.517 113.646H178.884C178.929 114.154 179.167 114.626 179.55 114.963C179.933 115.3 180.431 115.477 180.94 115.457C181.266 115.465 181.591 115.406 181.893 115.284C182.196 115.161 182.47 114.978 182.698 114.746L183.161 115.245C182.869 115.556 182.514 115.801 182.12 115.964C181.727 116.127 181.303 116.204 180.876 116.191C180.138 116.159 179.44 115.843 178.928 115.309C178.417 114.775 178.131 114.064 178.131 113.324C178.131 112.585 178.417 111.874 178.928 111.34C179.44 110.806 180.138 110.49 180.876 110.458C182.698 110.458 183.602 111.717 183.517 113.646ZM182.762 112.961C182.764 112.716 182.716 112.474 182.62 112.249C182.524 112.025 182.382 111.823 182.204 111.655C182.026 111.488 181.815 111.36 181.585 111.278C181.354 111.196 181.11 111.163 180.866 111.181C180.369 111.162 179.884 111.337 179.514 111.669C179.145 112.001 178.919 112.465 178.884 112.961H182.762Z" fill="#67868F"/>
<path d="M190.704 116.159H189.854V113.603L186.932 108.615H187.825L190.273 112.551L192.685 108.615H193.567L190.704 113.571V116.159Z" fill="#67868F"/>
<path d="M199.288 113.317C199.292 113.887 199.127 114.446 198.813 114.923C198.499 115.399 198.05 115.771 197.524 115.992C196.998 116.213 196.419 116.273 195.859 116.164C195.299 116.055 194.784 115.782 194.379 115.379C193.974 114.977 193.698 114.464 193.586 113.904C193.474 113.345 193.531 112.764 193.749 112.237C193.967 111.71 194.337 111.259 194.811 110.943C195.286 110.626 195.844 110.457 196.414 110.458C196.795 110.441 197.175 110.503 197.53 110.641C197.886 110.778 198.209 110.987 198.479 111.256C198.749 111.525 198.961 111.847 199.1 112.201C199.239 112.556 199.303 112.936 199.288 113.317V113.317ZM194.38 113.317C194.398 113.715 194.532 114.099 194.766 114.421C195 114.744 195.323 114.99 195.696 115.131C196.069 115.271 196.475 115.299 196.864 115.21C197.252 115.122 197.606 114.921 197.882 114.633C198.158 114.346 198.342 113.983 198.414 113.591C198.485 113.199 198.44 112.795 198.284 112.428C198.128 112.062 197.867 111.749 197.535 111.529C197.202 111.309 196.813 111.192 196.414 111.192C196.137 111.186 195.862 111.238 195.606 111.344C195.351 111.451 195.12 111.61 194.93 111.811C194.739 112.012 194.593 112.251 194.5 112.512C194.407 112.773 194.37 113.051 194.391 113.327L194.38 113.317Z" fill="#67868F"/>
<path d="M205.7 116.159H204.861V114.878C204.683 115.295 204.38 115.646 203.993 115.881C203.606 116.116 203.155 116.225 202.704 116.191C201.381 116.191 200.579 115.351 200.579 113.981V110.458H201.413V113.736C201.392 113.951 201.418 114.168 201.49 114.371C201.563 114.574 201.68 114.758 201.832 114.911C201.985 115.063 202.169 115.18 202.372 115.253C202.575 115.325 202.792 115.352 203.007 115.33C204.181 115.33 204.871 114.459 204.871 113.247V110.458H205.711L205.7 116.159Z" fill="#67868F"/>
<path d="M208.59 111.739C208.758 111.343 209.043 111.007 209.406 110.777C209.769 110.546 210.194 110.432 210.624 110.448V111.298C210.368 111.277 210.11 111.308 209.866 111.391C209.622 111.474 209.398 111.605 209.207 111.778C209.016 111.951 208.863 112.161 208.757 112.396C208.651 112.63 208.594 112.884 208.59 113.141V116.159H207.75V110.458H208.59V111.739Z" fill="#67868F"/>
<path d="M219.474 109.284L219.113 110.092C218.493 109.688 217.771 109.469 217.031 109.46C216.064 109.46 215.437 109.826 215.437 110.458C215.437 112.397 219.687 111.388 219.687 114.124C219.687 115.383 218.576 116.191 216.962 116.191C215.888 116.18 214.858 115.769 214.072 115.038L214.46 114.262C215.134 114.919 216.031 115.298 216.972 115.325C218.061 115.325 218.741 114.884 218.741 114.161C218.741 112.18 214.491 113.231 214.491 110.527C214.491 109.343 215.554 108.578 217.094 108.578C217.939 108.582 218.764 108.827 219.474 109.284V109.284Z" fill="#67868F"/>
<path d="M222.189 114.533V116.159H221.349V108.163H222.189V113.391L225.105 110.458H226.098L223.974 112.658L226.327 116.137H225.317L223.379 113.274L222.189 114.533Z" fill="#67868F"/>
<path d="M228.425 108.865C228.415 108.967 228.375 109.064 228.311 109.144C228.247 109.224 228.16 109.284 228.063 109.316C227.965 109.348 227.861 109.351 227.761 109.325C227.662 109.299 227.572 109.245 227.503 109.169C227.434 109.093 227.389 108.998 227.372 108.897C227.356 108.796 227.369 108.692 227.41 108.598C227.451 108.504 227.519 108.424 227.605 108.367C227.691 108.311 227.791 108.281 227.894 108.28C227.968 108.28 228.042 108.295 228.11 108.325C228.178 108.355 228.239 108.399 228.29 108.454C228.34 108.509 228.378 108.574 228.401 108.645C228.424 108.716 228.432 108.79 228.425 108.865ZM227.469 116.169V110.458H228.297V116.137L227.469 116.169Z" fill="#67868F"/>
<path d="M230.401 116.159V108.163H231.24V116.159H230.401Z" fill="#67868F"/>
<path d="M233.397 116.159V108.163H234.236V116.159H233.397Z" fill="#67868F"/>
<path d="M239.66 110.99L239.336 111.659C238.874 111.367 238.342 111.207 237.796 111.197C237.158 111.197 236.675 111.425 236.675 111.951C236.675 113.21 239.862 112.562 239.862 114.607C239.862 115.728 238.874 116.201 237.785 116.201C236.985 116.215 236.209 115.931 235.607 115.404L235.931 114.767C236.451 115.228 237.121 115.485 237.817 115.489C238.486 115.489 239.023 115.24 239.033 114.682C239.065 113.311 235.888 114.012 235.899 111.999C235.899 110.91 236.834 110.458 237.87 110.458C238.505 110.46 239.127 110.645 239.66 110.99V110.99Z" fill="#67868F"/>
<path d="M81.7688 241.981V242.831H73.7476V239.691C73.7476 237.901 94.4647 239.266 97.9122 241.173V242.831H89.6944C87.0291 242.845 84.3705 242.56 81.7688 241.981V241.981Z" fill="#1D282E"/>
<path d="M81.7688 240.323C79.2456 239.654 75.5112 239.691 73.7476 239.691C73.6413 237.29 73.5457 234.113 73.4182 232.206C73.6041 229.65 79.7927 229.188 81.8272 232.291C85.4607 235.925 94.9428 236.605 96.9242 238.666C97.5643 239.335 97.9187 240.226 97.9122 241.152H89.6944C87.0303 241.165 84.3727 240.887 81.7688 240.323V240.323Z" fill="#2B434A"/>
<path d="M38.4223 241.981V242.831H45.3281V239.691C45.3281 237.901 29.1581 239.266 25.6733 241.173V242.831H30.9111C33.4399 242.852 35.962 242.566 38.4223 241.981V241.981Z" fill="#1D282E"/>
<path d="M38.4224 240.323C40.9457 239.654 43.5804 239.691 45.3281 239.691C45.4344 237.29 45.53 234.113 45.6575 232.206C45.4715 229.65 39.283 229.188 37.2484 232.291C33.615 235.925 28.6747 236.605 26.688 238.666C26.0508 239.336 25.6968 240.227 25.7 241.152H30.9377C33.4564 241.169 35.9685 240.891 38.4224 240.323V240.323Z" fill="#2B434A"/>
<path d="M98.5444 90.4035C98.5444 90.4035 103.995 75.3955 105.716 73.8815C107.134 72.6383 113.153 73.6212 115.655 73.3502C117.248 73.1908 118.672 72.2558 120.648 69.4774C121.291 68.5742 121.976 68.1121 122.624 68.3192C124.749 68.9939 122.093 74.2109 120.345 77.0106C119.23 78.8168 110.879 78.9018 109.073 79.6668C108.17 80.0546 103.58 90.8975 103.58 90.8975L98.5444 90.4035Z" fill="#FCC49A"/>
<path d="M63.7505 74.0037C62.5712 73.5999 62.2896 74.349 60.3932 76.0702C55.4477 80.5646 69.9815 106.447 81.6415 115.548C94.5499 125.615 107.671 86.2756 109.971 82.4028L101.472 77.7543C101.408 77.6215 88.6641 104.482 87.0864 103.414C84.4729 101.645 79.1661 91.8166 75.2564 85.484C71.7983 79.9112 68.7385 75.7249 63.7505 74.0037Z" fill="#1F363D"/>
<path d="M104.946 75.0449C104.946 75.0449 106.104 72.0752 110.879 69.3658C113.493 67.8836 114.454 67.8571 114.454 67.8571C114.454 67.8571 116 68.5902 113.849 70.0989C111.028 72.0699 110.661 72.8083 112.212 73.3237C113.764 73.839 113.976 73.7115 113.976 73.7115L104.946 75.0449Z" fill="#FCC49A"/>
<path d="M31.8352 159.498H70.5603C72.3558 133.706 72.3983 101.241 72.5258 97.6233C73.0304 83.8532 67.5431 76.2775 63.7874 73.9559C57.9441 70.3434 49.1048 70.3434 49.1048 70.3434C49.1048 70.3434 40.3346 70.3434 34.486 73.9559C30.7303 76.2775 25.2429 83.8532 25.7423 97.6233C25.8751 101.241 30.0451 133.706 31.8352 159.498Z" fill="#FCC49A"/>
<path d="M55.134 73.5255C55.134 76.1818 53.312 79.4437 48.8445 79.4543C44.3771 79.4649 43.1128 76.0915 43.1128 73.5255V61.2217H55.1553L55.134 73.5255Z" fill="#FCC49A"/>
<path d="M29.9283 42.086C29.0575 42.0514 28.2339 41.6811 27.6301 41.0528C27.0262 40.4244 26.689 39.5867 26.689 38.7152C26.689 37.8436 27.0262 37.0059 27.6301 36.3776C28.2339 35.7492 29.0575 35.3789 29.9283 35.3444H32.5843C33.4551 35.3789 34.2787 35.7492 34.8826 36.3776C35.4864 37.0059 35.8237 37.8436 35.8237 38.7152C35.8237 39.5867 35.4864 40.4244 34.8826 41.0528C34.2787 41.6811 33.4551 42.0514 32.5843 42.086H29.9283Z" fill="#EAAE86"/>
<g style="mix-blend-mode:multiply">
<path d="M29.9284 40.0407C29.5761 40.0407 29.2384 39.9007 28.9893 39.6517C28.7403 39.4026 28.6003 39.0648 28.6003 38.7125C28.6003 38.3603 28.7403 38.0225 28.9893 37.7734C29.2384 37.5243 29.5761 37.3844 29.9284 37.3844H32.5844C32.9366 37.3844 33.2744 37.5243 33.5235 37.7734C33.7725 38.0225 33.9124 38.3603 33.9124 38.7125C33.9124 39.0648 33.7725 39.4026 33.5235 39.6517C33.2744 39.9007 32.9366 40.0407 32.5844 40.0407H29.9284Z" fill="#F2E6DC"/>
</g>
<path d="M65.6308 42.0859C65.1769 42.104 64.7241 42.0301 64.2994 41.8689C63.8748 41.7076 63.4871 41.4622 63.1596 41.1474C62.832 40.8326 62.5715 40.4549 62.3935 40.037C62.2155 39.619 62.1238 39.1694 62.1238 38.7151C62.1238 38.2609 62.2155 37.8113 62.3935 37.3933C62.5715 36.9754 62.832 36.5977 63.1596 36.2829C63.4871 35.9681 63.8748 35.7227 64.2994 35.5614C64.7241 35.4001 65.1769 35.3263 65.6308 35.3443H68.2868C69.1576 35.3789 69.9812 35.7492 70.5851 36.3775C71.1889 37.0059 71.5262 37.8436 71.5262 38.7151C71.5262 39.5867 71.1889 40.4244 70.5851 41.0527C69.9812 41.6811 69.1576 42.0514 68.2868 42.0859H65.6308Z" fill="#EAAE86"/>
<g style="mix-blend-mode:multiply">
<path d="M65.6308 40.0407C65.2785 40.0407 64.9408 39.9007 64.6917 39.6517C64.4427 39.4026 64.3027 39.0648 64.3027 38.7125C64.3027 38.3603 64.4427 38.0225 64.6917 37.7734C64.9408 37.5243 65.2785 37.3844 65.6308 37.3844H68.2868C68.639 37.3844 68.9768 37.5243 69.2258 37.7734C69.4749 38.0225 69.6148 38.3603 69.6148 38.7125C69.6148 39.0648 69.4749 39.4026 69.2258 39.6517C68.9768 39.9007 68.639 40.0407 68.2868 40.0407H65.6308Z" fill="#F2E6DC"/>
</g>
<g style="mix-blend-mode:multiply">
<path d="M43.1128 66.8955C46.9905 68.376 51.2776 68.376 55.1553 66.8955V61.2217H43.1128V66.8955Z" fill="#F2E6DC"/>
</g>
<path d="M49.1103 9.12695C39.5485 9.12695 31.8088 15.2629 31.8088 24.8149V46.9629C31.8088 56.5254 39.5539 65.7533 49.1103 65.7533C58.6667 65.7533 66.4118 56.5201 66.4118 46.9629V24.8149C66.4118 15.2629 58.6667 9.12695 49.1103 9.12695Z" fill="#FCC49A"/>
<path d="M46.5976 43.616C46.5976 43.616 47.1607 43.9879 48.834 43.9879C49.7726 44.0368 50.7131 43.9419 51.6229 43.7063C51.6229 43.7063 51.2032 45.7835 49.2059 45.8313C47.1235 45.826 46.5551 44.3013 46.5976 43.616Z" fill="#E2A479"/>
<path d="M49.6415 51.8929H45.5778C45.4299 51.8929 45.288 51.8341 45.1834 51.7295C45.0788 51.6249 45.02 51.483 45.02 51.3351C45.02 51.1872 45.0788 51.0453 45.1834 50.9407C45.288 50.836 45.4299 50.7773 45.5778 50.7773H49.5831C50.5393 50.7773 52.2763 50.5807 52.8766 49.9804C52.9809 49.8754 53.1225 49.8162 53.2705 49.8157C53.4184 49.8152 53.5605 49.8735 53.6654 49.9777C53.7704 50.082 53.8296 50.2237 53.8301 50.3716C53.8306 50.5196 53.7723 50.6617 53.6681 50.7667C52.6004 51.8345 50.1515 51.8929 49.6415 51.8929Z" fill="#B77351"/>
<path d="M50.417 53.9383H46.9748C46.8268 53.9383 46.685 53.8795 46.5804 53.7749C46.4758 53.6703 46.417 53.5284 46.417 53.3805C46.417 53.2325 46.4758 53.0906 46.5804 52.986C46.685 52.8814 46.8268 52.8226 46.9748 52.8226H50.417C50.5649 52.8226 50.7068 52.8814 50.8114 52.986C50.916 53.0906 50.9748 53.2325 50.9748 53.3805C50.9748 53.5284 50.916 53.6703 50.8114 53.7749C50.7068 53.8795 50.5649 53.9383 50.417 53.9383Z" fill="#B77351"/>
<path d="M61.2907 31.5458H55.6759C55.4857 31.5458 55.3033 31.4703 55.1688 31.3358C55.0343 31.2013 54.9587 31.0189 54.9587 30.8286C54.9587 30.6384 55.0343 30.456 55.1688 30.3215C55.3033 30.187 55.4857 30.1115 55.6759 30.1115H61.2907C61.4809 30.1115 61.6633 30.187 61.7978 30.3215C61.9323 30.456 62.0079 30.6384 62.0079 30.8286C62.0079 31.0189 61.9323 31.2013 61.7978 31.3358C61.6633 31.4703 61.4809 31.5458 61.2907 31.5458Z" fill="#3F2615"/>
<path d="M41.9814 32.3639C41.8999 32.3628 41.8192 32.3484 41.7423 32.3214L36.3187 30.3877C36.1465 30.3186 36.0078 30.1854 35.9317 30.0162C35.8556 29.847 35.8481 29.6549 35.9107 29.4802C35.9732 29.3055 36.1011 29.1619 36.2673 29.0795C36.4335 28.9971 36.6252 28.9823 36.8021 29.0383L42.2204 30.9721C42.3789 31.0292 42.5122 31.1403 42.597 31.2858C42.6817 31.4314 42.7126 31.6021 42.6841 31.7682C42.6555 31.9342 42.5695 32.0849 42.441 32.1938C42.3125 32.3027 42.1498 32.363 41.9814 32.3639V32.3639Z" fill="#3F2615"/>
<path d="M39.5485 16.591C46.4808 16.591 56.0744 20.3948 56.0744 20.3948L54.7995 16.591H61.174C65.7636 16.591 65.8274 20.9367 65.8274 20.9367L66.4011 35.0893C66.4011 35.0893 68.5259 22.6792 68.6959 16.9044C68.8149 12.7555 67.996 8.63327 66.3002 4.84498L61.0996 6.89031L62.4755 4.84498C57.8539 4.84498 49.583 4.8131 43.8832 4.84498L41.2271 6.70968L41.9071 4.84498C38.9004 4.84498 36.3825 4.84498 34.9642 4.84498C34.247 4.84498 30.6401 9.66346 30.6401 17.9563C30.6401 22.2382 31.8035 35.8171 31.8035 35.8171C31.8035 35.8171 32.0585 24.8573 32.6215 21.8079C33.5883 16.4688 39.5485 16.591 39.5485 16.591Z" fill="#603E2B"/>
<g opacity="0.3">
<path d="M42.6719 43.1697C42.6719 43.6445 42.4833 44.0999 42.1476 44.4356C41.8119 44.7714 41.3565 44.96 40.8818 44.96H36.9508C36.476 44.96 36.0207 44.7714 35.685 44.4356C35.3492 44.0999 35.1606 43.6445 35.1606 43.1697C35.1648 42.6976 35.3553 42.2463 35.6906 41.914C36.0258 41.5817 36.4788 41.3952 36.9508 41.3953H40.8818C41.3565 41.3953 41.8119 41.5839 42.1476 41.9196C42.4833 42.2554 42.6719 42.7108 42.6719 43.1856V43.1697Z" fill="#FF8F71"/>
</g>
<g opacity="0.3">
<path d="M63.0599 43.1697C63.0599 43.6445 62.8713 44.0999 62.5355 44.4357C62.1998 44.7714 61.7445 44.96 61.2697 44.96H57.3388C56.864 44.96 56.4086 44.7714 56.0729 44.4357C55.7372 44.0999 55.5486 43.6445 55.5486 43.1697V43.1697C55.5486 42.6949 55.7372 42.2395 56.0729 41.9038C56.4086 41.568 56.864 41.3794 57.3388 41.3794H61.2697C61.7445 41.3794 62.1998 41.568 62.5355 41.9038C62.8713 42.2395 63.0599 42.6949 63.0599 43.1697Z" fill="#FF8F71"/>
</g>
<path d="M59.2882 37.3205C59.346 37.1746 59.3801 37.0204 59.3891 36.8637C59.3539 36.4031 59.1462 35.9727 58.8074 35.6587C58.4685 35.3447 58.0237 35.1703 57.5617 35.1703C57.0998 35.1703 56.6549 35.3447 56.3161 35.6587C55.9773 35.9727 55.7695 36.4031 55.7344 36.8637C55.7441 37.0198 55.7763 37.1736 55.83 37.3205H59.2882Z" fill="#3F2919"/>
<path d="M41.6947 37.3205C41.7525 37.1746 41.7866 37.0204 41.7956 36.8637C41.7604 36.4031 41.5527 35.9727 41.2138 35.6587C40.875 35.3447 40.4301 35.1703 39.9682 35.1703C39.5063 35.1703 39.0614 35.3447 38.7226 35.6587C38.3838 35.9727 38.176 36.4031 38.1409 36.8637C38.1498 37.0204 38.1839 37.1746 38.2418 37.3205H41.6947Z" fill="#3F2919"/>
<path d="M66.6508 77.1168C66.6508 77.1168 57.9868 70.4496 55.692 69.7961V71.4749C55.692 74.9706 55.1183 79.1834 52.3241 79.1834C49.4503 79.1834 42.6508 74.9706 42.6508 71.4749V69.7961C40.3772 70.4496 39.676 71.3102 39.676 71.3102L44.5047 146.839H51.2351L66.008 146.44L66.6508 77.1168Z" fill="#D8EAEF"/>
<g opacity="0.44">
<path d="M45.9071 37.5118C45.5459 38.5743 44.8447 39.3924 42.5817 39.6368C39.8503 39.9297 37.0954 39.9297 34.3639 39.6368C31.4529 39.2756 31.2564 37.7721 31.1767 36.2899C31.0864 34.6218 30.7995 33.4583 33.2218 33.1449C35.6441 32.8315 40.2657 33.0918 42.4702 33.2458C43.6335 33.3255 45.5193 33.708 45.8752 34.5899C46.2155 35.5323 46.2267 36.5622 45.9071 37.5118V37.5118ZM66.8526 36.3059C66.7783 37.7881 66.5764 39.2915 63.6654 39.6528C60.934 39.9457 58.179 39.9457 55.4476 39.6528C53.2059 39.3924 52.4781 38.5531 52.1169 37.5277C51.7983 36.5853 51.7983 35.5642 52.1169 34.6218C52.4728 33.7399 54.3639 33.3574 55.5273 33.2777C57.7265 33.1237 62.3533 32.858 64.7756 33.1768C67.1979 33.4955 66.9376 34.6377 66.8526 36.3059Z" fill="white"/>
</g>
<path d="M68.8127 33.1609C68.1699 33.1609 67.219 33.0228 65.7317 32.8634C62.3732 32.5835 58.9972 32.5835 55.6387 32.8634C52.4514 33.1822 51.6918 34.0322 49.1261 34.0322C46.5603 34.0322 45.8273 33.1822 42.6188 32.8634C39.2603 32.5834 35.8843 32.5834 32.5258 32.8634C31.0438 33.0228 30.0823 33.1609 29.4395 33.1609C28.7967 33.1609 28.9083 33.6922 28.9083 34.0906V34.9778C28.9083 35.4134 29.1526 35.5091 29.5457 35.6897C30.0601 36.035 30.4172 36.5697 30.5391 37.1772C30.7781 37.9688 30.7835 39.9079 35.2669 40.2425C38.2436 40.5127 41.2421 40.42 44.1965 39.9663C47.2509 39.435 46.8525 35.5569 49.1526 35.5569C51.4528 35.5569 51.065 39.4191 54.1141 39.9663C57.0667 40.4199 60.0635 40.5127 63.0384 40.2425C67.5325 39.9079 67.5324 37.9688 67.7768 37.1772C67.835 36.8756 67.9528 36.5886 68.1234 36.3332C68.294 36.0777 68.5139 35.859 68.7702 35.6897C69.158 35.5144 69.4076 35.4134 69.4076 34.9778V34.0906C69.3598 33.6762 69.4607 33.1609 68.8127 33.1609ZM46.0026 37.5119C45.636 38.5744 44.9402 39.3925 42.6719 39.6369C39.9405 39.9298 37.1855 39.9298 34.4541 39.6369C31.5484 39.2757 31.3465 37.7722 31.2669 36.29C31.1819 34.6219 30.895 33.4584 33.3173 33.145C35.7396 32.8316 40.3611 33.0919 42.5657 33.2459C43.729 33.3256 45.6201 33.7081 45.9707 34.59C46.3085 35.5329 46.3197 36.5619 46.0026 37.5119ZM66.9428 36.306C66.8684 37.7882 66.6666 39.2916 63.7556 39.6529C61.0223 39.9457 58.2657 39.9457 55.5325 39.6529C53.2908 39.3925 52.5683 38.5532 52.2071 37.5278C51.8919 36.5833 51.9012 35.5605 52.2337 34.6219C52.5842 33.74 54.4754 33.3575 55.6387 33.2778C57.8432 33.1237 62.4647 32.8581 64.8817 33.1769C67.2987 33.4956 67.0172 34.6378 66.9428 36.306Z" fill="#052C35"/>
<path d="M59.3732 40.5612C57.5847 40.5788 55.7982 40.4384 54.0345 40.1415C52.3612 39.844 51.6813 38.6062 51.081 37.5118C50.5498 36.5556 50.1089 35.7321 49.1049 35.7321C48.1009 35.7321 47.6547 36.5556 47.1341 37.5118C46.5339 38.6009 45.8592 39.844 44.1806 40.1415C41.2126 40.6007 38.1995 40.6953 35.2085 40.4231C31.0173 40.1097 30.6029 38.3937 30.3851 37.4693C30.3851 37.3843 30.3426 37.2993 30.3214 37.2303C30.2085 36.6739 29.8874 36.1817 29.4236 35.8543C29.0199 35.6737 28.6853 35.5249 28.6853 34.9777V34.0905C28.6853 34.0374 28.6853 33.9896 28.6853 33.9365C28.6633 33.8034 28.6679 33.6672 28.6989 33.5359C28.7299 33.4046 28.7867 33.2807 28.8659 33.1715C28.9368 33.1055 29.0206 33.0549 29.112 33.0229C29.2034 32.9909 29.3005 32.9782 29.3971 32.9855C30.0424 32.9598 30.686 32.9013 31.3254 32.8102L32.4622 32.6827C33.7742 32.5446 35.7397 32.4596 37.7211 32.4596C39.5697 32.4596 41.259 32.534 42.6135 32.6668C43.7584 32.7793 44.8898 33.0016 45.992 33.3309C48.0157 33.9966 50.1994 33.9966 52.2231 33.3309C53.3254 33.0016 54.4567 32.7793 55.6016 32.6668C56.9562 32.534 58.6454 32.4596 60.4887 32.4596C62.4701 32.4596 64.4409 32.5446 65.753 32.6827L66.8951 32.8155C67.7503 32.9112 68.3665 32.9855 68.8128 32.9855C68.9096 32.9804 69.0064 32.9947 69.0977 33.0275C69.1889 33.0604 69.2726 33.1111 69.344 33.1768C69.4247 33.2863 69.4823 33.411 69.5133 33.5434C69.5444 33.6758 69.5482 33.8132 69.5246 33.9471V34.9777C69.5246 35.509 69.1899 35.6684 68.8074 35.8384C68.3283 36.1627 67.9962 36.6628 67.8831 37.2303C67.8831 37.3046 67.8406 37.3896 67.8194 37.48C67.591 38.399 67.1713 40.1362 62.9907 40.4231C61.7371 40.5134 60.5153 40.5612 59.3732 40.5612ZM49.1049 35.3762C50.3214 35.3762 50.842 36.3324 51.3944 37.3418C51.9469 38.3512 52.5896 39.52 54.0983 39.7909C55.841 40.0834 57.6061 40.222 59.3732 40.2053C60.51 40.2053 61.7211 40.1575 62.9801 40.0672C66.9057 39.7697 67.2722 38.2821 67.49 37.4109C67.49 37.3099 67.5379 37.2196 67.5591 37.1399C67.6206 36.8167 67.7463 36.5091 67.9288 36.2354C68.1113 35.9616 68.3469 35.7273 68.6215 35.5462C69.0359 35.3602 69.1527 35.2912 69.1527 35.0149V33.9524C69.1527 33.7452 69.1527 33.538 69.073 33.4212C69.0324 33.3883 68.9857 33.3638 68.9355 33.3493C68.8854 33.3347 68.8328 33.3302 68.7809 33.3362C68.125 33.311 67.4707 33.2524 66.8207 33.1609L65.6839 33.0334C65.3121 32.9962 64.8924 32.959 64.4303 32.9271L64.8818 32.9802C67.2722 33.2884 67.2032 34.4518 67.1129 35.9234V36.3112C67.0279 37.9528 66.7092 39.4615 63.7769 39.8228C62.4386 39.9775 61.0922 40.052 59.745 40.0459C58.3255 40.0483 56.9068 39.9738 55.4954 39.8228C53.0199 39.5412 52.3453 38.5212 52.0159 37.5649C51.6862 36.5788 51.6975 35.5105 52.0478 34.5315C52.5312 33.3255 55.2935 33.0971 55.6069 33.0759C58.0611 32.9059 60.2497 32.8262 61.9495 32.8262C61.4608 32.8262 60.9615 32.8262 60.4568 32.8262C58.6242 32.8262 56.9456 32.9005 55.6069 33.028C54.482 33.143 53.3704 33.3635 52.2869 33.6868C50.2001 34.3669 47.9513 34.3669 45.8645 33.6868C44.7812 33.3624 43.6696 33.1419 42.5445 33.028C41.2058 32.9005 39.5219 32.8262 37.6892 32.8262C37.1899 32.8262 36.6853 32.8262 36.1965 32.8262C37.9283 32.8262 40.0584 32.9059 42.5711 33.0759C42.8845 33.0759 45.6468 33.3255 46.1355 34.5315C46.4694 35.5151 46.4694 36.5814 46.1355 37.5649C45.8061 38.5212 45.1315 39.5412 42.656 39.8228C41.2534 39.973 39.8436 40.0475 38.4329 40.0459C37.0857 40.052 35.7394 39.9775 34.4011 39.8228C31.4582 39.4615 31.1448 37.9528 31.0651 36.3112V35.9181C30.9748 34.4518 30.9004 33.2884 33.2962 32.9802L33.753 32.9271C33.2908 32.959 32.8659 32.9962 32.494 33.0334L31.3626 33.1609C30.709 33.2525 30.0512 33.311 29.3918 33.3362C29.2912 33.3261 29.1906 33.3545 29.1102 33.4159C29.0199 33.5115 29.0252 33.7187 29.0306 33.9205C29.0306 33.9737 29.0306 34.0321 29.0306 34.0852V34.9724C29.0306 35.2752 29.1474 35.339 29.5618 35.5037C29.8433 35.6818 30.0862 35.9146 30.276 36.1884C30.4658 36.4622 30.5987 36.7713 30.6667 37.0974L30.7357 37.3631C30.9482 38.2556 31.3094 39.7431 35.2404 40.0193C38.2012 40.2878 41.1837 40.1951 44.1222 39.7431C45.6308 39.4722 46.247 38.3618 46.826 37.2887C47.4051 36.2156 47.8938 35.3762 49.1049 35.3762V35.3762ZM61.8061 33.1927C60.1487 33.1927 58.0239 33.2777 55.66 33.4371C54.2948 33.5327 52.6959 33.9684 52.409 34.6696C52.09 35.5686 52.0806 36.5485 52.3825 37.4534C52.6959 38.3512 53.2962 39.2118 55.5697 39.4722C56.9617 39.6224 58.3609 39.6969 59.761 39.6953C61.094 39.7013 62.4263 39.6268 63.7503 39.4722C66.4064 39.1428 66.6879 37.8784 66.7729 36.2846V35.8968C66.8632 34.4146 66.911 33.5965 64.8552 33.3309C63.8428 33.2211 62.8244 33.175 61.8061 33.1927V33.1927ZM36.4143 33.1927C35.3888 33.1778 34.3633 33.2275 33.344 33.3415C31.2829 33.6071 31.336 34.404 31.4263 35.9021L31.4529 36.2952C31.5272 37.889 31.8035 39.1428 34.4754 39.4828C35.7995 39.6376 37.1317 39.7121 38.4648 39.7059C39.8631 39.7075 41.2605 39.6331 42.6507 39.4828C44.919 39.2225 45.5193 38.3618 45.838 37.464C46.1452 36.5615 46.1452 35.5827 45.838 34.6802C45.5511 33.9684 43.9522 33.5434 42.587 33.4477C40.1594 33.2724 38.093 33.1927 36.4143 33.1927V33.1927Z" fill="#052C35"/>
<path d="M29.7637 143.099L35.9416 232.381H46.0983L52.7597 172.78C52.8766 171.781 53.3812 171.021 54.3533 171.005C55.3254 170.989 55.6335 171.802 56.0107 172.78L72.2657 232.381H83.0545L71.5538 143.099H29.7637Z" fill="#1B2F35"/>
<g opacity="0.56">
<path d="M58.1037 145.728C58.1036 145.953 58.0368 146.173 57.9117 146.36C57.7865 146.548 57.6087 146.693 57.4007 146.779C57.1926 146.865 56.9638 146.887 56.7431 146.843C56.5225 146.799 56.3199 146.69 56.1612 146.53C56.0024 146.371 55.8945 146.168 55.8513 145.947C55.808 145.726 55.8313 145.497 55.9181 145.29C56.005 145.082 56.1515 144.905 56.3392 144.78C56.5268 144.656 56.7471 144.59 56.9722 144.591C57.1212 144.591 57.2688 144.621 57.4064 144.678C57.544 144.735 57.669 144.819 57.7741 144.925C57.8793 145.03 57.9625 145.156 58.0191 145.294C58.0756 145.432 58.1044 145.579 58.1037 145.728Z" fill="#334F57"/>
</g>
<g opacity="0.76">
<path d="M72.2496 147.986H54.0291V143.099H53.1261V147.986H30.1035L30.146 148.64H56.7171L57.3545 165.64L57.5086 148.64H72.2071L72.2496 147.986Z" fill="#0D2528"/>
</g>
<path d="M54.1196 87.4019L55.862 80.7081L52.2073 78.5353L49.02 82.0575L52.0692 87.6144C52.0692 87.6144 52.7544 98.8717 52.3241 108.944C52.101 114.151 51.1289 129.753 51.1289 129.753L55.2936 138.2L59.1661 129.424C59.1661 129.424 57.8221 113.486 57.3175 108.174C56.3932 98.2395 54.1196 87.4019 54.1196 87.4019Z" fill="#AA0E0E"/>
<g opacity="0.26">
<path d="M58.8313 72.5694L55.3625 70.0459L52.2975 78.6788L42.8579 70.0459L39.3838 72.5694L45.8433 88.422L52.1965 79.6191L58.2736 87.7313L58.8313 72.5694Z" fill="#1F363D"/>
</g>
<path d="M58.5234 71.3314L55.1608 68.808L52.186 78.5565L58.0346 86.6103L58.5234 71.3314Z" fill="white"/>
<path d="M39.6919 71.3314L43.0544 68.808L52.1859 78.5565L46.0505 86.6103L39.6919 71.3314Z" fill="white"/>
<path d="M26.1141 106.676C28.7011 121.02 29.8697 156.954 29.8697 156.954C30.0663 157.156 42.4594 158.696 49.0942 158.696C49.0942 158.696 52.1592 119.41 49.8644 105.773C47.4156 91.1898 40.9242 70.7949 40.9242 70.7949C39.6265 71.1038 38.352 71.5032 37.1101 71.9902C32.8179 73.6424 21.3598 80.2406 26.1141 106.676Z" fill="#1F363D"/>
<g style="mix-blend-mode:multiply" opacity="0.22">
<path d="M72.0106 106.686L72.3719 155.471C72.17 155.673 70.093 157.926 63.4635 157.926C63.4635 157.926 62.6667 117.917 62.1727 107.324C61.3971 90.6691 57.0359 71.2358 57.0359 71.2358C58.3214 71.5333 74.4542 79.9378 72.0106 106.686Z" fill="#1F363D"/>
</g>
<path d="M73.3917 106.686L73.7529 155.472C73.551 155.673 71.474 157.926 64.8445 157.926C64.8445 157.926 64.0477 117.917 63.5537 107.324C62.7781 90.6691 57.0251 70.7949 57.0251 70.7949C58.3229 71.1038 59.5973 71.5032 60.8392 71.9902C65.1314 73.6424 75.8087 79.9378 73.3917 106.686Z" fill="#1F363D"/>
<path d="M62.7676 72.6862L56.7224 70.0299C56.7224 70.0299 58.3904 76.814 60.8233 87.0619C62.8844 95.7745 63.9203 116.621 63.9203 116.621L67.6387 91.0623L62.4276 85.8666L67.2085 85.4416L62.7676 72.6862Z" fill="#334F57"/>
<path d="M67.7875 121.009C67.7875 121.234 67.7207 121.454 67.5955 121.641C67.4704 121.828 67.2925 121.974 67.0845 122.06C66.8765 122.146 66.6476 122.168 66.427 122.124C66.2063 122.079 66.0038 121.971 65.845 121.811C65.6862 121.652 65.5784 121.448 65.5351 121.228C65.4919 121.007 65.5151 120.778 65.602 120.57C65.6888 120.363 65.8354 120.185 66.023 120.061C66.2107 119.937 66.431 119.871 66.656 119.872C66.8051 119.872 66.9526 119.902 67.0902 119.959C67.2279 120.016 67.3528 120.1 67.458 120.206C67.5631 120.311 67.6463 120.437 67.7029 120.574C67.7594 120.712 67.7882 120.86 67.7875 121.009Z" fill="#334F57"/>
<path d="M68.818 134.205C68.818 134.43 68.7512 134.65 68.6261 134.838C68.5009 135.025 68.323 135.17 68.115 135.256C67.907 135.342 67.6781 135.364 67.4575 135.32C67.2368 135.276 67.0343 135.167 66.8755 135.007C66.7167 134.848 66.6089 134.645 66.5656 134.424C66.5224 134.203 66.5456 133.974 66.6325 133.767C66.7194 133.559 66.8659 133.382 67.0535 133.258C67.2412 133.133 67.4615 133.067 67.6865 133.068C67.8356 133.068 67.9831 133.098 68.1208 133.155C68.2584 133.212 68.3834 133.296 68.4885 133.402C68.5936 133.507 68.6769 133.633 68.7334 133.771C68.79 133.909 68.8187 134.056 68.818 134.205Z" fill="#334F57"/>
<path d="M35.8034 76.644C35.3693 76.0901 34.7869 75.6708 34.124 75.4348C33.4611 75.1987 32.7448 75.1557 32.0584 75.3106C23.6281 79.4012 11.0544 103.467 14.5285 119.405C15.83 125.365 24.3559 122.029 24.7702 117.917C25.3014 112.328 26.0717 105.252 32.2071 93.8938C34.2204 90.1751 37.2855 83.0191 37.227 80.5275C37.2097 79.1084 36.7073 77.738 35.8034 76.644Z" fill="#273E44"/>
<g style="mix-blend-mode:multiply" opacity="0.22">
<path d="M34.5657 73.2334L40.409 69.9237C43.6622 77.2529 45.9977 84.956 47.3625 92.8579C49.2536 104.572 50.0717 117.641 50.0717 117.641L39.2297 93.5008L42.9216 87.4551H37.2695L34.5657 73.2334Z" fill="#1F363D"/>
</g>
<path d="M34.9587 72.8455L41.0676 69.2861C44.3045 76.6175 46.6239 84.3206 47.9733 92.2204C49.8645 103.935 50.6825 117.003 50.6825 117.003L39.8405 92.8632L43.559 86.8175H37.9335L34.9587 72.8455Z" fill="#334F57"/>
<g opacity="0.25">
<path d="M77.0094 76.1287H60.7863C60.4445 76.128 60.1058 76.1946 59.7898 76.3248C59.4737 76.455 59.1864 76.6461 58.9442 76.8874C58.702 77.1286 58.5097 77.4152 58.3782 77.7307C58.2468 78.0463 58.1787 78.3846 58.178 78.7265L52.2179 106.208C51.6036 106.523 50.9616 106.781 50.3002 106.979C50.3368 106.418 50.4586 105.866 50.6614 105.342C50.9642 104.535 51.2511 104.094 51.9629 102.086C52.8181 99.6792 50.9005 99.9607 50.9005 99.9607C50.407 101.833 49.3811 103.521 47.947 104.822C46.0027 106.686 45.6575 109.359 45.6043 110.517L44.7066 111.048L44.5047 110.549C44.5047 110.549 38.0346 112.61 26.9749 113.901L28.2391 125.546C41.5193 123.681 46.9164 116.515 46.9164 116.515L46.5711 115.665C48.1223 115.293 51.2033 114.496 55.0014 113.21C55.667 112.984 56.3063 112.686 56.9085 112.323L57.2059 112.137C57.5367 111.918 57.8559 111.682 58.1621 111.43H70.4543C71.1451 111.43 71.8077 111.156 72.2967 110.668C72.7857 110.18 73.0611 109.518 73.0625 108.827L79.5911 78.7265C79.5897 78.0407 79.3177 77.3831 78.8343 76.8967C78.3509 76.4103 77.6951 76.1343 77.0094 76.1287V76.1287Z" fill="#00070A"/>
</g>
<path d="M73.0836 107.271C73.0822 107.962 72.8068 108.624 72.3178 109.112C71.8288 109.6 71.1662 109.874 70.4754 109.874L52.5311 109.847C51.8403 109.846 51.1783 109.571 50.6903 109.081C50.2023 108.592 49.9282 107.93 49.9282 107.239L56.4568 77.1381C56.4568 76.7958 56.5243 76.4568 56.6554 76.1407C56.7866 75.8245 56.9788 75.5373 57.221 75.2955C57.4633 75.0537 57.7509 74.8621 58.0673 74.7315C58.3837 74.601 58.7227 74.5342 59.065 74.5349H77.0092C77.3515 74.5349 77.6904 74.6024 78.0066 74.7336C78.3227 74.8647 78.6099 75.0569 78.8517 75.2992C79.0934 75.5415 79.2851 75.8291 79.4155 76.1456C79.546 76.462 79.6129 76.8011 79.6122 77.1434L73.0836 107.271Z" fill="#C4C9CC"/>
<path d="M73.0837 107.271L79.6123 77.17C79.613 76.8277 79.5462 76.4886 79.4157 76.1722C79.2852 75.8557 79.0936 75.5681 78.8518 75.3259C78.61 75.0836 78.3228 74.8913 78.0067 74.7602C77.6905 74.629 77.3516 74.5615 77.0094 74.5615H60.7863C60.4444 74.5608 60.1058 74.6275 59.7898 74.7577C59.4737 74.8878 59.1864 75.079 58.9442 75.3202C58.702 75.5615 58.5096 75.848 58.3782 76.1636C58.2467 76.4792 58.1787 76.8175 58.178 77.1594L51.6548 107.26C51.6646 107.946 51.9448 108.599 52.4343 109.079C52.9238 109.558 53.583 109.825 54.2683 109.821L70.4914 109.847C71.1749 109.843 71.8295 109.571 72.3143 109.089C72.7991 108.607 73.0754 107.954 73.0837 107.271V107.271Z" fill="#E6E6E6"/>
<path d="M61.8858 103.435C61.5777 103.042 61.0943 103.366 61.0943 103.366C61.0943 103.366 62.1886 101.485 61.3864 101.129C61.2176 101.045 61.0286 101.01 60.8408 101.028C60.653 101.046 60.474 101.116 60.324 101.23C60.324 101.23 60.7809 99.9607 59.8194 99.6791C58.9694 99.4294 58.417 100.529 58.417 100.529C58.417 100.529 58.417 99.626 57.668 99.5782C57.2058 99.5463 56.7224 100.163 55.9628 101.284C54.6109 103.271 52.6024 104.719 50.2895 105.374C50.3261 104.814 50.4479 104.262 50.6507 103.738C50.9535 102.93 51.2404 102.489 51.9522 100.481C52.8074 98.0748 50.8898 98.3563 50.8898 98.3563C50.3963 100.228 49.3703 101.917 47.9363 103.217C45.992 105.082 45.6467 107.754 45.5936 108.912C44.1647 109.741 42.9376 110.48 42.9376 110.48L41.9336 116.467L45.498 114.289C48.7191 113.559 51.8985 112.656 55.0226 111.585C55.6882 111.358 56.3275 111.06 56.9296 110.697L57.2271 110.511C58.7151 109.519 59.9812 108.23 60.9456 106.724C61.0844 106.514 61.1851 106.282 61.243 106.038C62.1248 104.487 62.2364 103.881 61.8858 103.435Z" fill="#FCC49A"/>
<path d="M44.5153 108.95C44.5153 108.95 35.7663 111.744 21.243 112.86C14.0292 113.417 14.0186 115.867 14.7517 119.298C15.4847 122.73 18.3692 124.77 24.595 124.404C40.4197 123.474 46.9376 114.91 46.9376 114.91L44.5153 108.95Z" fill="#273E44"/>
</svg>
