<svg width="27" height="24" viewBox="0 0 27 24" fill="none" xmlns="http://www.w3.org/2000/svg">
<path d="M24.5145 0H12.6527C11.2823 0 10.1672 1.11504 10.1672 2.48552V10.0947L7.96474 8.99945C7.89038 8.96237 7.81478 8.92735 7.73856 8.89419C8.38518 8.21915 8.78378 7.30453 8.78378 6.29826C8.78378 4.22699 7.09875 2.54176 5.02748 2.54176C2.95601 2.54176 1.27098 4.22699 1.27098 6.29826C1.27098 7.42381 1.76928 8.43482 2.55618 9.12387C1.10701 9.93919 0 11.5297 0 13.5V16.0418C0 17.136 0.710472 18.0673 1.6945 18.3983V22.82C1.6945 23.2567 2.04861 23.611 2.48552 23.611H7.56903C8.00594 23.611 8.36005 23.2567 8.36005 22.82V13.9324L10.8925 15.1984C11.8617 15.6829 13.1764 15.3941 13.7709 14.291H16.607L13.6038 22.5495C13.4545 22.9601 13.6664 23.4141 14.077 23.5632C14.5462 23.734 14.9636 23.4396 15.0907 23.0902L18.2904 14.291H18.8449L22.0774 23.0927C22.2001 23.4266 22.6144 23.7381 23.0927 23.5624C23.5026 23.4118 23.7132 22.9574 23.5624 22.5472L20.5302 14.291H24.5145C25.8584 14.291 27 13.2069 27 11.8055V2.48552C27 1.08394 25.8584 0 24.5145 0ZM2.85301 6.29826C2.85301 5.09917 3.82839 4.12379 5.02728 4.12379C6.22636 4.12379 7.20174 5.09917 7.20174 6.29826C7.20174 7.49714 6.22636 8.47252 5.02728 8.47252C3.82839 8.47252 2.85301 7.49714 2.85301 6.29826ZM12.4189 13.4452C12.4169 13.451 12.4148 13.4569 12.413 13.4629C12.359 13.6135 12.2371 13.7404 12.0877 13.8018C11.9297 13.8661 11.7519 13.8593 11.6001 13.7834C10.096 13.031 7.92252 11.9452 7.92252 11.9452C7.39764 11.6827 6.77802 12.065 6.77802 12.6527V22.029H3.27654V17.7363C3.27654 17.2996 2.92223 16.9452 2.48552 16.9452C1.98722 16.9452 1.58203 16.5401 1.58203 16.0418V13.5C1.58203 11.5672 3.15582 10.0548 5.02728 10.0548H5.72621C6.25644 10.0548 6.78605 10.1792 7.25922 10.4155C7.25922 10.4155 11.1828 12.3666 12.1821 12.8643C12.3961 12.9706 12.4978 13.2203 12.4189 13.4452ZM25.418 11.8055C25.418 12.0471 25.3242 12.2739 25.1537 12.4445C24.9858 12.6126 24.7528 12.709 24.5145 12.709H13.9429C13.9414 12.7047 13.9404 12.7003 13.939 12.6962L15.9021 8.77018C16.0974 8.37941 15.9392 7.90439 15.5484 7.7089C15.1578 7.51362 14.6826 7.67182 14.4871 8.06259L12.8128 11.411C12.5007 11.2555 12.138 11.0748 11.7493 10.8816V2.48552C11.7493 1.98743 12.1544 1.58203 12.6527 1.58203H24.5145C24.7528 1.58203 24.9858 1.67844 25.1539 1.84694C25.3242 2.01709 25.418 2.24389 25.418 2.48552V11.8055Z" fill="#00B4B1"/>
<path d="M22.82 3.38892H14.3473C13.9104 3.38892 13.5563 3.74302 13.5563 4.17993C13.5563 4.61684 13.9104 4.97095 14.3473 4.97095H22.82C23.2567 4.97095 23.611 4.61684 23.611 4.17993C23.611 3.74302 23.2569 3.38892 22.82 3.38892Z" fill="#00B4B1"/>
<path d="M22.82 6.35449H18.5835C18.1468 6.35449 17.7925 6.7086 17.7925 7.14551C17.7925 7.58242 18.1468 7.93652 18.5835 7.93652H22.82C23.2567 7.93652 23.611 7.58242 23.611 7.14551C23.611 6.7086 23.2569 6.35449 22.82 6.35449Z" fill="#00B4B1"/>
<path d="M22.82 9.32007H18.5835C18.1468 9.32007 17.7925 9.67417 17.7925 10.1111C17.7925 10.5478 18.1468 10.9021 18.5835 10.9021H22.82C23.2567 10.9021 23.611 10.5478 23.611 10.1111C23.611 9.67417 23.2569 9.32007 22.82 9.32007Z" fill="#00B4B1"/>
</svg>
